<?xml version="1.0" standalone="no"?>
<!DOCTYPE svg PUBLIC "-//W3C//DTD SVG 20010904//EN"
 "http://www.w3.org/TR/2001/REC-SVG-20010904/DTD/svg10.dtd">
<svg version="1.0" xmlns="http://www.w3.org/2000/svg"
 width="500.000000pt" height="500.000000pt" viewBox="0 0 500.000000 500.000000"
 preserveAspectRatio="xMidYMid meet">

<g transform="translate(0.000000,500.000000) scale(0.100000,-0.100000)"
fill="#000000" stroke="none">
<path d="M307 4143 c-3 -4 -48 -150 -100 -323 -53 -173 -99 -323 -102 -332 -7
-17 45 -18 1006 -18 1113 0 1077 2 1201 -61 101 -51 212 -170 275 -294 37 -72
83 -226 100 -329 23 -151 14 -416 -21 -551 -86 -337 -248 -539 -483 -600 -48
-13 -162 -15 -690 -15 l-633 0 -2 788 -3 789 -200 -54 c-110 -30 -279 -76
-375 -102 l-175 -48 -3 -1027 -2 -1027 1127 4 1128 3 105 26 c58 14 136 38
173 52 455 172 762 601 852 1194 20 130 21 453 1 594 -88 625 -437 1109 -911
1267 -207 68 -135 64 -1252 68 -556 2 -1014 0 -1016 -4z"/>
<path d="M3840 1475 l0 -535 535 0 535 0 0 535 0 535 -535 0 -535 0 0 -535z"/>
</g>
</svg>
