<svg width="48" height="48" viewBox="0 0 48 48" fill="none" xmlns="http://www.w3.org/2000/svg">
<rect x="39.8546" y="12.0908" width="4.14545" height="11.0545" transform="rotate(90 39.8546 12.0908)" fill="#31B4EC"/>
<rect x="17.0546" y="12.0908" width="4.14545" height="11.0545" transform="rotate(90 17.0546 12.0908)" fill="#31B4EC"/>
<rect x="42.6182" y="22.4546" width="4.14545" height="11.0545" transform="rotate(90 42.6182 22.4546)" fill="#31B4EC"/>
<rect x="19.8182" y="22.4546" width="4.14545" height="11.0545" transform="rotate(90 19.8182 22.4546)" fill="#31B4EC"/>
<rect x="17.4" y="2.76343" width="4.14545" height="11.0545" fill="#31B4EC"/>
<rect x="17.4" y="26.9453" width="4.14545" height="11.0545" fill="#31B4EC"/>
<rect x="27.7637" width="4.14545" height="11.0545" fill="#31B4EC"/>
<rect x="27.7637" y="24.1819" width="4.14545" height="11.0545" fill="#31B4EC"/>
<rect x="11.1818" y="6.21826" width="26.2545" height="26.2545" rx="3" fill="url(#paint0_linear_58_17)"/>
<path d="M19.7349 24.8572H17.09L20.5254 14.6754H23.8017L27.237 24.8572H24.5922L22.2008 17.2407H22.1213L19.7349 24.8572ZM19.3819 20.8501H24.9103V22.7194H19.3819V20.8501ZM28.347 24.8572V17.2208H30.7781V24.8572H28.347ZM29.565 16.3309C29.2236 16.3309 28.9303 16.2182 28.685 15.9928C28.4398 15.7641 28.3171 15.489 28.3171 15.1675C28.3171 14.8494 28.4398 14.5776 28.685 14.3522C28.9303 14.1235 29.2236 14.0092 29.565 14.0092C29.9097 14.0092 30.203 14.1235 30.445 14.3522C30.6902 14.5776 30.8129 14.8494 30.8129 15.1675C30.8129 15.489 30.6902 15.7641 30.445 15.9928C30.203 16.2182 29.9097 16.3309 29.565 16.3309Z" fill="white"/>
<defs>
<linearGradient id="paint0_linear_58_17" x1="24.3091" y1="6.21826" x2="24.3091" y2="32.4728" gradientUnits="userSpaceOnUse">
<stop stop-color="#35B8ED"/>
<stop offset="1" stop-color="#0084DC"/>
</linearGradient>
</defs>
</svg>
