<svg width="48" height="48" viewBox="0 0 48 48" fill="none" xmlns="http://www.w3.org/2000/svg">
<path d="M17.8908 0.726735H28.74L17.4775 34.0963C17.3617 34.4392 17.1413 34.7372 16.8474 34.9483C16.5534 35.1593 16.2006 35.2729 15.8387 35.273H7.39538C7.12117 35.273 6.8509 35.2078 6.60692 35.0826C6.36294 34.9575 6.15226 34.776 5.99232 34.5533C5.83238 34.3306 5.72777 34.073 5.68715 33.8018C5.64653 33.5306 5.67106 33.2536 5.75871 32.9938L16.2516 1.9034C16.3673 1.56036 16.5877 1.26226 16.8818 1.0511C17.1759 0.839932 17.5288 0.726339 17.8908 0.726318V0.726735Z" fill="url(#paint0_linear_55_381)"/>
<path d="M33.6562 23.1086H16.452C16.2921 23.1085 16.1358 23.1565 16.0035 23.2464C15.8712 23.3363 15.7691 23.464 15.7104 23.6128C15.6518 23.7616 15.6392 23.9246 15.6745 24.0806C15.7098 24.2366 15.7913 24.3783 15.9083 24.4874L26.9633 34.8057C27.2852 35.106 27.709 35.2729 28.1491 35.2728H37.8908L33.6562 23.1086Z" fill="#0078D4"/>
<path d="M17.8908 0.726575C17.5248 0.725171 17.168 0.840824 16.8724 1.05664C16.5768 1.27246 16.358 1.57713 16.2479 1.92616L5.77162 32.9653C5.67807 33.2261 5.6487 33.5055 5.68599 33.7801C5.72329 34.0546 5.82615 34.3161 5.98588 34.5424C6.14561 34.7688 6.3575 34.9533 6.60364 35.0805C6.84978 35.2076 7.12292 35.2736 7.39995 35.2728H16.0612C16.3838 35.2152 16.6853 35.073 16.9349 34.8607C17.1845 34.6484 17.3733 34.3736 17.482 34.0645L19.5712 27.9074L27.0337 34.8678C27.3464 35.1265 27.7387 35.2695 28.1445 35.2728H37.8499L33.5933 23.1087L21.1845 23.1116L28.7791 0.726575H17.8908Z" fill="url(#paint1_linear_55_381)"/>
<path d="M31.7479 1.90156C31.6324 1.55908 31.4123 1.26147 31.1187 1.05068C30.8251 0.839882 30.4727 0.726521 30.1113 0.726563H18.02C18.3815 0.726583 18.7338 0.839969 19.0274 1.05076C19.321 1.26154 19.5411 1.55911 19.6567 1.90156L30.15 32.9932C30.2377 33.2531 30.2623 33.5301 30.2217 33.8014C30.1811 34.0726 30.0766 34.3303 29.9166 34.5531C29.7567 34.7759 29.546 34.9575 29.302 35.0827C29.058 35.2079 28.7876 35.2732 28.5134 35.2732H40.605C40.8793 35.2732 41.1495 35.2078 41.3935 35.0825C41.6375 34.9573 41.8481 34.7757 42.008 34.5529C42.1679 34.3301 42.2724 34.0725 42.313 33.8013C42.3536 33.53 42.329 33.2531 42.2413 32.9932L31.7479 1.90156Z" fill="url(#paint2_linear_55_381)"/>
<defs>
<linearGradient id="paint0_linear_55_381" x1="21.845" y1="3.28674" x2="10.5779" y2="36.5726" gradientUnits="userSpaceOnUse">
<stop stop-color="#114A8B"/>
<stop offset="1" stop-color="#0669BC"/>
</linearGradient>
<linearGradient id="paint1_linear_55_381" x1="25.3645" y1="18.7987" x2="22.7583" y2="19.6799" gradientUnits="userSpaceOnUse">
<stop stop-opacity="0.3"/>
<stop offset="0.071" stop-opacity="0.2"/>
<stop offset="0.321" stop-opacity="0.1"/>
<stop offset="0.623" stop-opacity="0.05"/>
<stop offset="1" stop-opacity="0"/>
</linearGradient>
<linearGradient id="paint2_linear_55_381" x1="23.9313" y1="2.31573" x2="36.2992" y2="35.2661" gradientUnits="userSpaceOnUse">
<stop stop-color="#3CCBF4"/>
<stop offset="1" stop-color="#2892DF"/>
</linearGradient>
</defs>
</svg>
