<svg width="48" height="48" viewBox="0 0 48 48" fill="none" xmlns="http://www.w3.org/2000/svg">
<g clip-path="url(#clip0_52_58)">
<path d="M34.97 6.54002L24.82 0.680017C24.0413 0.232283 23.1583 -0.00226403 22.26 1.64726e-05C21.3617 -0.00226403 20.4787 0.232283 19.7 0.680017L9.56001 6.54002C8.78481 6.99032 8.14031 7.63482 7.69 8.41002C7.25666 9.19278 7.036 10.0754 7.05001 10.97V22.69C7.05124 23.5891 7.28922 24.4721 7.74001 25.25C8.18278 26.0336 8.82883 26.6831 9.61 27.13L19.76 32.98C20.5379 33.4308 21.4209 33.6688 22.32 33.67C23.2191 33.6688 24.1021 33.4308 24.88 32.98L35.04 27.13C35.8156 26.6758 36.46 26.028 36.91 25.25C37.3608 24.4721 37.5988 23.5891 37.6 22.69V10.97C37.5907 10.0707 37.3496 9.18897 36.9 8.41002C36.4488 7.63212 35.8003 6.98707 35.02 6.54002H34.97Z" fill="url(#paint0_linear_52_58)"/>
<path d="M39.68 15.12L32.55 11C31.921 10.6473 31.211 10.4647 30.49 10.47C29.7671 10.4708 29.057 10.6604 28.43 11.02L21.3 15.14C20.6785 15.5016 20.1616 16.0185 19.8 16.64C19.4336 17.2642 19.2436 17.9762 19.25 18.7V26.93C19.2484 27.6531 19.4382 28.3638 19.8 28.99C20.1625 29.6055 20.6796 30.1157 21.3 30.47L28.43 34.58C29.0544 34.947 29.7657 35.1404 30.49 35.14C31.2143 35.1404 31.9256 34.947 32.55 34.58L39.68 30.47C40.3093 30.1108 40.8308 29.5893 41.19 28.96C41.5505 28.3328 41.7434 27.6233 41.75 26.9V18.68C41.7457 17.9563 41.5527 17.2462 41.19 16.62C40.8275 15.9958 40.3066 15.4783 39.68 15.12Z" fill="url(#paint1_linear_52_58)"/>
<path d="M21.59 5.78002L23.65 4.65002L32.45 22.9L31.74 23.68H12.33L12.55 21.34H28.91L21.59 5.78002Z" fill="url(#paint2_linear_52_58)"/>
<path d="M12.13 25.5501C12.9054 25.5474 13.648 25.2375 14.1954 24.6884C14.7427 24.1392 15.05 23.3954 15.05 22.6201C15.05 22.2353 14.9742 21.8543 14.827 21.4988C14.6797 21.1433 14.4639 20.8203 14.1918 20.5482C13.9198 20.2762 13.5967 20.0603 13.2413 19.9131C12.8858 19.7658 12.5048 19.6901 12.12 19.6901C11.7352 19.6901 11.3542 19.7658 10.9987 19.9131C10.6433 20.0603 10.3203 20.2762 10.0482 20.5482C9.7761 20.8203 9.56028 21.1433 9.41303 21.4988C9.26579 21.8543 9.19 22.2353 9.19 22.6201C9.19 23.0057 9.26611 23.3875 9.41399 23.7436C9.56186 24.0998 9.77858 24.4232 10.0517 24.6954C10.3248 24.9676 10.649 25.1832 11.0057 25.3299C11.3623 25.4766 11.7444 25.5514 12.13 25.5501Z" fill="white"/>
<path d="M30.49 27.37C31.6995 27.3647 32.8578 26.8812 33.7121 26.025C34.5664 25.1688 35.0474 24.0095 35.05 22.8C35.05 21.5853 34.5675 20.4203 33.7086 19.5614C32.8496 18.7025 31.6847 18.22 30.47 18.22C29.2553 18.22 28.0904 18.7025 27.2315 19.5614C26.3726 20.4203 25.89 21.5853 25.89 22.8C25.8913 23.4023 26.0114 23.9984 26.2434 24.5542C26.4754 25.11 26.8148 25.6146 27.2421 26.0391C27.6694 26.4636 28.1762 26.7997 28.7335 27.028C29.2908 27.2564 29.8877 27.3726 30.49 27.37Z" fill="white"/>
<path d="M22.5 7.92006C23.2754 7.91741 24.018 7.60755 24.5654 7.05836C25.1127 6.50916 25.42 5.76541 25.42 4.99006C25.42 4.2147 25.1127 3.47096 24.5654 2.92177C24.018 2.37257 23.2754 2.0627 22.5 2.06006C21.7229 2.06006 20.9777 2.36875 20.4282 2.91824C19.8787 3.46772 19.57 4.21297 19.57 4.99006C19.57 5.76714 19.8787 6.5124 20.4282 7.06188C20.9777 7.61136 21.7229 7.92006 22.5 7.92006Z" fill="white"/>
</g>
<defs>
<linearGradient id="paint0_linear_52_58" x1="24.89" y1="-0.709983" x2="18.95" y2="39.15" gradientUnits="userSpaceOnUse">
<stop stop-color="#32BEDD"/>
<stop offset="1" stop-color="#198AB3"/>
</linearGradient>
<linearGradient id="paint1_linear_52_58" x1="27.88" y1="14.42" x2="35" y2="37.23" gradientUnits="userSpaceOnUse">
<stop stop-color="#50E6FF"/>
<stop offset="1" stop-color="#32BEDD"/>
</linearGradient>
<linearGradient id="paint2_linear_52_58" x1="6.47002" y1="8.03002" x2="31.34" y2="21.27" gradientUnits="userSpaceOnUse">
<stop stop-color="white"/>
<stop offset="1" stop-color="#9CEBFF"/>
</linearGradient>
<clipPath id="clip0_52_58">
<rect width="34.75" height="35.15" fill="white" transform="translate(7)"/>
</clipPath>
</defs>
</svg>
