<svg width="48" height="48" viewBox="0 0 48 48" fill="none" xmlns="http://www.w3.org/2000/svg">
<path d="M21.76 4.56995C25.9151 4.5726 29.8993 6.22439 32.8375 9.16251C35.7756 12.1006 37.4274 16.0848 37.43 20.24C37.4274 24.3951 35.7756 28.3793 32.8375 31.3174C29.8993 34.2555 25.9151 35.9073 21.76 35.91C17.6049 35.9073 13.6207 34.2555 10.6826 31.3174C7.74447 28.3793 6.09268 24.3951 6.09003 20.24C6.09268 16.0848 7.74447 12.1006 10.6826 9.16251C13.6207 6.22439 17.6049 4.5726 21.76 4.56995Z" fill="#0078D4"/>
<path fill-rule="evenodd" clip-rule="evenodd" d="M41.78 20.08C41.8601 19.3895 41.9002 18.695 41.9 18C41.9013 15.6489 41.4392 13.3207 40.5401 11.1484C39.641 8.97607 38.3226 7.00227 36.6602 5.33984C34.9977 3.67741 33.0239 2.35896 30.8516 1.45986C28.6793 0.560771 26.351 0.0986639 24 0.0999784C23.3049 0.0997853 22.6105 0.139855 21.92 0.219981C21.6498 0.332731 21.4192 0.523078 21.2572 0.76694C21.0952 1.0108 21.0092 1.29723 21.01 1.58998V20.99H40.41C40.7028 20.9908 40.9892 20.9048 41.2331 20.7428C41.4769 20.5808 41.6673 20.3502 41.78 20.08Z" fill="#2EB7F1"/>
<path d="M21.01 11.2899H29.2C29.4016 11.2871 29.6018 11.3253 29.7882 11.402C29.9747 11.4788 30.1436 11.5926 30.2848 11.7366C30.4259 11.8806 30.5364 12.0517 30.6095 12.2397C30.6826 12.4276 30.7168 12.6284 30.71 12.8299V21.0299H21.01V11.2899Z" fill="#91EFFF"/>
</svg>
