<svg width="48" height="48" viewBox="0 0 48 48" fill="none" xmlns="http://www.w3.org/2000/svg">
<path d="M7.67999 2.92995C7.38319 2.62873 7.2168 2.22283 7.2168 1.79995C7.2168 1.37707 7.38319 0.971173 7.67999 0.669951C7.98379 0.37005 8.39309 0.201294 8.81998 0.199951H39.2C39.4118 0.201238 39.6213 0.244572 39.8162 0.32744C40.0111 0.410308 40.1877 0.53106 40.3356 0.682692C40.4835 0.834323 40.5998 1.01381 40.6778 1.21076C40.7558 1.4077 40.794 1.61816 40.79 1.82995V32.23C40.79 32.6526 40.6228 33.058 40.3249 33.3578C40.027 33.6576 39.6226 33.8273 39.2 33.83C38.9884 33.8304 38.7788 33.7891 38.5832 33.7084C38.3876 33.6278 38.2098 33.5094 38.06 33.36L7.67999 2.92995Z" fill="#D83B01"/>
<path d="M7.69003 10.16C7.54037 10.0113 7.4216 9.83447 7.34055 9.63967C7.25949 9.44488 7.21777 9.23599 7.21777 9.02501C7.21777 8.81403 7.25949 8.60513 7.34055 8.41034C7.4216 8.21555 7.54037 8.03871 7.69003 7.89001C7.83849 7.74226 8.01487 7.62551 8.20886 7.54654C8.40285 7.46757 8.6106 7.42796 8.82004 7.43001H31.98C32.1905 7.42868 32.3992 7.46916 32.5939 7.54909C32.7886 7.62903 32.9655 7.74684 33.1144 7.89568C33.2632 8.04451 33.381 8.22143 33.461 8.41615C33.5409 8.61087 33.5814 8.81952 33.58 9.03001V32.2C33.5814 32.4105 33.5409 32.6191 33.461 32.8139C33.381 33.0086 33.2632 33.1855 33.1144 33.3343C32.9655 33.4832 32.7886 33.601 32.5939 33.6809C32.3992 33.7609 32.1905 33.8013 31.98 33.8C31.5562 33.7982 31.1502 33.6293 30.85 33.33L7.69003 10.16Z" fill="#E46027"/>
<path d="M7.68005 17.34C7.38083 17.04 7.21277 16.6337 7.21277 16.21C7.21277 15.7863 7.38083 15.3799 7.68005 15.08C7.82802 14.9309 8.00404 14.8126 8.198 14.7319C8.39195 14.6512 8.59997 14.6098 8.81003 14.61H24.75C25.1744 14.61 25.5814 14.7786 25.8814 15.0786C26.1815 15.3787 26.35 15.7856 26.35 16.21V32.21C26.3514 32.4205 26.3109 32.6291 26.231 32.8238C26.151 33.0186 26.0332 33.1955 25.8844 33.3443C25.7355 33.4932 25.5586 33.611 25.3639 33.6909C25.1692 33.7708 24.9605 33.8113 24.75 33.81C24.3262 33.8082 23.9202 33.6393 23.6201 33.34L7.68005 17.34Z" fill="#F9A36D"/>
</svg>
