<svg width="48" height="48" viewBox="0 0 48 48" fill="none" xmlns="http://www.w3.org/2000/svg">
<path fill-rule="evenodd" clip-rule="evenodd" d="M17.41 23.66V5.37001C17.4084 4.01006 16.8918 2.7012 15.9641 1.70675C15.0365 0.712302 13.7666 0.106065 12.41 0.0100098H23.88C25.5907 0.0100098 27.2313 0.68956 28.4409 1.89917C29.6505 3.10878 30.33 4.74936 30.33 6.46001V24.73C30.3244 26.0931 30.8383 27.4071 31.7672 28.4046C32.696 29.4022 33.9701 30.0085 35.33 30.1H23.86C22.1494 30.1 20.5088 29.4205 19.2992 28.2108C18.0896 27.0012 17.41 25.3607 17.41 23.65" fill="#17A6EB"/>
<path d="M35.68 30.1099C37.1042 30.1099 38.4701 29.5442 39.4772 28.5371C40.4842 27.53 41.05 26.1642 41.05 24.74V12.8999C41.05 11.191 40.3718 9.55197 39.1644 8.34264C37.957 7.13332 36.3189 6.4526 34.61 6.44995H30.31V24.7299C30.31 26.1542 30.8758 27.52 31.8828 28.5271C32.8899 29.5342 34.2558 30.0999 35.68 30.0999" fill="#8FEBFF"/>
<path d="M17.41 23.66V5.37001C17.41 4.66397 17.2708 3.96486 17.0003 3.31269C16.7298 2.66052 16.3334 2.06809 15.8336 1.56931C15.3339 1.07053 14.7408 0.67518 14.0881 0.405901C13.4354 0.136622 12.736 -0.00130548 12.03 9.31195e-06C11.324 -0.00130548 10.6246 0.136622 9.97192 0.405901C9.31925 0.67518 8.72609 1.07053 8.22638 1.56931C7.72667 2.06809 7.33022 2.66052 7.05972 3.31269C6.78923 3.96486 6.65002 4.66397 6.65002 5.37001V17.2C6.65266 18.9108 7.33272 20.5508 8.54147 21.7615C9.75023 22.9721 11.3893 23.6547 13.1 23.66H17.41Z" fill="#245999"/>
</svg>
