<svg width="48" height="48" viewBox="0 0 48 48" fill="none" xmlns="http://www.w3.org/2000/svg">
<path d="M13.4913 0.926229C13.6297 0.672578 13.8339 0.460989 14.0826 0.313799C14.3312 0.166609 14.615 0.0892781 14.9039 0.0899704H32.9852C33.2684 0.0902162 33.5466 0.164362 33.7924 0.305081C34.0381 0.445799 34.2429 0.648217 34.3865 0.892327L43.2124 16.1145C43.349 16.3578 43.4208 16.6322 43.4208 16.9112C43.4208 17.1903 43.349 17.4646 43.2124 17.7079L36.0703 30.4778C35.9689 30.6628 35.8318 30.8259 35.6669 30.9575C35.502 31.0891 35.3126 31.1866 35.1097 31.2444C34.9068 31.3022 34.6944 31.3192 34.4849 31.2943C34.2754 31.2694 34.0729 31.2031 33.8893 31.0994C33.6668 30.9764 33.4769 30.8021 33.3355 30.5908L25.5832 18.8945C25.4669 18.7134 25.3152 18.5578 25.1372 18.4369C24.9591 18.316 24.7584 18.2325 24.5472 18.1913C24.336 18.1501 24.1187 18.1522 23.9082 18.1973C23.6978 18.2424 23.4988 18.3296 23.323 18.4538C23.1441 18.5648 22.9933 18.7156 22.8823 18.8945L14.9717 30.5908C14.8544 30.7707 14.7022 30.9251 14.5241 31.0451C14.346 31.165 14.1456 31.248 13.9348 31.2891C13.7241 31.3302 13.5072 31.3286 13.2971 31.2844C13.087 31.2401 12.8878 31.1541 12.7115 31.0316C12.5006 30.8899 12.3263 30.7001 12.203 30.4778L5.08351 17.6853C4.9498 17.4492 4.87952 17.1825 4.87952 16.9112C4.87952 16.6399 4.9498 16.3732 5.08351 16.1371L13.4913 0.926229Z" fill="#EB8605"/>
<path d="M15.4125 9.11928C17.5186 6.77514 20.4694 5.36315 23.6162 5.19362C26.763 5.0241 29.8483 6.11091 32.1941 8.21521C34.3784 10.1797 35.758 12.8833 36.0668 15.8048C36.3757 18.7262 35.5919 21.6586 33.8667 24.0363L25.5719 35.3371C25.4466 35.5087 25.2887 35.6538 25.1072 35.7643C24.9258 35.8748 24.7243 35.9484 24.5144 35.9809C24.3045 36.0134 24.0902 36.0043 23.8839 35.9539C23.6775 35.9036 23.4831 35.813 23.3117 35.6875C23.1786 35.5882 23.0606 35.4702 22.9614 35.3371L14.6666 24.0363C13.0692 21.8384 12.2721 19.1599 12.4078 16.4462C12.5435 13.7325 13.6038 11.1469 15.4125 9.11928" fill="#FBBD1A"/>
<path d="M24.2271 10.2268C26.1444 10.2298 27.9822 10.9927 29.3379 12.3485C30.6936 13.7042 31.4566 15.5421 31.4596 17.4593C31.4566 19.3766 30.6936 21.2145 29.3379 22.5702C27.9822 23.9259 26.1444 24.6888 24.2271 24.6918C22.3098 24.6888 20.4719 23.9259 19.1162 22.5702C17.7605 21.2145 16.9976 19.3766 16.9946 17.4593V17.4593C16.9976 15.5421 17.7605 13.7042 19.1162 12.3485C20.4719 10.9927 22.3098 10.2298 24.2271 10.2268" fill="#FEE780"/>
</svg>
