<svg width="48" height="48" viewBox="0 0 48 48" fill="none" xmlns="http://www.w3.org/2000/svg">
<g clip-path="url(#clip0_52_247)">
<path d="M30.63 -0.0600586H39.78C40.1593 -0.0600586 40.523 0.0906029 40.7912 0.35878C41.0593 0.626957 41.21 0.990674 41.21 1.36993V10.3099C41.211 10.6523 41.0865 10.9832 40.86 11.2399L25.09 29.5599C24.8416 29.84 24.4938 30.0124 24.1204 30.0404C23.7471 30.0684 23.3775 29.9499 23.09 29.7099C23.0351 29.6651 22.9849 29.6148 22.94 29.5599L13.56 18.6699L29.56 0.429947C29.693 0.276531 29.8573 0.153405 30.0419 0.0688782C30.2264 -0.015649 30.427 -0.0596179 30.63 -0.0600586Z" fill="#7453AC"/>
<path d="M17.36 -0.0600566H8.20002C7.82076 -0.0600566 7.45703 0.0906048 7.18885 0.358782C6.92067 0.626959 6.77003 0.990676 6.77003 1.36994V10.3099C6.76905 10.6523 6.89357 10.9832 7.12003 11.2399L22.89 29.5599C23.1385 29.84 23.4863 30.0124 23.8596 30.0404C24.233 30.0684 24.6026 29.9499 24.89 29.7099C24.9449 29.6651 24.9952 29.6148 25.04 29.5599L34.42 18.6699L18.42 0.429949C18.2855 0.275768 18.1195 0.152237 17.9332 0.0677052C17.7469 -0.0168263 17.5446 -0.0603946 17.34 -0.0600566" fill="#E5B6FF"/>
<path fill-rule="evenodd" clip-rule="evenodd" d="M24 6.75989L13.53 18.6699L22.91 29.5599C23.1585 29.84 23.5062 30.0123 23.8796 30.0403C24.253 30.0683 24.6226 29.9498 24.91 29.7099C24.9649 29.665 25.0151 29.6148 25.06 29.5599L28.85 25.1599L34.44 18.6699L24 6.75989Z" fill="#B185DE"/>
</g>
<defs>
<clipPath id="clip0_52_247">
<rect width="48" height="48" fill="white"/>
</clipPath>
</defs>
</svg>
