<svg width="48" height="48" viewBox="0 0 48 48" fill="none" xmlns="http://www.w3.org/2000/svg">
<path d="M40.66 31.2C40.66 40.2 33.37 32.57 24.39 32.57C15.41 32.57 8.12 40.18 8.12 31.2C8.11868 29.063 8.5386 26.9467 9.35578 24.9722C10.173 22.9976 11.3713 21.2035 12.8824 19.6924C14.3935 18.1813 16.1876 16.983 18.1622 16.1658C20.1367 15.3486 22.253 14.9287 24.39 14.93C27.9854 14.921 31.4807 16.1142 34.32 18.32C36.6209 20.0849 38.4034 22.4374 39.48 25.13C39.9165 26.1842 40.2318 27.2846 40.42 28.41C40.49 28.8 40.54 29.21 40.59 29.61C40.64 30.01 40.66 30.66 40.66 31.2Z" fill="#2EB7F1"/>
<path d="M42.73 22.45L39.84 24.55C39.6557 24.6952 39.5283 24.9005 39.48 25.13C38.4034 22.4375 36.6209 20.0849 34.32 18.32L34.84 16.72C34.9032 16.5341 35.023 16.3727 35.1826 16.2583C35.3423 16.144 35.5337 16.0825 35.73 16.0825C35.9264 16.0825 36.1178 16.144 36.2774 16.2583C36.437 16.3727 36.5568 16.5341 36.62 16.72L37.72 20.11C37.7811 20.2983 37.9 20.4624 38.0598 20.5791C38.2196 20.6959 38.4121 20.7592 38.61 20.76H42.2C42.3939 20.7674 42.5808 20.8346 42.735 20.9524C42.8892 21.0703 43.0031 21.2329 43.0612 21.4181C43.1193 21.6032 43.1186 21.8018 43.0593 21.9866C43 22.1714 42.885 22.3332 42.73 22.45Z" fill="#0078D4"/>
<path d="M40.59 29.61C40.5379 29.7443 40.4557 29.8649 40.3497 29.9623C40.2436 30.0598 40.1166 30.1316 39.9784 30.1722C39.8402 30.2128 39.6945 30.2211 39.5526 30.1964C39.4107 30.1718 39.2764 30.1148 39.16 30.03L36.28 27.94C36.1205 27.823 35.9278 27.76 35.73 27.76C35.5322 27.76 35.3395 27.823 35.18 27.94L32.3 30.03C32.1429 30.1398 31.9561 30.1989 31.7644 30.1995C31.5728 30.2001 31.3856 30.1421 31.2279 30.0334C31.0701 29.9246 30.9494 29.7702 30.8819 29.5909C30.8143 29.4115 30.8032 29.2158 30.85 29.03L31.96 25.64C32.0023 25.4582 31.9929 25.2682 31.9328 25.0915C31.8727 24.9147 31.7643 24.7584 31.62 24.64L28.73 22.54C28.5739 22.4222 28.4584 22.2585 28.3997 22.0719C28.3411 21.8853 28.342 21.685 28.4026 21.499C28.4631 21.313 28.5802 21.1505 28.7375 21.0341C28.8947 20.9178 29.0844 20.8535 29.28 20.85H32.85C33.0479 20.8492 33.2404 20.7859 33.4002 20.6691C33.56 20.5524 33.6789 20.3883 33.74 20.2L34.32 18.41C36.6208 20.1749 38.4034 22.5275 39.48 25.22C39.4401 25.3708 39.4401 25.5293 39.48 25.68L40.4 28.5L40.58 29.07C40.6385 29.2448 40.642 29.4333 40.59 29.61Z" fill="#91EFFF"/>
<path d="M24.5 21C30.299 21 35 16.299 35 10.5C35 4.70101 30.299 0 24.5 0C18.701 0 14 4.70101 14 10.5C14 16.299 18.701 21 24.5 21Z" fill="#0078D4"/>
</svg>
