<svg width="48" height="48" viewBox="0 0 48 48" fill="none" xmlns="http://www.w3.org/2000/svg">
<path d="M40.79 8.17999V32.32C40.79 32.6542 40.6572 32.9746 40.4209 33.2109C40.1846 33.4472 39.8641 33.58 39.5299 33.58H8.45997C8.29498 33.5813 8.13134 33.5499 7.97853 33.4877C7.82571 33.4255 7.68676 33.3336 7.56962 33.2174C7.45249 33.1012 7.35951 32.963 7.29606 32.8107C7.23262 32.6583 7.19996 32.495 7.19996 32.33V17.46C7.19907 17.2545 7.24766 17.0518 7.34166 16.869C7.43565 16.6862 7.57228 16.5288 7.73997 16.41L29.34 0.769988C29.646 0.550219 30.0132 0.432007 30.39 0.432007C30.7667 0.432007 31.1339 0.550219 31.44 0.769988L39.97 6.67999C40.2289 6.85833 40.4387 7.09908 40.58 7.37999C40.7104 7.63728 40.7789 7.92151 40.7799 8.20999" fill="#117F16"/>
<path d="M40.7899 8.18V32.32C40.7899 32.6542 40.6572 32.9747 40.4209 33.2109C40.1846 33.4472 39.8641 33.58 39.5299 33.58H8.45996C8.29497 33.5813 8.13133 33.55 7.97852 33.4877C7.8257 33.4255 7.68675 33.3336 7.56961 33.2174C7.45248 33.1012 7.35949 32.963 7.29605 32.8107C7.23261 32.6584 7.19995 32.495 7.19995 32.33V24.83L24.84 12.13C25.1148 11.9308 25.4455 11.8235 25.7849 11.8235C26.1244 11.8235 26.4551 11.9308 26.7299 12.13L29.4399 14.13C29.7135 14.3322 30.0448 14.4413 30.3849 14.4413C30.7251 14.4413 31.0564 14.3322 31.33 14.13L40.58 7.37C40.7104 7.62728 40.7789 7.91152 40.7799 8.2" fill="#55BE16"/>
<path d="M40.79 32.32V21.99L38.13 20.07C37.8555 19.8745 37.5269 19.7694 37.19 19.7694C36.853 19.7694 36.5244 19.8745 36.25 20.07L17.6 33.58H39.52C39.6858 33.5813 39.8503 33.5497 40.0037 33.4868C40.1572 33.424 40.2966 33.3312 40.4139 33.2139C40.5312 33.0967 40.6239 32.9572 40.6868 32.8038C40.7496 32.6503 40.7813 32.4859 40.78 32.32" fill="#B1EC75"/>
</svg>
