<svg width="48" height="48" viewBox="0 0 48 48" fill="none" xmlns="http://www.w3.org/2000/svg">
<path d="M15.64 2.10005C15.64 1.65449 15.817 1.22717 16.1321 0.912109C16.4471 0.597048 16.8744 0.420044 17.32 0.420044H30.32C30.6055 0.421041 30.8862 0.493935 31.1361 0.632004C31.3861 0.770073 31.5972 0.968878 31.75 1.21005L41.66 17.11C41.8267 17.377 41.9151 17.6853 41.9151 18C41.9151 18.3148 41.8267 18.6231 41.66 18.89L31.78 34.7901C31.6293 35.0332 31.4186 35.2335 31.1682 35.3718C30.9178 35.5102 30.6361 35.5819 30.35 35.58H17.35C16.9044 35.58 16.4771 35.403 16.1621 35.088C15.847 34.7729 15.67 34.3456 15.67 33.9001L15.64 2.10005Z" fill="#B7320B"/>
<path d="M6.65002 2.10005C6.65002 1.65449 6.827 1.22717 7.14206 0.912109C7.45712 0.597048 7.88445 0.420044 8.33002 0.420044H22.25L32.66 17.11C32.8267 17.377 32.9151 17.6853 32.9151 18C32.9151 18.3148 32.8267 18.6231 32.66 18.89L22.29 35.58H8.29001C7.84444 35.58 7.41714 35.403 7.10208 35.088C6.78702 34.7729 6.61002 34.3456 6.61002 33.9001L6.65002 2.10005Z" fill="#E35E25"/>
<path d="M6.09003 2.10005C6.09003 1.65449 6.267 1.22717 6.58206 0.912109C6.89712 0.597048 7.32446 0.420044 7.77002 0.420044H12.84L23.25 17.11C23.4167 17.377 23.5051 17.6853 23.5051 18C23.5051 18.3148 23.4167 18.6231 23.25 18.89L12.88 35.58H7.77002C7.32446 35.58 6.89712 35.403 6.58206 35.088C6.267 34.7729 6.09003 34.3456 6.09003 33.9001V2.10005Z" fill="#FBA974"/>
</svg>
