<svg width="48" height="48" viewBox="0 0 48 48" fill="none" xmlns="http://www.w3.org/2000/svg">
<path d="M37.1 19.53C37.1425 19.3467 37.148 19.1567 37.1159 18.9712C37.0839 18.7858 37.0151 18.6086 36.9135 18.4502C36.8119 18.2917 36.6796 18.1553 36.5244 18.0487C36.3693 17.9422 36.1944 17.8679 36.01 17.83H35.72H12.64C12.4523 17.826 12.2657 17.8596 12.0912 17.9286C11.9167 17.9977 11.7576 18.1009 11.6235 18.2323C11.4894 18.3636 11.3829 18.5204 11.3101 18.6934C11.2374 18.8665 11.2 19.0523 11.2 19.24C11.1951 19.3266 11.1951 19.4134 11.2 19.5L12.87 28.68C12.9321 29.0126 13.1118 29.3117 13.3761 29.5228C13.6405 29.734 13.9719 29.843 14.31 29.83H33.78C34.1081 29.8423 34.4301 29.7389 34.6897 29.5378C34.9492 29.3367 35.1299 29.0508 35.2 28.73L37.1 19.53Z" fill="#DA7803"/>
<path d="M40.75 3.99999C40.7897 3.81875 40.7932 3.63145 40.7604 3.44884C40.7276 3.26623 40.659 3.09189 40.5587 2.93582C40.4584 2.77974 40.3282 2.64501 40.1757 2.53933C40.0232 2.43366 39.8513 2.35912 39.67 2.31999C39.5702 2.31017 39.4697 2.31017 39.37 2.31999H7.53998L9.79999 14.32H37.38C37.7041 14.3219 38.0188 14.2113 38.2705 14.0071C38.5222 13.8028 38.6952 13.5176 38.76 13.2L40.75 3.99999Z" fill="#FFE440"/>
<path d="M8.62996 0.160021C8.44349 0.158703 8.25859 0.194129 8.08581 0.264276C7.91302 0.334422 7.75573 0.437916 7.62295 0.568848C7.49016 0.699779 7.38445 0.855584 7.31188 1.02737C7.23931 1.19915 7.20128 1.38354 7.19997 1.57002C7.19148 1.65648 7.19148 1.74356 7.19997 1.83002L12.59 28.69C12.6537 29.0172 12.8313 29.3113 13.0913 29.52C13.3512 29.7287 13.6767 29.8385 14.01 29.83H24.2L18.77 1.29002C18.7092 0.966105 18.5369 0.67371 18.2829 0.463626C18.029 0.253543 17.7095 0.139044 17.38 0.140021L8.62996 0.160021Z" fill="#F29800"/>
</svg>
