<svg width="48" height="48" viewBox="0 0 48 48" fill="none" xmlns="http://www.w3.org/2000/svg">
<path d="M39.03 0.400024H8.98002C8.10741 0.400024 7.40002 1.10741 7.40002 1.98002V32.03C7.40002 32.9026 8.10741 33.61 8.98002 33.61H39.03C39.9026 33.61 40.61 32.9026 40.61 32.03V1.98002C40.61 1.10741 39.9026 0.400024 39.03 0.400024Z" fill="url(#paint0_linear_52_199)"/>
<path d="M7.40002 9.89005H29.53C29.7379 9.88872 29.9439 9.92868 30.1362 10.0076C30.3285 10.0865 30.5032 10.2029 30.6502 10.3499C30.7972 10.4968 30.9135 10.6715 30.9925 10.8638C31.0714 11.0561 31.1114 11.2622 31.11 11.47V33.6H7.40002V9.89005Z" fill="url(#paint1_linear_52_199)"/>
<path fill-rule="evenodd" clip-rule="evenodd" d="M14.51 17C15.4446 17.0013 16.3702 16.8184 17.234 16.4617C18.0978 16.1049 18.8827 15.5814 19.544 14.9211C20.2053 14.2607 20.7299 13.4765 21.0879 12.6132C21.4458 11.7499 21.63 10.8246 21.63 9.89001C21.63 8.00167 20.8799 6.19067 19.5446 4.85542C18.2094 3.52016 16.3984 2.77002 14.51 2.77002C13.5755 2.77002 12.6501 2.95425 11.7868 3.31219C10.9236 3.67012 10.1393 4.19474 9.47897 4.85603C8.81861 5.51731 8.2951 6.30229 7.93838 7.16607C7.58165 8.02985 7.39872 8.95547 7.40003 9.89001C7.40003 11.7757 8.14912 13.5842 9.48251 14.9175C10.8159 16.2509 12.6243 17 14.51 17ZM20.05 19.37H7.40003V33.6H21.63V20.95C21.63 20.531 21.4636 20.1291 21.1673 19.8328C20.871 19.5365 20.4691 19.37 20.05 19.37Z" fill="url(#paint2_linear_52_199)"/>
<defs>
<linearGradient id="paint0_linear_52_199" x1="7.99002" y1="-0.149975" x2="40.01" y2="34.16" gradientUnits="userSpaceOnUse">
<stop stop-color="#8661C5"/>
<stop offset="1" stop-color="#5C428B"/>
</linearGradient>
<linearGradient id="paint1_linear_52_199" x1="14.44" y1="7.60005" x2="23.68" y2="36.02" gradientUnits="userSpaceOnUse">
<stop stop-color="#CD9EF0"/>
<stop offset="1" stop-color="#9F75D3"/>
</linearGradient>
<linearGradient id="paint2_linear_52_199" x1="1.50003" y1="12.09" x2="25.87" y2="26.35" gradientUnits="userSpaceOnUse">
<stop stop-color="#F1D9FF"/>
<stop offset="1" stop-color="#E4B4FF"/>
</linearGradient>
</defs>
</svg>
