<svg width="48" height="48" viewBox="0 0 48 48" fill="none" xmlns="http://www.w3.org/2000/svg">
<g clip-path="url(#clip0_52_303)">
<path d="M23.8 33.6C20.4769 33.6 17.2283 32.6145 14.4654 30.768C11.7024 28.9216 9.54913 26.2972 8.27787 23.2268C7.00662 20.1564 6.6745 16.778 7.32355 13.5188C7.97259 10.2597 9.57363 7.26621 11.9242 4.91708C14.2747 2.56796 17.2691 0.968697 20.5286 0.321595C23.7882 -0.325507 27.1664 0.00862253 30.236 1.28171C33.3056 2.55479 35.9288 4.70966 37.7736 7.47372C39.6184 10.2378 40.602 13.4868 40.6 16.81C40.5974 21.2639 38.8262 25.5345 35.6759 28.683C32.5255 31.8314 28.2539 33.6 23.8 33.6Z" fill="#5CCBD3"/>
<path fill-rule="evenodd" clip-rule="evenodd" d="M39.26 16.81C39.258 19.8673 38.3496 22.8553 36.6497 25.3964C34.9497 27.9375 32.5345 29.9175 29.7094 31.0861C26.8842 32.2547 23.7761 32.5594 20.7778 31.9617C17.7795 31.3641 15.0257 29.8909 12.8646 27.7284C10.7035 25.5658 9.23205 22.8111 8.63633 19.8124C8.04062 16.8138 8.34736 13.7058 9.51778 10.8814C10.6882 8.05705 12.6698 5.64312 15.2119 3.9448C17.7541 2.24647 20.7427 1.34003 23.8 1.34003C25.8311 1.34003 27.8423 1.74023 29.7186 2.51779C31.5949 3.29536 33.2997 4.43502 34.7354 5.87168C36.1711 7.30833 37.3097 9.01381 38.086 10.8907C38.8624 12.7675 39.2613 14.7789 39.26 16.81ZM23.8 2.97573e-06C27.1251 -0.00197509 30.3762 0.982255 33.1419 2.82816C35.9076 4.67406 38.0637 7.29873 39.3375 10.3702C40.6114 13.4416 40.9457 16.8219 40.2982 20.0833C39.6507 23.3448 38.0505 26.341 35.7 28.6929C33.3495 31.0449 30.3542 32.6468 27.0932 33.2963C23.8321 33.9457 20.4516 33.6134 17.3794 32.3414C14.3072 31.0694 11.6812 28.9148 9.83369 26.1502C7.98615 23.3856 7 20.1351 7 16.81C7.00265 12.3543 8.77317 8.08162 11.9229 4.93C15.0727 1.77837 19.3443 0.00530034 23.8 2.97573e-06Z" fill="#1D8E96"/>
<path d="M23.8 28.4C26.0947 28.4 28.3378 27.7194 30.2457 26.4443C32.1535 25.1692 33.6403 23.357 34.518 21.2368C35.3956 19.1166 35.6248 16.7837 35.1764 14.5332C34.728 12.2828 33.6222 10.2159 31.9989 8.59397C30.3756 6.97207 28.3078 5.86809 26.0569 5.42163C23.8061 4.97517 21.4734 5.20631 19.3539 6.08582C17.2345 6.96533 15.4235 8.45369 14.1501 10.3626C12.8767 12.2715 12.198 14.5153 12.2 16.8099C12.2 18.3328 12.5001 19.8407 13.0832 21.2476C13.6663 22.6544 14.5209 23.9325 15.5982 25.0089C16.6755 26.0852 17.9543 26.9387 19.3616 27.5206C20.7689 28.1025 22.2771 28.4013 23.8 28.4Z" fill="url(#paint0_linear_52_303)"/>
<path d="M24.85 7.43994H22.65V26.4399H24.85V7.43994Z" fill="url(#paint1_linear_52_303)"/>
<path d="M22.78 17.88V15.6801H14.13V17.88H22.78Z" fill="#99EDF3"/>
<path d="M23.8 24.03C25.228 24.03 26.6239 23.6065 27.8112 22.8132C28.9985 22.0199 29.9239 20.8923 30.4704 19.573C31.0169 18.2537 31.1599 16.802 30.8813 15.4014C30.6027 14.0009 29.9151 12.7144 28.9053 11.7047C27.8956 10.6949 26.6091 10.0073 25.2086 9.7287C23.808 9.45011 22.3563 9.59309 21.037 10.1396C19.7177 10.686 18.5901 11.6114 17.7968 12.7988C17.0034 13.9861 16.58 15.382 16.58 16.81C16.58 18.7248 17.3407 20.5613 18.6947 21.9153C20.0487 23.2693 21.8851 24.03 23.8 24.03Z" fill="url(#paint2_linear_52_303)"/>
<path d="M23.8 8.46995C24.2949 8.46995 24.7786 8.32307 25.19 8.04792C25.6013 7.77277 25.9217 7.38176 26.1106 6.92436C26.2996 6.46696 26.3485 5.96378 26.2512 5.47856C26.1539 4.99333 25.9148 4.54788 25.5642 4.19865C25.2136 3.84942 24.7672 3.61213 24.2816 3.51679C23.796 3.42146 23.293 3.4724 22.8363 3.66316C22.3797 3.85391 21.9899 4.17589 21.7165 4.58833C21.443 5.00076 21.298 5.48509 21.3 5.97996C21.3026 6.64127 21.5672 7.2746 22.0358 7.74128C22.5043 8.20796 23.1387 8.46996 23.8 8.46995Z" fill="url(#paint3_linear_52_303)"/>
<path d="M23.8 30.13C24.2945 30.13 24.7778 29.9834 25.1889 29.7087C25.6 29.434 25.9205 29.0435 26.1097 28.5867C26.2989 28.1299 26.3484 27.6272 26.252 27.1423C26.1555 26.6573 25.9174 26.2119 25.5678 25.8622C25.2181 25.5126 24.7727 25.2745 24.2877 25.178C23.8028 25.0816 23.3001 25.1311 22.8433 25.3203C22.3865 25.5095 21.996 25.83 21.7213 26.2411C21.4466 26.6522 21.3 27.1356 21.3 27.63C21.3 28.293 21.5634 28.9289 22.0322 29.3978C22.5011 29.8666 23.137 30.13 23.8 30.13Z" fill="url(#paint4_linear_52_303)"/>
<path d="M34.63 19.3001C35.1249 19.3001 35.6086 19.1532 36.02 18.878C36.4313 18.6029 36.7517 18.2118 36.9406 17.7544C37.1296 17.297 37.1785 16.7939 37.0812 16.3086C36.9839 15.8234 36.7448 15.378 36.3942 15.0288C36.0436 14.6795 35.5972 14.4422 35.1116 14.3469C34.626 14.2515 34.123 14.3025 33.6663 14.4932C33.2097 14.684 32.8199 15.006 32.5465 15.4184C32.273 15.8308 32.128 16.3152 32.13 16.81C32.1326 17.4713 32.3972 18.1047 32.8658 18.5714C33.3343 19.038 33.9687 19.3001 34.63 19.3001Z" fill="url(#paint5_linear_52_303)"/>
<path d="M12.97 19.3001C13.4649 19.3001 13.9486 19.1532 14.36 18.878C14.7713 18.6029 15.0917 18.2118 15.2806 17.7544C15.4696 17.297 15.5185 16.7939 15.4212 16.3086C15.3239 15.8234 15.0848 15.378 14.7342 15.0288C14.3836 14.6795 13.9372 14.4422 13.4516 14.3469C12.966 14.2515 12.463 14.3025 12.0063 14.4932C11.5497 14.684 11.16 15.006 10.8865 15.4184C10.613 15.8308 10.468 16.3152 10.47 16.81C10.4727 17.4713 10.7372 18.1047 11.2058 18.5714C11.6743 19.038 12.3087 19.3001 12.97 19.3001Z" fill="#9DF3F9"/>
<path d="M23.8 20.14C24.4586 20.14 25.1024 19.9447 25.6501 19.5788C26.1977 19.2129 26.6245 18.6928 26.8765 18.0843C27.1286 17.4758 27.1945 16.8063 27.066 16.1603C26.9375 15.5144 26.6204 14.921 26.1547 14.4553C25.689 13.9896 25.0956 13.6725 24.4497 13.544C23.8037 13.4155 23.1341 13.4814 22.5257 13.7335C21.9172 13.9855 21.3971 14.4123 21.0312 14.9599C20.6653 15.5075 20.47 16.1513 20.47 16.81C20.4726 17.6923 20.8243 18.5378 21.4482 19.1617C22.0722 19.7857 22.9176 20.1373 23.8 20.14Z" fill="url(#paint6_linear_52_303)"/>
<path d="M24.13 17.88V15.6801H33.13V17.88H24.13Z" fill="url(#paint7_linear_52_303)"/>
</g>
<defs>
<linearGradient id="paint0_linear_52_303" x1="14.13" y1="9.95996" x2="44.91" y2="31.76" gradientUnits="userSpaceOnUse">
<stop offset="0.34" stop-color="#019AA6"/>
<stop offset="0.64" stop-color="#01727A"/>
</linearGradient>
<linearGradient id="paint1_linear_52_303" x1="22.5" y1="3.41994" x2="25.07" y2="31.2899" gradientUnits="userSpaceOnUse">
<stop stop-color="#94EDF3"/>
<stop offset="1" stop-color="#82EBF1"/>
</linearGradient>
<linearGradient id="paint2_linear_52_303" x1="18.41" y1="12.83" x2="32.23" y2="23.03" gradientUnits="userSpaceOnUse">
<stop stop-color="#32DFEA"/>
<stop offset="1" stop-color="#0DBDCA"/>
</linearGradient>
<linearGradient id="paint3_linear_52_303" x1="23.56" y1="3.31997" x2="26.12" y2="31.1999" gradientUnits="userSpaceOnUse">
<stop stop-color="#94EDF3"/>
<stop offset="1" stop-color="#82EBF1"/>
</linearGradient>
<linearGradient id="paint4_linear_52_303" x1="21.58" y1="3.50001" x2="24.15" y2="31.38" gradientUnits="userSpaceOnUse">
<stop stop-color="#94EDF3"/>
<stop offset="1" stop-color="#82EBF1"/>
</linearGradient>
<linearGradient id="paint5_linear_52_303" x1="22.67" y1="12.39" x2="39.57" y2="18.63" gradientUnits="userSpaceOnUse">
<stop stop-color="#94EDF3"/>
<stop offset="1" stop-color="#32DFEA"/>
</linearGradient>
<linearGradient id="paint6_linear_52_303" x1="21.37" y1="15.91" x2="38.26" y2="22.15" gradientUnits="userSpaceOnUse">
<stop stop-color="#94EDF3"/>
<stop offset="1" stop-color="#32DFEA"/>
</linearGradient>
<linearGradient id="paint7_linear_52_303" x1="21.96" y1="14.3101" x2="38.85" y2="20.5601" gradientUnits="userSpaceOnUse">
<stop stop-color="#94EDF3"/>
<stop offset="1" stop-color="#32DFEA"/>
</linearGradient>
<clipPath id="clip0_52_303">
<rect width="33.61" height="33.61" fill="white" transform="translate(7)"/>
</clipPath>
</defs>
</svg>
