<svg width="48" height="48" viewBox="0 0 48 48" fill="none" xmlns="http://www.w3.org/2000/svg">
<g clip-path="url(#clip0_52_56)">
<path d="M42.77 17.91C42.6871 15.9657 41.9236 14.1125 40.613 12.6739C39.3025 11.2354 37.5281 10.3031 35.6 10.04C35.4906 7.29717 34.3033 4.70834 32.296 2.83592C30.2888 0.963502 27.6238 -0.0412458 24.88 0.0399669C22.6609 0.00272944 20.4851 0.65647 18.654 1.91064C16.8229 3.16481 15.4272 4.95734 14.66 7.03997C12.3206 7.32151 10.1599 8.43317 8.5707 10.1728C6.9815 11.9125 6.06932 14.1647 6 16.52C6.11697 19.1568 7.27169 21.6405 9.21239 23.4295C11.1531 25.2184 13.7224 26.1676 16.36 26.07H34.03C34.1793 26.09 34.3307 26.09 34.48 26.07C36.6524 26.0574 38.7342 25.1978 40.2824 23.6738C41.8307 22.1498 42.7232 20.0819 42.77 17.91Z" fill="url(#paint0_linear_52_56)"/>
<path d="M25.12 17.11H23.53V29.76H25.12V17.11Z" fill="#B3B3B3"/>
<path d="M24.33 17.54C26.6772 17.54 28.58 15.6372 28.58 13.29C28.58 10.9428 26.6772 9.04004 24.33 9.04004C21.9827 9.04004 20.08 10.9428 20.08 13.29C20.08 15.6372 21.9827 17.54 24.33 17.54Z" fill="#F2F2F2"/>
<path d="M26.7 28.6899H21.96C21.1371 28.6899 20.47 29.357 20.47 30.1799V34.9199C20.47 35.7428 21.1371 36.4099 21.96 36.4099H26.7C27.5229 36.4099 28.19 35.7428 28.19 34.9199V30.1799C28.19 29.357 27.5229 28.6899 26.7 28.6899Z" fill="url(#paint1_linear_52_56)"/>
</g>
<defs>
<linearGradient id="paint0_linear_52_56" x1="24.39" y1="26.09" x2="24.39" y2="-3.37813e-05" gradientUnits="userSpaceOnUse">
<stop stop-color="#198AB3"/>
<stop offset="0.44" stop-color="#28B7DB"/>
<stop offset="0.78" stop-color="#32D4F5"/>
</linearGradient>
<linearGradient id="paint1_linear_52_56" x1="24.33" y1="37.5199" x2="24.33" y2="29.4999" gradientUnits="userSpaceOnUse">
<stop stop-color="#198AB3"/>
<stop offset="0.44" stop-color="#28B7DB"/>
<stop offset="0.78" stop-color="#32D4F5"/>
</linearGradient>
<clipPath id="clip0_52_56">
<rect width="36.78" height="36.41" fill="white" transform="translate(6)"/>
</clipPath>
</defs>
</svg>
