<svg width="48" height="48" viewBox="0 0 48 48" fill="none" xmlns="http://www.w3.org/2000/svg">
<g clip-path="url(#clip0_52_60)">
<path d="M29.39 21.21C31.7206 21.21 33.61 19.3207 33.61 16.99C33.61 14.6594 31.7206 12.77 29.39 12.77C27.0593 12.77 25.17 14.6594 25.17 16.99C25.17 19.3207 27.0593 21.21 29.39 21.21Z" fill="white"/>
<path d="M36.45 32.85C38.2836 32.85 39.77 31.3635 39.77 29.53C39.77 27.6964 38.2836 26.21 36.45 26.21C34.6164 26.21 33.13 27.6964 33.13 29.53C33.13 31.3635 34.6164 32.85 36.45 32.85Z" fill="white"/>
<path d="M23.33 30.11C24.904 30.11 26.18 28.834 26.18 27.26C26.18 25.686 24.904 24.41 23.33 24.41C21.756 24.41 20.48 25.686 20.48 27.26C20.48 28.834 21.756 30.11 23.33 30.11Z" fill="white"/>
<path d="M21.28 9.11005C23.2296 9.11005 24.81 7.52961 24.81 5.58005C24.81 3.63048 23.2296 2.05005 21.28 2.05005C19.3304 2.05005 17.75 3.63048 17.75 5.58005C17.75 7.52961 19.3304 9.11005 21.28 9.11005Z" fill="white"/>
<path d="M11.82 21.44C13.394 21.44 14.67 20.164 14.67 18.59C14.67 17.016 13.394 15.74 11.82 15.74C10.246 15.74 8.96997 17.016 8.96997 18.59C8.96997 20.164 10.246 21.44 11.82 21.44Z" fill="white"/>
<path d="M37.22 28.87L30.09 16.39L29.39 16.8L29.96 16.37L21.9 4.90002L20.42 5.97002L27.57 16.13L11.74 17.44L11.88 19.28L27.57 17.97L22.37 26.62L23.93 27.56L29.28 18.66L35.64 29.76L37.22 28.87Z" fill="#949494"/>
<path d="M42.51 1.56C42.51 1.14626 42.3456 0.74947 42.0531 0.456913C41.7605 0.164357 41.3637 2.63797e-09 40.95 2.63797e-09H32.82C32.6148 -1.68577e-05 32.4179 0.0807875 32.2719 0.22491C32.1259 0.369033 32.0426 0.564869 32.04 0.77V3.77C32.0426 3.97513 32.1259 4.17097 32.2719 4.31509C32.4179 4.45921 32.6148 4.54002 32.82 4.54H37.82V9.46C37.8276 9.66882 37.9146 9.86687 38.0633 10.0137C38.2119 10.1605 38.4111 10.245 38.62 10.25H41.62C41.8279 10.2449 42.0259 10.1601 42.173 10.013C42.32 9.86593 42.4049 9.66792 42.41 9.46V1.56H42.51Z" fill="#949494"/>
<path d="M15.67 31.82H10.58V26.95C10.5749 26.7421 10.4901 26.5441 10.343 26.397C10.1959 26.25 9.99791 26.1651 9.78999 26.16H6.78999C6.58109 26.165 6.38196 26.2495 6.23328 26.3963C6.0846 26.5432 5.99758 26.7412 5.98999 26.95V34.87C6.0106 35.2741 6.18643 35.6547 6.4808 35.9323C6.77518 36.2099 7.16537 36.3631 7.56999 36.36H15.67C15.8734 36.3574 16.0678 36.2755 16.2116 36.1316C16.3554 35.9878 16.4374 35.7934 16.44 35.59V32.59C16.44 32.3858 16.3589 32.19 16.2145 32.0456C16.0701 31.9012 15.8742 31.82 15.67 31.82Z" fill="#949494"/>
<path d="M29.39 12.82C30.2365 12.82 31.064 13.0711 31.7678 13.5414C32.4717 14.0117 33.0203 14.6801 33.3442 15.4622C33.6681 16.2442 33.7529 17.1048 33.5878 17.935C33.4226 18.7653 33.015 19.5279 32.4164 20.1265C31.8178 20.725 31.0552 21.1327 30.225 21.2978C29.3947 21.463 28.5342 21.3782 27.7521 21.0543C26.97 20.7303 26.3016 20.1817 25.8313 19.4779C25.361 18.774 25.11 17.9466 25.11 17.1V16.95C25.1489 15.8411 25.6169 14.7906 26.4154 14.0201C27.2139 13.2496 28.2804 12.8194 29.39 12.82ZM17.84 5.59005C17.838 6.29174 18.0441 6.97828 18.4321 7.56294C18.8201 8.14761 19.3726 8.60417 20.02 8.87498C20.6673 9.14578 21.3804 9.21866 22.0691 9.08443C22.7578 8.9502 23.3913 8.61487 23.8896 8.12079C24.3879 7.62672 24.7285 6.99606 24.8686 6.30848C25.0086 5.6209 24.9417 4.90724 24.6764 4.25765C24.4111 3.60805 23.9592 3.05165 23.3778 2.65874C22.7965 2.26582 22.1117 2.054 21.41 2.05005H21.3C20.3734 2.06583 19.4904 2.44639 18.8426 3.10913C18.1949 3.77187 17.8346 4.66333 17.84 5.59005ZM8.98 18.59C8.97802 19.1546 9.14374 19.707 9.45614 20.1772C9.76854 20.6474 10.2135 21.0142 10.7347 21.2312C11.2559 21.4481 11.8298 21.5054 12.3835 21.3958C12.9373 21.2861 13.4461 21.0145 13.8452 20.6153C14.2444 20.2161 14.5161 19.7074 14.6257 19.1536C14.7354 18.5998 14.6781 18.0259 14.4611 17.5048C14.2442 16.9836 13.8773 16.5386 13.4071 16.2262C12.9369 15.9138 12.3845 15.7481 11.82 15.75C11.0668 15.75 10.3444 16.0493 9.81181 16.5819C9.27921 17.1145 8.98 17.8368 8.98 18.59ZM20.49 27.26C20.4861 27.8277 20.6505 28.3837 20.9626 28.8578C21.2747 29.332 21.7203 29.7029 22.2432 29.9238C22.7661 30.1447 23.3427 30.2055 23.9002 30.0987C24.4577 29.9918 24.971 29.722 25.3751 29.3235C25.7793 28.9249 26.0562 28.4154 26.1708 27.8595C26.2854 27.3036 26.2326 26.7261 26.0191 26.2002C25.8055 25.6743 25.4408 25.2235 24.971 24.9049C24.5013 24.5862 23.9476 24.414 23.38 24.41C22.6249 24.4074 21.8994 24.7034 21.3618 25.2336C20.8241 25.7637 20.5179 26.485 20.51 27.24L20.49 27.26ZM33.16 29.55C33.1561 30.2067 33.3469 30.8497 33.7084 31.3979C34.0699 31.946 34.5859 32.3746 35.191 32.6296C35.7961 32.8845 36.4633 32.9543 37.108 32.83C37.7528 32.7058 38.3463 32.3932 38.8133 31.9317C39.2804 31.4702 39.6002 30.8805 39.7322 30.2373C39.8642 29.5941 39.8024 28.9262 39.5548 28.318C39.3072 27.7099 38.8848 27.1888 38.3411 26.8207C37.7973 26.4526 37.1566 26.254 36.5 26.25C35.6318 26.242 34.7958 26.5786 34.1754 27.1859C33.5549 27.7933 33.2006 28.6219 33.19 29.49L33.16 29.55Z" fill="url(#paint0_linear_52_60)"/>
</g>
<defs>
<linearGradient id="paint0_linear_52_60" x1="24.54" y1="39.18" x2="23.94" y2="-18.4" gradientUnits="userSpaceOnUse">
<stop stop-color="#198AB3"/>
<stop offset="0.09" stop-color="#22A5CB"/>
<stop offset="0.19" stop-color="#29BADE"/>
<stop offset="0.29" stop-color="#2EC9EB"/>
<stop offset="0.42" stop-color="#31D1F3"/>
<stop offset="0.62" stop-color="#32D4F5"/>
</linearGradient>
<clipPath id="clip0_52_60">
<rect width="36.5" height="36.35" fill="white" transform="translate(6)"/>
</clipPath>
</defs>
</svg>
