<svg width="48" height="48" viewBox="0 0 48 48" fill="none" xmlns="http://www.w3.org/2000/svg">
<g clip-path="url(#clip0_52_57)">
<path d="M24.13 39.22C20.5442 39.22 17.039 38.1567 14.0575 36.1645C11.0761 34.1724 8.75229 31.3408 7.38007 28.028C6.00786 24.7152 5.64882 21.0699 6.34837 17.553C7.04792 14.0361 8.77464 10.8056 11.3102 8.27012C13.8457 5.7346 17.0761 4.00788 20.593 3.30833C24.1099 2.60878 27.7552 2.96782 31.0681 4.34003C34.3809 5.71225 37.2124 8.03602 39.2046 11.0175C41.1967 13.9989 42.26 17.5042 42.26 21.09C42.2521 25.8959 40.3394 30.5027 36.9411 33.9011C33.5428 37.2994 28.9359 39.212 24.13 39.22Z" fill="url(#paint0_linear_52_57)"/>
<path d="M23.71 32.79C21.53 31.48 14.71 26.79 14.71 21.35V14.35H15.45C17.2833 14.3636 19.0745 13.8004 20.57 12.74C21.5857 11.9542 22.8471 11.5538 24.13 11.61C25.4139 11.5319 26.6845 11.907 27.72 12.67C29.2138 13.7352 31.0054 14.302 32.84 14.29H33.58V21.29C33.58 26.76 26.66 31.42 24.58 32.73L24.17 32.99L23.71 32.79Z" fill="url(#paint1_linear_52_57)"/>
<path d="M24.13 31.88C20 29.33 15.67 25.23 15.67 21.35V15.25C17.6063 15.2402 19.4935 14.6402 21.08 13.53C21.9345 12.8706 23.0041 12.5533 24.08 12.64C25.1552 12.56 26.2224 12.8766 27.08 13.53C28.6745 14.6314 30.5622 15.2304 32.5 15.25V21.35C32.58 25.23 28.25 29.33 24.13 31.88Z" fill="#50E6FF"/>
<path d="M37.94 33.14C39.503 33.14 40.77 31.8729 40.77 30.31C40.77 28.747 39.503 27.48 37.94 27.48C36.377 27.48 35.11 28.747 35.11 30.31C35.11 31.8729 36.377 33.14 37.94 33.14Z" fill="white"/>
<path d="M37.94 27.48C38.4997 27.48 39.0469 27.6459 39.5123 27.9569C39.9777 28.2679 40.3404 28.7098 40.5546 29.227C40.7688 29.7441 40.8248 30.3131 40.7156 30.8621C40.6064 31.411 40.3369 31.9153 39.9411 32.3111C39.5453 32.7068 39.0411 32.9764 38.4921 33.0856C37.9432 33.1948 37.3741 33.1387 36.857 32.9245C36.3399 32.7103 35.8979 32.3476 35.587 31.8822C35.276 31.4168 35.11 30.8697 35.11 30.31C35.1087 29.9379 35.181 29.5693 35.3227 29.2254C35.4645 28.8814 35.6729 28.5689 35.936 28.3059C36.199 28.0428 36.5115 27.8344 36.8555 27.6927C37.1994 27.5509 37.568 27.4786 37.94 27.48ZM37.94 26.06C37.0777 26.06 36.2347 26.3157 35.5177 26.7947C34.8007 27.2738 34.2419 27.9548 33.9119 28.7514C33.5819 29.5481 33.4956 30.4248 33.6638 31.2705C33.832 32.1163 34.2473 32.8932 34.857 33.5029C35.4668 34.1127 36.2437 34.5279 37.0894 34.6962C37.9352 34.8644 38.8118 34.7781 39.6085 34.4481C40.4052 34.1181 41.0861 33.5592 41.5652 32.8422C42.0443 32.1252 42.3 31.2823 42.3 30.42V30.31C42.2739 29.1719 41.8027 28.0895 40.9875 27.295C40.1724 26.5004 39.0783 26.057 37.94 26.06Z" fill="#B3B3B3"/>
<path d="M10.31 33.14C11.8729 33.14 13.14 31.8729 13.14 30.31C13.14 28.747 11.8729 27.48 10.31 27.48C8.74701 27.48 7.47998 28.747 7.47998 30.31C7.47998 31.8729 8.74701 33.14 10.31 33.14Z" fill="white"/>
<path d="M10.31 27.4801C10.8688 27.484 11.414 27.6533 11.8768 27.9667C12.3395 28.28 12.6991 28.7234 12.9103 29.2408C13.1214 29.7583 13.1746 30.3267 13.0631 30.8743C12.9517 31.422 12.6806 31.9243 12.284 32.3181C11.8875 32.7119 11.3832 32.9795 10.8348 33.0871C10.2864 33.1946 9.71837 33.1374 9.20242 32.9227C8.68647 32.7079 8.24566 32.3452 7.93557 31.8802C7.62548 31.4153 7.46 30.8689 7.45998 30.3101C7.45864 29.9364 7.53158 29.5661 7.67458 29.2208C7.81758 28.8756 8.02778 28.5622 8.29296 28.2988C8.55814 28.0355 8.87301 27.8275 9.21928 27.687C9.56555 27.5464 9.9363 27.4761 10.31 27.4801ZM10.31 26.0601C9.47444 26.0817 8.66382 26.3492 7.97953 26.8292C7.29524 27.3091 6.76766 27.9802 6.46279 28.7584C6.15792 29.5367 6.08929 30.3875 6.26549 31.2046C6.44169 32.0216 6.8549 32.7686 7.45342 33.352C8.05194 33.9354 8.8092 34.3294 9.63048 34.4847C10.4518 34.6399 11.3006 34.5496 12.0708 34.2249C12.841 33.9003 13.4983 33.3557 13.9607 32.6594C14.423 31.9631 14.6697 31.1459 14.67 30.3101C14.6234 29.187 14.1429 28.1259 13.3297 27.35C12.5165 26.5741 11.434 26.1439 10.31 26.1501V26.0601Z" fill="#B3B3B3"/>
<path d="M24.13 7.08004C25.693 7.08004 26.96 5.81301 26.96 4.25004C26.96 2.68708 25.693 1.42004 24.13 1.42004C22.567 1.42004 21.3 2.68708 21.3 4.25004C21.3 5.81301 22.567 7.08004 24.13 7.08004Z" fill="white"/>
<path d="M24.13 1.42C24.8624 1.43449 25.5595 1.73747 26.0697 2.26308C26.58 2.7887 26.8621 3.49446 26.8549 4.22696C26.8476 4.95946 26.5516 5.6595 26.031 6.17491C25.5105 6.69033 24.8076 6.97946 24.075 6.97946C23.3425 6.97946 22.6395 6.69033 22.119 6.17491C21.5985 5.6595 21.3024 4.95946 21.2952 4.22696C21.2879 3.49446 21.5701 2.7887 22.0803 2.26308C22.5906 1.73747 23.2876 1.43449 24.02 1.42H24.13ZM24.13 0C23.2677 0 22.4247 0.25571 21.7077 0.734793C20.9907 1.21388 20.4319 1.89481 20.1019 2.6915C19.7719 3.48819 19.6856 4.36484 19.8538 5.21059C20.022 6.05635 20.4373 6.83323 21.047 7.44299C21.6568 8.05274 22.4337 8.46799 23.2794 8.63622C24.1252 8.80446 25.0018 8.71811 25.7985 8.38811C26.5952 8.05812 27.2761 7.49928 27.7552 6.78229C28.2343 6.06529 28.49 5.22233 28.49 4.36C28.49 3.20366 28.0307 2.09467 27.213 1.27701C26.3953 0.459356 25.2864 0 24.13 0Z" fill="#B3B3B3"/>
</g>
<defs>
<linearGradient id="paint0_linear_52_57" x1="24.13" y1="39.22" x2="24.13" y2="2.95997" gradientUnits="userSpaceOnUse">
<stop stop-color="#1989B2"/>
<stop offset="1" stop-color="#50C7E8"/>
</linearGradient>
<linearGradient id="paint1_linear_52_57" x1="17.05" y1="14.33" x2="31.32" y2="25.9" gradientUnits="userSpaceOnUse">
<stop stop-color="white" stop-opacity="0.9"/>
<stop offset="1" stop-color="white" stop-opacity="0.8"/>
</linearGradient>
<clipPath id="clip0_52_57">
<rect width="36.3" height="39.22" fill="white" transform="translate(6)"/>
</clipPath>
</defs>
</svg>
