<svg width="48" height="48" viewBox="0 0 48 48" fill="none" xmlns="http://www.w3.org/2000/svg">
<g clip-path="url(#clip0_55_375)">
<path d="M12.6436 27.709C11.7784 28.0234 11.323 28.9857 11.7397 29.8065C12.7516 31.8001 14.2387 33.5247 16.0798 34.8223C18.3769 36.4412 21.1148 37.3174 23.925 37.333C26.7352 37.3485 29.4828 36.5027 31.7977 34.9094C33.653 33.6323 35.1591 31.9242 36.1931 29.942C36.6188 29.1259 36.1741 28.1585 35.3124 27.8346L34.514 27.5345C33.6524 27.2105 32.7031 27.6568 32.2347 28.4493C31.531 29.6397 30.574 30.6693 29.424 31.4608C27.8139 32.569 25.9029 33.1574 23.9482 33.1465C21.9936 33.1357 20.0892 32.5262 18.4915 31.4002C17.3504 30.596 16.4048 29.5559 15.7144 28.3577C15.2547 27.5602 14.3105 27.1034 13.4453 27.4177L12.6436 27.709Z" fill="url(#paint0_linear_55_375)"/>
<path d="M19.1608 21.3526L21.6408 18.8656C22.9434 17.5594 25.0592 17.5594 26.3618 18.8656L28.8418 21.3526C29.4673 21.9798 30.3165 22.3323 31.2023 22.3323H34.0019C39.5251 22.3323 44.0026 17.8548 44.0026 12.3316V5.85415C44.0026 4.6854 43.3992 3.58057 42.3273 3.1147C36.292 0.491442 27.0369 0.664208 24.0013 0.664204C20.9657 0.664208 11.7106 0.491442 5.67527 3.1147C4.6034 3.58057 4 4.6854 4 5.85415V12.3316C4 17.8548 8.47746 22.3323 14.0006 22.3323H16.8003C17.686 22.3323 18.5353 21.9798 19.1608 21.3526Z" fill="url(#paint1_linear_55_375)"/>
<path d="M26.0846 3.9978H21.9176C20.9971 3.9978 20.2509 4.74404 20.2509 5.66458C20.2509 6.58511 20.9971 7.33135 21.9176 7.33135H26.0846C27.0051 7.33135 27.7514 6.58511 27.7514 5.66458C27.7514 4.74404 27.0051 3.9978 26.0846 3.9978Z" fill="#0078D4"/>
</g>
<defs>
<linearGradient id="paint0_linear_55_375" x1="19.8343" y1="23.5823" x2="29.6266" y2="40.8753" gradientUnits="userSpaceOnUse">
<stop stop-color="#22B8F1"/>
<stop offset="1" stop-color="#018DE1"/>
</linearGradient>
<linearGradient id="paint1_linear_55_375" x1="18.7835" y1="-4.04624" x2="38.35" y2="22.912" gradientUnits="userSpaceOnUse">
<stop stop-color="#50E6FF"/>
<stop offset="0.675951" stop-color="#0095E6"/>
<stop offset="1" stop-color="#0078D4"/>
</linearGradient>
<clipPath id="clip0_55_375">
<rect width="40" height="40" fill="white" transform="translate(4)"/>
</clipPath>
</defs>
</svg>
