<svg width="48" height="48" viewBox="0 0 48 48" fill="none" xmlns="http://www.w3.org/2000/svg">
<g clip-path="url(#clip0_54_341)">
<path d="M29.4327 2L16.353 17L5.36769 4.43336C5.18337 4.22657 5.06191 3.96912 5.0182 3.69257C4.97449 3.41603 5.01045 3.13239 5.12163 2.87648C5.23281 2.62057 5.41441 2.40349 5.64415 2.25186C5.87389 2.10023 6.14176 2.02066 6.41497 2.02287L29.4327 2Z" fill="url(#paint0_linear_54_341)"/>
<path d="M5.53476 29.3839L29.3547 2.10291C29.3638 2.08877 29.3762 2.07718 29.3908 2.06916C29.4054 2.06113 29.4217 2.05688 29.4382 2.05688C29.4548 2.05688 29.4711 2.06113 29.4857 2.06916C29.5002 2.07718 29.5127 2.08877 29.5218 2.10291L41.61 15.9491C41.8637 16.2351 42.0042 16.6078 42.0042 16.9943C42.0042 17.3809 41.8637 17.7537 41.61 18.0397L29.8895 31.4745C29.7493 31.6364 29.5779 31.7667 29.3861 31.8571C29.1944 31.9476 28.9864 31.9962 28.7753 32.0001H6.68231C6.38748 31.9984 6.09929 31.9099 5.85215 31.7451C5.60502 31.5802 5.40934 31.346 5.2884 31.0702C5.16746 30.7945 5.12636 30.489 5.17004 30.19C5.21372 29.891 5.34034 29.6112 5.53476 29.3839Z" fill="url(#paint1_linear_54_341)"/>
<path d="M5.53484 29.3954L29.4327 1.97729L35.9838 9.47158L16.353 31.9772H6.67123C6.38156 31.9726 6.09916 31.8835 5.85702 31.7204C5.61489 31.5573 5.42302 31.327 5.30384 31.0562C5.18466 30.7854 5.14309 30.4855 5.18399 30.1914C5.22489 29.8973 5.3466 29.6212 5.53484 29.3954Z" fill="url(#paint2_linear_54_341)"/>
</g>
<defs>
<linearGradient id="paint0_linear_54_341" x1="22.2355" y1="19.3877" x2="16.8712" y2="2.56757" gradientUnits="userSpaceOnUse">
<stop stop-color="#0D36A5"/>
<stop offset="1" stop-color="#1152D4"/>
</linearGradient>
<linearGradient id="paint1_linear_54_341" x1="23.5724" y1="2.05717" x2="23.5724" y2="32.0001" gradientUnits="userSpaceOnUse">
<stop stop-color="#84CAFF"/>
<stop offset="1" stop-color="#61B1FB"/>
</linearGradient>
<linearGradient id="paint2_linear_54_341" x1="20.5643" y1="2.00014" x2="20.5643" y2="32.0001" gradientUnits="userSpaceOnUse">
<stop stop-color="#3B90F5"/>
<stop offset="1" stop-color="#2A78EE"/>
</linearGradient>
<clipPath id="clip0_54_341">
<rect width="37" height="30" fill="white" transform="translate(5 2)"/>
</clipPath>
</defs>
</svg>
