<svg width="48" height="48" viewBox="0 0 48 48" fill="none" xmlns="http://www.w3.org/2000/svg">
<g clip-path="url(#clip0_54_346)">
<path d="M18.7201 35.2332L4.51486 19.3502C4.18082 18.9785 3.99658 18.5005 3.99658 18.0056C3.99658 17.5108 4.18082 17.0328 4.51486 16.6611L18.7201 0.778054C18.9166 0.559146 19.1587 0.383806 19.4301 0.263659C19.7015 0.143512 19.996 0.0812988 20.2939 0.0812988C20.5918 0.0812988 20.8863 0.143512 21.1576 0.263659C21.429 0.383806 21.6711 0.559146 21.8677 0.778054L37.2781 17.9999L21.8677 35.2332C21.6711 35.4521 21.429 35.6275 21.1576 35.7477C20.8863 35.8678 20.5918 35.93 20.2939 35.93C19.996 35.93 19.7015 35.8678 19.4301 35.7477C19.1587 35.6275 18.9166 35.4521 18.7201 35.2332Z" fill="url(#paint0_linear_54_346)"/>
<path d="M27.4959 0.663748L42.45 16.6269C42.8061 17.0016 43.0041 17.4942 43.0041 18.0057C43.0041 18.5173 42.8061 19.0099 42.45 19.3846L27.4959 35.3478C27.2998 35.5555 27.0619 35.7212 26.7971 35.8345C26.5323 35.9479 26.2463 36.0064 25.9572 36.0064C25.6682 36.0064 25.3822 35.9479 25.1174 35.8345C24.8526 35.7212 24.6146 35.5555 24.4185 35.3478L18.0648 28.562C17.7876 28.2717 17.6334 27.8893 17.6334 27.4921C17.6334 27.0949 17.7876 26.7125 18.0648 26.4222L24.9568 19.0757C25.229 18.7829 25.3797 18.4014 25.3797 18.0057C25.3797 17.6101 25.229 17.2286 24.9568 16.9358L18.0648 9.5779C17.7884 9.28947 17.6346 8.909 17.6346 8.5137C17.6346 8.1184 17.7884 7.73793 18.0648 7.4495L24.4185 0.663748C24.6146 0.456072 24.8526 0.290359 25.1174 0.177011C25.3822 0.0636627 25.6682 0.00512695 25.9572 0.00512695C26.2463 0.00512695 26.5323 0.0636627 26.7971 0.177011C27.0619 0.290359 27.2998 0.456072 27.4959 0.663748Z" fill="url(#paint1_linear_54_346)"/>
<path d="M33.6625 9.7839C33.8133 9.62879 33.9948 9.50531 34.196 9.42092C34.3971 9.33653 34.6137 9.29297 34.8326 9.29297C35.0515 9.29297 35.2681 9.33653 35.4692 9.42092C35.6704 9.50531 35.8519 9.62879 36.0027 9.7839L42.3447 16.5582C42.7173 16.9499 42.9244 17.4651 42.9244 18C42.9244 18.535 42.7173 19.0502 42.3447 19.4419L36.0027 26.2276C35.8502 26.3799 35.6681 26.5008 35.4672 26.5834C35.2663 26.666 35.0505 26.7085 34.8326 26.7085C34.6147 26.7085 34.3989 26.666 34.198 26.5834C33.9971 26.5008 33.815 26.3799 33.6625 26.2276L27.4608 19.6136C27.0497 19.1746 26.8217 18.601 26.8217 18.0058C26.8217 17.4105 27.0497 16.8369 27.4608 16.398L33.6625 9.7839Z" fill="url(#paint2_linear_54_346)"/>
</g>
<defs>
<linearGradient id="paint0_linear_54_346" x1="28.7012" y1="37.5104" x2="7.93576" y2="-14.4339" gradientUnits="userSpaceOnUse">
<stop stop-color="#742774"/>
<stop offset="1" stop-color="#BB35A4"/>
</linearGradient>
<linearGradient id="paint1_linear_54_346" x1="18.7786" y1="-0.858192" x2="35.9959" y2="35.8874" gradientUnits="userSpaceOnUse">
<stop stop-color="#E48CC7"/>
<stop offset="1" stop-color="#D467B9"/>
</linearGradient>
<linearGradient id="paint2_linear_54_346" x1="32.0828" y1="9.5779" x2="37.5219" y2="26.6538" gradientUnits="userSpaceOnUse">
<stop stop-color="#E9A1CB"/>
<stop offset="1" stop-color="#E48CC7"/>
</linearGradient>
<clipPath id="clip0_54_346">
<rect width="39" height="36" fill="white" transform="translate(4)"/>
</clipPath>
</defs>
</svg>
