<svg xmlns="http://www.w3.org/2000/svg" width="64" height="64" viewBox="0 0 64 64">
    <defs>
        <clipPath id="ess035t15a">
            <path data-name="Rectangle 887" style="fill:none" d="M0 0h40v23.652H0z"/>
        </clipPath>
    </defs>
    <g data-name="Group 653">
        <path data-name="Rectangle 877" style="fill:none" d="M0 0h64v64H0z"/>
        <g data-name="Group 652">
            <g data-name="Group 651" transform="translate(12 20)" style="clip-path:url(#ess035t15a)">
                <path data-name="Path 639" d="M7.47 5.869a1.328 1.328 0 0 1-.75-2.424A19.92 19.92 0 0 1 17.022 0a1.328 1.328 0 1 1 .125 2.653 17.254 17.254 0 0 0-8.93 2.985 1.328 1.328 0 0 1-.747.231" transform="translate(2.012)" style="fill:#e63946"/>
                <path data-name="Path 640" d="M30.119 18.741a1.33 1.33 0 0 1-1.328-1.3A17.36 17.36 0 0 0 26.3 8.79a1.327 1.327 0 1 1 2.273-1.371 20 20 0 0 1 2.873 9.969 1.328 1.328 0 0 1-1.3 1.353z" transform="translate(8.554 2.22)" style="fill:#e63946"/>
                <path data-name="Path 641" d="M27.121 7.7a1.328 1.328 0 0 1-.921-.37 17.35 17.35 0 0 0-7.394-4.23 1.328 1.328 0 0 1 .71-2.56 20.017 20.017 0 0 1 8.527 4.882 1.328 1.328 0 0 1-.922 2.278" transform="translate(5.843 .161)" style="fill:#e63946"/>
                <path data-name="Path 642" d="M1.329 19.018H1.3A1.327 1.327 0 0 1 0 17.667 19.838 19.838 0 0 1 3.668 6.488a1.327 1.327 0 1 1 2.165 1.536 17.19 17.19 0 0 0-3.177 9.69 1.329 1.329 0 0 1-1.328 1.3" transform="translate(0 1.942)" style="fill:#e63946"/>
                <path data-name="Path 643" d="m14 18.092 15.726-8.77-14.263 10.987A1.33 1.33 0 1 1 14 18.092" transform="translate(4.364 3.054)" style="fill:#1d3557"/>
            </g>
        </g>
    </g>
</svg>
