<svg xmlns="http://www.w3.org/2000/svg" xmlns:xlink="http://www.w3.org/1999/xlink" width="36px" height="36px" viewBox="0 0 36 36"><title>Accelerate Time to Market</title><g id="Mixed-Reality-and-Power-BI" stroke="none" stroke-width="1" fill="none" fill-rule="evenodd"><g id="Supply-Chain-Management" transform="translate(-112.000000, -1080.000000)"><g id="Accelerate-Time-to-Market" transform="translate(112.000000, 1080.000000)"><rect id="Rectangle" fill="#FF6A6A" x="0" y="0" width="36" height="36" rx="7.5"></rect><g transform="translate(9.000000, 8.000000)" stroke="#FFFFFF" stroke-linejoin="round"><line x1="8" y1="11.6666667" x2="8" y2="17" id="Stroke-1"></line><polyline id="Stroke-2" points="4.66666667 15 4.66666667 11.6666667 3.33333333 11.6666667 6.33333333 7.33333333 9.33333333 11.6666667 6.33333333 11.6666667"></polyline><g id="Group-11" transform="translate(0.000000, 10.333333)"><line x1="4.66666667" y1="8.66666667" x2="4.66666667" y2="10.6666667" id="Stroke-3"></line><polyline id="Stroke-5" points="1.33333333 10.6666667 1.33333333 8.66666667 0 8.66666667 3 4.33333333 6 8.66666667 3 8.66666667"></polyline><line x1="14.6666667" y1="4.33333333" x2="14.6666667" y2="10.6666667" id="Stroke-7"></line><polyline id="Stroke-9" points="11.3333333 10.6666667 11.3333333 4.33333333 10 4.33333333 13 0 16 4.33333333 13 4.33333333"></polyline></g><line x1="11.3333333" y1="4.33333333" x2="11.3333333" y2="10.6666667" id="Stroke-12"></line><g id="Group-17" transform="translate(6.666667, 0.000000)"><polyline id="Stroke-13" points="1.33333333 7.66666667 1.33333333 4.33333333 0 4.33333333 3 0 6 4.33333333 3 4.33333333"></polyline><line x1="1.33333333" y1="21" x2="1.33333333" y2="20.3333333" id="Stroke-15"></line></g><line x1="8" y1="19.6666667" x2="8" y2="19" id="Stroke-18"></line><line x1="8" y1="18.3333333" x2="8" y2="17.6666667" id="Stroke-19"></line><line x1="14" y1="7" x2="16.6666667" y2="7" id="Stroke-25"></line><line x1="12.6666667" y1="7" x2="13.3333333" y2="7" id="Stroke-26"></line><line x1="5.33333333" y1="5.66666667" x2="6" y2="5.66666667" id="Stroke-27"></line><line x1="4" y1="5.66666667" x2="4.66666667" y2="5.66666667" id="Stroke-28"></line></g></g></g></g></svg>