<svg xmlns="http://www.w3.org/2000/svg" width="94" height="94" viewBox="0 0 94 94">
    <defs>
        <clipPath id="1mezm1tcpb">
            <path data-name="Rectangle 1398" style="fill:#07a081" d="M0 0h38v34.919H0z"/>
        </clipPath>
        <filter id="z8vgb5tbga" x="0" y="0" width="94" height="94" filterUnits="userSpaceOnUse">
            <feOffset dx="5" dy="5"/>
            <feGaussianBlur stdDeviation="5" result="blur"/>
            <feFlood flood-color="#165cc4" flood-opacity=".161"/>
            <feComposite operator="in" in2="blur"/>
            <feComposite in="SourceGraphic"/>
        </filter>
    </defs>
    <g data-name="Group 1409">
        <g data-name="Group 1405">
            <g style="filter:url(#z8vgb5tbga)">
                <rect data-name="Rectangle 1898" width="64" height="64" rx="5" transform="translate(10 10)" style="fill:#fff"/>
            </g>
            <g data-name="Group 1182">
                <g data-name="Group 958">
                    <path data-name="Rectangle 1281" transform="translate(18 18)" style="fill:none" d="M0 0h48v48H0z"/>
                </g>
                <path data-name="Rectangle 877" transform="translate(18 18)" style="fill:none" d="M0 0h48v48H0z"/>
                <g data-name="Group 1181">
                    <g data-name="Group 1178">
                        <path data-name="Line 110" transform="translate(41.5 37.354)" style="stroke:#1d3557;stroke-linecap:round;stroke-width:1.5px;fill:none" d="M0 0v8.211"/>
                        <path data-name="Line 111" transform="rotate(90 2.073 43.532)" style="stroke:#1d3557;stroke-linecap:round;stroke-width:1.5px;fill:none" d="M0 0v8.211"/>
                    </g>
                    <g data-name="Group 1180">
                        <g data-name="Group 1179" transform="translate(25 24)" style="clip-path:url(#1mezm1tcpb)">
                            <path data-name="Path 1036" d="m0 34.764.1-4.241c.058-2.288.115-4.628.134-6.967C.266 19.424.3 14.74.213 10.2a3.575 3.575 0 0 1 .845-2.752 3.344 3.344 0 0 1 2.6-.723c1.749.11 3.507.117 5.367.126h1.056a5.573 5.573 0 0 1 2.94-6.1 5.606 5.606 0 0 1 6.268.446 5.433 5.433 0 0 1 2.254 5.545l6.3.006c2.977.013 3.539.581 3.545 3.574 0 1.51 0 3.02-.011 4.588v.7a5.5 5.5 0 0 1 5.292 2.038A7.11 7.11 0 0 1 38 21.764a5.053 5.053 0 0 1-1.771 3.891 6.992 6.992 0 0 1-4.887 1.408c.01.891.019 1.773.053 2.652s.094 1.771.152 2.606l.149 2.344-13.059.035.443-1.534c.773-2.684-.493-3.795-1.517-4.4a3.2 3.2 0 0 0-3.7.176c-1.473 1.029-1.852 2.385-1.225 4.4l.491 1.576zM2.713 9.181a2.106 2.106 0 0 0-.1.966c.093 4.578.054 9.28.019 13.428-.021 2.353-.078 4.7-.133 7.005l-.043 1.812 7.551.09a5.574 5.574 0 0 1 2.489-5.506 5.556 5.556 0 0 1 6.284-.274 5.545 5.545 0 0 1 2.907 5.589l7.452-.021c-.053-.8-.109-1.63-.141-2.465a97.41 97.41 0 0 1-.054-2.769l-.04-2.7 1.4.213c1.912.293 3.467.032 4.378-.736a2.689 2.689 0 0 0 .917-2.105 4.77 4.77 0 0 0-.877-2.652c-.769-1.056-1.948-1.3-4.346-.878l-1.413.251.011-3.531c.008-1.565.013-3.07.011-4.575 0-.376 0-.857-.026-1.149a17.538 17.538 0 0 0-1.126-.029l-9.44-.01.494-1.56c.841-2.648-.042-3.737-1.016-4.446a3.239 3.239 0 0 0-3.7-.274c-1.192.646-2.3 1.736-1.47 4.9l.4 1.526-1.581-.015a214.83 214.83 0 0 0-2.5-.021c-1.9-.008-3.691-.014-5.508-.13-.633-.042-.8.064-.8.066" transform="translate(0 -.001)" style="fill:#07a081"/>
                        </g>
                    </g>
                </g>
            </g>
        </g>
    </g>
</svg>
