<?xml version="1.0" encoding="UTF-8"?><svg id="Layer_2" xmlns="http://www.w3.org/2000/svg" width="48" height="48" viewBox="0 0 48 48"><g id="Layer_1-2"><g><path id="Base" d="M20.24,0h7.521c6.538,0,9.281,.754,11.929,2.17,2.648,1.416,4.725,3.494,6.141,6.141,1.416,2.648,2.17,5.391,2.17,11.929v7.521c0,6.538-.754,9.281-2.17,11.929-1.416,2.648-3.494,4.725-6.141,6.141-2.648,1.416-5.391,2.17-11.929,2.17h-7.521c-6.538,0-9.281-.754-11.929-2.17-2.648-1.416-4.725-3.494-6.141-6.141-1.416-2.648-2.17-5.391-2.17-11.929v-7.521c0-6.538,.754-9.281,2.17-11.929,1.416-2.648,3.494-4.725,6.141-6.141C10.959,.754,13.702,0,20.24,0Z" style="fill:#ed736e; fill-rule:evenodd;"/><path d="M37.2,30.658H10.8c-.401,0-.726-.325-.726-.726V13.953c0-.401,.325-.726,.726-.726h26.4c.401,0,.726,.325,.726,.726v15.979c0,.401-.325,.726-.726,.726Zm-16.6-12.578h12.505m-18.284,4.378h9m3.395-.016h2.368m-14.763-4.362h2.368m2.842,16.693h8.905" style="fill:none; stroke:#fff; stroke-linecap:round; stroke-width:2px;"/></g></g></svg>