<svg width="158" height="158" viewBox="0 0 158 158" fill="none" xmlns="http://www.w3.org/2000/svg">
    <g filter="url(#cs1toa4tia)">
        <path d="M118 15H40c-5.523 0-10 4.477-10 10v78c0 5.523 4.477 10 10 10h78c5.523 0 10-4.477 10-10V25c0-5.523-4.477-10-10-10z" fill="#fff"/>
    </g>
    <g clip-path="url(#1q8o7zlp1b)" stroke-width="3" stroke-linecap="round" stroke-linejoin="round">
        <path d="M88.32 64.976a22.768 22.768 0 0 0-12.994-4.043h-.384c-.8.005-1.6.056-2.393.155v0a22.9 22.9 0 0 0-11.7 4.992 23.234 23.234 0 0 0-7.293 10.496M82.29 51.842c0 1.838-.54 3.634-1.551 5.163a9.225 9.225 0 0 1-4.132 3.422 9.124 9.124 0 0 1-5.318.53 9.179 9.179 0 0 1-4.713-2.544 9.32 9.32 0 0 1-2.52-4.758 9.376 9.376 0 0 1 .524-5.37 9.275 9.275 0 0 1 3.39-4.17 9.143 9.143 0 0 1 5.115-1.566c2.441 0 4.782.979 6.509 2.722a9.339 9.339 0 0 1 2.696 6.57v0z" stroke="#E63946"/>
        <path d="m101.99 70.614-11.445 8.905-6.536-5.932-13.071 11.864M96.927 67.764l7.533 1.037M104.46 68.801l-1.013 7.605" stroke="#1D3557"/>
    </g>
    <defs>
        <clipPath id="1q8o7zlp1b">
            <path fill="#fff" transform="translate(52 41)" d="M0 0h54v46H0z"/>
        </clipPath>
        <filter id="cs1toa4tia" x="0" y="0" width="158" height="158" filterUnits="userSpaceOnUse" color-interpolation-filters="sRGB">
            <feFlood flood-opacity="0" result="BackgroundImageFix"/>
            <feColorMatrix in="SourceAlpha" values="0 0 0 0 0 0 0 0 0 0 0 0 0 0 0 0 0 0 127 0" result="hardAlpha"/>
            <feOffset dy="15"/>
            <feGaussianBlur stdDeviation="15"/>
            <feColorMatrix values="0 0 0 0 0.0862745 0 0 0 0 0.360784 0 0 0 0 0.768627 0 0 0 0.161 0"/>
            <feBlend in2="BackgroundImageFix" result="effect1_dropShadow_417_840"/>
            <feBlend in="SourceGraphic" in2="effect1_dropShadow_417_840" result="shape"/>
        </filter>
    </defs>
</svg>
