<svg xmlns="http://www.w3.org/2000/svg" xmlns:xlink="http://www.w3.org/1999/xlink" width="48px" height="48px" viewBox="0 0 48 48"><title>Asset Management</title><g id="Industry-Pages" stroke="none" stroke-width="1" fill="none" fill-rule="evenodd"><g id="Industry-Page---Manufacturing-and-Operations" transform="translate(-122.000000, -2450.000000)"><g id="Asset-Management" transform="translate(122.000000, 2450.000000)"><path d="M20.2397463,-2.3148967e-15 L27.7602537,-8.47674643e-16 C34.2978605,5.39989121e-16 37.0413176,0.75402958 39.6888389,2.1699395 C42.3363603,3.58584942 44.4141506,5.66363969 45.8300605,8.31116105 C47.2459704,10.9586824 48,13.7021395 48,20.2397463 L48,27.7602537 C48,34.2978605 47.2459704,37.0413176 45.8300605,39.6888389 C44.4141506,42.3363603 42.3363603,44.4141506 39.6888389,45.8300605 C37.0413176,47.2459704 34.2978605,48 27.7602537,48 L20.2397463,48 C13.7021395,48 10.9586824,47.2459704 8.31116105,45.8300605 C5.66363969,44.4141506 3.58584942,42.3363603 2.1699395,39.6888389 C0.75402958,37.0413176 1.31886888e-15,34.2978605 -2.07035969e-15,27.7602537 L-1.09221165e-15,20.2397463 C6.95765074e-16,13.7021395 0.75402958,10.9586824 2.1699395,8.31116105 C3.58584942,5.66363969 5.66363969,3.58584942 8.31116105,2.1699395 C10.9586824,0.75402958 13.7021395,1.47464483e-15 20.2397463,-2.3148967e-15 Z" id="Base" fill="#43A6EA"></path><path d="M24.6884167,25.6666589 C25.24025,25.6666589 25.6738333,26.1726589 25.5500833,26.7455756 C25.47675,27.0856589 25.1843333,27.3354506 24.847,27.4197839 L24.847,27.4197839 L19.8603333,28.6714923 C19.4615833,28.7714089 19.204,29.1761173 19.3094167,29.5991589 C19.411625,30.0102839 19.859875,30.2376173 20.271,30.1344923 L20.271,30.1344923 L24.0132917,29.1990339 C24.7608333,29.0120339 25.4923333,28.7631589 26.1990833,28.4551589 L26.1990833,28.4551589 L26.8320417,28.1787839 C26.9095,28.1402839 26.9750417,28.0852839 27.0259167,28.0192839 C27.460875,27.4541589 28.037,27.0146173 28.7290833,26.8413673 L28.7290833,26.8413673 L32.8889167,25.8014089 C33.2555833,25.7564923 33.618125,25.7120339 33.9843333,25.6666589 C34.5453333,25.6666589 35,26.1213256 35,26.6823256 L35,26.6823256 L35,26.8253256 C35,27.1603673 34.8345417,27.4738673 34.5577083,27.6631589 L34.5577083,27.6631589 L29.7947083,30.9232839 C28.0406667,32.1236589 26.08725,33.0022839 24.0256667,33.5183673 L24.0256667,33.5183673 L19.2296667,34.7192006 C18.6232917,34.8709089 18.1406667,35.2902839 17.8940833,35.8315756 C17.6676667,36.3279506 17.1969583,36.6666589 16.6515417,36.6666589 L16.6515417,36.6666589 L14.1788333,36.6666589 C13.528,36.6666589 13,36.1386589 13,35.4878256 L13,35.4878256 L13,32.8088673 C13,31.2367839 13.534875,29.7123673 14.516625,28.4849506 L14.516625,28.4849506 L14.99375,27.8886589 C15.739,26.9568673 16.7697917,26.2954923 17.9270833,26.0062839 L17.9270833,26.0062839 L18.63475,25.8293673 C19.0669583,25.7212006 19.510625,25.6666589 19.956125,25.6666589 L19.956125,25.6666589 Z M24.9966917,11.5018673 C25.5114,11.1929506 26.1549,11.1929506 26.6696083,11.5018673 L26.6696083,11.5018673 L34.2692333,16.0613673 C34.722525,16.3336173 34.9998167,16.8235756 34.9998167,17.3520339 L34.9998167,17.3520339 L34.9998167,17.7961589 C34.9998167,18.0927006 34.7591917,18.3333256 34.46265,18.3333256 L34.46265,18.3333256 L33.5198583,18.3333256 C33.3246083,18.3333256 33.1664833,18.4914506 33.1664833,18.6867006 L33.1664833,18.6867006 L33.1664833,23.1893673 C33.1664833,23.5450339 32.8781917,23.8333256 32.522525,23.8333256 L32.522525,23.8333256 L19.143775,23.8333256 C18.7881083,23.8333256 18.4998167,23.5450339 18.4998167,23.1893673 L18.4998167,23.1893673 L18.4998167,18.6867006 C18.4998167,18.4914506 18.3416917,18.3333256 18.1464417,18.3333256 L18.1464417,18.3333256 L17.20365,18.3333256 C16.9071083,18.3333256 16.6664833,18.0927006 16.6664833,17.7961589 L16.6664833,17.7961589 L16.6664833,17.3520339 C16.6664833,16.8235756 16.943775,16.3336173 17.3970667,16.0613673 L17.3970667,16.0613673 Z M25.83315,14.1877006 C25.4692333,14.1877006 25.1575667,14.4012839 25.009525,14.7088256 C24.0190667,14.8939923 23.2655667,15.7616173 23.2655667,16.8052423 L23.2655667,16.8052423 L23.2655667,17.1178256 C23.2655667,18.2324923 24.1263167,19.1399923 25.2166917,19.2353256 C25.276275,19.2477006 25.33815,19.2541173 25.4018583,19.2541173 L25.4018583,19.2541173 L26.2644417,19.2541173 C26.428525,19.2541173 26.5674,19.3929923 26.5674,19.5566173 L26.5674,19.5566173 L26.5674,19.8692006 C26.5674,20.0332839 26.428525,20.1721589 26.2644417,20.1721589 L26.2644417,20.1721589 L24.5878583,20.1721589 C24.0814,20.1721589 23.6711917,20.5823673 23.6711917,21.0888256 C23.6711917,21.5948256 24.0814,22.0054923 24.5878583,22.0054923 L24.5878583,22.0054923 L25.0310667,22.0054923 C25.1864417,22.2910339 25.485275,22.4867423 25.83315,22.4867423 C26.1970667,22.4867423 26.5087333,22.2731589 26.656775,21.9656173 C27.6476917,21.7804506 28.4007333,20.9128256 28.4007333,19.8692006 L28.4007333,19.8692006 L28.4007333,19.5566173 C28.4007333,18.4424089 27.5399833,17.5349089 26.4496083,17.4395756 C26.3895667,17.4272006 26.32815,17.4207839 26.2644417,17.4207839 L26.2644417,17.4207839 L25.4018583,17.4207839 C25.237775,17.4207839 25.0989,17.2819089 25.0989,17.1178256 L25.0989,17.1178256 L25.0989,16.8052423 C25.0989,16.6411589 25.237775,16.5022839 25.4018583,16.5022839 L25.4018583,16.5022839 L27.0784417,16.5022839 C27.5849,16.5022839 27.9951083,16.0920756 27.9951083,15.5856173 C27.9951083,15.0796173 27.5849,14.6689506 27.0784417,14.6689506 L27.0784417,14.6689506 L26.6352333,14.6689506 C26.4798583,14.3834089 26.181025,14.1877006 25.83315,14.1877006 Z M32.7972958,10.9999464 C33.0012542,10.9999464 33.1667125,11.1649464 33.1667125,11.3689048 L33.1667125,11.3689048 L33.1667125,13.3255298 C33.1667125,13.5207798 32.9613792,13.6472798 32.7867542,13.5601964 L32.7867542,13.5601964 L31.5240458,12.9286131 C31.4071708,12.8704048 31.3333792,12.7507798 31.3333792,12.6201548 L31.3333792,12.6201548 L31.3333792,11.3689048 C31.3333792,11.1649464 31.4983792,10.9999464 31.7023375,10.9999464 L31.7023375,10.9999464 Z" id="Fill-2" fill="#FFFFFF"></path></g></g></g></svg>