<svg xmlns="http://www.w3.org/2000/svg" width="32" height="46.545" viewBox="0 0 32 46.545">
    <path data-name="Icon awesome-microphone" d="M16 32a8.727 8.727 0 0 0 8.727-8.727V8.727a8.727 8.727 0 1 0-17.455 0v14.546A8.727 8.727 0 0 0 16 32zm14.545-14.545h-1.454a1.454 1.454 0 0 0-1.455 1.455v4.364a11.65 11.65 0 0 1-12.8 11.58c-6.045-.59-10.474-6.025-10.474-12.1v-3.845a1.454 1.454 0 0 0-1.455-1.455H1.455A1.454 1.454 0 0 0 0 18.909v3.651c0 8.149 5.815 15.414 13.818 16.517v3.1H8.727a1.454 1.454 0 0 0-1.455 1.455v1.455a1.454 1.454 0 0 0 1.455 1.455h14.546a1.454 1.454 0 0 0 1.455-1.455v-1.451a1.454 1.454 0 0 0-1.455-1.455h-5.091v-3.07A16.016 16.016 0 0 0 32 23.273v-4.364a1.454 1.454 0 0 0-1.455-1.454z" style="fill:#ee3442"/>
</svg>
