<?xml version="1.0" encoding="UTF-8"?><svg id="Layer_2" xmlns="http://www.w3.org/2000/svg" width="48" height="48" viewBox="0 0 48 48"><g id="Layer_1-2"><g><path id="Base" d="M20.24,0h7.521c6.538,0,9.281,.754,11.929,2.17,2.648,1.416,4.725,3.494,6.141,6.141,1.416,2.648,2.17,5.391,2.17,11.929v7.521c0,6.538-.754,9.281-2.17,11.929-1.416,2.648-3.494,4.725-6.141,6.141-2.648,1.416-5.391,2.17-11.929,2.17h-7.521c-6.538,0-9.281-.754-11.929-2.17-2.648-1.416-4.725-3.494-6.141-6.141-1.416-2.648-2.17-5.391-2.17-11.929v-7.521c0-6.538,.754-9.281,2.17-11.929,1.416-2.648,3.494-4.725,6.141-6.141C10.959,.754,13.702,0,20.24,0Z" style="fill:#80bef9; fill-rule:evenodd;"/><g><path d="M31.018,21.372h-14.037c-2.458,0-4.457-1.999-4.457-4.457v-.956c0-2.458,1.999-4.457,4.457-4.457h14.037c2.458,0,4.457,1.999,4.457,4.457v.956c0,2.458-1.999,4.457-4.457,4.457Zm-14.037-8.37c-1.63,0-2.957,1.326-2.957,2.957v.956c0,1.631,1.326,2.957,2.957,2.957h14.037c1.63,0,2.957-1.326,2.957-2.957v-.956c0-1.631-1.326-2.957-2.957-2.957h-14.037Z" style="fill:#fff;"/><path d="M30.115,29.308h-12.23c-2.956,0-5.36-2.404-5.36-5.359v-7.088c0-2.955,2.404-5.359,5.36-5.359h12.23c2.955,0,5.359,2.404,5.359,5.359v7.088c0,2.955-2.404,5.359-5.359,5.359ZM17.885,13.001c-2.128,0-3.86,1.731-3.86,3.859v7.088c0,2.128,1.731,3.859,3.86,3.859h12.23c2.128,0,3.859-1.731,3.859-3.859v-7.088c0-2.128-1.731-3.859-3.859-3.859h-12.23Z" style="fill:#fff;"/><path d="M29.735,36.499h-11.47c-3.165,0-5.74-2.575-5.74-5.74v-13.903c0-2.952,2.401-5.354,5.353-5.354h12.244c2.951,0,5.353,2.401,5.353,5.354v13.903c0,3.165-2.575,5.74-5.74,5.74ZM17.878,13.001c-2.125,0-3.853,1.729-3.853,3.854v13.903c0,2.338,1.902,4.24,4.24,4.24h11.47c2.338,0,4.24-1.902,4.24-4.24v-13.903c0-2.125-1.728-3.854-3.853-3.854h-12.244Z" style="fill:#fff;"/><circle cx="17.349" cy="24" r="1.319" style="fill:#fff;"/><circle cx="17.349" cy="31.723" r="1.319" style="fill:#fff;"/></g></g></g></svg>