<svg xmlns="http://www.w3.org/2000/svg" xmlns:xlink="http://www.w3.org/1999/xlink" width="758" height="432"><defs><filter x="-7.2%" y="-12.6%" width="114.5%" height="126.3%" filterUnits="objectBoundingBox" id="a"><feGaussianBlur stdDeviation="15"></feGaussianBlur></filter><rect id="b" x="50" y="50" width="635" height="350" rx="15"></rect></defs><g fill="none" fill-rule="evenodd"><path d="M754 175v3.5h3.5v3H751V175h3zm-360 0v3.5h3.5v3H391V175h3zm30 0v3.5h3.5v3H421V175h3zm30 0v3.5h3.5v3H451V175h3zm30 0v3.5h3.5v3H481V175h3zm30 0v3.5h3.5v3H511V175h3zm30 0v3.5h3.5v3H541V175h3zm30 0v3.5h3.5v3H571V175h3zm30 0v3.5h3.5v3H601V175h3zm30 0v3.5h3.5v3H631V175h3zm30 0v3.5h3.5v3H661V175h3zm30 0v3.5h3.5v3H691V175h3zm30 0v3.5h3.5v3H721V175h3zm-165-10v3.5h3.5v3H556V165h3zm-90 0v3.5h3.5v3H466V165h3zm120 0v3.5h3.5v3H586V165h3zm-210 0v3.5h3.5v3H376V165h3zm240 0v3.5h3.5v3H616V165h3zm-120 0v3.5h3.5v3H496V165h3zm150 0v3.5h3.5v3H646V165h3zm-210 0v3.5h3.5v3H436V165h3zm240 0v3.5h3.5v3H676V165h3zm-150 0v3.5h3.5v3H526V165h3zm180 0v3.5h3.5v3H706V165h3zm-300 0v3.5h3.5v3H406V165h3zm330 0v3.5h3.5v3H736V165h3zm-315-5v3.5h3.5v3H421V160h3zm30 0v3.5h3.5v3H451V160h3zm-60 0v3.5h3.5v3H391V160h3zm90 0v3.5h3.5v3H481V160h3zm30 0v3.5h3.5v3H511V160h3zm30 0v3.5h3.5v3H541V160h3zm30 0v3.5h3.5v3H571V160h3zm30 0v3.5h3.5v3H601V160h3zm30 0v3.5h3.5v3H631V160h3zm30 0v3.5h3.5v3H661V160h3zm30 0v3.5h3.5v3H691V160h3zm30 0v3.5h3.5v3H721V160h3zm30 0v3.5h3.5v3H751V160h3zm-285-10v3.5h3.5v3H466V150h3zm120 0v3.5h3.5v3H586V150h3zm-210 0v3.5h3.5v3H376V150h3zm240 0v3.5h3.5v3H616V150h3zm-120 0v3.5h3.5v3H496V150h3zm150 0v3.5h3.5v3H646V150h3zm-240 0v3.5h3.5v3H406V150h3zm270 0v3.5h3.5v3H676V150h3zm-150 0v3.5h3.5v3H526V150h3zm180 0v3.5h3.5v3H706V150h3zm-270 0v3.5h3.5v3H436V150h3zm300 0v3.5h3.5v3H736V150h3zm-180 0v3.5h3.5v3H556V150h3zm-105-5v3.5h3.5v3H451V145h3zm90 0v3.5h3.5v3H541V145h3zm120 0v3.5h3.5v3H661V145h3zm-270 0v3.5h3.5v3H391V145h3zm180 0v3.5h3.5v3H571V145h3zm120 0v3.5h3.5v3H691V145h3zm-210 0v3.5h3.5v3H481V145h3zm120 0v3.5h3.5v3H601V145h3zm120 0v3.5h3.5v3H721V145h3zm-300 0v3.5h3.5v3H421V145h3zm90 0v3.5h3.5v3H511V145h3zm240 0v3.5h3.5v3H751V145h3zm-120 0v3.5h3.5v3H631V145h3zm-105-10v3.5h3.5v3H526V135h3zm-150 0v3.5h3.5v3H376V135h3zm60 0v3.5h3.5v3H436V135h3zm150 0v3.5h3.5v3H586V135h3zm-90 0v3.5h3.5v3H496V135h3zm210 0v3.5h3.5v3H706V135h3zm-30 0v3.5h3.5v3H676V135h3zm-60 0v3.5h3.5v3H616V135h3zm-60 0v3.5h3.5v3H556V135h3zm180 0v3.5h3.5v3H736V135h3zm-330 0v3.5h3.5v3H406V135h3zm240 0v3.5h3.5v3H646V135h3zm-180 0v3.5h3.5v3H466V135h3zm-75-5v3.5h3.5v3H391V130h3zm150 0v3.5h3.5v3H541V130h3zm-30 0v3.5h3.5v3H511V130h3zm150 0v3.5h3.5v3H661V130h3zm-90 0v3.5h3.5v3H571V130h3zm120 0v3.5h3.5v3H691V130h3zm-90 0v3.5h3.5v3H601V130h3zm-150 0v3.5h3.5v3H451V130h3zm270 0v3.5h3.5v3H721V130h3zm-300 0v3.5h3.5v3H421V130h3zm60 0v3.5h3.5v3H481V130h3zm270 0v3.5h3.5v3H751V130h3zm-120 0v3.5h3.5v3H631V130h3zm-45-10v3.5h3.5v3H586V120h3zm30 0v3.5h3.5v3H616V120h3zm-180 0v3.5h3.5v3H436V120h3zm120 0v3.5h3.5v3H556V120h3zm-30 0v3.5h3.5v3H526V120h3zm-150 0v3.5h3.5v3H376V120h3zm300 0v3.5h3.5v3H676V120h3zm-180 0v3.5h3.5v3H496V120h3zm150 0v3.5h3.5v3H646V120h3zm90 0v3.5h3.5v3H736V120h3zm-30 0v3.5h3.5v3H706V120h3zm-240 0v3.5h3.5v3H466V120h3zm-60 0v3.5h3.5v3H406V120h3zm15-5v3.5h3.5v3H421V115h3zm30 0v3.5h3.5v3H451V115h3zm240 0v3.5h3.5v3H691V115h3zm-30 0v3.5h3.5v3H661V115h3zm60 0v3.5h3.5v3H721V115h3zm-210 0v3.5h3.5v3H511V115h3zm120 0v3.5h3.5v3H631V115h3zm-150 0v3.5h3.5v3H481V115h3zm90 0v3.5h3.5v3H571V115h3zm-30 0v3.5h3.5v3H541V115h3zm210 0v3.5h3.5v3H751V115h3zm-150 0v3.5h3.5v3H601V115h3zm-210 0v3.5h3.5v3H391V115h3zm15-10v3.5h3.5v3H406V105h3zm60 0v3.5h3.5v3H466V105h3zm180 0v3.5h3.5v3H646V105h3zm-270 0v3.5h3.5v3H376V105h3zm120 0v3.5h3.5v3H496V105h3zm240 0v3.5h3.5v3H736V105h3zm-60 0v3.5h3.5v3H676V105h3zm-150 0v3.5h3.5v3H526V105h3zm-90 0v3.5h3.5v3H436V105h3zm150 0v3.5h3.5v3H586V105h3zm-30 0v3.5h3.5v3H556V105h3zm150 0v3.5h3.5v3H706V105h3zm-90 0v3.5h3.5v3H616V105h3zm-195-5v3.5h3.5v3H421V100h3zm240 0v3.5h3.5v3H661V100h3zm-270 0v3.5h3.5v3H391V100h3zm90 0v3.5h3.5v3H481V100h3zm240 0v3.5h3.5v3H721V100h3zm-150 0v3.5h3.5v3H571V100h3zm-30 0v3.5h3.5v3H541V100h3zm60 0v3.5h3.5v3H601V100h3zm150 0v3.5h3.5v3H751V100h3zm-300 0v3.5h3.5v3H451V100h3zm180 0v3.5h3.5v3H631V100h3zm60 0v3.5h3.5v3H691V100h3zm-180 0v3.5h3.5v3H511V100h3zM379 90v3.5h3.5v3H376V90h3zm30 0v3.5h3.5v3H406V90h3zm30 0v3.5h3.5v3H436V90h3zm30 0v3.5h3.5v3H466V90h3zm30 0v3.5h3.5v3H496V90h3zm30 0v3.5h3.5v3H526V90h3zm30 0v3.5h3.5v3H556V90h3zm30 0v3.5h3.5v3H586V90h3zm30 0v3.5h3.5v3H616V90h3zm30 0v3.5h3.5v3H646V90h3zm30 0v3.5h3.5v3H676V90h3zm30 0v3.5h3.5v3H706V90h3zm30 0v3.5h3.5v3H736V90h3zm-165-5v3.5h3.5v3H571V85h3zm-30 0v3.5h3.5v3H541V85h3zm-30 0v3.5h3.5v3H511V85h3zm90 0v3.5h3.5v3H601V85h3zm-180 0v3.5h3.5v3H421V85h3zm300 0v3.5h3.5v3H721V85h3zm-30 0v3.5h3.5v3H691V85h3zm60 0v3.5h3.5v3H751V85h3zm-360 0v3.5h3.5v3H391V85h3zm240 0v3.5h3.5v3H631V85h3zm-150 0v3.5h3.5v3H481V85h3zm-30 0v3.5h3.5v3H451V85h3zm210 0v3.5h3.5v3H661V85h3zM559 75v3.5h3.5v3H556V75h3zm-180 0v3.5h3.5v3H376V75h3zm300 0v3.5h3.5v3H676V75h3zm30 0v3.5h3.5v3H706V75h3zm30 0v3.5h3.5v3H736V75h3zm-90 0v3.5h3.5v3H646V75h3zm-240 0v3.5h3.5v3H406V75h3zm60 0v3.5h3.5v3H466V75h3zm30 0v3.5h3.5v3H496V75h3zm-60 0v3.5h3.5v3H436V75h3zm90 0v3.5h3.5v3H526V75h3zm60 0v3.5h3.5v3H586V75h3zm30 0v3.5h3.5v3H616V75h3zm15-5v3.5h3.5v3H631V70h3zm-60 0v3.5h3.5v3H571V70h3zm-150 0v3.5h3.5v3H421V70h3zm60 0v3.5h3.5v3H481V70h3zm-90 0v3.5h3.5v3H391V70h3zm270 0v3.5h3.5v3H661V70h3zm30 0v3.5h3.5v3H691V70h3zm-240 0v3.5h3.5v3H451V70h3zm300 0v3.5h3.5v3H751V70h3zm-30 0v3.5h3.5v3H721V70h3zm-120 0v3.5h3.5v3H601V70h3zm-60 0v3.5h3.5v3H541V70h3zm-30 0v3.5h3.5v3H511V70h3zm45-10v3.5h3.5v3H556V60h3zm-150 0v3.5h3.5v3H406V60h3zm180 0v3.5h3.5v3H586V60h3zm120 0v3.5h3.5v3H706V60h3zm30 0v3.5h3.5v3H736V60h3zm-360 0v3.5h3.5v3H376V60h3zm150 0v3.5h3.5v3H526V60h3zm150 0v3.5h3.5v3H676V60h3zm-240 0v3.5h3.5v3H436V60h3zm60 0v3.5h3.5v3H496V60h3zm120 0v3.5h3.5v3H616V60h3zm30 0v3.5h3.5v3H646V60h3zm-180 0v3.5h3.5v3H466V60h3zm-15-5v3.5h3.5v3H451V55h3zm150 0v3.5h3.5v3H601V55h3zm-60 0v3.5h3.5v3H541V55h3zm-30 0v3.5h3.5v3H511V55h3zm210 0v3.5h3.5v3H721V55h3zm-90 0v3.5h3.5v3H631V55h3zm-240 0v3.5h3.5v3H391V55h3zm270 0v3.5h3.5v3H661V55h3zm90 0v3.5h3.5v3H751V55h3zm-180 0v3.5h3.5v3H571V55h3zm-150 0v3.5h3.5v3H421V55h3zm270 0v3.5h3.5v3H691V55h3zm-210 0v3.5h3.5v3H481V55h3zm-45-10v3.5h3.5v3H436V45h3zm60 0v3.5h3.5v3H496V45h3zm120 0v3.5h3.5v3H616V45h3zm-30 0v3.5h3.5v3H586V45h3zm90 0v3.5h3.5v3H676V45h3zm-30 0v3.5h3.5v3H646V45h3zm-270 0v3.5h3.5v3H376V45h3zm330 0v3.5h3.5v3H706V45h3zm-240 0v3.5h3.5v3H466V45h3zm-60 0v3.5h3.5v3H406V45h3zm330 0v3.5h3.5v3H736V45h3zm-210 0v3.5h3.5v3H526V45h3zm30 0v3.5h3.5v3H556V45h3zm-135-5v3.5h3.5v3H421V40h3zm210 0v3.5h3.5v3H631V40h3zm-120 0v3.5h3.5v3H511V40h3zm-60 0v3.5h3.5v3H451V40h3zm210 0v3.5h3.5v3H661V40h3zm-180 0v3.5h3.5v3H481V40h3zm210 0v3.5h3.5v3H691V40h3zm60 0v3.5h3.5v3H751V40h3zm-30 0v3.5h3.5v3H721V40h3zm-120 0v3.5h3.5v3H601V40h3zm-60 0v3.5h3.5v3H541V40h3zm30 0v3.5h3.5v3H571V40h3zm-180 0v3.5h3.5v3H391V40h3zm-15-10v3.5h3.5v3H376V30h3zm120 0v3.5h3.5v3H496V30h3zm-60 0v3.5h3.5v3H436V30h3zm120 0v3.5h3.5v3H556V30h3zm90 0v3.5h3.5v3H646V30h3zm-30 0v3.5h3.5v3H616V30h3zm120 0v3.5h3.5v3H736V30h3zm-270 0v3.5h3.5v3H466V30h3zm120 0v3.5h3.5v3H586V30h3zm90 0v3.5h3.5v3H676V30h3zm-270 0v3.5h3.5v3H406V30h3zm300 0v3.5h3.5v3H706V30h3zm-180 0v3.5h3.5v3H526V30h3zm75-5v3.5h3.5v3H601V25h3zm30 0v3.5h3.5v3H631V25h3zm-150 0v3.5h3.5v3H481V25h3zm180 0v3.5h3.5v3H661V25h3zm-90 0v3.5h3.5v3H571V25h3zm150 0v3.5h3.5v3H721V25h3zm-210 0v3.5h3.5v3H511V25h3zm-60 0v3.5h3.5v3H451V25h3zm-60 0v3.5h3.5v3H391V25h3zm30 0v3.5h3.5v3H421V25h3zm330 0v3.5h3.5v3H751V25h3zm-210 0v3.5h3.5v3H541V25h3zm150 0v3.5h3.5v3H691V25h3zm15-10v3.5h3.5v3H706V15h3zm-30 0v3.5h3.5v3H676V15h3zm60 0v3.5h3.5v3H736V15h3zm-240 0v3.5h3.5v3H496V15h3zm120 0v3.5h3.5v3H616V15h3zm-90 0v3.5h3.5v3H526V15h3zm-90 0v3.5h3.5v3H436V15h3zm150 0v3.5h3.5v3H586V15h3zm-30 0v3.5h3.5v3H556V15h3zm-90 0v3.5h3.5v3H466V15h3zm-60 0v3.5h3.5v3H406V15h3zm240 0v3.5h3.5v3H646V15h3zm-270 0v3.5h3.5v3H376V15h3zm315-5v3.5h3.5v3H691V10h3zm-300 0v3.5h3.5v3H391V10h3zm210 0v3.5h3.5v3H601V10h3zm-150 0v3.5h3.5v3H451V10h3zm-30 0v3.5h3.5v3H421V10h3zm90 0v3.5h3.5v3H511V10h3zm150 0v3.5h3.5v3H661V10h3zm-180 0v3.5h3.5v3H481V10h3zm90 0v3.5h3.5v3H571V10h3zm-30 0v3.5h3.5v3H541V10h3zm90 0v3.5h3.5v3H631V10h3zm90 0v3.5h3.5v3H721V10h3zm30 0v3.5h3.5v3H751V10h3zM379 0v3.5h3.5v3H376V0h3zm30 0v3.5h3.5v3H406V0h3zm30 0v3.5h3.5v3H436V0h3zm30 0v3.5h3.5v3H466V0h3zm30 0v3.5h3.5v3H496V0h3zm30 0v3.5h3.5v3H526V0h3zm30 0v3.5h3.5v3H556V0h3zm30 0v3.5h3.5v3H586V0h3zm30 0v3.5h3.5v3H616V0h3zm30 0v3.5h3.5v3H646V0h3zm30 0v3.5h3.5v3H676V0h3zm30 0v3.5h3.5v3H706V0h3zm30 0v3.5h3.5v3H736V0h3z" fill="#4D3563" fill-rule="nonzero"></path><path d="M46.5 365a1.5 1.5 0 1 1 0 3 1.5 1.5 0 0 1 0-3zm-45 0a1.5 1.5 0 1 1 0 3 1.5 1.5 0 0 1 0-3zm9 0a1.5 1.5 0 1 1 0 3 1.5 1.5 0 0 1 0-3zm9 0a1.5 1.5 0 1 1 0 3 1.5 1.5 0 0 1 0-3zm9 0a1.5 1.5 0 1 1 0 3 1.5 1.5 0 0 1 0-3zm9 0a1.5 1.5 0 1 1 0 3 1.5 1.5 0 0 1 0-3zm9-9a1.5 1.5 0 1 1 0 3 1.5 1.5 0 0 1 0-3zm-45 0a1.5 1.5 0 1 1 0 3 1.5 1.5 0 0 1 0-3zm9 0a1.5 1.5 0 1 1 0 3 1.5 1.5 0 0 1 0-3zm9 0a1.5 1.5 0 1 1 0 3 1.5 1.5 0 0 1 0-3zm9 0a1.5 1.5 0 1 1 0 3 1.5 1.5 0 0 1 0-3zm9 0a1.5 1.5 0 1 1 0 3 1.5 1.5 0 0 1 0-3zm-27-9a1.5 1.5 0 1 1 0 3 1.5 1.5 0 0 1 0-3zm9 0a1.5 1.5 0 1 1 0 3 1.5 1.5 0 0 1 0-3zm9 0a1.5 1.5 0 1 1 0 3 1.5 1.5 0 0 1 0-3zm9 0a1.5 1.5 0 1 1 0 3 1.5 1.5 0 0 1 0-3zm9 0a1.5 1.5 0 1 1 0 3 1.5 1.5 0 0 1 0-3zm-45 0a1.5 1.5 0 1 1 0 3 1.5 1.5 0 0 1 0-3zm9-9a1.5 1.5 0 1 1 0 3 1.5 1.5 0 0 1 0-3zm9 0a1.5 1.5 0 1 1 0 3 1.5 1.5 0 0 1 0-3zm9 0a1.5 1.5 0 1 1 0 3 1.5 1.5 0 0 1 0-3zm9 0a1.5 1.5 0 1 1 0 3 1.5 1.5 0 0 1 0-3zm9 0a1.5 1.5 0 1 1 0 3 1.5 1.5 0 0 1 0-3zm-45 0a1.5 1.5 0 1 1 0 3 1.5 1.5 0 0 1 0-3zm9-9a1.5 1.5 0 1 1 0 3 1.5 1.5 0 0 1 0-3zm9 0a1.5 1.5 0 1 1 0 3 1.5 1.5 0 0 1 0-3zm9 0a1.5 1.5 0 1 1 0 3 1.5 1.5 0 0 1 0-3zm9 0a1.5 1.5 0 1 1 0 3 1.5 1.5 0 0 1 0-3zm9 0a1.5 1.5 0 1 1 0 3 1.5 1.5 0 0 1 0-3zm-45 0a1.5 1.5 0 1 1 0 3 1.5 1.5 0 0 1 0-3zm27-9a1.5 1.5 0 1 1 0 3 1.5 1.5 0 0 1 0-3zm-9 0a1.5 1.5 0 1 1 0 3 1.5 1.5 0 0 1 0-3zm-9 0a1.5 1.5 0 1 1 0 3 1.5 1.5 0 0 1 0-3zm-9 0a1.5 1.5 0 1 1 0 3 1.5 1.5 0 0 1 0-3zm45 0a1.5 1.5 0 1 1 0 3 1.5 1.5 0 0 1 0-3zm-9 0a1.5 1.5 0 1 1 0 3 1.5 1.5 0 0 1 0-3zm0-9a1.5 1.5 0 1 1 0 3 1.5 1.5 0 0 1 0-3zm-9 0a1.5 1.5 0 1 1 0 3 1.5 1.5 0 0 1 0-3zm-9 0a1.5 1.5 0 1 1 0 3 1.5 1.5 0 0 1 0-3zm-9 0a1.5 1.5 0 1 1 0 3 1.5 1.5 0 0 1 0-3zm-9 0a1.5 1.5 0 1 1 0 3 1.5 1.5 0 0 1 0-3zm45 0a1.5 1.5 0 1 1 0 3 1.5 1.5 0 0 1 0-3zm-36-9a1.5 1.5 0 1 1 0 3 1.5 1.5 0 0 1 0-3zm18 0a1.5 1.5 0 1 1 0 3 1.5 1.5 0 0 1 0-3zm-27 0a1.5 1.5 0 1 1 0 3 1.5 1.5 0 0 1 0-3zm36 0a1.5 1.5 0 1 1 0 3 1.5 1.5 0 0 1 0-3zm-18 0a1.5 1.5 0 1 1 0 3 1.5 1.5 0 0 1 0-3zm27 0a1.5 1.5 0 1 1 0 3 1.5 1.5 0 0 1 0-3zm-45-9a1.5 1.5 0 1 1 0 3 1.5 1.5 0 0 1 0-3zm9 0a1.5 1.5 0 1 1 0 3 1.5 1.5 0 0 1 0-3zm9 0a1.5 1.5 0 1 1 0 3 1.5 1.5 0 0 1 0-3zm9 0a1.5 1.5 0 1 1 0 3 1.5 1.5 0 0 1 0-3zm9 0a1.5 1.5 0 1 1 0 3 1.5 1.5 0 0 1 0-3zm9 0a1.5 1.5 0 1 1 0 3 1.5 1.5 0 0 1 0-3zm-45-9a1.5 1.5 0 1 1 0 3 1.5 1.5 0 0 1 0-3zm9 0a1.5 1.5 0 1 1 0 3 1.5 1.5 0 0 1 0-3zm9 0a1.5 1.5 0 1 1 0 3 1.5 1.5 0 0 1 0-3zm9 0a1.5 1.5 0 1 1 0 3 1.5 1.5 0 0 1 0-3zm9 0a1.5 1.5 0 1 1 0 3 1.5 1.5 0 0 1 0-3zm9 0a1.5 1.5 0 1 1 0 3 1.5 1.5 0 0 1 0-3z" fill="#E35E38"></path><use fill="#000" filter="url(#a)" xlink:href="#b"></use><use fill="#FFF" xlink:href="#b"></use><rect opacity=".9" x="505" y="101" width="170" height="110" rx="12"></rect><g transform="translate(515 111)"><rect fill="#8796AE" width="70" height="40" rx="5"></rect><text font-family="Titillium-Regular, Titillium" font-size="8" fill="#FFF"><tspan x="8" y="12">O/S PO's</tspan></text><text font-family="Titillium-Regular, Titillium" font-size="16" fill="#FFF"><tspan x="8" y="33">67</tspan></text><rect fill="#8796AE" x="80" width="70" height="40" rx="5"></rect><text font-family="Titillium-Regular, Titillium" font-size="8" fill="#FFF"><tspan x="89" y="12">RFQs</tspan></text><text font-family="Titillium-Regular, Titillium" font-size="16" fill="#FFF"><tspan x="89" y="33">28</tspan></text><rect fill="#8796AE" y="50" width="70" height="40" rx="5"></rect><text font-family="Titillium-Regular, Titillium" font-size="8" fill="#FFF"><tspan x="8" y="62">New Vendors</tspan></text><text font-family="Titillium-Regular, Titillium" font-size="16" fill="#FFF"><tspan x="8" y="83">5</tspan></text><rect fill="#8796AE" x="80" y="50" width="70" height="40" rx="5"></rect><text font-family="Titillium-Regular, Titillium" font-size="8" fill="#FFF"><tspan x="89" y="62">Returns O/S</tspan></text><text font-family="Titillium-Regular, Titillium" font-size="16" fill="#FFF"><tspan x="89" y="83">1</tspan></text></g><g transform="translate(562 239)"><rect fill="#E1F1FF" width="140" height="140" rx="5"></rect><path d="M85 71h26a2 2 0 0 1 2 2v52H83V73a2 2 0 0 1 2-2z" fill="#3748A6"></path><path d="M45 17h26a2 2 0 0 1 2 2v106H43V19a2 2 0 0 1 2-2z" fill="#3F8CF6"></path><text font-family="Titillium-Regular, Titillium" font-size="6" fill="#000"><tspan x="13" y="6">80%</tspan><tspan x="13" y="33">60%</tspan><tspan x="13" y="60">40%</tspan><tspan x="13" y="87">20%</tspan><tspan x="13" y="114">0</tspan></text><path stroke="#F18686" stroke-width=".75" stroke-linecap="round" stroke-dasharray="2,3" d="M33.5 71.5h91"></path></g><rect fill="#F4F4F4" x="357" y="239" width="190" height="140" rx="5"></rect><circle fill="#E3E3E3" cx="510" cy="266" r="12"></circle><text font-family="Titillium-Regular, Titillium" font-size="5" fill="#000"><tspan x="502.526" y="268">Infinity</tspan></text><circle fill="#E3E3E3" cx="510" cy="323" r="12"></circle><text font-family="Titillium-Regular, Titillium" font-size="5" fill="#000"><tspan x="504.026" y="325">1.89x</tspan></text><circle fill="#E3E3E3" cx="510" cy="352" r="12"></circle><text font-family="Titillium-Regular, Titillium" font-size="5" fill="#000"><tspan x="505.447" y="354">1.5x</tspan></text><circle fill="#3F8DF7" cx="510" cy="294" r="12"></circle><text font-family="Titillium-Regular, Titillium" font-size="5" fill="#FFF"><tspan x="504.026" y="296">1.92x</tspan></text><text font-family="Titillium-Regular, Titillium" font-size="10" fill="#000"><tspan x="78" y="259">Off Contract</tspan><tspan x="78" y="287">Services</tspan><tspan x="78" y="315">Goods Delivery</tspan><tspan x="78" y="343">Timely PO Ack</tspan></text><path fill="#3F8CF7" d="M160 262h166v8H160z"></path><rect fill="#000" transform="matrix(1 0 0 -1 0 532)" x="160.5" y="265" width="165" height="2" rx=".5"></rect><path fill="#3F8CF7" d="M160 290h166v8H160z"></path><rect fill="#000" transform="matrix(1 0 0 -1 0 588)" x="160.5" y="293" width="165" height="2" rx=".5"></rect><path fill="#ABD1FB" d="M160 318h166v8H160z"></path><path fill="#3F8CF7" d="M160 318h64v8h-64z"></path><rect fill="#000" transform="matrix(1 0 0 -1 0 644)" x="160.5" y="321" width="37" height="2" rx=".5"></rect><path fill="#ABD1FB" d="M160 346h166v8H160z"></path><path fill="#3F8CF7" d="M160 346h116v8H160z"></path><rect fill="#000" transform="matrix(1 0 0 -1 0 700)" x="160.5" y="349" width="7" height="2" rx=".5"></rect><g><path stroke="#EAEAEA" stroke-width=".5" stroke-linecap="square" d="M95.378 200.75h392.295M95.378 180.75h392.295M95.378 160.75h392.295M95.378 140.75h392.295M95.378 120.75h392.295M95.378 100.75h392.295"></path><text font-family="Titillium-Regular, Titillium" font-size="6" fill="#000" transform="translate(78 88)"><tspan x="0" y="5">25K</tspan><tspan x="0" y="25">20K</tspan><tspan x="0" y="45">15K</tspan><tspan x="0" y="65">10K</tspan><tspan x="0" y="85">5K</tspan><tspan x="0" y="105">0K</tspan></text><path d="M108 171h4a2 2 0 0 1 2 2v28h-8v-28a2 2 0 0 1 2-2z" fill="#3F8DF5" fill-rule="nonzero"></path><path d="M116 124h4a2 2 0 0 1 2 2v75h-8v-75a2 2 0 0 1 2-2z" fill="#3748A6"></path><path d="M124 184h4a2 2 0 0 1 2 2v15h-8v-15a2 2 0 0 1 2-2z" fill="#D57245" fill-rule="nonzero"></path><path d="M132 141h4a2 2 0 0 1 2 2v58h-8v-58a2 2 0 0 1 2-2z" fill="#722B84"></path><path d="M158 171h4a2 2 0 0 1 2 2v28h-8v-28a2 2 0 0 1 2-2z" fill="#3F8DF5" fill-rule="nonzero"></path><path d="M166 124h4a2 2 0 0 1 2 2v75h-8v-75a2 2 0 0 1 2-2z" fill="#3748A6"></path><path d="M174 160h4a2 2 0 0 1 2 2v39h-8v-39a2 2 0 0 1 2-2z" fill="#D57245" fill-rule="nonzero"></path><path d="M182 141h4a2 2 0 0 1 2 2v58h-8v-58a2 2 0 0 1 2-2z" fill="#722B84"></path><path d="M208 161h4a2 2 0 0 1 2 2v38h-8v-38a2 2 0 0 1 2-2z" fill="#3F8DF5" fill-rule="nonzero"></path><path d="M216 124h4a2 2 0 0 1 2 2v75h-8v-75a2 2 0 0 1 2-2z" fill="#3748A6"></path><path d="M224 184h4a2 2 0 0 1 2 2v15h-8v-15a2 2 0 0 1 2-2z" fill="#D57245" fill-rule="nonzero"></path><path d="M232 141h4a2 2 0 0 1 2 2v58h-8v-58a2 2 0 0 1 2-2z" fill="#722B84"></path><path d="M258 171h4a2 2 0 0 1 2 2v28h-8v-28a2 2 0 0 1 2-2z" fill="#3F8DF5" fill-rule="nonzero"></path><path d="M266 108h4a2 2 0 0 1 2 2v91h-8v-91a2 2 0 0 1 2-2z" fill="#3748A6"></path><path d="M274 184h4a2 2 0 0 1 2 2v15h-8v-15a2 2 0 0 1 2-2z" fill="#D57245" fill-rule="nonzero"></path><path d="M282 141h4a2 2 0 0 1 2 2v58h-8v-58a2 2 0 0 1 2-2z" fill="#722B84"></path><path d="M308 171h4a2 2 0 0 1 2 2v28h-8v-28a2 2 0 0 1 2-2z" fill="#3F8DF5" fill-rule="nonzero"></path><path d="M316 108h4a2 2 0 0 1 2 2v91h-8v-91a2 2 0 0 1 2-2z" fill="#3748A6"></path><path d="M324 160h4a2 2 0 0 1 2 2v39h-8v-39a2 2 0 0 1 2-2z" fill="#D57245" fill-rule="nonzero"></path><path d="M332 141h4a2 2 0 0 1 2 2v58h-8v-58a2 2 0 0 1 2-2z" fill="#722B84"></path><path d="M358 161h4a2 2 0 0 1 2 2v38h-8v-38a2 2 0 0 1 2-2z" fill="#3F8DF5" fill-rule="nonzero"></path><path d="M366 108h4a2 2 0 0 1 2 2v91h-8v-91a2 2 0 0 1 2-2z" fill="#3748A6"></path><path d="M374 184h4a2 2 0 0 1 2 2v15h-8v-15a2 2 0 0 1 2-2z" fill="#D57245" fill-rule="nonzero"></path><path d="M382 108h4a2 2 0 0 1 2 2v91h-8v-91a2 2 0 0 1 2-2z" fill="#722B84"></path><path d="M408 171h4a2 2 0 0 1 2 2v28h-8v-28a2 2 0 0 1 2-2z" fill="#3F8DF5" fill-rule="nonzero"></path><path d="M416 101h4a2 2 0 0 1 2 2v98h-8v-98a2 2 0 0 1 2-2z" fill="#3748A6"></path><path d="M424 184h4a2 2 0 0 1 2 2v15h-8v-15a2 2 0 0 1 2-2z" fill="#D57245" fill-rule="nonzero"></path><path d="M432 101h4a2 2 0 0 1 2 2v98h-8v-98a2 2 0 0 1 2-2z" fill="#722B84"></path><path d="M458 171h4a2 2 0 0 1 2 2v28h-8v-28a2 2 0 0 1 2-2z" fill="#3F8DF5" fill-rule="nonzero"></path><path d="M466 101h4a2 2 0 0 1 2 2v98h-8v-98a2 2 0 0 1 2-2z" fill="#3748A6"></path><path d="M474 184h4a2 2 0 0 1 2 2v15h-8v-15a2 2 0 0 1 2-2z" fill="#D57245" fill-rule="nonzero"></path><path d="M482 101h4a2 2 0 0 1 2 2v98h-8v-98a2 2 0 0 1 2-2z" fill="#722B84"></path><path stroke="#CA53A4" stroke-width="2" d="m106 185 97.695-38h114.161L368 161l120-37"></path><text font-family="Titillium-Light, Titillium" font-size="10" font-weight="300" fill="#646464" transform="translate(78 88)"><tspan x="298" y="171">No.1 Quality Control</tspan><tspan x="298" y="199" font-family="Titillium-Semibold, Titillium" font-weight="500">No. 2 is Late Invoices</tspan><tspan x="298" y="227">No. 3 is Approval Delay</tspan><tspan x="298" y="255">No. 4 is Late Delivery</tspan></text></g></g></svg>