<svg xmlns="http://www.w3.org/2000/svg" id="Layer_1" data-name="Layer 1" width="48" height="48" viewBox="0 0 48 48"><path id="Base" d="M20.24,0h7.52C34.3,0,37.041.754,39.689,2.17A14.768,14.768,0,0,1,45.83,8.311C47.246,10.959,48,13.7,48,20.24v7.52c0,6.538-.754,9.281-2.17,11.929a14.768,14.768,0,0,1-6.141,6.141C37.041,47.246,34.3,48,27.76,48H20.24c-6.538,0-9.281-.754-11.929-2.17A14.768,14.768,0,0,1,2.17,39.689C.754,37.041,0,34.3,0,27.76V20.24C0,13.7.754,10.959,2.17,8.311A14.768,14.768,0,0,1,8.311,2.17C10.959.754,13.7,0,20.24,0Z" style="fill: #e56e4b;fill-rule: evenodd"></path><path d="M30.5,13.982h-.009a.815.815,0,0,0-.811.82v1.024h1.639V14.8A.822.822,0,0,0,30.5,13.982Zm-13.115,0h-.008a.816.816,0,0,0-.812.82v1.024H18.2V14.8A.822.822,0,0,0,17.38,13.982ZM33.3,15.826H31.314v.615a.822.822,0,0,1-.819.82h-.009a.815.815,0,0,1-.811-.82v-.615H18.2v.615a.822.822,0,0,1-.819.82h-.008a.816.816,0,0,1-.812-.82v-.615H14.568a2.111,2.111,0,0,0-2.106,2.107V29.294A2.111,2.111,0,0,0,14.568,31.4H29.741a4.842,4.842,0,0,1-.787-2.664,4.922,4.922,0,0,1,4.918-4.918,4.78,4.78,0,0,1,1.541.246V17.933A2.119,2.119,0,0,0,33.3,15.826ZM16.454,29.351a1.23,1.23,0,1,1,1.229-1.229A1.228,1.228,0,0,1,16.454,29.351Zm0-4.508a1.23,1.23,0,1,1,1.229-1.23A1.228,1.228,0,0,1,16.454,24.843Zm0-4.508a1.23,1.23,0,1,1,1.229-1.23A1.228,1.228,0,0,1,16.454,20.335Zm4.918,9.016A1.23,1.23,0,1,1,22.6,28.122,1.228,1.228,0,0,1,21.372,29.351Zm0-4.508a1.23,1.23,0,1,1,1.229-1.23A1.228,1.228,0,0,1,21.372,24.843Zm0-4.508a1.23,1.23,0,1,1,1.229-1.23A1.228,1.228,0,0,1,21.372,20.335Zm4.918,9.016a1.23,1.23,0,1,1,1.229-1.229A1.228,1.228,0,0,1,26.29,29.351Zm0-4.508a1.23,1.23,0,1,1,1.229-1.23A1.228,1.228,0,0,1,26.29,24.843Zm0-4.508a1.23,1.23,0,1,1,1.229-1.23A1.228,1.228,0,0,1,26.29,20.335Zm4.918,0a1.23,1.23,0,1,1,1.229-1.23A1.228,1.228,0,0,1,31.208,20.335Zm4.33,10.447a1.917,1.917,0,0,1-.619,1.549,2.421,2.421,0,0,1-1.624.526h-.009l-.148,1.161a2.57,2.57,0,0,1-.728-.069l.138-1.141a11.284,11.284,0,0,1-1.22-.206l-.2-.039.127-1.023q.778.108,1.436.147l.217-1.712a3.366,3.366,0,0,1-1.436-.738,1.609,1.609,0,0,1-.424-1.179,1.756,1.756,0,0,1,.591-1.452,2.519,2.519,0,0,1,1.624-.477H33.4l.176-1.357H34.3l-.178,1.416q.61.06,1.123.158l.166.039L35.3,27.428q-.717-.078-1.327-.118l-.2,1.583a3.409,3.409,0,0,1,1.393.713A1.658,1.658,0,0,1,35.538,30.782Zm-3.177-2.813a.519.519,0,0,0,.148.384,1.665,1.665,0,0,0,.57.3l.167-1.367C32.657,27.316,32.361,27.543,32.361,27.969Zm1.869,2.9a.57.57,0,0,0-.133-.388,1.268,1.268,0,0,0-.477-.29l-.187,1.5A.77.77,0,0,0,34.23,30.87Z" style="fill: #fff"></path></svg>