<svg xmlns="http://www.w3.org/2000/svg" xmlns:xlink="http://www.w3.org/1999/xlink" width="36px" height="36px" viewBox="0 0 36 36"><title>Budget</title><g id="Mixed-Reality-and-Power-BI" stroke="none" stroke-width="1" fill="none" fill-rule="evenodd"><g id="Sales" transform="translate(-112.000000, -1080.000000)"><g id="Budget" transform="translate(112.000000, 1080.000000)"><rect id="Rectangle" fill="#FF6A6A" x="0" y="0" width="36" height="36" rx="7.5"></rect><path d="M24.7273351,16.5460156 L28,16.5460156 L28,24.7276779 C28,26.0862882 26.903683,27.1826052 25.5459299,27.1826052 C24.8670533,27.1826052 24.2533215,26.9040258 23.8110232,26.4625846 C23.369582,26.0211435 23.0910026,25.4065545 23.0910026,24.7276779 L23.0910026,16.5460156 L23.9087402,16.5460156 L24.7273351,16.5460156 Z" id="Stroke-992" stroke="#FFFFFF" stroke-width="1.5"></path><path d="M14.908826,21.4550987 L16.9548844,21.4550987 C17.6320466,21.4550987 18.1814909,20.9056544 18.1814909,20.2276351 C18.1814909,19.5496157 17.6320466,19.0001714 16.9548844,19.0001714 L16.5451584,19.0001714 L16.1362896,19.0001714 C15.4582702,19.0001714 14.908826,18.4515843 14.908826,17.773565 C14.908826,17.0955456 15.4582702,16.5461013 16.1362896,16.5461013 L18.1814909,16.5461013" id="Stroke-994" stroke="#FFFFFF" stroke-width="1.5" stroke-linecap="square"></path><line x1="16.5453299" y1="14.9095117" x2="16.5453299" y2="16.5458442" id="Stroke-996" stroke="#FFFFFF" stroke-width="1.5" stroke-linecap="square"></line><line x1="16.5453299" y1="21.4550987" x2="16.5453299" y2="23.0914312" id="Stroke-998" stroke="#FFFFFF" stroke-width="1.5" stroke-linecap="square"></line><path d="M25.545587,27.1827767 L12.4549273,27.1827767 C11.0988885,27.1827767 10,26.0838881 10,24.7278494 L10,10 L12.1763479,11.6363325 L14.3612675,10 L16.5376154,11.6363325 L18.7216778,10 L20.9065973,11.6363325 L23.0915169,10 L23.0915169,24.7278494 C23.0915169,25.4067259 23.3692391,26.0213149 23.8115375,26.4627561 C24.2529787,26.9041973 24.8667105,27.1827767 25.545587,27.1827767 Z" id="Stroke-1000" stroke="#FFFFFF" stroke-width="1.5" stroke-linecap="square"></path></g></g></g></svg>