<svg xmlns="http://www.w3.org/2000/svg" xmlns:xlink="http://www.w3.org/1999/xlink" width="33.609" height="33.609" viewBox="0 0 33.609 33.609">
    <defs>
        <clipPath id="f1692v39cc">
            <path data-name="Rectangle 351" style="fill:none" d="M0 0h33.609v33.609H0z"/>
        </clipPath>
        <clipPath id="j8hisnd1yd">
            <path data-name="Path 201" d="M5.206 16.8a11.6 11.6 0 1 0 11.6-11.6 11.6 11.6 0 0 0-11.6 11.6" style="fill:none"/>
        </clipPath>
        <clipPath id="37nt3e5paf">
            <path data-name="Rectangle 354" transform="translate(15.649 7.438)" style="fill:none" d="M0 0h2.203v19.012H0z"/>
        </clipPath>
        <clipPath id="9rpshv5apg">
            <path data-name="Path 202" d="M9.585 16.8a7.22 7.22 0 1 0 7.22-7.22 7.221 7.221 0 0 0-7.22 7.22" style="fill:none"/>
        </clipPath>
        <clipPath id="91xxj7pswi">
            <path data-name="Path 203" d="M14.307 5.974a2.5 2.5 0 0 0 2.5 2.5 2.5 2.5 0 1 0-2.5-2.5" style="fill:none"/>
        </clipPath>
        <clipPath id="lwnu2m1wck">
            <path data-name="Path 204" d="M14.307 27.63a2.5 2.5 0 0 0 2.5 2.5 2.5 2.5 0 1 0-2.5-2.5" style="fill:none"/>
        </clipPath>
        <clipPath id="eoks3ktggm">
            <path data-name="Path 205" d="M25.137 16.8a2.5 2.5 0 0 0 2.5 2.5 2.5 2.5 0 1 0-2.5-2.5" style="fill:none"/>
        </clipPath>
        <clipPath id="ph37mtrx0n">
            <path data-name="Path 207" d="M13.475 16.8a3.33 3.33 0 1 0 3.33-3.33 3.329 3.329 0 0 0-3.33 3.33" style="fill:none"/>
        </clipPath>
        <clipPath id="n1dd39mlkp">
            <path data-name="Rectangle 364" transform="translate(17.124 15.677)" style="fill:none" d="M0 0h9.017v2.2H0z"/>
        </clipPath>
        <linearGradient id="q9mpiw7g6e" x1="-.02" y1="1.02" x2=".011" y2="1.02" gradientUnits="objectBoundingBox">
            <stop offset="0" stop-color="#019aa6"/>
            <stop offset=".339" stop-color="#019aa6"/>
            <stop offset=".641" stop-color="#01727a"/>
            <stop offset="1" stop-color="#01727a"/>
        </linearGradient>
        <linearGradient id="gydiuxfsaa" x1="-3.756" y1="1.371" x2="-3.502" y2="1.371" gradientUnits="objectBoundingBox">
            <stop offset="0" stop-color="#94edf3"/>
            <stop offset="1" stop-color="#82ebf1"/>
        </linearGradient>
        <linearGradient id="hoda8g3jdh" x1="-.332" y1="1.332" x2="-.283" y2="1.332" gradientUnits="objectBoundingBox">
            <stop offset="0" stop-color="#32dfea"/>
            <stop offset="1" stop-color="#0dbdca"/>
        </linearGradient>
        <linearGradient id="jnppttoszj" x1="-2.593" y1="5.588" x2="-2.409" y2="5.588" xlink:href="#gydiuxfsaa"/>
        <linearGradient id="mxit125col" x1="-2.593" y1="1.601" x2="-2.409" y2="1.601" xlink:href="#gydiuxfsaa"/>
        <linearGradient id="7hojtg8okb" x1="-3.806" y1="3.119" x2="-3.651" y2="3.119" gradientUnits="objectBoundingBox">
            <stop offset="0" stop-color="#94edf3"/>
            <stop offset="1" stop-color="#32dfea"/>
        </linearGradient>
        <linearGradient id="yoa52znvpo" x1="-1.464" y1="2.464" x2="-1.347" y2="2.464" xlink:href="#7hojtg8okb"/>
        <linearGradient id="rq6bkoh3sq" x1="-3.668" y1="2.326" x2="-3.476" y2="2.326" xlink:href="#7hojtg8okb"/>
    </defs>
    <g data-name="Group 194">
        <g data-name="Group 173">
            <g data-name="Group 172" style="clip-path:url(#f1692v39cc)">
                <path data-name="Path 199" d="M16.805 33.6A16.8 16.8 0 1 1 33.6 16.8a16.8 16.8 0 0 1-16.8 16.8" style="fill:#5ccbd3"/>
                <path data-name="Path 200" d="M32.268 16.805A15.463 15.463 0 1 1 16.805 1.342a15.461 15.461 0 0 1 15.463 15.463M16.805 0A16.805 16.805 0 1 1 0 16.805 16.806 16.806 0 0 1 16.805 0" style="fill:#1d8e96;fill-rule:evenodd"/>
            </g>
        </g>
        <g data-name="Group 175">
            <g data-name="Group 174" style="clip-path:url(#j8hisnd1yd)">
                <path data-name="Rectangle 352" transform="rotate(-54.69 17.102 15.872)" style="fill:url(#q9mpiw7g6e)" d="M0 0h32.338v32.338H0z"/>
            </g>
        </g>
        <g data-name="Group 177">
            <g data-name="Group 176" style="clip-path:url(#37nt3e5paf)">
                <path data-name="Rectangle 353" transform="rotate(-5.256 89.725 -147.782)" style="fill:url(#gydiuxfsaa)" d="M0 0h3.936v19.134H0z"/>
            </g>
        </g>
        <g data-name="Group 179">
            <g data-name="Group 178" style="clip-path:url(#f1692v39cc)">
                <path data-name="Rectangle 355" transform="translate(7.131 15.674)" style="fill:#99edf3" d="M0 0h8.655v2.203H0z"/>
            </g>
        </g>
        <g data-name="Group 181">
            <g data-name="Group 180" style="clip-path:url(#9rpshv5apg)">
                <path data-name="Rectangle 357" transform="rotate(-53.576 20.094 6.807)" style="fill:url(#hoda8g3jdh)" d="M0 0h20.193v20.193H0z"/>
            </g>
        </g>
        <g data-name="Group 183">
            <g data-name="Group 182" style="clip-path:url(#91xxj7pswi)">
                <path data-name="Rectangle 358" transform="rotate(-5.13 44.71 -148.6)" style="fill:url(#jnppttoszj)" d="M0 0h5.433v5.432H0z"/>
            </g>
        </g>
        <g data-name="Group 185">
            <g data-name="Group 184" style="clip-path:url(#lwnu2m1wck)">
                <path data-name="Rectangle 359" transform="rotate(-5.256 281.166 -138.286)" style="fill:url(#mxit125col)" d="M0 0h5.433v5.432H0z"/>
            </g>
        </g>
        <g data-name="Group 187">
            <g data-name="Group 186" style="clip-path:url(#eoks3ktggm)">
                <path data-name="Rectangle 360" transform="rotate(-69.7 25.184 -7.535)" style="fill:url(#7hojtg8okb)" d="M0 0h6.417v6.417H0z"/>
            </g>
        </g>
        <g data-name="Group 189">
            <g data-name="Group 188" style="clip-path:url(#f1692v39cc)">
                <path data-name="Path 206" d="M5.975 19.3a2.5 2.5 0 1 0-2.5-2.5 2.5 2.5 0 0 0 2.5 2.5z" style="fill:#9df3f9"/>
            </g>
        </g>
        <g data-name="Group 191">
            <g data-name="Group 190" style="clip-path:url(#ph37mtrx0n)">
                <path data-name="Rectangle 362" transform="rotate(-69.714 19.534 1.548)" style="fill:url(#yoa52znvpo)" d="M0 0h8.556v8.556H0z"/>
            </g>
        </g>
        <g data-name="Group 193">
            <g data-name="Group 192" style="clip-path:url(#n1dd39mlkp)">
                <path data-name="Rectangle 363" transform="rotate(-69.714 20.849 -2.973)" style="fill:url(#rq6bkoh3sq)" d="M0 0h5.19v9.22H0z"/>
            </g>
        </g>
    </g>
</svg>
