<svg xmlns="http://www.w3.org/2000/svg" xmlns:xlink="http://www.w3.org/1999/xlink" width="644" height="503.551" viewBox="0 0 644 503.551">
    <defs>
        <clipPath id="rypug971dc">
            <path data-name="Rectangle 351" style="fill:none" d="M0 0h135.811v135.811H0z"/>
        </clipPath>
        <clipPath id="5ocximegnd">
            <path data-name="Path 201" d="M5.206 52.073A46.869 46.869 0 1 0 52.077 5.206 46.876 46.876 0 0 0 5.206 52.073" transform="translate(-5.206 -5.206)" style="fill:none"/>
        </clipPath>
        <clipPath id="3zgzzv7klf">
            <path data-name="Rectangle 354" style="fill:none" d="M0 0h8.902v76.826H0z"/>
        </clipPath>
        <clipPath id="jc07q5873g">
            <path data-name="Path 202" d="M9.585 38.759A29.175 29.175 0 1 0 38.76 9.584 29.178 29.178 0 0 0 9.585 38.759" transform="translate(-9.585 -9.584)" style="fill:none"/>
        </clipPath>
        <clipPath id="enyvnkceai">
            <path data-name="Path 203" d="M14.307 13.567A10.089 10.089 0 0 0 24.4 23.661a10.092 10.092 0 1 0-10.093-10.094" transform="translate(-14.307 -3.477)" style="fill:none"/>
        </clipPath>
        <clipPath id="8m6kcqvl0k">
            <path data-name="Path 204" d="M14.307 35.223A10.086 10.086 0 0 0 24.4 45.317a10.092 10.092 0 1 0-10.093-10.094" transform="translate(-14.307 -25.133)" style="fill:none"/>
        </clipPath>
        <clipPath id="ao5jy5yumm">
            <path data-name="Path 205" d="M25.137 24.4a10.094 10.094 0 0 0 10.09 10.094A10.092 10.092 0 1 0 25.137 24.4" transform="translate(-25.137 -14.307)" style="fill:none"/>
        </clipPath>
        <clipPath id="f8g9y08rzn">
            <path data-name="Path 207" d="M13.475 26.93a13.456 13.456 0 1 0 13.456-13.456A13.454 13.454 0 0 0 13.475 26.93" transform="translate(-13.475 -13.474)" style="fill:none"/>
        </clipPath>
        <clipPath id="sz1uxngsgp">
            <path data-name="Rectangle 364" style="fill:none" d="M0 0h36.437v8.89H0z"/>
        </clipPath>
        <clipPath id="pjgt0xdk4x">
            <path data-name="Rectangle 899" style="fill:none" d="M0 0h40v40.001H0z"/>
        </clipPath>
        <clipPath id="62810y8uky">
            <path data-name="Rectangle 957" style="fill:none" d="M0 0h32.726v40H0z"/>
        </clipPath>
        <clipPath id="dd2fh55k0z">
            <path data-name="Rectangle 963" style="fill:none" d="M0 0h35.35v40H0z"/>
        </clipPath>
        <clipPath id="y94vtcmeeA">
            <path data-name="Rectangle 954" style="fill:none" d="M0 0h34.917v40H0z"/>
        </clipPath>
        <linearGradient id="bdrhwu7y2e" x1="-.02" y1="1.02" x2=".011" y2="1.02" gradientUnits="objectBoundingBox">
            <stop offset="0" stop-color="#019aa6"/>
            <stop offset=".339" stop-color="#019aa6"/>
            <stop offset=".641" stop-color="#01727a"/>
            <stop offset="1" stop-color="#01727a"/>
        </linearGradient>
        <linearGradient id="br48acya5a" x1="-3.756" y1="1.371" x2="-3.502" y2="1.371" gradientUnits="objectBoundingBox">
            <stop offset="0" stop-color="#94edf3"/>
            <stop offset="1" stop-color="#82ebf1"/>
        </linearGradient>
        <linearGradient id="eptzgwz75h" x1="-.332" y1="1.332" x2="-.283" y2="1.332" gradientUnits="objectBoundingBox">
            <stop offset="0" stop-color="#32dfea"/>
            <stop offset="1" stop-color="#0dbdca"/>
        </linearGradient>
        <linearGradient id="l96azvvu1j" x1="-2.593" y1="5.588" x2="-2.409" y2="5.588" xlink:href="#br48acya5a"/>
        <linearGradient id="fpug9mkb8l" x1="-2.593" y1="1.601" x2="-2.409" y2="1.601" xlink:href="#br48acya5a"/>
        <linearGradient id="2e99f8ie7b" x1="-3.806" y1="3.119" x2="-3.651" y2="3.119" gradientUnits="objectBoundingBox">
            <stop offset="0" stop-color="#94edf3"/>
            <stop offset="1" stop-color="#32dfea"/>
        </linearGradient>
        <linearGradient id="r1vcbcwglo" x1="-1.464" y1="2.464" x2="-1.347" y2="2.464" xlink:href="#2e99f8ie7b"/>
        <linearGradient id="11udbo8t7q" x1="-3.668" y1="2.326" x2="-3.476" y2="2.326" xlink:href="#2e99f8ie7b"/>
        <filter id="1i55hu56hr" x="408.5" y="160" width="183" height="183" filterUnits="userSpaceOnUse">
            <feOffset dy="10"/>
            <feGaussianBlur stdDeviation="17.5" result="blur"/>
            <feFlood flood-color="#2b639b" flood-opacity=".161"/>
            <feComposite operator="in" in2="blur"/>
            <feComposite in="SourceGraphic"/>
        </filter>
        <filter id="bkusejehps" x="72.5" y="160" width="183" height="183" filterUnits="userSpaceOnUse">
            <feOffset dy="10"/>
            <feGaussianBlur stdDeviation="17.5" result="blur-2"/>
            <feFlood flood-color="#2b639b" flood-opacity=".161"/>
            <feComposite operator="in" in2="blur-2"/>
            <feComposite in="SourceGraphic"/>
        </filter>
        <filter id="vlv6e7vwct" x="310.499" y="292" width="211.55" height="211.55" filterUnits="userSpaceOnUse">
            <feOffset dy="10"/>
            <feGaussianBlur stdDeviation="17.5" result="blur-3"/>
            <feFlood flood-color="#2b639b" flood-opacity=".161"/>
            <feComposite operator="in" in2="blur-3"/>
            <feComposite in="SourceGraphic"/>
        </filter>
        <filter id="a2nphzv3pu" x="142.501" y="0" width="211.55" height="211.55" filterUnits="userSpaceOnUse">
            <feOffset dy="10"/>
            <feGaussianBlur stdDeviation="17.5" result="blur-4"/>
            <feFlood flood-color="#2b639b" flood-opacity=".161"/>
            <feComposite operator="in" in2="blur-4"/>
            <feComposite in="SourceGraphic"/>
        </filter>
        <filter id="zmhj4924yv" x="310.5" y="0" width="211.55" height="211.55" filterUnits="userSpaceOnUse">
            <feOffset dy="10"/>
            <feGaussianBlur stdDeviation="17.5" result="blur-5"/>
            <feFlood flood-color="#2b639b" flood-opacity=".161"/>
            <feComposite operator="in" in2="blur-5"/>
            <feComposite in="SourceGraphic"/>
        </filter>
        <filter id="cxcu78bsmw" x="142.5" y="292.001" width="211.55" height="211.55" filterUnits="userSpaceOnUse">
            <feOffset dy="10"/>
            <feGaussianBlur stdDeviation="17.5" result="blur-6"/>
            <feFlood flood-color="#2b639b" flood-opacity=".161"/>
            <feComposite operator="in" in2="blur-6"/>
            <feComposite in="SourceGraphic"/>
        </filter>
    </defs>
    <g data-name="Group 1527">
        <g data-name="Group 1524">
            <g data-name="Ellipse 138" transform="translate(158 68.5)" style="stroke:#ee3442;stroke-dasharray:8 8;opacity:.45;fill:none">
                <circle cx="173.5" cy="173.5" r="173.5" style="stroke:none"/>
                <circle cx="173.5" cy="173.5" r="173" style="fill:none"/>
            </g>
            <g data-name="Group 1369">
                <g data-name="Group 173">
                    <g data-name="Group 172" style="clip-path:url(#rypug971dc)" transform="translate(264 173.5)">
                        <path data-name="Path 199" d="M67.886 135.762a67.877 67.877 0 1 1 67.879-67.879 67.876 67.876 0 0 1-67.879 67.879" transform="translate(.021 .019)" style="fill:#5ccbd3"/>
                        <path data-name="Path 200" d="M130.393 67.908A62.485 62.485 0 1 1 67.908 5.423a62.479 62.479 0 0 1 62.485 62.485M67.908 0A67.908 67.908 0 1 1 0 67.908 67.914 67.914 0 0 1 67.908 0" transform="translate(0 -.002)" style="fill:#1d8e96;fill-rule:evenodd"/>
                    </g>
                </g>
                <g data-name="Group 175">
                    <g data-name="Group 174" style="clip-path:url(#5ocximegnd)" transform="translate(285.037 194.535)">
                        <path data-name="Rectangle 352" transform="rotate(-54.69 38.247 73.963)" style="fill:url(#bdrhwu7y2e)" d="M0 0h130.674v130.674H0z"/>
                    </g>
                </g>
                <g data-name="Group 177">
                    <g data-name="Group 176" style="clip-path:url(#3zgzzv7klf)" transform="translate(327.236 203.557)">
                        <path data-name="Rectangle 353" transform="rotate(-5.256 3.522 76.674)" style="fill:url(#br48acya5a)" d="M0 0h15.903v77.319H0z"/>
                    </g>
                </g>
                <g data-name="Group 179">
                    <g data-name="Group 178" style="clip-path:url(#rypug971dc)" transform="translate(264 173.5)">
                        <path data-name="Rectangle 355" transform="translate(28.816 63.337)" style="fill:#99edf3" d="M0 0h34.974v8.902H0z"/>
                    </g>
                </g>
                <g data-name="Group 181">
                    <g data-name="Group 180" style="clip-path:url(#jc07q5873g)" transform="translate(302.732 212.227)">
                        <path data-name="Rectangle 357" transform="rotate(-53.576 23.478 46.5)" style="fill:url(#eptzgwz75h)" d="M0 0h81.598v81.598H0z"/>
                    </g>
                </g>
                <g data-name="Group 183">
                    <g data-name="Group 182" style="clip-path:url(#enyvnkceai)" transform="translate(321.813 187.548)">
                        <path data-name="Rectangle 358" transform="rotate(-5.13 .985 20.097)" style="fill:url(#l96azvvu1j)" d="M0 0h21.953v21.949H0z"/>
                    </g>
                </g>
                <g data-name="Group 185">
                    <g data-name="Group 184" style="clip-path:url(#8m6kcqvl0k)" transform="translate(321.813 275.059)">
                        <path data-name="Rectangle 359" transform="rotate(-5.256 .94 20.184)" style="fill:url(#fpug9mkb8l)" d="M0 0h21.953v21.949H0z"/>
                    </g>
                </g>
                <g data-name="Group 187">
                    <g data-name="Group 186" style="clip-path:url(#ao5jy5yumm)" transform="translate(365.576 231.312)">
                        <path data-name="Rectangle 360" transform="rotate(-69.7 9.472 13.592)" style="fill:url(#2e99f8ie7b)" d="M0 0h25.931v25.931H0z"/>
                    </g>
                </g>
                <g data-name="Group 189">
                    <g data-name="Group 188" style="clip-path:url(#rypug971dc)" transform="translate(264 173.5)">
                        <path data-name="Path 206" d="M13.571 34.491A10.092 10.092 0 1 0 3.477 24.4a10.095 10.095 0 0 0 10.094 10.091z" transform="translate(10.573 43.504)" style="fill:#9df3f9"/>
                    </g>
                </g>
                <g data-name="Group 191">
                    <g data-name="Group 190" style="clip-path:url(#f8g9y08rzn)" transform="translate(318.451 227.945)">
                        <path data-name="Rectangle 362" transform="rotate(-69.714 12.623 18.122)" style="fill:url(#r1vcbcwglo)" d="M0 0h34.574v34.574H0z"/>
                    </g>
                </g>
                <g data-name="Group 193">
                    <g data-name="Group 192" style="clip-path:url(#sz1uxngsgp)" transform="translate(333.197 236.85)">
                        <path data-name="Rectangle 363" transform="rotate(-69.714 4.169 5.986)" style="fill:url(#11udbo8t7q)" d="M0 0h20.972v37.259H0z"/>
                    </g>
                </g>
            </g>
            <g style="filter:url(#1i55hu56hr)">
                <circle data-name="Ellipse 132" cx="39" cy="39" r="39" transform="translate(461 202.5)" style="fill:#fff"/>
            </g>
            <g style="filter:url(#bkusejehps)">
                <circle data-name="Ellipse 133" cx="39" cy="39" r="39" transform="translate(125 202.5)" style="fill:#fff"/>
            </g>
            <g style="filter:url(#vlv6e7vwct)">
                <circle data-name="Ellipse 134" cx="39" cy="39" r="39" transform="rotate(60 -74.41 540.117)" style="fill:#fff"/>
            </g>
            <g style="filter:url(#a2nphzv3pu)">
                <circle data-name="Ellipse 135" cx="39" cy="39" r="39" transform="rotate(60 94.469 248.625)" style="fill:#fff"/>
            </g>
            <g style="filter:url(#zmhj4924yv)">
                <circle data-name="Ellipse 136" cx="39" cy="39" r="39" transform="rotate(-60 276.806 -259.342)" style="fill:#fff"/>
            </g>
            <g style="filter:url(#cxcu78bsmw)">
                <circle data-name="Ellipse 137" cx="39" cy="39" r="39" transform="rotate(-60 445.686 32.15)" style="fill:#fff"/>
            </g>
        </g>
        <g data-name="Group 747">
            <path data-name="Rectangle 877" transform="translate(470 210)" style="fill:none" d="M0 0h64v64H0z"/>
            <g data-name="Group 670">
                <g data-name="Group 669" transform="translate(482 222)" style="clip-path:url(#pjgt0xdk4x)">
                    <path data-name="Path 656" d="M23.71 7.548a.934.934 0 0 1-.5-.146 13.95 13.95 0 0 0-4.656-1.9.934.934 0 1 1 .385-1.828 15.8 15.8 0 0 1 5.275 2.15.934.934 0 0 1-.5 1.723" transform="translate(4.372 .897)" style="fill:#e63946"/>
                    <path data-name="Path 657" d="M26.45 24.909a.934.934 0 0 1-.786-1.437 13.93 13.93 0 0 0 1.959-4.916.934.934 0 0 1 1.835.351 15.854 15.854 0 0 1-2.219 5.571.932.932 0 0 1-.788.431" transform="translate(6.264 4.368)" style="fill:#e63946"/>
                    <path data-name="Path 658" d="M14.813 29.659a.9.9 0 0 1-.191-.02 15.84 15.84 0 0 1-5.642-2.373.934.934 0 0 1 1.041-1.552A13.989 13.989 0 0 0 15 27.81a.934.934 0 0 1-.188 1.848" transform="translate(2.103 6.273)" style="fill:#e63946"/>
                    <path data-name="Path 659" d="M4.438 15.676a.908.908 0 0 1-.207-.024.932.932 0 0 1-.7-1.116 15.854 15.854 0 0 1 2.3-5.348.934.934 0 1 1 1.552 1.039 14.042 14.042 0 0 0-2.031 4.72.933.933 0 0 1-.909.729" transform="translate(.86 2.154)" style="fill:#e63946"/>
                    <path data-name="Path 660" d="M6.447 24.909a.932.932 0 0 1-.788-.431 15.854 15.854 0 0 1-2.219-5.571.934.934 0 0 1 1.835-.351 13.93 13.93 0 0 0 1.959 4.916.934.934 0 0 1-.786 1.437" transform="translate(.84 4.368)" style="fill:#e63946"/>
                    <path data-name="Path 661" d="M18.718 29.659a.934.934 0 0 1-.188-1.848 14 14 0 0 0 4.979-2.1.934.934 0 1 1 1.041 1.552 15.855 15.855 0 0 1-5.642 2.373.9.9 0 0 1-.191.02" transform="translate(4.366 6.273)" style="fill:#e63946"/>
                    <path data-name="Path 662" d="M28.473 15.676a.933.933 0 0 1-.909-.729 14.042 14.042 0 0 0-2.031-4.72.934.934 0 1 1 1.552-1.039 15.854 15.854 0 0 1 2.3 5.348.932.932 0 0 1-.7 1.116.908.908 0 0 1-.207.024" transform="translate(6.229 2.154)" style="fill:#e63946"/>
                    <path data-name="Path 663" d="M9.753 7.548a.934.934 0 0 1-.5-1.723 15.8 15.8 0 0 1 5.275-2.15.934.934 0 1 1 .382 1.825 13.95 13.95 0 0 0-4.656 1.9.934.934 0 0 1-.5.146" transform="translate(2.165 .897)" style="fill:#e63946"/>
                    <path data-name="Path 664" d="M19.973 6.422a.933.933 0 0 1-.93-.871l-.25-3.683H14.92l-.25 3.683a.934.934 0 0 1-1.863-.127l.31-4.553A.933.933 0 0 1 14.048 0h5.616a.933.933 0 0 1 .936.871l.31 4.553a.934.934 0 0 1-.868 1h-.065" transform="translate(3.143)" style="fill:#e63946"/>
                    <path data-name="Path 665" d="M19.659 33.287h-5.616a.934.934 0 0 1-.932-.871l-.278-4.07a.934.934 0 1 1 1.863-.126l.217 3.2h3.872l.218-3.2a.949.949 0 0 1 .997-.869.935.935 0 0 1 .869 1l-.278 4.07a.933.933 0 0 1-.93.871" transform="translate(3.15 6.714)" style="fill:#e63946"/>
                    <path data-name="Path 666" d="M6.754 12.087a.93.93 0 0 1-.7-.32L3.119 8.41a.935.935 0 0 1 .044-1.275l3.971-3.972a.936.936 0 0 1 1.274-.044L11.822 6.1a.934.934 0 1 1-1.228 1.409L7.837 5.1 5.1 7.838l2.356 2.7a.934.934 0 0 1-.7 1.548" transform="translate(.709 .709)" style="fill:#e63946"/>
                    <path data-name="Path 667" d="M26.084 31a.933.933 0 0 1-.614-.23l-3.1-2.7a.934.934 0 1 1 1.23-1.412l2.444 2.132 2.736-2.739-2.18-2.5a.934.934 0 0 1 1.409-1.228l2.753 3.154a.935.935 0 0 1-.044 1.275l-3.971 3.971a.93.93 0 0 1-.66.274" transform="translate(5.413 5.402)" style="fill:#e63946"/>
                    <path data-name="Path 668" d="M5.2 20.888h-.065L.871 20.6A.935.935 0 0 1 0 19.665v-5.617a.933.933 0 0 1 .871-.932l4.363-.3a.934.934 0 0 1 .127 1.864l-3.492.238v3.87l3.391.232a.934.934 0 0 1-.06 1.868" transform="translate(0 3.146)" style="fill:#e63946"/>
                    <path data-name="Path 669" d="M28.147 20.888a.934.934 0 0 1-.062-1.866l3.391-.232v-3.87l-3.492-.238a.934.934 0 0 1 .127-1.864l4.363.3a.933.933 0 0 1 .871.932v5.617a.935.935 0 0 1-.871.932l-4.262.289h-.065" transform="translate(6.656 3.146)" style="fill:#e63946"/>
                    <path data-name="Path 670" d="M7.794 31a.93.93 0 0 1-.66-.274l-3.971-3.97a.935.935 0 0 1-.044-1.275l2.753-3.154a.934.934 0 0 1 1.409 1.228l-2.18 2.5 2.736 2.735 2.444-2.132a.934.934 0 1 1 1.228 1.409l-3.1 2.7a.933.933 0 0 1-.614.23" transform="translate(.709 5.402)" style="fill:#e63946"/>
                    <path data-name="Path 671" d="M27.186 12.087a.934.934 0 0 1-.7-1.548l2.356-2.7L26.1 5.1l-2.756 2.4a.934.934 0 1 1-1.226-1.4l3.414-2.978a.936.936 0 0 1 1.274.044l3.971 3.972a.935.935 0 0 1 .043 1.272l-2.93 3.357a.93.93 0 0 1-.7.32" transform="translate(5.351 .709)" style="fill:#e63946"/>
                    <path data-name="Path 672" d="M18.372 25.932a.934.934 0 0 1-.325-1.811 6.759 6.759 0 0 0 0-12.694.935.935 0 0 1 .64-1.757 8.629 8.629 0 0 1 0 16.205.953.953 0 0 1-.323.057" transform="translate(4.28 2.36)" style="fill:#1d3557"/>
                    <path data-name="Path 673" d="M15.108 25.932a.929.929 0 0 1-.32-.057 8.629 8.629 0 0 1 0-16.205.935.935 0 0 1 .64 1.757 6.76 6.76 0 0 0 0 12.694.934.934 0 0 1-.32 1.811" transform="translate(2.241 2.36)" style="fill:#1d3557"/>
                    <path data-name="Path 674" d="M18.252 14.695a.933.933 0 0 1-.912-.737l-.732-3.388a.935.935 0 0 1 .716-1.11l4.184-.905a.935.935 0 0 1 .395 1.827l-3.271.706.534 2.476a.934.934 0 0 1-.716 1.11.973.973 0 0 1-.2.021" transform="translate(4.072 2.095)" style="fill:#1d3557"/>
                    <path data-name="Path 675" d="M11.006 24.715a.934.934 0 0 1-.091-1.863l3.329-.333L13.992 20a.934.934 0 0 1 1.86-.186l.344 3.449a.934.934 0 0 1-.837 1.021l-4.26.425a.782.782 0 0 1-.093 0" transform="translate(2.473 4.657)" style="fill:#1d3557"/>
                </g>
            </g>
        </g>
        <g data-name="Group 753">
            <path data-name="Rectangle 877" transform="translate(216 61)" style="fill:none" d="M0 0h64v64H0z"/>
            <g data-name="Group 752">
                <g data-name="Group 751" transform="translate(232 73)" style="clip-path:url(#62810y8uky)">
                    <path data-name="Path 785" d="M16.358 36.716A16.363 16.363 0 0 1 16.2 3.99a1.336 1.336 0 0 1 .987.4 1.39 1.39 0 0 1 .41.985v13.74h13.745a1.385 1.385 0 0 1 1.384 1.4 16.416 16.416 0 0 1-16.368 16.201M14.834 6.842a13.6 13.6 0 1 0 15.04 15.038H16.218a1.383 1.383 0 0 1-1.384-1.38z" transform="translate(0 3.285)" style="fill:#e63946"/>
                    <path data-name="Path 786" d="M17.272.806v1.061a6.231 6.231 0 0 1 1.805.432 3.583 3.583 0 0 1 1.311.985 4.153 4.153 0 0 1 .684 1.032 2.38 2.38 0 0 1 .241.974 1.164 1.164 0 0 1-.359.85 1.185 1.185 0 0 1-.87.359 1.226 1.226 0 0 1-1.249-1.043 2.227 2.227 0 0 0-1.563-1.632v4.09c.813.222 1.459.427 1.942.609a4.066 4.066 0 0 1 1.293.8 3.669 3.669 0 0 1 .937 1.293 4.043 4.043 0 0 1 .33 1.647 4.365 4.365 0 0 1-.525 2.1 4.169 4.169 0 0 1-1.548 1.6 5.522 5.522 0 0 1-2.429.737v2.449a2.321 2.321 0 0 1-.113.844.481.481 0 0 1-.5.266.546.546 0 0 1-.5-.217 1.217 1.217 0 0 1-.144-.667v-2.661a6.239 6.239 0 0 1-2.011-.542 4.807 4.807 0 0 1-1.435-1.027 4.326 4.326 0 0 1-.85-1.278 3.378 3.378 0 0 1-.275-1.3 1.182 1.182 0 0 1 .37-.85 1.228 1.228 0 0 1 .917-.379 1.294 1.294 0 0 1 .748.208 1.052 1.052 0 0 1 .423.58 12.73 12.73 0 0 0 .461 1.233 2.356 2.356 0 0 0 .6.782 2.646 2.646 0 0 0 1.056.542v-4.575a12.173 12.173 0 0 1-2.2-.811 3.732 3.732 0 0 1-1.435-1.275 3.756 3.756 0 0 1-.55-2.122 3.771 3.771 0 0 1 1.076-2.775 4.838 4.838 0 0 1 3.113-1.258V.826q0-.826.62-.826t.629.806m-1.25 6.745V3.786a3.414 3.414 0 0 0-1.287.647 1.535 1.535 0 0 0-.461 1.22 1.516 1.516 0 0 0 .432 1.174 3.979 3.979 0 0 0 1.317.724m1.249 2.919v4.307a2.7 2.7 0 0 0 1.534-.8 2.02 2.02 0 0 0 .542-1.4 1.685 1.685 0 0 0-.525-1.322 4.3 4.3 0 0 0-1.55-.791" transform="translate(9.43 -.001)" style="fill:#1d3557"/>
                </g>
            </g>
        </g>
        <g data-name="Group 757">
            <path data-name="Rectangle 877" transform="translate(218 356)" style="fill:none" d="M0 0h64v64H0z"/>
            <g data-name="Group 756">
                <path data-name="Rectangle 958" transform="translate(243.795 387.997)" style="fill:#1d3557" d="M0 0h12v6H0z"/>
                <path data-name="Rectangle 959" transform="translate(242.175 383.022)" style="fill:#1d3557" d="M0 0h15v3H0z"/>
                <path data-name="Rectangle 960" transform="translate(243.795 387.997)" style="fill:#1d3557" d="M0 0h12v6H0z"/>
                <path data-name="Rectangle 962" transform="translate(243.795 386.977)" style="fill:#1d3557" d="M0 0h12v6H0z"/>
                <g data-name="Group 755">
                    <g data-name="Group 754" style="clip-path:url(#dd2fh55k0z)" transform="translate(232 368)">
                        <path data-name="Path 787" d="M17.594 3.351A3.351 3.351 0 1 1 14.243 0a3.351 3.351 0 0 1 3.351 3.351" transform="translate(3.331)" style="fill:#e63946"/>
                        <path data-name="Path 788" d="M17.594 28.851a3.351 3.351 0 1 1-3.351-3.351 3.351 3.351 0 0 1 3.351 3.351" transform="translate(3.331 7.798)" style="fill:#e63946"/>
                        <path data-name="Path 789" d="M28.641 9.794a3.351 3.351 0 1 1-3.351-3.351 3.351 3.351 0 0 1 3.351 3.351" transform="translate(6.709 1.97)" style="fill:#e63946"/>
                        <path data-name="Path 790" d="M6.7 9.587a3.351 3.351 0 1 1-3.348-3.351A3.351 3.351 0 0 1 6.7 9.587" transform="translate(0 1.907)" style="fill:#e63946"/>
                        <path data-name="Path 791" d="M28.641 22.556A3.351 3.351 0 1 1 25.29 19.2a3.351 3.351 0 0 1 3.351 3.351" transform="translate(6.709 5.873)" style="fill:#e63946"/>
                        <path data-name="Path 792" d="M6.7 22.349A3.351 3.351 0 1 1 3.352 19 3.351 3.351 0 0 1 6.7 22.349" transform="translate(0 5.81)" style="fill:#e63946"/>
                        <path data-name="Path 793" d="M17.123 37.8 1.474 28.765V10.7l15.649-9.041 15.65 9.041v18.07zM3.433 27.636l13.69 7.9 13.692-7.9v-15.81l-13.692-7.9-13.69 7.9z" transform="translate(.451 .507)" style="fill:#e63946"/>
                    </g>
                </g>
            </g>
        </g>
        <g data-name="Group 744">
            <g data-name="Group 735">
                <g data-name="Group 734" transform="translate(145 222)" style="clip-path:url(#y94vtcmeeA)">
                    <path data-name="Path 770" d="M17.755 34.166a1.358 1.358 0 0 1-1.355-1.357V8.563a1.357 1.357 0 0 1 2.714 0v24.246a1.358 1.358 0 0 1-1.357 1.357" transform="translate(13.275 5.833)" style="fill:#e63946"/>
                    <path data-name="Path 771" d="M12.755 28.986a1.358 1.358 0 0 1-1.355-1.357V14.962a1.357 1.357 0 1 1 2.714 0v12.667a1.358 1.358 0 0 1-1.357 1.357" transform="translate(9.227 11.014)" style="fill:#e63946"/>
                    <path data-name="Path 772" d="M7.755 32.224A1.358 1.358 0 0 1 6.4 30.867v-19.9a1.357 1.357 0 1 1 2.714 0v19.9a1.358 1.358 0 0 1-1.357 1.357" transform="translate(5.179 7.775)" style="fill:#e63946"/>
                    <path data-name="Path 773" d="M2.755 28.986A1.358 1.358 0 0 1 1.4 27.629V14.962a1.357 1.357 0 0 1 2.714 0v12.667a1.358 1.358 0 0 1-1.357 1.357" transform="translate(1.132 11.014)" style="fill:#e63946"/>
                    <path data-name="Path 774" d="M1.357 17.954a1.357 1.357 0 0 1-.907-2.367L14.916 2.58l6.847 6.154L32.731.282a1.357 1.357 0 1 1 1.658 2.15l-12.76 9.833-6.713-6.035L2.264 17.607a1.347 1.347 0 0 1-.907.347" style="fill:#1d3557"/>
                </g>
            </g>
            <path data-name="Rectangle 877" transform="translate(130 210)" style="fill:none" d="M0 0h64v64H0z"/>
        </g>
        <g data-name="Group 1525">
            <path data-name="Path 1705" d="M19405.027-20573.07v-7.158h-24.9v33.3h24.9v-5.6" transform="translate(-18978.057 20951.578)" style="stroke-linecap:round;stroke-width:2px;stroke:#e63946;fill:none"/>
            <path data-name="Line 158" transform="translate(406.49 378.732)" style="stroke-linecap:round;stroke-width:2px;stroke:#e63946;fill:none" d="M0 0h15.589"/>
            <path data-name="Line 159" transform="translate(406.49 384.352)" style="stroke-linecap:round;stroke-width:2px;stroke:#e63946;fill:none" d="M0 0h7.976"/>
            <path data-name="Line 160" transform="translate(406.49 389.79)" style="stroke-linecap:round;stroke-width:2px;stroke:#e63946;fill:none" d="M0 0h7.795"/>
            <path data-name="Path 1706" d="m19448.8-20478.545 8.25-8.248 3.146 3.146 5.455-5.455 3.885 3.885" transform="translate(-19034.284 20876.971)" style="stroke:#1d3557;stroke-linecap:round;stroke-width:2px;fill:none"/>
        </g>
        <g data-name="Group 1526">
            <g data-name="Subtraction 5" style="fill:none">
                <path d="M16 9H0V4a4.005 4.005 0 0 1 4-4h8a4.005 4.005 0 0 1 4 4v5z" style="stroke:none" transform="translate(409.998 77.998)"/>
                <path d="M13.502 6.502v-2.5c0-.827-.673-1.5-1.5-1.5h-8c-.827 0-1.5.673-1.5 1.5v2.5h11m2.5 2.5h-16v-5c0-2.206 1.794-4 4-4h8c2.205 0 4 1.794 4 4v5z" style="fill:#1d3557;stroke:none" transform="translate(409.998 77.998)"/>
            </g>
            <g data-name="Rectangle 2431" transform="translate(400 84.998)" style="stroke-width:2.5px;stroke:#e63946;fill:none">
                <rect width="35" height="23" rx="3" style="stroke:none"/>
                <rect x="1.25" y="1.25" width="32.5" height="20.5" rx="1.75" style="fill:none"/>
            </g>
        </g>
        <text data-name="Reporting &amp; Analysis" transform="translate(470 385)" style="font-size:14px;font-family:Inter;font-weight:600;fill:#1d3557"><tspan x="0" y="0">Reporting</tspan><tspan x="0" y="17">&amp; Analysis</tspan></text>
        <text data-name="Supply Chain Management" transform="translate(194 385)" style="font-size:14px;font-family:Inter;font-weight:600;fill:#1d3557"><tspan x="-89.504" y="0">Supply Chain</tspan><tspan x="-89.086" y="17">Management</tspan></text>
        <text data-name="Operational Management" transform="translate(554 239)" style="font-size:14px;font-family:Inter;font-weight:600;fill:#1d3557"><tspan x="0" y="0">Operational</tspan><tspan x="0" y="17">Management</tspan></text>
        <text data-name="Sales &amp; Service Management" transform="translate(105 239)" style="font-size:14px;font-family:Inter;font-weight:600;fill:#1d3557"><tspan x="-104.264" y="0">Sales &amp; Service</tspan><tspan x="-89.086" y="17">Management</tspan></text>
        <text data-name="Project Management" transform="translate(470 88)" style="font-size:14px;font-family:Inter;font-weight:600;fill:#1d3557"><tspan x="0" y="0">Project</tspan><tspan x="0" y="17">Management</tspan></text>
        <text data-name="Financial Management" transform="translate(190 88)" style="font-size:14px;font-family:Inter;font-weight:600;fill:#1d3557"><tspan x="-60.39" y="0">Financial</tspan><tspan x="-89.086" y="17">Management</tspan></text>
    </g>
</svg>
