<svg xmlns="http://www.w3.org/2000/svg" width="64" height="64" viewBox="0 0 64 64">
    <defs>
        <clipPath id="86nqcg78oa">
            <path data-name="Rectangle 883" style="fill:#ee3442" d="M0 0h40v44.95H0z"/>
        </clipPath>
    </defs>
    <g data-name="Group 637">
        <path data-name="Rectangle 877" style="fill:none" d="M0 0h64v64H0z"/>
        <g data-name="Group 636">
            <g data-name="Group 635" transform="translate(12 10)" style="clip-path:url(#86nqcg78oa)">
                <path data-name="Path 626" d="M20 42.866a20 20 0 0 1-.188-40h.012a1.3 1.3 0 0 1 1.3 1.3V21.75h17.59A1.3 1.3 0 0 1 40 23.058a20.065 20.065 0 0 1-20 19.808M18.525 5.517a17.41 17.41 0 1 0 18.824 18.824H19.82a1.3 1.3 0 0 1-1.3-1.3z" transform="translate(0 2.085)" style="fill:#ee3442"/>
                <path data-name="Path 627" d="M21.125.82V1.9a6.321 6.321 0 0 1 1.838.44 3.657 3.657 0 0 1 1.337 1 4.2 4.2 0 0 1 .694 1.06 2.415 2.415 0 0 1 .247.991 1.184 1.184 0 0 1-.366.865 1.207 1.207 0 0 1-.886.366 1.246 1.246 0 0 1-1.271-1.062 2.269 2.269 0 0 0-1.593-1.662v4.163q1.241.339 1.978.62a4.083 4.083 0 0 1 1.316.812 3.738 3.738 0 0 1 .957 1.316 4.149 4.149 0 0 1 .335 1.677 4.443 4.443 0 0 1-.535 2.138 4.248 4.248 0 0 1-1.576 1.628 5.637 5.637 0 0 1-2.475.748v2.5a2.375 2.375 0 0 1-.116.862.488.488 0 0 1-.5.269.558.558 0 0 1-.509-.223 1.246 1.246 0 0 1-.145-.681v-2.7a6.333 6.333 0 0 1-2.049-.549 4.914 4.914 0 0 1-1.463-1.047 4.4 4.4 0 0 1-.865-1.3A3.454 3.454 0 0 1 15.2 12.8a1.207 1.207 0 0 1 .377-.867 1.253 1.253 0 0 1 .934-.385 1.33 1.33 0 0 1 .762.211 1.076 1.076 0 0 1 .43.591 12.785 12.785 0 0 0 .472 1.257 2.4 2.4 0 0 0 .606.795 2.67 2.67 0 0 0 1.076.551v-4.66a12.251 12.251 0 0 1-2.244-.826 3.766 3.766 0 0 1-1.461-1.3 3.816 3.816 0 0 1-.561-2.163 3.834 3.834 0 0 1 1.1-2.824 4.917 4.917 0 0 1 3.163-1.28V.841c0-.561.209-.841.63-.841s.641.273.641.82m-1.271 6.87V3.855a3.5 3.5 0 0 0-1.313.66 1.565 1.565 0 0 0-.47 1.242 1.545 1.545 0 0 0 .44 1.2 4.02 4.02 0 0 0 1.342.736m1.271 2.974v4.383a2.749 2.749 0 0 0 1.561-.81 2.055 2.055 0 0 0 .551-1.423 1.7 1.7 0 0 0-.535-1.346 4.362 4.362 0 0 0-1.577-.807" transform="translate(11.052 .001)" style="fill:#1d3557"/>
            </g>
        </g>
    </g>
</svg>
