<svg xmlns="http://www.w3.org/2000/svg" width="64" height="64" viewBox="0 0 64 64">
    <defs>
        <clipPath id="k420qr4xha">
            <path data-name="Rectangle 900" style="fill:none" d="M0 0h40v34.342H0z"/>
        </clipPath>
    </defs>
    <g data-name="Group 675">
        <path data-name="Rectangle 877" style="fill:none" d="M0 0h64v64H0z"/>
        <g data-name="Group 672">
            <g data-name="Group 671" transform="translate(12 15)" style="clip-path:url(#k420qr4xha)">
                <path data-name="Path 676" d="m34.358 21.49-2.076-.69A14.153 14.153 0 1 0 4.7 16.341a14.037 14.037 0 0 0 .717 4.459l-2.075.693a16.341 16.341 0 1 1 31.016 0" transform="translate(1.149)" style="fill:#e63946"/>
                <path data-name="Path 677" d="M7.5 21.167H3.73A3.73 3.73 0 0 1 0 17.437v-5.426a3.73 3.73 0 0 1 3.73-3.73H7.5z" transform="translate(0 3.794)" style="fill:#1d3557"/>
                <path data-name="Path 678" d="M22.29 21.167h3.768a3.73 3.73 0 0 0 3.73-3.73v-5.426a3.73 3.73 0 0 0-3.73-3.73H22.29z" transform="translate(10.212 3.794)" style="fill:#1d3557"/>
                <path data-name="Path 679" d="m18.033 25.5-.287-2.167c6.578-.869 6.7-6.484 6.706-6.722h2.187c0 .077-.1 7.76-8.606 8.885" transform="translate(8.13 7.611)" style="fill:#e63946"/>
                <path data-name="Path 680" d="M18.293 25.05h-3.386a2.285 2.285 0 0 1-2.279-2.279v-.209a2.285 2.285 0 0 1 2.279-2.279h3.386a2.286 2.286 0 0 1 2.279 2.279v.209a2.286 2.286 0 0 1-2.279 2.279" transform="translate(5.786 9.292)" style="fill:#1d3557"/>
            </g>
        </g>
    </g>
</svg>
