<svg xmlns="http://www.w3.org/2000/svg" width="64" height="64" viewBox="0 0 64 64">
    <defs>
        <clipPath id="09x8dt28ga">
            <path data-name="Rectangle 901" style="fill:none" d="M0 0h40v46.514H0z"/>
        </clipPath>
    </defs>
    <g data-name="Group 676">
        <path data-name="Rectangle 877" style="fill:none" d="M0 0h64v64H0z"/>
        <g data-name="Group 674">
            <g data-name="Group 673" transform="translate(12 9)" style="clip-path:url(#09x8dt28ga)">
                <path data-name="Path 681" d="M28.256 25.312H5.014a1.46 1.46 0 1 1 0-2.92h23.242a1.46 1.46 0 1 1 0 2.92" transform="translate(3.365 21.202)" style="fill:#1d3557"/>
                <path data-name="Path 682" d="M38.529 19.817H1.463a1.46 1.46 0 1 1 0-2.92h37.066a1.46 1.46 0 1 1 0 2.92" transform="translate(.003 15.999)" style="fill:#1d3557"/>
                <path data-name="Path 683" d="M38.529 15.682 24.18 1.723a5.946 5.946 0 0 0-8.371 0L1.461 15.682a4.815 4.815 0 0 0 3.368 8.255H35.18a4.8 4.8 0 0 0 3.349-8.255m-1.6 4.166a1.875 1.875 0 0 1-1.752 1.168H4.829A1.883 1.883 0 0 1 3.5 17.784L17.853 3.806a3.053 3.053 0 0 1 2.142-.876 3.1 3.1 0 0 1 2.161.876L36.5 17.784a1.887 1.887 0 0 1 .428 2.064" style="fill:#e63946"/>
            </g>
        </g>
    </g>
</svg>
