<svg xmlns="http://www.w3.org/2000/svg" xmlns:xlink="http://www.w3.org/1999/xlink" id="Layer_1" data-name="Layer 1" width="400" height="197.916" viewBox="0 0 400 197.916"><defs><linearGradient id="linear-gradient" x1="-709.59" y1="138.24" x2="-891.29" y2="61.465" gradientTransform="matrix(-1, 0, 0, 1, -608.808, 0)" gradientUnits="userSpaceOnUse"><stop offset="0" stop-color="#742774"></stop><stop offset="1" stop-color="#5ccbd3"></stop></linearGradient><linearGradient id="linear-gradient-2" x1="275.366" y1="129.916" x2="412.33" y2="32.9" gradientTransform="matrix(1, 0, 0, -1, 0, 199.916)" gradientUnits="userSpaceOnUse"><stop offset="0.339" stop-color="#019aa6"></stop><stop offset="0.641" stop-color="#01727a"></stop></linearGradient><linearGradient id="linear-gradient-3" x1="312.61" y1="159.032" x2="324.024" y2="34.971" gradientTransform="matrix(1, 0, 0, -1, 0, 199.916)" gradientUnits="userSpaceOnUse"><stop offset="0" stop-color="#94edf3"></stop><stop offset="1" stop-color="#82ebf1"></stop></linearGradient><linearGradient id="linear-gradient-4" x1="294.386" y1="117.154" x2="355.92" y2="71.747" gradientTransform="matrix(1, 0, 0, -1, 0, 199.916)" gradientUnits="userSpaceOnUse"><stop offset="0" stop-color="#32dfea"></stop><stop offset="1" stop-color="#0dbdca"></stop></linearGradient><linearGradient id="linear-gradient-5" x1="317.301" y1="159.463" x2="328.716" y2="35.393" xlink:href="#linear-gradient-3"></linearGradient><linearGradient id="linear-gradient-6" x1="308.508" y1="158.661" x2="319.922" y2="34.591" xlink:href="#linear-gradient-3"></linearGradient><linearGradient id="linear-gradient-7" x1="313.364" y1="119.116" x2="388.551" y2="91.324" gradientTransform="matrix(1, 0, 0, -1, 0, 199.916)" gradientUnits="userSpaceOnUse"><stop offset="0" stop-color="#94edf3"></stop><stop offset="1" stop-color="#32dfea"></stop></linearGradient><linearGradient id="linear-gradient-8" x1="307.571" y1="103.439" x2="382.753" y2="75.649" xlink:href="#linear-gradient-7"></linearGradient><linearGradient id="linear-gradient-9" x1="310.194" y1="110.533" x2="385.375" y2="82.743" xlink:href="#linear-gradient-7"></linearGradient><clipPath id="clip-path"><rect x="2.335" y="18.164" width="153.314" height="153.314" style="fill:none"></rect></clipPath><clipPath id="clip-path-3"><rect x="2.335" y="18.165" width="153.314" height="153.314" style="fill:none"></rect></clipPath><mask id="mask" x="-0.859" y="18.164" width="159.703" height="156.508" maskUnits="userSpaceOnUse"><g id="mask0"><path d="M4.663,88.512a9.579,9.579,0,0,0,0,12.619l56.746,64.853a6.388,6.388,0,0,0,9.615,0L77.135,159l6.729,7.341a6.388,6.388,0,0,0,9.418,0L152.907,101.3a9.581,9.581,0,0,0,0-12.949L93.282,23.3a6.388,6.388,0,0,0-9.418,0l-6.729,7.341-6.111-6.984a6.388,6.388,0,0,0-9.615,0Z" style="fill:#fff"></path></g></mask><linearGradient id="linear-gradient-10" x1="100.153" y1="22.072" x2="10.719" y2="240.864" gradientTransform="matrix(1, 0, 0, -1, 0, 199.916)" gradientUnits="userSpaceOnUse"><stop offset="0" stop-color="#742774"></stop><stop offset="1" stop-color="#bb35a4"></stop></linearGradient><linearGradient id="linear-gradient-11" x1="59.602" y1="184.703" x2="133.065" y2="31.389" gradientTransform="matrix(1, 0, 0, -1, 0, 199.916)" gradientUnits="userSpaceOnUse"><stop offset="0" stop-color="#e48cc7"></stop><stop offset="1" stop-color="#d467b9"></stop></linearGradient><linearGradient id="linear-gradient-12" x1="113.954" y1="139.541" x2="136.313" y2="70.869" gradientTransform="matrix(1, 0, 0, -1, 0, 199.916)" gradientUnits="userSpaceOnUse"><stop offset="0" stop-color="#e9a1cb"></stop><stop offset="1" stop-color="#e48cc7"></stop></linearGradient></defs><rect x="88.701" y="51.654" width="205.861" height="96.397" rx="48.198" style="fill:url(#linear-gradient)"></rect><path d="M318.389,175.231a74.757,74.757,0,1,1,74.757-74.756A74.751,74.751,0,0,1,318.389,175.231Z" style="fill:#5ccbd3"></path><path d="M391.692,100.475a73.3,73.3,0,1,1-73.3-73.3A73.3,73.3,0,0,1,391.692,100.475ZM318.389,21.2a79.277,79.277,0,1,1-79.276,79.277A79.267,79.267,0,0,1,318.389,21.2Z" style="fill:#f2f1f0;fill-rule:evenodd"></path><path d="M387.205,100.475a68.816,68.816,0,1,1-68.816-68.816A68.811,68.811,0,0,1,387.205,100.475ZM318.389,25.686A74.789,74.789,0,1,1,243.6,100.475,74.8,74.8,0,0,1,318.389,25.686Z" style="fill:#1d8e96;fill-rule:evenodd"></path><path d="M318.389,152.09a51.616,51.616,0,1,0-51.616-51.616A51.616,51.616,0,0,0,318.389,152.09Z" style="fill:url(#linear-gradient-2)"></path><path d="M323.052,58.792h-9.805V143.4h9.805Z" style="fill:url(#linear-gradient-3)"></path><path d="M313.853,105.25V95.444h-38.52v9.806Z" style="fill:#99edf3"></path><path d="M318.389,132.607a32.133,32.133,0,1,0-32.132-32.132A32.136,32.136,0,0,0,318.389,132.607Z" style="fill:url(#linear-gradient-4)"></path><path d="M318.389,63.392a11.116,11.116,0,1,0-11.115-11.116A11.113,11.113,0,0,0,318.389,63.392Z" style="fill:url(#linear-gradient-5)"></path><path d="M318.389,159.772a11.115,11.115,0,1,0-11.115-11.115A11.113,11.113,0,0,0,318.389,159.772Z" style="fill:url(#linear-gradient-6)"></path><path d="M366.587,111.59a11.116,11.116,0,1,0-11.115-11.115A11.113,11.113,0,0,0,366.587,111.59Z" style="fill:url(#linear-gradient-7)"></path><path d="M270.191,111.59a11.116,11.116,0,1,0-11.116-11.115A11.113,11.113,0,0,0,270.191,111.59Z" style="fill:#9df3f9"></path><path d="M318.389,115.3a14.821,14.821,0,1,0-14.82-14.821A14.821,14.821,0,0,0,318.389,115.3Z" style="fill:url(#linear-gradient-8)"></path><path d="M319.81,105.25V95.46h40.134v9.79Z" style="fill:url(#linear-gradient-9)"></path><g style="clip-path:url(#clip-path)"><g style="clip-path:url(#clip-path)"><g style="clip-path:url(#clip-path-3)"><g style="mask:url(#mask)"><path d="M66.216,171.479-.859,94.822,66.216,18.164l67.076,76.658Z" style="fill:url(#linear-gradient-10)"></path><path d="M88.573,21.358l70.269,76.658L88.573,174.673,57.4,140.661a6.387,6.387,0,0,1,0-8.633l27.22-29.7a6.387,6.387,0,0,0,0-8.633L57.4,64a6.389,6.389,0,0,1,0-8.634Z" style="fill-opacity:0.3199999928474426"></path><path d="M88.573,18.771l70.269,76.658L88.573,172.086,57.4,138.074a6.387,6.387,0,0,1,0-8.633l27.22-29.7a6.387,6.387,0,0,0,0-8.633L57.4,61.417a6.389,6.389,0,0,1,0-8.634Z" style="fill-opacity:0.23999999463558197"></path><path d="M88.573,18.164l70.269,76.658L88.573,171.479,57.4,137.467a6.387,6.387,0,0,1,0-8.633l27.22-29.7a6.387,6.387,0,0,0,0-8.633L57.4,60.81a6.389,6.389,0,0,1,0-8.634Z" style="fill:url(#linear-gradient-11)"></path><path d="M119,61.63a6.388,6.388,0,0,1,9.418,0l30.426,33.192-30.426,33.191a6.388,6.388,0,0,1-9.418,0L94.51,101.3a9.581,9.581,0,0,1,0-12.949Z" style="fill:url(#linear-gradient-12)"></path></g></g></g></g><text transform="translate(181.028 111.589)" style="font-size:39.92562484741211px;fill:#fff;font-family:SegoeUI-Bold, Segoe UI;font-weight:700">+</text></svg>