<svg xmlns="http://www.w3.org/2000/svg" xmlns:xlink="http://www.w3.org/1999/xlink" id="Layer_1" data-name="Layer 1" width="400" height="197.916" viewBox="0 0 400 197.916"><defs><linearGradient id="linear-gradient" x1="-3235.653" y1="140.971" x2="-3417.353" y2="64.196" gradientTransform="matrix(-1, 0, 0, 1, -3134.871, 0)" gradientUnits="userSpaceOnUse"><stop offset="0" stop-color="#f3cf44"></stop><stop offset="1" stop-color="#5ccbd3"></stop></linearGradient><linearGradient id="linear-gradient-2" x1="275.366" y1="127.185" x2="412.33" y2="30.169" gradientTransform="matrix(1, 0, 0, -1, 0, 199.916)" gradientUnits="userSpaceOnUse"><stop offset="0.339" stop-color="#019aa6"></stop><stop offset="0.641" stop-color="#01727a"></stop></linearGradient><linearGradient id="linear-gradient-3" x1="312.61" y1="156.301" x2="324.024" y2="32.239" gradientTransform="matrix(1, 0, 0, -1, 0, 199.916)" gradientUnits="userSpaceOnUse"><stop offset="0" stop-color="#94edf3"></stop><stop offset="1" stop-color="#82ebf1"></stop></linearGradient><linearGradient id="linear-gradient-4" x1="294.386" y1="114.422" x2="355.92" y2="69.016" gradientTransform="matrix(1, 0, 0, -1, 0, 199.916)" gradientUnits="userSpaceOnUse"><stop offset="0" stop-color="#32dfea"></stop><stop offset="1" stop-color="#0dbdca"></stop></linearGradient><linearGradient id="linear-gradient-5" x1="317.301" y1="156.732" x2="328.716" y2="32.662" xlink:href="#linear-gradient-3"></linearGradient><linearGradient id="linear-gradient-6" x1="308.508" y1="155.93" x2="319.922" y2="31.86" xlink:href="#linear-gradient-3"></linearGradient><linearGradient id="linear-gradient-7" x1="313.364" y1="116.385" x2="388.551" y2="88.593" gradientTransform="matrix(1, 0, 0, -1, 0, 199.916)" gradientUnits="userSpaceOnUse"><stop offset="0" stop-color="#94edf3"></stop><stop offset="1" stop-color="#32dfea"></stop></linearGradient><linearGradient id="linear-gradient-8" x1="307.571" y1="100.708" x2="382.753" y2="72.918" xlink:href="#linear-gradient-7"></linearGradient><linearGradient id="linear-gradient-9" x1="310.194" y1="107.802" x2="385.375" y2="80.012" xlink:href="#linear-gradient-7"></linearGradient><clipPath id="clip-path"><rect x="2.335" y="15.433" width="153.314" height="153.314" style="fill:none"></rect></clipPath><mask id="mask" x="21.5" y="15.433" width="114.986" height="156.508" maskUnits="userSpaceOnUse"><g id="mask0"><path d="M85.381,21.821a6.388,6.388,0,0,1,6.388-6.388H130.1a6.389,6.389,0,0,1,6.389,6.388V162.36a6.389,6.389,0,0,1-6.389,6.388H27.888A6.388,6.388,0,0,1,21.5,162.36V98.479a6.388,6.388,0,0,1,6.388-6.388H53.44V60.15a6.389,6.389,0,0,1,6.389-6.388H85.381Z" style="fill:#fff"></path></g></mask><linearGradient id="linear-gradient-10" x1="75.15" y1="183.674" x2="142.542" y2="40.826" gradientTransform="matrix(1, 0, 0, -1, 0, 199.916)" gradientUnits="userSpaceOnUse"><stop offset="0" stop-color="#e6ad10"></stop><stop offset="1" stop-color="#c87e0e"></stop></linearGradient><linearGradient id="linear-gradient-11" x1="49.223" y1="143.979" x2="105.899" y2="34.062" gradientTransform="matrix(1, 0, 0, -1, 0, 199.916)" gradientUnits="userSpaceOnUse"><stop offset="0" stop-color="#f6d751"></stop><stop offset="1" stop-color="#e6ad10"></stop></linearGradient><linearGradient id="linear-gradient-12" x1="28.55" y1="110.8" x2="59.869" y2="36.574" gradientTransform="matrix(1, 0, 0, -1, 0, 199.916)" gradientUnits="userSpaceOnUse"><stop offset="0" stop-color="#f9e589"></stop><stop offset="1" stop-color="#f6d751"></stop></linearGradient></defs><rect x="88.701" y="54.385" width="205.861" height="96.397" rx="48.198" style="fill:url(#linear-gradient)"></rect><path d="M318.389,177.962a74.757,74.757,0,1,1,74.757-74.756A74.751,74.751,0,0,1,318.389,177.962Z" style="fill:#5ccbd3"></path><path d="M391.692,103.206a73.3,73.3,0,1,1-73.3-73.3A73.3,73.3,0,0,1,391.692,103.206Zm-73.3-79.277a79.277,79.277,0,1,1-79.276,79.277A79.267,79.267,0,0,1,318.389,23.929Z" style="fill:#f2f1f0;fill-rule:evenodd"></path><path d="M387.205,103.206A68.816,68.816,0,1,1,318.389,34.39,68.811,68.811,0,0,1,387.205,103.206ZM318.389,28.417A74.789,74.789,0,1,1,243.6,103.206,74.8,74.8,0,0,1,318.389,28.417Z" style="fill:#1d8e96;fill-rule:evenodd"></path><path d="M318.389,154.821a51.616,51.616,0,1,0-51.616-51.616A51.616,51.616,0,0,0,318.389,154.821Z" style="fill:url(#linear-gradient-2)"></path><path d="M323.052,61.523h-9.805v84.611h9.805Z" style="fill:url(#linear-gradient-3)"></path><path d="M313.853,107.981V98.175h-38.52v9.806Z" style="fill:#99edf3"></path><path d="M318.389,135.338a32.132,32.132,0,1,0-32.132-32.132A32.136,32.136,0,0,0,318.389,135.338Z" style="fill:url(#linear-gradient-4)"></path><path d="M318.389,66.123a11.116,11.116,0,1,0-11.115-11.116A11.113,11.113,0,0,0,318.389,66.123Z" style="fill:url(#linear-gradient-5)"></path><path d="M318.389,162.5a11.115,11.115,0,1,0-11.115-11.115A11.113,11.113,0,0,0,318.389,162.5Z" style="fill:url(#linear-gradient-6)"></path><path d="M366.587,114.321a11.115,11.115,0,1,0-11.115-11.115A11.113,11.113,0,0,0,366.587,114.321Z" style="fill:url(#linear-gradient-7)"></path><path d="M270.191,114.321a11.115,11.115,0,1,0-11.116-11.115A11.113,11.113,0,0,0,270.191,114.321Z" style="fill:#9df3f9"></path><path d="M318.389,118.026a14.821,14.821,0,1,0-14.82-14.821A14.821,14.821,0,0,0,318.389,118.026Z" style="fill:url(#linear-gradient-8)"></path><path d="M319.81,107.981v-9.79h40.134v9.79Z" style="fill:url(#linear-gradient-9)"></path><text transform="translate(181.028 114.321)" style="font-size:39.92562484741211px;fill:#fff;font-family:SegoeUI-Bold, Segoe UI;font-weight:700">+</text><g style="clip-path:url(#clip-path)"><g style="mask:url(#mask)"><path d="M136.486,15.433V168.748h-51.1V15.433Z" style="fill:url(#linear-gradient-10)"></path><path d="M104.545,60.789v108.6H53.44V54.4H98.157A6.388,6.388,0,0,1,104.545,60.789Z" style="fill-opacity:0.20000000298023224"></path><path d="M104.545,63.344v108.6H53.44V56.956H98.157A6.388,6.388,0,0,1,104.545,63.344Z" style="fill-opacity:0.18000000715255737"></path><path d="M104.545,60.15v108.6H53.44V53.762H98.157A6.388,6.388,0,0,1,104.545,60.15Z" style="fill:url(#linear-gradient-11)"></path><path d="M21.5,92.091v76.657H72.605V98.479a6.389,6.389,0,0,0-6.389-6.388Z" style="fill:url(#linear-gradient-12)"></path></g></g></svg>