<svg xmlns="http://www.w3.org/2000/svg" width="181" height="181" viewBox="0 0 181 181">
    <defs>
        <filter id="c0f62yukia" x="0" y="0" width="181" height="181" filterUnits="userSpaceOnUse">
            <feOffset dy="15"/>
            <feGaussianBlur stdDeviation="15" result="blur"/>
            <feFlood flood-color="#1773ce" flood-opacity=".161"/>
            <feComposite operator="in" in2="blur"/>
            <feComposite in="SourceGraphic"/>
        </filter>
    </defs>
    <g data-name="Component 40 – 1">
        <g style="filter:url(#c0f62yukia)">
            <rect data-name="Rectangle 1313" width="91" height="91" rx="10" transform="translate(45 30)" style="fill:#fff"/>
        </g>
        <path data-name="Path 973" d="M93.843 420.694v5.34h-5.212m10.879-19.921v-5.34h5.212m-11.492.7a11.91 11.91 0 0 0-.37 22.983m6.294-22.969a3.424 3.424 0 0 1 .356.114 11.895 11.895 0 0 1-.74 23.026m19.509-15.379a3.975 3.975 0 0 1-1.3-.655 3.926 3.926 0 0 1-.712-5.525 3.933 3.933 0 0 0-4.443-6.095 4.034 4.034 0 0 1-1.424.228 3.927 3.927 0 0 1-3.816-3.944v-.1a3.937 3.937 0 0 0-7.177-2.335 3.9 3.9 0 0 1-1.025 1.025 3.845 3.845 0 0 1-2.207.684 3.92 3.92 0 0 1-3.247-1.709 3.933 3.933 0 0 0-7.177 2.236v.1a4.035 4.035 0 0 1-.228 1.424 3.933 3.933 0 0 1-5.027 2.392 3.932 3.932 0 0 0-5.255 3.7 3.872 3.872 0 0 0 .826 2.392 4.272 4.272 0 0 1 .655 1.3 3.739 3.739 0 0 1 .157 1.111 3.939 3.939 0 0 1-2.819 3.774 3.909 3.909 0 0 0-2.663 2.663 3.739 3.739 0 0 0-.157 1.111 3.935 3.935 0 0 0 2.82 3.774 3.778 3.778 0 0 1 1.281.655 3.9 3.9 0 0 1 1.538 3.119 3.856 3.856 0 0 1-.812 2.392 3.926 3.926 0 0 0 4.429 6.095 4.023 4.023 0 0 1 1.424-.214 3.927 3.927 0 0 1 3.831 3.93v.1a3.921 3.921 0 0 0 7.163 2.335 4.129 4.129 0 0 1 1.025-1.025 3.943 3.943 0 0 1 5.468 1.025 3.933 3.933 0 0 0 7.177-2.236v-.1a3.736 3.736 0 0 1 .228-1.424 3.941 3.941 0 0 1 3.7-2.62 3.79 3.79 0 0 1 1.31.228 3.932 3.932 0 0 0 5.255-3.7 3.856 3.856 0 0 0-.812-2.392 3.934 3.934 0 0 1 2.008-6.166 3.916 3.916 0 0 0 2.649-2.663A3.852 3.852 0 0 0 121.1 413a3.909 3.909 0 0 0-2.819-3.759z" transform="translate(-5.113 -337.151)" style="fill:none;stroke:#f0cf64;stroke-miterlimit:10;stroke-width:3px"/>
    </g>
</svg>
