<?xml version="1.0" encoding="UTF-8"?><svg id="Layer_2" xmlns="http://www.w3.org/2000/svg" width="48" height="48" viewBox="0 0 48 48"><g id="Layer_1-2"><g><path id="Base" d="M20.24,0h7.521c6.538,0,9.281,.754,11.929,2.17,2.648,1.416,4.725,3.494,6.141,6.141,1.416,2.648,2.17,5.391,2.17,11.929v7.521c0,6.538-.754,9.281-2.17,11.929-1.416,2.648-3.494,4.725-6.141,6.141-2.648,1.416-5.391,2.17-11.929,2.17h-7.521c-6.538,0-9.281-.754-11.929-2.17-2.648-1.416-4.725-3.494-6.141-6.141-1.416-2.648-2.17-5.391-2.17-11.929v-7.521c0-6.538,.754-9.281,2.17-11.929,1.416-2.648,3.494-4.725,6.141-6.141C10.959,.754,13.702,0,20.24,0Z" style="fill:#b7ae3d; fill-rule:evenodd;"/><g><path d="M27.24,34.648c-.192,0-.384-.073-.53-.22l-2.52-2.52c-.293-.293-.293-.768,0-1.061s.768-.293,1.061,0l1.989,1.989,5.589-5.589c.293-.293,.768-.293,1.061,0s.293,.768,0,1.061l-6.119,6.119c-.146,.146-.338,.22-.53,.22Z" style="fill:#fff;"/><path d="M20.689,33.828h-6.047c-.414,0-.75-.336-.75-.75V14.102c0-.414,.336-.75,.75-.75h15.118c.414,0,.75,.336,.75,.75v10.798c0,.414-.336,.75-.75,.75s-.75-.336-.75-.75V14.852H15.391v17.477h5.297c.414,0,.75,.336,.75,.75s-.336,.75-.75,.75Z" style="fill:#fff;"/><path d="M26.16,26.55h-5.482c-.414,0-.75-.336-.75-.75s.336-.75,.75-.75h5.482c.414,0,.75,.336,.75,.75s-.336,.75-.75,.75Z" style="fill:#fff;"/><path d="M26.16,22.5h-5.482c-.414,0-.75-.336-.75-.75s.336-.75,.75-.75h5.482c.414,0,.75,.336,.75,.75s-.336,.75-.75,.75Z" style="fill:#fff;"/><path d="M26.16,18.451h-5.482c-.414,0-.75-.336-.75-.75s.336-.75,.75-.75h5.482c.414,0,.75,.336,.75,.75s-.336,.75-.75,.75Z" style="fill:#fff;"/><circle cx="17.498" cy="17.701" r=".75" style="fill:#fff;"/><circle cx="17.498" cy="21.75" r=".75" style="fill:#fff;"/><circle cx="17.498" cy="25.799" r=".75" style="fill:#fff;"/></g></g></g></svg>