<svg width="255" height="38" xmlns="http://www.w3.org/2000/svg" xmlns:xlink="http://www.w3.org/1999/xlink" xml:space="preserve" overflow="hidden"><defs><clipPath id="clip0"><rect x="718" y="468" width="255" height="38"/></clipPath></defs><g clip-path="url(#clip0)" transform="translate(-718 -468)"><path d="M87.8697 41.9221C81.4073 41.9221 80.7785 45.81 80.7785 51.0632 80.7785 56.3165 81.411 60.3086 87.8697 60.3086L98.6404 60.3086 98.6404 65.0373 86.348 65.0373C76.8906 65.0373 74.4203 59.4678 74.4203 51.0632 74.4203 42.6587 76.8869 37.1934 86.348 37.1934L98.0079 37.1934 98.0079 41.9221 87.8697 41.9221Z" fill="#203864" transform="matrix(1 0 0 1.01068 693.787 439.906)"/><path d="M132.697 51.0632C132.697 62.2023 127.865 65.3535 117.883 65.3535 107.901 65.3535 103.068 62.2023 103.068 51.0632 103.068 39.9242 107.901 36.8809 117.883 36.8809 127.865 36.8809 132.697 40.0321 132.697 51.0632ZM117.883 60.6248C124.189 60.6248 126.343 57.8903 126.343 51.0632 126.343 44.2362 124.189 41.6059 117.883 41.6059 111.576 41.6059 109.426 44.2325 109.426 51.0632 109.426 57.894 111.58 60.6248 117.883 60.6248Z" fill="#203864" transform="matrix(1 0 0 1.01068 693.787 439.906)"/><path d="M138.546 41.9221C138.546 38.7709 140.124 37.1934 143.275 37.1934L153.045 37.1934C159.351 37.1934 163.867 39.3475 163.867 46.7029L163.867 65.0373 157.721 65.0373 157.721 48.3324C157.721 44.1283 156.095 41.9258 151.891 41.9258L146.27 41.9258C145.217 41.9258 144.692 42.4504 144.692 43.4996L144.692 65.041 138.546 65.041 138.546 41.9258Z" fill="#203864" transform="matrix(1 0 0 1.01068 693.787 439.906)"/><path d="M183.798 65.0373C177.492 65.0373 173.552 62.779 173.552 55.9482L173.552 41.9221 169.716 41.9221 169.716 37.1934 173.552 37.1934 173.552 28.2606 179.698 28.2606 179.698 37.1934 187.63 37.1934 187.63 41.9221 179.698 41.9221 179.698 54.687C179.698 58.8911 181.904 60.3086 186.108 60.3086L187.63 60.3086 187.63 65.0373 183.794 65.0373Z" fill="#203864" transform="matrix(1 0 0 1.01068 693.787 439.906)"/><path d="M194.331 33.5176 194.331 33.5176C194.331 30.385 196.872 27.8439 200.004 27.8439L200.477 27.8439C200.477 27.8439 200.477 33.5176 200.477 33.5176L194.331 33.5176ZM194.331 37.1934 200.477 37.1934 200.477 65.0373 194.331 65.0373 194.331 37.1934Z" fill="#203864" transform="matrix(1 0 0 1.01068 693.787 439.906)"/><path d="M207.944 41.9221C207.944 38.7709 209.521 37.1934 212.672 37.1934L222.446 37.1934C228.752 37.1934 233.269 39.3475 233.269 46.7029L233.269 65.0373 227.123 65.0373 227.123 48.3324C227.123 44.1283 225.497 41.9258 221.293 41.9258L215.671 41.9258C214.618 41.9258 214.094 42.4504 214.094 43.4996L214.094 65.041 207.947 65.041 207.947 41.9258Z" fill="#203864" transform="matrix(1 0 0 1.01068 693.787 439.906)"/><path d="M240.747 33.5176 240.747 27.8439 246.893 27.8439C246.893 30.9765 244.352 33.5176 241.219 33.5176L240.747 33.5176ZM240.747 37.1934 246.893 37.1934 246.893 65.0373 240.747 65.0373 240.747 37.1934Z" fill="#203864" transform="matrix(1 0 0 1.01068 693.787 439.906)"/><path d="M271.381 37.1934C276.634 37.1934 279.209 40.6609 279.209 45.3896L279.209 60.3086C279.209 63.4598 277.632 65.0373 274.48 65.0373L260.454 65.0373C255.725 65.0373 253.519 62.1465 253.519 56.3686 253.519 51.1153 255.725 47.7 260.454 47.7L273.063 47.7 273.063 45.9141C273.063 43.2875 271.802 41.9221 269.175 41.9221L255.569 41.9221 255.569 37.1934 271.381 37.1934ZM262.817 52.4287C260.715 52.4287 259.878 53.742 259.878 56.3686 259.878 58.9953 260.718 60.3086 262.817 60.3086L271.485 60.3086C272.538 60.3086 273.063 59.784 273.063 58.7348L273.063 52.4287 262.817 52.4287Z" fill="#203864" transform="matrix(1 0 0 1.01068 693.787 439.906)"/><path d="M44.1544 46.6508 44.1544 65.0559 24.2164 65.0559C24.2164 54.8916 32.4572 46.6508 42.6215 46.6508L44.1544 46.6508Z" fill="#203864" transform="matrix(1 0 0 1.01068 693.787 439.906)"/><path d="M44.1544 46.6508 44.1544 28.2457 64.0923 28.2457C64.0923 38.41 55.8515 46.6508 45.6872 46.6508L44.1544 46.6508Z" fill="#203864" transform="matrix(1 0 0 1.01068 693.787 439.906)"/></g></svg>