<svg xmlns="http://www.w3.org/2000/svg" id="Layer_1" data-name="Layer 1" width="48" height="48" viewBox="0 0 48 48"><g><path id="Base" d="M20.24,0h7.52C34.3,0,37.041.754,39.689,2.17A14.768,14.768,0,0,1,45.83,8.311C47.246,10.959,48,13.7,48,20.24v7.52c0,6.538-.754,9.281-2.17,11.929a14.768,14.768,0,0,1-6.141,6.141C37.041,47.246,34.3,48,27.76,48H20.24c-6.538,0-9.281-.754-11.929-2.17A14.768,14.768,0,0,1,2.17,39.689C.754,37.041,0,34.3,0,27.76V20.24C0,13.7.754,10.959,2.17,8.311A14.768,14.768,0,0,1,8.311,2.17C10.959.754,13.7,0,20.24,0Z" style="fill: #43a6ea;fill-rule: evenodd"></path><path d="M32.96,27.53a1,1,0,0,1-1,1H21.59v.36a1,1,0,0,1-2,0v-.36H16.52a1,1,0,1,1,0-2h3.07v-.56a1,1,0,0,1,2,0v.56H31.96A1,1,0,0,1,32.96,27.53Zm-1,4.64H28.7v-.42a1,1,0,0,0-2,0v.42H16.52a1,1,0,1,0,0,2H26.7v.5a1,1,0,0,0,2,0v-.5h3.26a1,1,0,0,0,0-2ZM16.02,20.143,20.4,15.759a1.211,1.211,0,0,1,1.713,0l1.552,1.552a1.211,1.211,0,0,0,1.713,0l4.888-4.888a1.211,1.211,0,0,1,2.068.857v7.539a1.212,1.212,0,0,1-1.2,1.211l-14.249.181A1.211,1.211,0,0,1,16.02,20.143Z" style="fill: #fff"></path></g></svg>