<?xml version="1.0" encoding="UTF-8"?><svg id="Layer_2" xmlns="http://www.w3.org/2000/svg" width="48" height="48" viewBox="0 0 48 48"><g id="Layer_1-2"><g><path id="Base" d="M20.24,0h7.521c6.538,0,9.281,.754,11.929,2.17,2.648,1.416,4.725,3.494,6.141,6.141,1.416,2.648,2.17,5.391,2.17,11.929v7.521c0,6.538-.754,9.281-2.17,11.929-1.416,2.648-3.494,4.725-6.141,6.141-2.648,1.416-5.391,2.17-11.929,2.17h-7.521c-6.538,0-9.281-.754-11.929-2.17-2.648-1.416-4.725-3.494-6.141-6.141-1.416-2.648-2.17-5.391-2.17-11.929v-7.521c0-6.538,.754-9.281,2.17-11.929,1.416-2.648,3.494-4.725,6.141-6.141C10.959,.754,13.702,0,20.24,0Z" style="fill:#f4a74d; fill-rule:evenodd;"/><g><path d="M34.829,25.912h-10.934V14.979c-5.931,.057-10.724,4.878-10.724,10.826,0,5.982,4.85,10.832,10.826,10.832s10.775-4.793,10.832-10.724Z" style="fill:none; stroke:#fff; stroke-linecap:round; stroke-linejoin:round; stroke-width:2px;"/><path d="M31.05,11.839v.626c.414,.043,.768,.128,1.064,.255,.295,.128,.553,.321,.774,.58,.174,.197,.308,.4,.403,.609s.142,.4,.142,.574c0,.193-.071,.36-.212,.501s-.312,.212-.513,.212c-.379,0-.624-.205-.736-.615-.128-.483-.435-.804-.922-.962v2.412c.479,.131,.861,.251,1.145,.359,.283,.108,.538,.265,.762,.47,.24,.213,.424,.467,.553,.762s.195,.619,.195,.971c0,.441-.104,.853-.31,1.238s-.511,.699-.913,.942-.879,.388-1.432,.435v1.444c0,.228-.023,.394-.067,.499s-.142,.157-.292,.157c-.139,0-.237-.043-.292-.128-.057-.085-.084-.216-.084-.394v-1.565c-.452-.05-.848-.157-1.186-.319s-.62-.364-.846-.606c-.225-.242-.393-.493-.501-.754s-.162-.517-.162-.768c0-.186,.072-.353,.218-.501,.144-.149,.325-.223,.542-.223,.174,0,.321,.041,.441,.122s.203,.195,.249,.342c.104,.317,.195,.559,.272,.728s.194,.322,.351,.461c.156,.139,.364,.245,.623,.319v-2.696c-.518-.143-.951-.302-1.299-.478s-.63-.426-.846-.751-.325-.742-.325-1.252c0-.665,.212-1.21,.635-1.635,.424-.425,1.035-.673,1.835-.742v-.615c0-.325,.122-.487,.365-.487,.247,0,.371,.158,.371,.475Zm-.736,3.977v-2.22c-.325,.097-.578,.224-.759,.383s-.272,.398-.272,.719c0,.305,.085,.536,.255,.693s.429,.299,.777,.426Zm.736,1.722v2.539c.39-.077,.692-.234,.904-.47s.319-.51,.319-.823c0-.336-.104-.596-.31-.78-.207-.184-.511-.339-.913-.467Z" style="fill:#fff;"/></g></g></g></svg>