<svg xmlns="http://www.w3.org/2000/svg" id="Layer_1" data-name="Layer 1" width="48" height="48" viewBox="0 0 48 48"><g><path id="Base" d="M20.24,0h7.52C34.3,0,37.041.754,39.689,2.17A14.768,14.768,0,0,1,45.83,8.311C47.246,10.959,48,13.7,48,20.24v7.52c0,6.538-.754,9.281-2.17,11.929a14.768,14.768,0,0,1-6.141,6.141C37.041,47.246,34.3,48,27.76,48H20.24c-6.538,0-9.281-.754-11.929-2.17A14.768,14.768,0,0,1,2.17,39.689C.754,37.041,0,34.3,0,27.76V20.24C0,13.7.754,10.959,2.17,8.311A14.768,14.768,0,0,1,8.311,2.17C10.959.754,13.7,0,20.24,0Z" style="fill: #8fb93b;fill-rule: evenodd"></path><path d="M16.008,33a8.993,8.993,0,0,1,9.158-7.785,9.206,9.206,0,0,1,8.368,5.064l-.612-.624a.549.549,0,0,0-.789,0l-.141.144v-.227A.558.558,0,0,0,31.448,29H29.535a.558.558,0,0,0-.543.572v.211l-.138-.146a.526.526,0,0,0-.769,0l-1.336,1.408a.593.593,0,0,0,0,.807l.138.148h-.336a.562.562,0,0,0-.557.568V33Zm8.484-20a5.5,5.5,0,1,0,5.5,5.5A5.5,5.5,0,0,0,24.492,13Zm6.5,17h-1v2h1Zm0,5h-1v2h1Zm-1.25-2.554L28.42,31.124l-.58.579,1.322,1.322Zm3.306,3.306L31.726,34.43l-.58.578,1.322,1.322ZM28.992,33h-2v1h2Zm5,0h-2v1h2Zm-4.25,2.008-.58-.578L27.84,35.752l.58.578ZM33.048,31.7l-.58-.579-1.322,1.322.58.579Zm-.792,2.024a1.812,1.812,0,1,0-1.812,1.812A1.814,1.814,0,0,0,32.256,33.727Zm-.818,0a.994.994,0,1,1-.994-.993A1,1,0,0,1,31.438,33.727Z" style="fill: #fff"></path></g></svg>