<svg xmlns="http://www.w3.org/2000/svg" xmlns:xlink="http://www.w3.org/1999/xlink" width="48px" height="48px" viewBox="0 0 48 48"><title>Customer Management</title><g id="Industry-Pages" stroke="none" stroke-width="1" fill="none" fill-rule="evenodd"><g id="Industry-Page---Manufacturing-and-Operations" transform="translate(-733.000000, -2450.000000)"><g id="Customer-Management" transform="translate(733.000000, 2450.000000)"><path d="M20.2397463,-2.3148967e-15 L27.7602537,-8.47674643e-16 C34.2978605,5.39989121e-16 37.0413176,0.75402958 39.6888389,2.1699395 C42.3363603,3.58584942 44.4141506,5.66363969 45.8300605,8.31116105 C47.2459704,10.9586824 48,13.7021395 48,20.2397463 L48,27.7602537 C48,34.2978605 47.2459704,37.0413176 45.8300605,39.6888389 C44.4141506,42.3363603 42.3363603,44.4141506 39.6888389,45.8300605 C37.0413176,47.2459704 34.2978605,48 27.7602537,48 L20.2397463,48 C13.7021395,48 10.9586824,47.2459704 8.31116105,45.8300605 C5.66363969,44.4141506 3.58584942,42.3363603 2.1699395,39.6888389 C0.75402958,37.0413176 1.31886888e-15,34.2978605 -2.07035969e-15,27.7602537 L-1.09221165e-15,20.2397463 C6.95765074e-16,13.7021395 0.75402958,10.9586824 2.1699395,8.31116105 C3.58584942,5.66363969 5.66363969,3.58584942 8.31116105,2.1699395 C10.9586824,0.75402958 13.7021395,1.47464483e-15 20.2397463,-2.3148967e-15 Z" id="Base" fill="#E56E4B"></path><path d="M22.2247852,21.799204 C22.5234299,21.799204 22.7651124,22.0404796 22.7651124,22.3387175 C22.7651124,22.4819367 22.7081502,22.6194598 22.6068389,22.7207711 L22.6068389,22.7207711 L21.0647906,24.2624125 C20.6066517,24.7205514 20.349508,25.3418463 20.349508,25.989588 L20.349508,25.989588 L20.349508,26.2101131 C20.349508,26.5734506 20.5090022,26.9188857 20.7852689,27.1552789 C21.0127108,27.3485435 21.3015906,27.4539236 21.5998284,27.4522961 L21.5998284,27.4522961 L21.9106793,27.4502617 C22.4680952,27.446193 23.012898,27.2814095 23.4783606,26.9746273 L23.4783606,26.9746273 L24.9638536,25.9973186 C25.1424708,25.8793255 25.3520103,25.8170739 25.5660255,25.8170739 C25.8565327,25.8170739 26.1352407,25.9322189 26.3411184,26.1376897 L26.3411184,26.1376897 L27.1727666,26.9697448 C27.4632738,27.2602521 27.8534649,27.4295112 28.263186,27.4433449 C28.8897702,27.4645023 29.4960108,27.6654975 29.9390954,28.1085821 C30.9204729,29.0899595 30.9204729,30.6812394 29.9390954,31.66221 L29.9390954,31.66221 L28.7196974,32.8816081 C27.2285082,34.3727973 24.8112762,34.3727973 23.3200871,32.8816081 L23.3200871,32.8816081 L19.1919546,28.7538825 C18.9307422,28.4926701 18.5075944,28.4926701 18.246382,28.7538825 C18.0531173,28.9467403 17.7386046,28.9430784 17.5506293,28.7449313 L17.5506293,28.7449313 L16.4846223,27.6227758 C15.9601631,27.0702424 15.9711487,26.1999413 16.5098484,25.6612416 L16.5098484,25.6612416 L17.6531613,24.5183356 L17.6535681,24.5199631 L19.0662309,23.1073004 C19.9035753,22.2695491 21.0399713,21.799204 22.2247852,21.799204 Z M17.8823935,30.4609178 C17.8823935,29.9482579 18.5024678,29.6915211 18.8645846,30.0540449 L18.8645846,30.0540449 L21.9389163,33.1279697 C22.2436641,33.4331243 22.0280215,33.9543285 21.5967362,33.9543285 C21.3025671,33.9543285 21.0206042,33.837556 20.8126921,33.6296439 L20.8126921,33.6296439 L18.0508388,30.8677907 C17.9434244,30.7599694 17.8823935,30.6134951 17.8823935,30.4609178 Z M26.3578001,21.7479787 C27.7033288,21.7479787 28.9923022,22.2887128 29.9350267,23.2485259 L29.9350267,23.2485259 L32.5186696,25.8781455 C32.9515824,26.318382 32.9487343,27.0255271 32.5121597,27.4621017 C32.0719232,27.9015245 31.3594887,27.9015245 30.920066,27.4621017 L30.920066,27.4621017 L29.7747188,26.3167545 C29.4549167,25.9965455 29.0203764,25.8167077 28.5679338,25.8167077 C27.9783749,25.8167077 27.4132285,25.5827558 26.9961837,25.1661179 C26.4245273,24.5944615 25.5338825,24.4919295 24.8470811,24.9175186 L24.8470811,24.9175186 L22.4611784,26.3965016 C22.1922354,26.5633195 21.8435453,26.5230391 21.6197652,26.299259 C21.3536703,26.0327572 21.3536703,25.6010651 21.6197652,25.3345633 L21.6197652,25.3345633 L24.3913834,22.5625382 C24.9134013,22.0409272 25.6205464,21.7479787 26.3578001,21.7479787 Z M13,15.3941701 C13,15.0442594 13.4227409,14.8684903 13.6705265,15.1154621 L13.6705265,15.1154621 L19.066475,20.49066 C19.3114125,20.7355975 19.3114125,21.1327055 19.066475,21.377643 L19.066475,21.377643 L15.7781282,24.6659898 C15.1425927,25.3015252 14.1119836,25.3015252 13.476855,24.6659898 C13.1717004,24.3608351 13,23.9466385 13,23.5149463 L13,23.5149463 Z M35.1141526,15.1153807 C35.3619382,14.8684089 35.7846791,15.044178 35.7846791,15.3940887 L35.7846791,15.3940887 L35.7846791,23.5152718 C35.7846791,23.946964 35.6133856,24.3607537 35.308231,24.6659084 C34.6726955,25.3014439 33.6420864,25.3014439 33.0065509,24.6659084 L33.0065509,24.6659084 L29.7808626,21.4398131 C29.5013409,21.1606983 29.5013409,20.7078488 29.7808626,20.428734 L29.7808626,20.428734 Z" id="Handshake" fill="#FFFFFF"></path></g></g></g></svg>