<?xml version="1.0" encoding="UTF-8"?><svg id="Layer_2" xmlns="http://www.w3.org/2000/svg" width="48" height="48" viewBox="0 0 48 48"><g id="Layer_1-2"><g><path id="Base" d="M20.24,0h7.521c6.538,0,9.281,.754,11.929,2.17,2.648,1.416,4.725,3.494,6.141,6.141,1.416,2.648,2.17,5.391,2.17,11.929v7.521c0,6.538-.754,9.281-2.17,11.929-1.416,2.648-3.494,4.725-6.141,6.141-2.648,1.416-5.391,2.17-11.929,2.17h-7.521c-6.538,0-9.281-.754-11.929-2.17-2.648-1.416-4.725-3.494-6.141-6.141-1.416-2.648-2.17-5.391-2.17-11.929v-7.521c0-6.538,.754-9.281,2.17-11.929,1.416-2.648,3.494-4.725,6.141-6.141C10.959,.754,13.702,0,20.24,0Z" style="fill:#f4907d; fill-rule:evenodd;"/><g><path d="M30.582,21.535h-13.164c-2.305,0-4.179-1.875-4.179-4.18v-.897c0-2.305,1.875-4.18,4.179-4.18h13.164c2.305,0,4.179,1.875,4.179,4.18v.897c0,2.305-1.875,4.18-4.179,4.18Zm-13.164-7.85c-1.529,0-2.773,1.244-2.773,2.773v.897c0,1.529,1.244,2.773,2.773,2.773h13.164c1.529,0,2.773-1.244,2.773-2.773v-.897c0-1.529-1.244-2.773-2.773-2.773h-13.164Z" style="fill:#fff;"/><path d="M29.735,28.978h-11.47c-2.772,0-5.027-2.255-5.027-5.026v-6.647c0-2.771,2.255-5.026,5.027-5.026h11.47c2.771,0,5.026,2.255,5.026,5.026v6.647c0,2.771-2.255,5.026-5.026,5.026Zm-11.47-15.293c-1.996,0-3.62,1.624-3.62,3.619v6.647c0,1.996,1.624,3.619,3.62,3.619h11.47c1.996,0,3.619-1.624,3.619-3.619v-6.647c0-1.996-1.624-3.619-3.619-3.619h-11.47Z" style="fill:#fff;"/><path d="M29.379,35.721h-10.757c-2.968,0-5.383-2.415-5.383-5.383v-13.039c0-2.769,2.252-5.021,5.02-5.021h11.483c2.768,0,5.02,2.252,5.02,5.021v13.039c0,2.968-2.415,5.383-5.383,5.383ZM18.259,13.685c-1.992,0-3.613,1.621-3.613,3.614v13.039c0,2.193,1.784,3.977,3.977,3.977h10.757c2.193,0,3.976-1.784,3.976-3.977v-13.039c0-1.993-1.621-3.614-3.613-3.614h-11.483Z" style="fill:#fff;"/><circle cx="17.762" cy="24" r="1.237" style="fill:#fff;"/><circle cx="17.762" cy="31.243" r="1.237" style="fill:#fff;"/></g></g></g></svg>