<svg xmlns="http://www.w3.org/2000/svg" xmlns:xlink="http://www.w3.org/1999/xlink" width="48px" height="48px" viewBox="0 0 48 48"><title>Design and Training</title><g id="Industry-Pages" stroke="none" stroke-width="1" fill="none" fill-rule="evenodd"><g id="Industry-Page---Manufacturing-and-Operations" transform="translate(-122.000000, -2209.000000)"><g id="Design-and-Training" transform="translate(122.000000, 2209.000000)"><path d="M20.2397463,-2.3148967e-15 L27.7602537,-8.47674643e-16 C34.2978605,5.39989121e-16 37.0413176,0.75402958 39.6888389,2.1699395 C42.3363603,3.58584942 44.4141506,5.66363969 45.8300605,8.31116105 C47.2459704,10.9586824 48,13.7021395 48,20.2397463 L48,27.7602537 C48,34.2978605 47.2459704,37.0413176 45.8300605,39.6888389 C44.4141506,42.3363603 42.3363603,44.4141506 39.6888389,45.8300605 C37.0413176,47.2459704 34.2978605,48 27.7602537,48 L20.2397463,48 C13.7021395,48 10.9586824,47.2459704 8.31116105,45.8300605 C5.66363969,44.4141506 3.58584942,42.3363603 2.1699395,39.6888389 C0.75402958,37.0413176 1.31886888e-15,34.2978605 -2.07035969e-15,27.7602537 L-1.09221165e-15,20.2397463 C6.95765074e-16,13.7021395 0.75402958,10.9586824 2.1699395,8.31116105 C3.58584942,5.66363969 5.66363969,3.58584942 8.31116105,2.1699395 C10.9586824,0.75402958 13.7021395,1.47464483e-15 20.2397463,-2.3148967e-15 Z" id="Base" fill="#E56E4B"></path><path d="M15.8008832,28.8812624 L17.0831473,26.7271862 L21.6631161,19.0308749 C21.8558421,18.7072407 22.1867489,18.5454236 22.5172012,18.5454236 C22.8476535,18.5454236 23.1785603,18.7072407 23.3712863,19.0308749 L27.064443,25.2371963 L27.6871661,26.2830983 C27.8508013,26.558551 28.148072,26.7271862 28.4685244,26.7271862 C29.1735196,26.7271862 29.6098803,25.9590096 29.2494282,25.3531046 L28.4207974,23.9603868 C28.2367078,23.6517525 28.2367078,23.2672097 28.4207974,22.9585754 C28.8057948,22.3113071 29.7430612,22.3113071 30.1285131,22.9585754 L33.6530346,28.8812624 C34.0475773,29.5439852 33.5698533,30.3830704 32.7989495,30.3830704 L28.3794341,30.3830704 L25.7499065,30.3830704 L16.6549683,30.3830704 C15.8840645,30.3830704 15.406795,29.5439852 15.8008832,28.8812624 M30.1816945,17.6363389 C31.1857786,17.6363389 31.999864,18.4504243 31.999864,19.4545084 C31.999864,20.4585924 31.1857786,21.2726778 30.1816945,21.2726778 C29.1776105,21.2726778 28.3635251,20.4585924 28.3635251,19.4545084 C28.3635251,18.4504243 29.1776105,17.6363389 30.1816945,17.6363389 M14.8399807,33.999864 L34.6143917,33.999864 C36.1761992,33.999864 37.4543724,32.7216909 37.4543724,31.1598833 L37.4543724,16.8399807 C37.4543724,15.2777186 36.1761992,14 34.6143917,14 L14.8399807,14 C13.2777186,14 12,15.2777186 12,16.8399807 L12,31.1598833 C12,32.7216909 13.2777186,33.999864 14.8399807,33.999864" id="Design" fill="#FFFFFF"></path></g></g></g></svg>