<svg xmlns="http://www.w3.org/2000/svg" id="Layer_1" data-name="Layer 1" width="48" height="48" viewBox="0 0 48 48"><defs><style>
      .cls-1 {
        fill: #e56e4b;
        fill-rule: evenodd;
      }

      .cls-2 {
        fill: #fff;
      }
    </style></defs><g><path id="Base" class="cls-1" d="M20.24,0h7.52C34.3,0,37.041.754,39.689,2.17A14.768,14.768,0,0,1,45.83,8.311C47.246,10.959,48,13.7,48,20.24v7.52c0,6.538-.754,9.281-2.17,11.929a14.768,14.768,0,0,1-6.141,6.141C37.041,47.246,34.3,48,27.76,48H20.24c-6.538,0-9.281-.754-11.929-2.17A14.768,14.768,0,0,1,2.17,39.689C.754,37.041,0,34.3,0,27.76V20.24C0,13.7.754,10.959,2.17,8.311A14.768,14.768,0,0,1,8.311,2.17C10.959.754,13.7,0,20.24,0Z"></path><path class="cls-2" d="M26,22.125v12H22v-12l2-4Zm-1,0H24v12h1Zm14,4.5a2.5,2.5,0,1,1-4.03-1.97,12.479,12.479,0,0,0-21.94,0,2.5,2.5,0,1,1-2.02-.48,14.506,14.506,0,0,1,25.98,0A2.5,2.5,0,0,1,39,26.625Zm-2-12.75v4H33v-1.5H15v1.5H11v-4h4v1.5H33v-1.5Zm-23,1H12v2h2Zm22,0H34v2h2Z"></path></g></svg>