<svg xmlns="http://www.w3.org/2000/svg" xmlns:xlink="http://www.w3.org/1999/xlink" width="48px" height="48px" viewBox="0 0 48 48"><title>Distribution &amp; Delivery</title><g id="Industry-Pages" stroke="none" stroke-width="1" fill="none" fill-rule="evenodd"><g id="Industry-Page---Manufacturing-and-Operations" transform="translate(-1037.000000, -2209.000000)"><g id="Distribution-&amp;-Delivery" transform="translate(1037.000000, 2209.000000)"><path d="M20.2397463,-2.3148967e-15 L27.7602537,-8.47674643e-16 C34.2978605,5.39989121e-16 37.0413176,0.75402958 39.6888389,2.1699395 C42.3363603,3.58584942 44.4141506,5.66363969 45.8300605,8.31116105 C47.2459704,10.9586824 48,13.7021395 48,20.2397463 L48,27.7602537 C48,34.2978605 47.2459704,37.0413176 45.8300605,39.6888389 C44.4141506,42.3363603 42.3363603,44.4141506 39.6888389,45.8300605 C37.0413176,47.2459704 34.2978605,48 27.7602537,48 L20.2397463,48 C13.7021395,48 10.9586824,47.2459704 8.31116105,45.8300605 C5.66363969,44.4141506 3.58584942,42.3363603 2.1699395,39.6888389 C0.75402958,37.0413176 1.31886888e-15,34.2978605 -2.07035969e-15,27.7602537 L-1.09221165e-15,20.2397463 C6.95765074e-16,13.7021395 0.75402958,10.9586824 2.1699395,8.31116105 C3.58584942,5.66363969 5.66363969,3.58584942 8.31116105,2.1699395 C10.9586824,0.75402958 13.7021395,1.47464483e-15 20.2397463,-2.3148967e-15 Z" id="Base" fill="#EAA743"></path><path d="M33.9211583,27.6666667 L31.8494917,27.6666667 C31.4736583,27.6666667 31.166575,27.3595833 31.166575,26.98375 L31.166575,22.8495833 C31.166575,22.47375 31.4736583,22.1666667 31.8494917,22.1666667 L33.0549083,22.1666667 C33.3299083,22.1666667 33.572825,22.36375 33.627825,22.6341667 L34.494075,26.9654167 C34.562825,27.3275 34.287825,27.6666667 33.9211583,27.6666667 M31.1666667,31.3333333 C32.1795833,31.3333333 33,32.15375 33,33.1666667 C33,34.1795833 32.1795833,35 31.1666667,35 C30.15375,35 29.3333333,34.1795833 29.3333333,33.1666667 C29.3333333,32.15375 30.15375,31.3333333 31.1666667,31.3333333 Z M16.5,31.3333333 C17.5129167,31.3333333 18.3333333,32.15375 18.3333333,33.1666667 C18.3333333,34.1795833 17.5129167,35 16.5,35 C15.4870833,35 14.6666667,34.1795833 14.6666667,33.1666667 C14.6666667,32.15375 15.4870833,31.3333333 16.5,31.3333333 Z M24.4749083,13 C25.1349083,13 25.666575,13.5316667 25.666575,14.1916667 L25.666575,14.1916667 L25.666575,26.68125 C25.666575,27.2266667 26.106575,27.6666667 26.6519917,27.6666667 C27.1194917,27.6666667 27.4999083,27.28625 27.4999083,26.81875 L27.4999083,26.81875 L27.4999083,20.1225 C27.4999083,19.22875 28.2286583,18.5 29.1224083,18.5 L29.1224083,18.5 L32.2161583,18.5 C33.641575,18.5 34.8699083,19.5083333 35.1494917,20.90625 L35.1494917,20.90625 L36.6482417,28.4045833 C36.6711583,28.5191667 36.666575,28.63375 36.6482417,28.7483333 C36.6574083,28.8125 36.666575,28.8766667 36.666575,28.9408333 L36.666575,28.9408333 L36.666575,32.0116667 C36.666575,32.64875 36.1486583,33.1666667 35.511575,33.1666667 L35.511575,33.1666667 L34.3749083,33.1666667 C34.3749083,31.3975 32.9357417,29.9583333 31.166575,29.9583333 C29.3974083,29.9583333 27.9582417,31.3975 27.9582417,33.1666667 L27.9582417,33.1666667 L19.7082417,33.1666667 C19.7082417,31.3975 18.269075,29.9583333 16.4999083,29.9583333 C14.7307417,29.9583333 13.291575,31.3975 13.291575,33.1666667 L13.291575,33.1666667 L11.999075,33.1666667 C11.449075,33.1666667 10.9999083,32.7175 10.9999083,32.1675 L10.9999083,32.1675 L10.9999083,28.6658333 C10.9999083,28.55125 11.022825,28.44125 11.0594917,28.3404167 C11.022825,28.2258333 10.9999083,28.11125 10.9999083,27.9875 L10.9999083,27.9875 L10.9999083,14.1916667 C10.9999083,13.5316667 11.531575,13 12.191575,13 L12.191575,13 Z" id="Fill-1" fill="#FFFFFF"></path></g></g></g></svg>