<svg width="301" height="21" viewBox="0 0 301 21" fill="none" xmlns="http://www.w3.org/2000/svg">
<g clip-path="url(#clip0_342_47)">
<path d="M4.189 7.22993V15.2139H10.772C13.084 15.2139 14.281 12.8139 14.281 10.4389C14.281 8.13893 13.166 5.86593 10.772 5.86593H0L1.143 2.42993H11.262C16.131 2.42993 18.662 6.59893 18.662 10.6919C18.662 14.7089 16.241 18.6759 11.262 18.6759H0V8.29193L4.189 7.22993Z" fill="white"/>
<path d="M30.8479 18.7009H26.6589V13.0669L18.1719 2.42993H23.0139L28.7809 10.0599L34.5479 2.42993H39.3899L30.8209 13.1679V18.7009H30.8479Z" fill="white"/>
<path d="M58.187 2.43V18.7H54.025L44.857 7.963V18.7H40.668V3.036L44.857 2L54.024 12.738V2.43H58.187Z" fill="white"/>
<path d="M68.4958 13.193H73.3958L69.9648 6.447L63.8718 18.7H59.4648L67.7888 3.06L71.9508 2L80.5738 18.7H76.1648L75.0499 16.527H66.9158L68.4958 13.193Z" fill="white"/>
<path d="M103.668 2.43V18.7H99.4792V9.327L94.1472 18.17H91.3472L86.0152 9.706V18.7H81.8242V3.036L86.0402 2L92.8132 13.521L99.5062 2.43H103.668Z" fill="white"/>
<path d="M111.232 2.42993V18.7009H107.043V2.42993H111.232Z" fill="white"/>
<path d="M131.987 2.42996L130.872 5.89095H121.215C118.903 5.89095 117.706 8.29095 117.706 10.666C117.706 12.966 118.821 15.239 121.215 15.239H131.96L130.845 18.7H120.726C115.857 18.7 113.326 14.531 113.326 10.413C113.326 6.39595 115.747 2.42896 120.726 2.42896H131.988L131.987 2.42996Z" fill="white"/>
<path d="M133.074 7.35605C133.074 4.85605 135.196 2.40405 139.358 2.40405H151.274L150.159 5.86505H139.412C138.133 5.86505 137.481 6.62305 137.481 7.35605C137.481 8.11405 138.134 8.82105 139.412 8.82105H145.451C149.531 8.82105 151.651 11.2721 151.651 13.7731C151.651 16.1991 149.638 18.6731 145.451 18.6731H133.074L134.216 15.2121H145.424C146.675 15.2121 147.355 14.5301 147.355 13.7721C147.355 13.0391 146.729 12.2561 145.424 12.2561H139.385C135.141 12.2831 133.074 9.83205 133.074 7.35605Z" fill="white"/>
<path d="M161.011 7.35605C161.011 4.85605 163.133 2.40405 167.295 2.40405H179.21L178.067 5.89105H167.322C166.043 5.89105 165.391 6.64905 165.391 7.38205C165.391 8.14005 166.044 8.84705 167.322 8.84705H173.361C177.441 8.84705 179.561 11.2981 179.561 13.7991C179.561 16.2251 177.548 18.6991 173.361 18.6991H160.984L162.126 15.2381H173.334C174.585 15.2381 175.265 14.5561 175.265 13.7981C175.265 13.0651 174.639 12.2821 173.334 12.2821H167.295C163.051 12.2831 161.011 9.83205 161.011 7.35605Z" fill="#EE3442"/>
<path d="M197.029 17.8669L199.178 20.9999H194.254L192.948 18.9529C192.348 19.0039 191.697 19.0529 191.071 19.0529C185.471 19.0529 180.816 16.2989 180.816 10.5639C180.816 4.82893 185.468 2.07593 191.071 2.07593C196.838 2.07593 201.626 4.65293 201.626 10.5649C201.689 12.1043 201.283 13.6264 200.462 14.9302C199.642 16.234 198.445 17.258 197.029 17.8669ZM190.745 15.5169L188.759 12.3839H193.216L194.903 14.8349C196.426 14.0769 197.188 12.6869 197.188 10.5349C197.188 7.02293 195.148 5.55793 191.258 5.55793C187.205 5.55793 185.219 6.92193 185.219 10.5349C185.223 14.0019 187.073 15.3909 190.745 15.5169Z" fill="#EE3442"/>
<path d="M217.838 2.43H222.027V12.23C222.027 16.98 217.838 19.052 212.452 19.052C207.202 19.052 203.176 16.829 203.176 12.23V3.03L207.338 2V12.233C207.338 14.633 209.052 15.518 212.638 15.518C216.12 15.518 217.838 14.558 217.838 12.233V2.43Z" fill="#EE3442"/>
<path d="M231.765 13.193H236.665L233.234 6.447L227.141 18.7H222.734L231.058 3.06L235.247 2L243.87 18.7H239.464L238.349 16.527H230.215L231.765 13.193Z" fill="#EE3442"/>
<path d="M249.285 7.23005V10.0851H256.766C257.036 10.0779 257.302 10.0158 257.547 9.9025C257.792 9.78921 258.012 9.62711 258.193 9.4261C258.373 9.22509 258.511 8.98939 258.597 8.73338C258.684 8.47736 258.717 8.20641 258.696 7.93705C258.717 7.6715 258.682 7.40446 258.595 7.15292C258.507 6.90138 258.368 6.67084 258.186 6.47597C258.005 6.28109 257.784 6.12613 257.54 6.02096C257.295 5.91578 257.031 5.86269 256.765 5.86505H245.123L246.238 2.40405H256.796C260.904 2.40405 263.08 5.31005 263.08 8.13905C263.088 9.28951 262.716 10.4105 262.023 11.3285C261.329 12.2465 260.352 12.9103 259.244 13.2171L263.596 18.7041H258.672L254.864 13.5751H249.287V18.7041H245.096V8.26605L249.285 7.23005Z" fill="#EE3442"/>
<path d="M269.633 15.2399H282.418L281.303 18.7009H265.471V2.42993H282.418L281.303 5.89093H269.66V8.84793H280.514V12.3089H269.66V15.2399H269.633Z" fill="#EE3442"/>
</g>
<path d="M285.402 3.76675V2.65072H291.266V3.76675H288.994V10H287.673V3.76675H285.402ZM292.396 2.65072H294.025L296.207 7.97608H296.293L298.475 2.65072H300.104V10H298.827V4.95096H298.758L296.727 9.97847H295.773L293.742 4.94019H293.673V10H292.396V2.65072Z" fill="white"/>
<defs>
<clipPath id="clip0_342_47">
<rect width="282.418" height="19" fill="white" transform="translate(0 2)"/>
</clipPath>
</defs>
</svg>
