<svg xmlns="http://www.w3.org/2000/svg" width="282.418" height="19" viewBox="0 0 282.418 19">
    <g data-name="Group 169">
        <path data-name="Path 185" d="M5.589 6.5v7.984h6.583c2.312 0 3.509-2.4 3.509-4.775 0-2.3-1.115-4.573-3.509-4.573H1.4L2.543 1.7h10.119c4.869 0 7.4 4.169 7.4 8.262 0 4.017-2.421 7.984-7.4 7.984H1.4V7.562z" transform="translate(-1.4 -1.27)" style="fill:#38393e"/>
        <path data-name="Path 186" d="M80.876 17.971h-4.189v-5.634L68.2 1.7h4.842l5.767 7.63 5.767-7.63h4.842l-8.569 10.738v5.533z" transform="translate(-50.029 -1.27)" style="fill:#38393e"/>
        <path data-name="Path 187" d="M168.419.43V16.7h-4.162l-9.168-10.737V16.7H150.9V1.036L155.089 0l9.167 10.738V.43z" transform="translate(-110.232)" style="fill:#38393e"/>
        <path data-name="Path 188" d="M229.031 11.193h4.9L230.5 4.447 224.407 16.7H220l8.324-15.64L232.486 0l8.623 16.7H236.7l-1.115-2.173h-8.134z" transform="translate(-160.535)" style="fill:#38393e"/>
        <path data-name="Path 189" d="M324.044.43V16.7h-4.189V7.327l-5.332 8.843h-2.8l-5.332-8.464V16.7H302.2V1.036L306.416 0l6.773 11.521L319.882.43h4.162z" transform="translate(-220.375)" style="fill:#38393e"/>
        <path data-name="Path 190" d="M399.089 1.7v16.271H394.9V1.7z" transform="translate(-287.858 -1.27)" style="fill:#38393e"/>
        <path data-name="Path 191" d="m436.661 1.7-1.115 3.461h-9.657c-2.312 0-3.509 2.4-3.509 4.775 0 2.3 1.115 4.573 3.509 4.573h10.745l-1.115 3.461H425.4c-4.869 0-7.4-4.169-7.4-8.287 0-4.017 2.421-7.984 7.4-7.984h11.262z" transform="translate(-304.674 -1.27)" style="fill:#38393e"/>
        <path data-name="Path 192" d="M490.6 6.552c0-2.5 2.122-4.952 6.284-4.952H508.8l-1.115 3.461h-10.747c-1.279 0-1.931.758-1.931 1.491 0 .758.653 1.465 1.931 1.465h6.039c4.08 0 6.2 2.451 6.2 4.952 0 2.426-2.013 4.9-6.2 4.9H490.6l1.142-3.461h11.208c1.251 0 1.931-.682 1.931-1.44 0-.733-.626-1.516-1.931-1.516h-6.039c-4.244.027-6.311-2.424-6.311-4.9z" transform="translate(-357.525 -1.196)" style="fill:#38393e"/>
        <path data-name="Path 193" d="M593.227 6.552c0-2.5 2.122-4.952 6.284-4.952h11.915l-1.143 3.487h-10.745c-1.279 0-1.931.758-1.931 1.491 0 .758.653 1.465 1.931 1.465h6.039c4.08 0 6.2 2.451 6.2 4.952 0 2.426-2.013 4.9-6.2 4.9H593.2l1.142-3.461h11.208c1.251 0 1.931-.682 1.931-1.44 0-.733-.626-1.516-1.931-1.516h-6.039c-4.244.001-6.284-2.45-6.284-4.926z" transform="translate(-432.215 -1.196)" style="fill:#ee3442"/>
        <path data-name="Path 194" d="m682.313 16.091 2.149 3.133h-4.924l-1.306-2.047c-.6.051-1.251.1-1.877.1-5.6 0-10.255-2.754-10.255-8.489S670.752.3 676.355.3c5.767 0 10.555 2.577 10.555 8.489a7.612 7.612 0 0 1-4.597 7.302zm-6.284-2.35-1.986-3.133h4.457l1.687 2.451c1.523-.758 2.285-2.148 2.285-4.3 0-3.512-2.04-4.977-5.93-4.977-4.053 0-6.039 1.364-6.039 4.977.004 3.467 1.854 4.856 5.526 4.982z" transform="translate(-485.284 -.224)" style="fill:#ee3442"/>
        <path data-name="Path 195" d="M762.962.43h4.189v9.8c0 4.75-4.189 6.822-9.575 6.822-5.25 0-9.276-2.223-9.276-6.822v-9.2L752.462 0v10.233c0 2.4 1.714 3.285 5.3 3.285 3.482 0 5.2-.96 5.2-3.285z" transform="translate(-545.124)" style="fill:#ee3442"/>
        <path data-name="Path 196" d="M829.231 11.193h4.9L830.7 4.447 824.607 16.7H820.2l8.324-15.64L832.713 0l8.623 16.7h-4.406l-1.115-2.173h-8.134z" transform="translate(-597.465)" style="fill:#ee3442"/>
        <path data-name="Path 197" d="M906.589 6.426v2.855h7.481A1.989 1.989 0 0 0 916 7.133a1.92 1.92 0 0 0-1.931-2.072h-11.642l1.115-3.461H914.1c4.108 0 6.284 2.906 6.284 5.735a5.231 5.231 0 0 1-3.836 5.078L920.9 17.9h-4.924l-3.808-5.129h-5.577V17.9H902.4V7.462z" transform="translate(-657.304 -1.196)" style="fill:#ee3442"/>
        <path data-name="Path 198" d="M981.462 14.51h12.785l-1.115 3.461H977.3V1.7h16.947l-1.115 3.461h-11.643v2.957h10.854v3.461h-10.854v2.931z" transform="translate(-711.83 -1.27)" style="fill:#ee3442"/>
    </g>
</svg>
