<svg xmlns="http://www.w3.org/2000/svg" width="48" height="48" viewBox="0 0 48 48">
    <path data-name="Icon metro-cart" d="M15.7 33.387a3.281 3.281 0 1 1-3.281-3.281 3.281 3.281 0 0 1 3.281 3.281zm21.875 0a3.281 3.281 0 1 1-3.281-3.281 3.281 3.281 0 0 1 3.277 3.281zm0-14.219V6.044H11.321a2.188 2.188 0 0 0-2.188-2.188H2.571v2.188h4.375l1.643 14.083a4.374 4.374 0 0 0 2.732 7.791h26.25v-2.187h-26.25a2.188 2.188 0 0 1-2.187-2.188v-.022l28.437-4.353z" transform="translate(3.43 4.144)" style="fill:#ee3442"/>
    <path data-name="Rectangle 1296" style="fill:none" d="M0 0h48v48H0z"/>
</svg>
