<svg xmlns="http://www.w3.org/2000/svg" xmlns:xlink="http://www.w3.org/1999/xlink" width="36px" height="36px" viewBox="0 0 36 36"><title>Financials</title><g id="Mixed-Reality-and-Power-BI" stroke="none" stroke-width="1" fill="none" fill-rule="evenodd"><g id="Sales" transform="translate(-112.000000, -1307.000000)"><g id="Financials" transform="translate(112.000000, 1307.000000)"><rect id="Rectangle" fill="#6AC0FF" x="0" y="0" width="36" height="36" rx="7.5"></rect><g transform="translate(11.000000, 8.000000)" stroke="#FFFFFF" stroke-linecap="square" stroke-width="1.5"><polygon id="Stroke-223" points="0 19.0006 12.0903697 19.0006 12.0903697 15.5462087 0 15.5462087"></polygon><polygon id="Stroke-225" points="1.72719567 15.5453039 13.8175654 15.5453039 13.8175654 12.0909126 1.72719567 12.0909126"></polygon><path d="M12.9536961,6.04563723 C12.9536961,9.3842187 10.2475451,12.0912745 6.90805887,12.0912745 C3.5694774,12.0912745 0.863326406,9.3842187 0.863326406,6.04563723 C0.863326406,2.70705576 3.5694774,0 6.90805887,0 C10.2475451,0 12.9536961,2.70705576 12.9536961,6.04563723 Z" id="Stroke-226"></path><path d="M9.49939524,6.04563723 C9.49939524,7.47697487 8.33948699,8.63688312 6.90814935,8.63688312 C5.47771647,8.63688312 4.31690346,7.47697487 4.31690346,6.04563723 C4.31690346,4.61520436 5.47771647,3.45529611 6.90814935,3.45529611 C8.33948699,3.45529611 9.49939524,4.61520436 9.49939524,6.04563723 Z" id="Stroke-228"></path></g></g></g></g></svg>