<?xml version="1.0" encoding="UTF-8"?><svg id="Layer_2" xmlns="http://www.w3.org/2000/svg" width="48" height="48" viewBox="0 0 48 48"><g id="Layer_1-2"><g><path id="Base" d="M20.24,0h7.521c6.538,0,9.281,.754,11.929,2.17,2.648,1.416,4.725,3.494,6.141,6.141,1.416,2.648,2.17,5.391,2.17,11.929v7.521c0,6.538-.754,9.281-2.17,11.929-1.416,2.648-3.494,4.725-6.141,6.141-2.648,1.416-5.391,2.17-11.929,2.17h-7.521c-6.538,0-9.281-.754-11.929-2.17-2.648-1.416-4.725-3.494-6.141-6.141-1.416-2.648-2.17-5.391-2.17-11.929v-7.521c0-6.538,.754-9.281,2.17-11.929,1.416-2.648,3.494-4.725,6.141-6.141C10.959,.754,13.702,0,20.24,0Z" style="fill:#a68ace; fill-rule:evenodd;"/><path d="M33.519,30.906h-4.79c-1.83,0-3.586-1.384-4.88-3.848l-3.263-6.21c-1.294-2.464-3.05-3.848-4.88-3.848h-3.243m8.766,11.484c-1.152,1.562-2.54,2.426-3.98,2.426h-4.783m21.051-13.905h-3.238c-1.833,0-3.587,1.379-4.887,3.838l-.847,1.628m7.953-2.22l3.04-3.131-3.079-3.171m.039,20.103l3.04-3.131-3.079-3.171" style="fill:none; stroke:#fff; stroke-linecap:round; stroke-miterlimit:10; stroke-width:1.5px;"/></g></g></svg>