<svg xmlns="http://www.w3.org/2000/svg" width="48" height="48" viewBox="0 0 48 48">
    <g data-name="Food and beverage">
        <path data-name="Rectangle 975" style="fill:none" d="M0 0h48v48H0z"/>
        <path data-name="Icon map-food" d="m40.632 12.184-3.279 25.705H26.277l-3.266-25.834h13.522l2.673-9.231 1.515.457-2.564 8.883 2.476.019zM21.445 27.055s.414-3.333-5.329-3.333H6.969c-5.735 0-5.329 3.333-5.329 3.333h19.805zm-19.805 7.5s-.406 3.333 5.329 3.333h9.148c5.743 0 5.329-3.333 5.329-3.333H1.64zm18.946-1.667a1.917 1.917 0 0 0 1.7-2.083 1.914 1.914 0 0 0-1.7-2.084H2.42a1.918 1.918 0 0 0-1.7 2.084 1.92 1.92 0 0 0 1.7 2.083h18.166z" transform="translate(3.28 3.175)" style="fill:#ee3442"/>
    </g>
</svg>
