<svg xmlns="http://www.w3.org/2000/svg" width="48" height="48" viewBox="0 0 48 48">
    <g data-name="Group 997">
        <path data-name="Path 800" d="M5.857 6.286a4.286 4.286 0 1 1 4.286 4.286 4.285 4.285 0 0 1-4.286-4.286zM33 10.571a4.286 4.286 0 1 1 4.286-4.286A4.285 4.285 0 0 1 33 10.571zm7.143 7.143v8.571a1.429 1.429 0 0 1-1.429 1.429h-1.428l-1.3 13A1.428 1.428 0 0 1 34.564 42h-3.128a1.428 1.428 0 0 1-1.421-1.287l-1.3-13v-4.284l-7.143 2.857-7.143-2.857v4.286l-1.3 13A1.428 1.428 0 0 1 11.707 42H8.579a1.428 1.428 0 0 1-1.421-1.287l-1.3-13H4.429A1.429 1.429 0 0 1 3 26.286v-8.572a4.285 4.285 0 0 1 4.286-4.286H13a4.285 4.285 0 0 1 4.286 4.286v2.857l4.286 2.857 4.286-2.857v-2.857a4.285 4.285 0 0 1 4.286-4.286h5.714a4.285 4.285 0 0 1 4.285 4.286z" transform="translate(2.429 2)" style="fill:#ee3442"/>
        <path data-name="Rectangle 975" style="fill:none" d="M0 0h48v48H0z"/>
    </g>
</svg>
