<svg xmlns="http://www.w3.org/2000/svg" width="48" height="48" viewBox="0 0 48 48">
    <g data-name="Group 772">
        <path data-name="Icon awesome-headphones" d="M18 2.25a17.99 17.99 0 0 0-18 18v3.375a2.25 2.25 0 0 0 1.244 2.012l1.011.506a7.875 7.875 0 0 0 7.87 7.607h1.688a1.687 1.687 0 0 0 1.687-1.687V19.688A1.687 1.687 0 0 0 11.813 18h-1.688A7.851 7.851 0 0 0 4.5 20.364v-.114a13.5 13.5 0 0 1 27 0v.114A7.851 7.851 0 0 0 25.875 18h-1.687a1.687 1.687 0 0 0-1.688 1.688v12.375a1.687 1.687 0 0 0 1.688 1.688h1.688a7.875 7.875 0 0 0 7.87-7.607l1.011-.506A2.25 2.25 0 0 0 36 23.625V20.25a17.99 17.99 0 0 0-18-18z" transform="translate(6 5.75)" style="fill:#ee3442"/>
        <path data-name="Rectangle 977" style="fill:none" d="M0 0h48v48H0z"/>
    </g>
</svg>
