<svg xmlns="http://www.w3.org/2000/svg" width="151" height="151" viewBox="0 0 151 151">
    <defs>
        <clipPath id="ncaz1tub5b">
            <path data-name="Rectangle 1392" style="fill:none" d="M0 0h40v34.94H0z"/>
        </clipPath>
        <filter id="j9falzgcna" x="0" y="0" width="151" height="151" filterUnits="userSpaceOnUse">
            <feOffset dy="10"/>
            <feGaussianBlur stdDeviation="10" result="blur"/>
            <feFlood flood-color="#2c5ec2" flood-opacity=".161"/>
            <feComposite operator="in" in2="blur"/>
            <feComposite in="SourceGraphic"/>
        </filter>
    </defs>
    <g data-name="Group 1404">
        <g style="filter:url(#j9falzgcna)">
            <rect data-name="Rectangle 1389" width="91" height="91" rx="10" transform="translate(30 20)" style="fill:#fff"/>
        </g>
        <g data-name="Group 1168">
            <g data-name="Group 1163">
                <g data-name="Group 1162" transform="translate(57 49)" style="clip-path:url(#ncaz1tub5b)">
                    <path data-name="Path 1004" d="M16.9 21.833h-2.1a1.161 1.161 0 0 1-1.16-1.083l-.05-.7a6.486 6.486 0 0 1-.742-.313l-.534.466a1.161 1.161 0 0 1-1.585-.053l-1.484-1.489a1.162 1.162 0 0 1-.054-1.586l.5-.567a7.12 7.12 0 0 1-.284-.7l-.762-.051a1.163 1.163 0 0 1-1.083-1.159v-2.1a1.163 1.163 0 0 1 1.081-1.159l.829-.057c.081-.217.172-.429.273-.637l-.55-.631a1.162 1.162 0 0 1 .054-1.586l1.484-1.486a1.163 1.163 0 0 1 1.585-.054l.668.583c.2-.09.4-.172.6-.243l.06-.886A1.161 1.161 0 0 1 14.8 5.251h2.1a1.161 1.161 0 0 1 1.159 1.084l.06.886c.2.071.4.153.6.243l.668-.583a1.163 1.163 0 0 1 1.585.054l1.484 1.486a1.164 1.164 0 0 1 .054 1.586l-.552.632a6.754 6.754 0 0 1 .273.635l.829.057a1.163 1.163 0 0 1 1.081 1.159v2.1a1.163 1.163 0 0 1-1.083 1.159l-.762.051a7.315 7.315 0 0 1-.282.7l.5.569a1.164 1.164 0 0 1-.054 1.586l-1.484 1.486a1.165 1.165 0 0 1-1.585.054l-.536-.468a6.371 6.371 0 0 1-.742.313l-.048.7a1.161 1.161 0 0 1-1.165 1.093m-1.086-3a.819.819 0 0 1 .034.174 1.158 1.158 0 0 1 .039-.18 1.126 1.126 0 0 1 .231-.431 1.152 1.152 0 0 1 .429-.316 1.056 1.056 0 0 1 .243-.074 4.4 4.4 0 0 0 1.531-.646 1.137 1.137 0 0 1 .237-.129 1.224 1.224 0 0 1 .5-.081 1.152 1.152 0 0 1 .49.143 1.26 1.26 0 0 1 .158.1 1.023 1.023 0 0 1-.116-.169 1.172 1.172 0 0 1-.146-.476 1.158 1.158 0 0 1 .076-.514 1.113 1.113 0 0 1 .115-.222 4.426 4.426 0 0 0 .6-1.515 1.273 1.273 0 0 1 .077-.262 1.2 1.2 0 0 1 .291-.406 1.183 1.183 0 0 1 .455-.253 1.231 1.231 0 0 1 .228-.042 1.13 1.13 0 0 1-.251-.039 1.169 1.169 0 0 1-.448-.239 1.143 1.143 0 0 1-.305-.407 1.074 1.074 0 0 1-.077-.242 4.451 4.451 0 0 0-.624-1.45 1.03 1.03 0 0 1-.127-.237 1.125 1.125 0 0 1-.079-.5 1.164 1.164 0 0 1 .3-.706l.026-.029-.05.043a1.252 1.252 0 0 1-.208.152 1.159 1.159 0 0 1-.488.147 1.235 1.235 0 0 1-.5-.071 1.075 1.075 0 0 1-.229-.119 4.475 4.475 0 0 0-1.43-.583 1.05 1.05 0 0 1-.251-.077 1.169 1.169 0 0 1-.651-.748 1.064 1.064 0 0 1-.043-.263v-.07.071a1.064 1.064 0 0 1-.043.262 1.144 1.144 0 0 1-.24.446 1.189 1.189 0 0 1-.412.3 1.11 1.11 0 0 1-.249.076 4.461 4.461 0 0 0-1.43.583 1.025 1.025 0 0 1-.228.118 1.167 1.167 0 0 1-.985-.073 1.156 1.156 0 0 1-.214-.155l-.05-.03.022.023a1.1 1.1 0 0 1 .158.223 1.136 1.136 0 0 1 .141.483 1.125 1.125 0 0 1-.079.5 1.09 1.09 0 0 1-.129.24 4.409 4.409 0 0 0-.623 1.445 1.176 1.176 0 0 1-.081.246 1.135 1.135 0 0 1-.3.4 1.166 1.166 0 0 1-.459.246 1.2 1.2 0 0 1-.246.037 1.282 1.282 0 0 1 .232.043 1.145 1.145 0 0 1 .44.243 1.177 1.177 0 0 1 .3.415 1.163 1.163 0 0 1 .074.26 4.42 4.42 0 0 0 .6 1.512 1.137 1.137 0 0 1 .119.232 1.151 1.151 0 0 1 .073.5 1.165 1.165 0 0 1-.146.485A1.2 1.2 0 0 1 12 17.4a1.038 1.038 0 0 1 .15-.1 1.148 1.148 0 0 1 .491-.146 1.24 1.24 0 0 1 .5.079 1.15 1.15 0 0 1 .243.13 4.409 4.409 0 0 0 1.531.646 1.167 1.167 0 0 1 .256.079 1.157 1.157 0 0 1 .649.748" transform="translate(4.151 2.884)" style="fill:#1d3557"/>
                    <path data-name="Path 1005" d="m4.534 15.119-2.311-.245a16.65 16.65 0 0 1 33.11 0l-2.311.242a14.326 14.326 0 0 0-28.488 0" transform="translate(1.221)" style="fill:#e63946"/>
                    <path data-name="Path 1006" d="m16.854 25-.305-2.3c6.693-.886 6.77-6.535 6.77-6.775h2.324c0 2.738-1.837 8.16-8.789 9.077" transform="translate(9.089 8.745)" style="fill:#e63946"/>
                    <path data-name="Path 1007" d="M17.309 24.27H14.08a2.421 2.421 0 1 1 0-4.843h3.229a2.421 2.421 0 1 1 0 4.843" transform="translate(6.404 10.671)" style="fill:#e63946"/>
                    <path data-name="Path 1008" d="M24.48 22.382a4.6 4.6 0 0 1-4.6-4.6v-5.7a4.6 4.6 0 0 1 9.2 0v5.7a4.6 4.6 0 0 1-4.6 4.6" transform="translate(10.919 4.11)" style="fill:#e63946"/>
                    <path data-name="Path 1009" d="M4.6 22.382a4.6 4.6 0 0 1-4.6-4.6v-5.7a4.6 4.6 0 1 1 9.2 0v5.7a4.6 4.6 0 0 1-4.6 4.6" transform="translate(0 4.11)" style="fill:#e63946"/>
                </g>
            </g>
            <path data-name="Rectangle 1395" transform="translate(53 42)" style="fill:none" d="M0 0h48v48H0z"/>
        </g>
    </g>
</svg>
