<svg xmlns="http://www.w3.org/2000/svg" width="94" height="94" viewBox="0 0 94 94">
    <defs>
        <clipPath id="v55mbdk3cb">
            <path data-name="Rectangle 969" style="fill:#6563ff" d="M0 0h37.894v40H0z"/>
        </clipPath>
        <filter id="5acc3xhy4a" x="0" y="0" width="94" height="94" filterUnits="userSpaceOnUse">
            <feOffset dx="5" dy="5"/>
            <feGaussianBlur stdDeviation="5" result="blur"/>
            <feFlood flood-color="#165cc4" flood-opacity=".161"/>
            <feComposite operator="in" in2="blur"/>
            <feComposite in="SourceGraphic"/>
        </filter>
    </defs>
    <g data-name="Group 1407">
        <g style="filter:url(#5acc3xhy4a)">
            <rect data-name="Rectangle 2311" width="64" height="64" rx="5" transform="translate(10 10)" style="fill:#fff"/>
        </g>
        <g data-name="Group 993">
            <path data-name="Rectangle 877" transform="translate(18 18)" style="fill:none" d="M0 0h48v48H0z"/>
            <g data-name="Group 762">
                <g data-name="Group 761" transform="translate(23 22)" style="clip-path:url(#v55mbdk3cb)">
                    <path data-name="Path 796" d="M17.492 21.5a10.752 10.752 0 1 1 10.752-10.748A10.765 10.765 0 0 1 17.492 21.5m0-18.432a7.68 7.68 0 1 0 7.68 7.68 7.689 7.689 0 0 0-7.68-7.68" transform="translate(3.613)" style="fill:#6563ff"/>
                    <path data-name="Path 797" d="M1.536 30.47a1.553 1.553 0 0 1-.5-.084 1.537 1.537 0 0 1-.949-1.954A24.728 24.728 0 0 1 20.37 12.049l.109-.011c.637-.072 1.23-.118 1.792-.14v-.006l.731-.014c.194-.012.4-.009.6-.008h.017a24.434 24.434 0 0 1 13.6 4.276 1.536 1.536 0 1 1-1.736 2.534 21.394 21.394 0 0 0-11.833-3.739l-.012.014h-.419l-.653.088-.1-.08c-.533.018-1.1.061-1.73.135l-.1.011A21.637 21.637 0 0 0 2.987 29.436a1.536 1.536 0 0 1-1.451 1.034" transform="translate(0 6.362)" style="fill:#6563ff"/>
                    <path data-name="Path 798" d="M20.276 31.4a1.536 1.536 0 0 1-1.536-1.536v-12.28a1.536 1.536 0 0 1 3.072 0v12.279a1.536 1.536 0 0 1-1.536 1.537" transform="translate(10.044 8.601)" style="fill:#6563ff"/>
                    <path data-name="Path 799" d="M28.418 23.117h-12.07a1.536 1.536 0 1 1 0-3.072h12.07a1.536 1.536 0 1 1 0 3.072" transform="translate(7.939 10.744)" style="fill:#6563ff"/>
                </g>
            </g>
        </g>
    </g>
</svg>
