<svg xmlns="http://www.w3.org/2000/svg" width="48" height="48" viewBox="0 0 48 48">
    <g data-name="Group 773">
        <path data-name="Icon awesome-chalkboard-teacher" d="M14.625 24.75a1.609 1.609 0 0 0-.5.077 9.275 9.275 0 0 1-2.879.486 9.283 9.283 0 0 1-2.879-.486 1.6 1.6 0 0 0-.5-.077A7.876 7.876 0 0 0 0 32.669 3.366 3.366 0 0 0 3.375 36h15.75a3.366 3.366 0 0 0 3.375-3.331 7.876 7.876 0 0 0-7.875-7.919zM11.25 22.5a6.75 6.75 0 1 0-6.75-6.75 6.75 6.75 0 0 0 6.75 6.75zM41.625 0h-27a3.436 3.436 0 0 0-3.375 3.487V6.75A8.9 8.9 0 0 1 15.75 8V4.5H40.5v20.25H36v-4.5h-9v4.5h-5.361a8.961 8.961 0 0 1 2.791 4.5h17.195A3.436 3.436 0 0 0 45 25.763V3.487A3.436 3.436 0 0 0 41.625 0z" transform="translate(2 6)" style="fill:#ee3442"/>
        <path data-name="Rectangle 976" style="fill:none" d="M0 0h48v48H0z"/>
    </g>
</svg>
