<svg xmlns="http://www.w3.org/2000/svg" width="94" height="94" viewBox="0 0 94 94">
    <defs>
        <clipPath id="7jpggffmab">
            <path data-name="Rectangle 1399" style="fill:#ff2682" d="M0 0h40v36.679H0z"/>
        </clipPath>
        <filter id="dyqs3mzcwa" x="0" y="0" width="94" height="94" filterUnits="userSpaceOnUse">
            <feOffset dx="5" dy="5"/>
            <feGaussianBlur stdDeviation="5" result="blur"/>
            <feFlood flood-color="#165cc4" flood-opacity=".161"/>
            <feComposite operator="in" in2="blur"/>
            <feComposite in="SourceGraphic"/>
        </filter>
    </defs>
    <g data-name="Group 1408">
        <g style="filter:url(#dyqs3mzcwa)">
            <rect data-name="Rectangle 2310" width="64" height="64" rx="5" transform="translate(10 10)" style="fill:#fff"/>
        </g>
        <g data-name="Group 1185">
            <path data-name="Rectangle 877" transform="translate(18 18)" style="fill:none" d="M0 0h48v48H0z"/>
            <g data-name="Group 1184">
                <g data-name="Group 1183" transform="translate(22 24)" style="clip-path:url(#7jpggffmab)">
                    <path data-name="Path 1037" d="M24.824 28.911a16.192 16.192 0 0 0-9.024-9.578 7.254 7.254 0 1 0-11.969-5.5 7.326 7.326 0 0 0 1.8 4.8 15.53 15.53 0 0 0-5.01 2.274 1.418 1.418 0 1 0 1.612 2.333 13.191 13.191 0 0 1 7.113-2.276h.436a7.963 7.963 0 0 0 1.65.114 13.25 13.25 0 0 1 10.7 8.763 1.424 1.424 0 0 0 1.347.948 1.275 1.275 0 0 0 .455-.076 1.413 1.413 0 0 0 .892-1.8m-9.5-13.847c-.038.133-.095.266-.133.379a5.112 5.112 0 0 1-.36.721 1.678 1.678 0 0 1-.228.322 3.1 3.1 0 0 1-.322.379 3.812 3.812 0 0 1-1.423 1.005 3.969 3.969 0 0 1-1.783.4 4.428 4.428 0 0 1-4.439-4.42 4.155 4.155 0 0 1 .455-1.935l.341-.569a2.829 2.829 0 0 1 .531-.645 3.566 3.566 0 0 1 .645-.531 4.417 4.417 0 0 1 4.951 0 2.085 2.085 0 0 1 .341.266c.095.076.209.19.3.285a4.378 4.378 0 0 1 .759 1.005c.057.114.133.266.19.4s.095.266.152.417a4.846 4.846 0 0 1 .19 1.309 4.267 4.267 0 0 1-.171 1.214" transform="translate(0 5.89)" style="fill:#ff2682"/>
                    <path data-name="Path 1038" d="M34.062 24.839H15.98a1.423 1.423 0 0 1 0-2.845h16.66V2.845H7.878v7.375a1.423 1.423 0 0 1-2.845 0v-8.8A1.422 1.422 0 0 1 6.456 0h27.606a1.423 1.423 0 0 1 1.423 1.423v21.993a1.423 1.423 0 0 1-1.423 1.423m-11.318-9.215h-5.82a1.423 1.423 0 0 1 0-2.845h5.819a1.423 1.423 0 1 1 0 2.845m2.637-4.3h-8.456a1.423 1.423 0 0 1 0-2.845h8.456a1.423 1.423 0 0 1 0 2.845" transform="translate(4.514 .001)" style="fill:#ff2682"/>
                </g>
            </g>
        </g>
    </g>
</svg>
