<svg data-name="Group 1490" xmlns="http://www.w3.org/2000/svg" width="48" height="48" viewBox="0 0 48 48">
    <defs>
        <clipPath id="aqj1hi6fsa">
            <path data-name="Rectangle 2392" style="fill:none" d="M0 0h48v48H0z"/>
        </clipPath>
    </defs>
    <g data-name="Group 1489" style="clip-path:url(#aqj1hi6fsa)">
        <path data-name="Path 1655" d="M20.24 0h7.521c6.539 0 9.281.754 11.928 2.17a14.762 14.762 0 0 1 6.141 6.141C47.246 10.959 48 13.7 48 20.24v7.52c0 6.538-.754 9.281-2.17 11.929a14.762 14.762 0 0 1-6.141 6.141C37.042 47.246 34.3 48 27.761 48H20.24c-6.538 0-9.281-.754-11.929-2.17a14.768 14.768 0 0 1-6.141-6.141C.754 37.041 0 34.3 0 27.76v-7.52c0-6.54.754-9.281 2.17-11.929A14.768 14.768 0 0 1 8.311 2.17C10.959.754 13.7 0 20.24 0" style="fill:#7292f7;fill-rule:evenodd"/>
        <path data-name="Path 1656" d="m22.339 38.434 3.438-7.466-4.677.352 3.1-6.73m-5.078-3.546a6.9 6.9 0 0 1 9.757.141M15.4 17.989a12.164 12.164 0 0 1 17.2.251m-21.979-3.32a18.911 18.911 0 0 1 26.758.389" style="stroke:#fff;stroke-linecap:round;stroke-linejoin:round;stroke-width:2px;fill:none"/>
    </g>
</svg>
