<svg xmlns="http://www.w3.org/2000/svg" width="78" height="78" viewBox="0 0 78 78">
    <defs>
        <filter id="lkjwe0mtya" x="0" y="0" width="78" height="78" filterUnits="userSpaceOnUse">
            <feOffset dx="5" dy="5"/>
            <feGaussianBlur stdDeviation="5" result="blur"/>
            <feFlood flood-color="#165cc4" flood-opacity=".161"/>
            <feComposite operator="in" in2="blur"/>
            <feComposite in="SourceGraphic"/>
        </filter>
    </defs>
    <g data-name="Group 1585">
        <g style="filter:url(#lkjwe0mtya)">
            <rect data-name="Rectangle 2451" width="48" height="48" rx="5" transform="translate(10 10)" style="fill:#fff"/>
        </g>
        <g data-name="Group 1572">
            <path data-name="Path 1721" d="M16.076 15.54a13.978 13.978 0 0 1 7.243-2.421" transform="translate(10.064 12.883)" style="fill:none;stroke:#80bef9;stroke-linecap:round;stroke-linejoin:round;stroke-width:2px"/>
            <path data-name="Path 1722" d="M36.044 19.9a14.012 14.012 0 0 1 2.021 7.012" transform="translate(10.064 12.883)" style="fill:none;stroke:#80bef9;stroke-linecap:round;stroke-linejoin:round;stroke-width:2px"/>
            <path data-name="Path 1723" d="M27.769 13.609a14.008 14.008 0 0 1 6 3.433" transform="translate(10.064 12.883)" style="fill:none;stroke:#80bef9;stroke-linecap:round;stroke-linejoin:round;stroke-width:2px"/>
            <path data-name="Path 1724" d="M12.513 19.048a13.953 13.953 0 0 0-2.578 7.859" transform="translate(10.064 12.883)" style="fill:none;stroke:#80bef9;stroke-linecap:round;stroke-linejoin:round;stroke-width:2px"/>
            <path data-name="Path 1725" d="m22.769 28.046 11.845-6.606-10.745 8.276a1 1 0 1 1-1.1-1.67" transform="translate(10.064 12.883)" style="fill:#80bef9"/>
        </g>
    </g>
</svg>
