<svg xmlns="http://www.w3.org/2000/svg" width="78" height="78" viewBox="0 0 78 78">
    <defs>
        <filter id="n2d13hn1va" x="0" y="0" width="78" height="78" filterUnits="userSpaceOnUse">
            <feOffset dx="5" dy="5"/>
            <feGaussianBlur stdDeviation="5" result="blur"/>
            <feFlood flood-color="#165cc4" flood-opacity=".161"/>
            <feComposite operator="in" in2="blur"/>
            <feComposite in="SourceGraphic"/>
        </filter>
    </defs>
    <g data-name="Group 1586">
        <g style="filter:url(#n2d13hn1va)">
            <rect data-name="Rectangle 2452" width="48" height="48" rx="5" transform="translate(10 10)" style="fill:#fff"/>
        </g>
        <g data-name="Group 1573">
            <path data-name="Path 1730" d="M4.661 16.75v.821a4.083 4.083 0 0 0 2.989 3.878c3.061.9 5.941-1.142 5.941-3.77v-.952a4.48 4.48 0 0 1 1.523-3.294 7.008 7.008 0 0 0 2.346-5.874C17.126 4.065 13.97 1.174 10.066.8 5.014.307.75 3.819.75 8.216a7.044 7.044 0 0 0 2.307 5.158 4.674 4.674 0 0 1 1.604 3.376z" transform="translate(25.25 20.25)" style="stroke-width:1.5px;fill:none;stroke:#25b39e;stroke-linecap:round;stroke-linejoin:round"/>
            <path data-name="Line 170" transform="translate(31.416 47.199)" style="stroke-width:3px;fill:none;stroke:#25b39e;stroke-linecap:round;stroke-linejoin:round" d="M0 0h5.357"/>
            <path data-name="Path 1731" d="M9.021 5.867 7.2 9.934l-.51-.861 2.2.7.088.027a.365.365 0 0 1 .221.5l-1.462 3.259.687-3.51.31.523-2.3-.184a.626.626 0 0 1-.51-.861C6.086 8.676 6.852 4.761 7 3.99l2.5.8z" transform="translate(26.164 20.828)" style="fill:#25b39e"/>
        </g>
    </g>
</svg>
