<svg xmlns="http://www.w3.org/2000/svg" width="78" height="78" viewBox="0 0 78 78">
    <defs>
        <filter id="w3g97mma8a" x="0" y="0" width="78" height="78" filterUnits="userSpaceOnUse">
            <feOffset dx="5" dy="5"/>
            <feGaussianBlur stdDeviation="5" result="blur"/>
            <feFlood flood-color="#165cc4" flood-opacity=".161"/>
            <feComposite operator="in" in2="blur"/>
            <feComposite in="SourceGraphic"/>
        </filter>
    </defs>
    <g data-name="Group 1578">
        <g style="filter:url(#w3g97mma8a)">
            <rect data-name="Rectangle 2455" width="48" height="48" rx="5" transform="translate(10 10)" style="fill:#fff"/>
        </g>
        <g data-name="Group 1574">
            <path data-name="Path 1711" d="M32.385 25.1c-.12.037-.249.055-.388.083a2.351 2.351 0 0 0-1.21-1.645 2.308 2.308 0 0 0-1.987-.046c-.379-.952-.739-1.469-1.331-1.7a4.158 4.158 0 0 0-1.977-.065c.018-.924.037-1.829.046-2.744a2.178 2.178 0 0 0-2.181-2.366 2.217 2.217 0 0 0-2.153 2.3c-.009 1.552-.055 3.114-.092 4.666-.019.7-.028 1.4-.046 2.1-.028 1.395-.065 2.8-.1 4.306-.249-.157-.4-.231-.527-.333-1.035-.794-2.07-1.58-3.1-2.384a2.739 2.739 0 0 0-2.659-.572 1.793 1.793 0 0 0-.84 3.049q3.783 3.964 7.595 7.919a4.806 4.806 0 0 0 2.588 1.534c1.256.213 2.55.268 3.825.36a6.413 6.413 0 0 0 6.977-6.228c.083-2.005.277-3.992.4-5.987a2.179 2.179 0 0 0-2.84-2.247m1.34 8.575a10.515 10.515 0 0 1-.453 1.848 5.4 5.4 0 0 1-4.666 2.994 36.956 36.956 0 0 1-3.05-.065 4.892 4.892 0 0 1-3.391-1.515c-2.485-2.578-4.943-5.166-7.42-7.744-.259-.277-.619-.591-.351-.951a1.583 1.583 0 0 1 .979-.592 1.6 1.6 0 0 1 1.082.3c1.515 1.1 2.994 2.264 4.509 3.382a.833.833 0 0 0 .7.185c.176-.074.305-.416.314-.656q.1-3.48.176-6.958c.028-1.608.065-3.216.111-4.833a1.868 1.868 0 0 1 .314-1.026.992.992 0 0 1 1.248-.277 1.121 1.121 0 0 1 .683 1.146l-.111 4.943-.027 1.155c-.019.629-.028 1.257-.047 1.886-.009.369.111.656.527.656.388.009.508-.287.518-.62.027-1 .046-2 .064-3a1.594 1.594 0 0 1 .074-.48 1.067 1.067 0 0 1 1.091-.832.462.462 0 0 1 .111.009c.591.056.97.555.961 1.322-.01.961-.037 1.931-.065 2.892-.009.379.018.767.5.786s.564-.333.554-.74c0-.489.01-.979.046-1.469a1.108 1.108 0 0 1 1.119-1.081 1.066 1.066 0 0 1 1.09 1.1c.018.517-.009 1.044-.019 1.57-.009.342.084.629.453.684.416.056.536-.24.6-.591a1.127 1.127 0 0 1 1.257-1.044 1.157 1.157 0 0 1 .961 1.34c-.139 2.1-.25 4.195-.444 6.283" transform="translate(9.723 9.15)" style="stroke:#f9b65d;fill:#fff"/>
            <path data-name="Path 1712" d="M32.385 25.1c-.12.037-.249.055-.388.083a2.351 2.351 0 0 0-1.21-1.645 2.308 2.308 0 0 0-1.987-.046c-.379-.952-.739-1.469-1.331-1.7a4.158 4.158 0 0 0-1.977-.065c.018-.924.037-1.829.046-2.744a2.178 2.178 0 0 0-2.181-2.366 2.217 2.217 0 0 0-2.153 2.3c-.009 1.552-.055 3.114-.092 4.666-.019.7-.028 1.4-.046 2.1-.028 1.395-.065 2.8-.1 4.306-.249-.157-.4-.231-.527-.333-1.035-.794-2.07-1.58-3.1-2.384a2.739 2.739 0 0 0-2.659-.572 1.793 1.793 0 0 0-.84 3.049q3.783 3.964 7.595 7.919a4.806 4.806 0 0 0 2.588 1.534c1.256.213 2.55.268 3.825.36a6.413 6.413 0 0 0 6.977-6.228c.083-2.005.277-3.992.4-5.987a2.179 2.179 0 0 0-2.84-2.247zm1.34 8.575a10.515 10.515 0 0 1-.453 1.848 5.4 5.4 0 0 1-4.666 2.994 36.956 36.956 0 0 1-3.05-.065 4.892 4.892 0 0 1-3.391-1.515c-2.485-2.578-4.943-5.166-7.42-7.744-.259-.277-.619-.591-.351-.951a1.583 1.583 0 0 1 .979-.592 1.6 1.6 0 0 1 1.082.3c1.515 1.1 2.994 2.264 4.509 3.382a.833.833 0 0 0 .7.185c.176-.074.305-.416.314-.656q.1-3.48.176-6.958c.028-1.608.065-3.216.111-4.833a1.868 1.868 0 0 1 .314-1.026.992.992 0 0 1 1.248-.277 1.121 1.121 0 0 1 .683 1.146l-.111 4.943-.027 1.155c-.019.629-.028 1.257-.047 1.886-.009.369.111.656.527.656.388.009.508-.287.518-.62.027-1 .046-2 .064-3a1.594 1.594 0 0 1 .074-.48 1.067 1.067 0 0 1 1.091-.832.462.462 0 0 1 .111.009c.591.056.97.555.961 1.322-.01.961-.037 1.931-.065 2.892-.009.379.018.767.5.786s.564-.333.554-.74c0-.489.01-.979.046-1.469a1.108 1.108 0 0 1 1.119-1.081 1.066 1.066 0 0 1 1.09 1.1c.018.517-.009 1.044-.019 1.57-.009.342.084.629.453.684.416.056.536-.24.6-.591a1.127 1.127 0 0 1 1.257-1.044 1.157 1.157 0 0 1 .961 1.34c-.137 2.087-.248 4.185-.442 6.273z" transform="translate(9.723 9.15)" style="fill:#f9b65d"/>
            <path data-name="Path 1713" d="M29.529 18.35a6.429 6.429 0 0 0 .24-1.746 6.755 6.755 0 1 0-11.606 4.7" transform="translate(9.723 9.15)" style="fill:none;stroke-linecap:round;stroke-miterlimit:10;stroke-width:2px;stroke:#f9b65d"/>
        </g>
    </g>
</svg>
