<svg xmlns="http://www.w3.org/2000/svg" id="Layer_1" data-name="Layer 1" width="48" height="48" viewBox="0 0 48 48"><path id="Base" d="M20.24,0h7.52C34.3,0,37.041.754,39.689,2.17A14.768,14.768,0,0,1,45.83,8.311C47.246,10.959,48,13.7,48,20.24v7.52c0,6.538-.754,9.281-2.17,11.929a14.768,14.768,0,0,1-6.141,6.141C37.041,47.246,34.3,48,27.76,48H20.24c-6.538,0-9.281-.754-11.929-2.17A14.768,14.768,0,0,1,2.17,39.689C.754,37.041,0,34.3,0,27.76V20.24C0,13.7.754,10.959,2.17,8.311A14.768,14.768,0,0,1,8.311,2.17C10.959.754,13.7,0,20.24,0Z" style="fill:#f9b65d;fill-rule:evenodd"></path><path d="M32.112,24.5c-.121.037-.25.055-.389.083a2.349,2.349,0,0,0-1.21-1.645,2.308,2.308,0,0,0-1.987-.046c-.379-.952-.739-1.469-1.33-1.7a4.163,4.163,0,0,0-1.978-.065c.019-.924.037-1.829.046-2.744a2.177,2.177,0,0,0-2.18-2.366,2.216,2.216,0,0,0-2.153,2.3c-.01,1.552-.056,3.114-.093,4.666-.018.7-.028,1.4-.046,2.1-.028,1.395-.065,2.8-.1,4.306-.249-.157-.4-.231-.526-.333-1.035-.794-2.07-1.58-3.105-2.384a2.74,2.74,0,0,0-2.652-.563,1.793,1.793,0,0,0-.841,3.049q3.784,3.965,7.6,7.919a4.8,4.8,0,0,0,2.587,1.534c1.257.213,2.55.268,3.825.36a6.413,6.413,0,0,0,6.977-6.228c.083-2,.277-3.991.4-5.987A2.178,2.178,0,0,0,32.112,24.5Zm1.339,8.575A10.529,10.529,0,0,1,33,34.919a5.4,5.4,0,0,1-4.667,2.994c-1.016.028-2.033-.009-3.049-.065a4.889,4.889,0,0,1-3.391-1.515c-2.486-2.578-4.944-5.165-7.42-7.744-.259-.277-.62-.591-.352-.951a1.436,1.436,0,0,1,2.061-.3c1.515,1.1,2.994,2.264,4.509,3.382a.835.835,0,0,0,.7.185c.175-.074.3-.416.314-.656q.1-3.48.175-6.958c.028-1.608.065-3.216.111-4.833a1.876,1.876,0,0,1,.314-1.026.993.993,0,0,1,1.248-.277,1.123,1.123,0,0,1,.684,1.146c-.037,1.645-.074,3.3-.111,4.943-.009.389-.019.767-.028,1.155-.018.629-.028,1.257-.046,1.886-.009.369.111.656.527.656.388.009.508-.287.517-.619.028-1,.046-2,.065-3a1.563,1.563,0,0,1,.074-.48,1.066,1.066,0,0,1,1.09-.832.418.418,0,0,1,.111.01c.591.055.97.554.961,1.321-.009.961-.037,1.931-.065,2.892-.009.379.019.767.5.786s.564-.333.555-.74c0-.489.009-.979.046-1.469a1.107,1.107,0,0,1,1.118-1.081,1.065,1.065,0,0,1,1.09,1.1c.019.517-.009,1.044-.018,1.57-.009.342.083.629.453.684.415.056.536-.24.6-.591a1.128,1.128,0,0,1,1.257-1.044,1.157,1.157,0,0,1,.961,1.34C33.756,28.885,33.645,30.983,33.451,33.071Z" style="fill:#fff;stroke:#fff;stroke-miterlimit:10;stroke-width:0.5px"></path><path d="M29.256,17.749A6.423,6.423,0,0,0,29.5,16a6.755,6.755,0,1,0-11.606,4.7" style="fill:none;stroke:#fff;stroke-linecap:round;stroke-miterlimit:10;stroke-width:2px"></path></svg>