<svg xmlns="http://www.w3.org/2000/svg" id="Layer_1" data-name="Layer 1" width="48" height="48" viewBox="0 0 48 48"><path id="Base" d="M20.24,0h7.52C34.3,0,37.041.754,39.689,2.17A14.768,14.768,0,0,1,45.83,8.311C47.246,10.959,48,13.7,48,20.24v7.52c0,6.538-.754,9.281-2.17,11.929a14.768,14.768,0,0,1-6.141,6.141C37.041,47.246,34.3,48,27.76,48H20.24c-6.538,0-9.281-.754-11.929-2.17A14.768,14.768,0,0,1,2.17,39.689C.754,37.041,0,34.3,0,27.76V20.24C0,13.7.754,10.959,2.17,8.311A14.768,14.768,0,0,1,8.311,2.17C10.959.754,13.7,0,20.24,0Z" style="fill:#f9b65d;fill-rule:evenodd"></path><path d="M24.294,37.181h-.586a2.825,2.825,0,0,0-.306-.143,16.384,16.384,0,0,1-4.81-2.474,13.77,13.77,0,0,1-5.426-7.329,33.87,33.87,0,0,1-.672-12.3,1.278,1.278,0,0,1,1.119-1.264c1.94-.5,3.868-1.049,5.8-1.594,1.437-.406,2.866-.837,4.3-1.256h.586a5.439,5.439,0,0,0,.53.208c3.242.9,6.484,1.812,9.731,2.7a1.043,1.043,0,0,1,.91,1.037c.087,1.536.263,3.07.288,4.606a25.8,25.8,0,0,1-1.037,8.258,13.687,13.687,0,0,1-6.041,7.414A40.63,40.63,0,0,1,24.294,37.181ZM19.778,23.422l2.741,2.693,5.7-5.8" style="fill:none;stroke:#fff;stroke-linecap:round;stroke-linejoin:round;stroke-width:2px"></path></svg>