<svg xmlns="http://www.w3.org/2000/svg" id="Layer_1" data-name="Layer 1" width="48" height="48" viewBox="0 0 48 48"><path id="Base" d="M20.24,0h7.52C34.3,0,37.041.754,39.689,2.17A14.768,14.768,0,0,1,45.83,8.311C47.246,10.959,48,13.7,48,20.24v7.52c0,6.538-.754,9.281-2.17,11.929a14.768,14.768,0,0,1-6.141,6.141C37.041,47.246,34.3,48,27.76,48H20.24c-6.538,0-9.281-.754-11.929-2.17A14.768,14.768,0,0,1,2.17,39.689C.754,37.041,0,34.3,0,27.76V20.24C0,13.7.754,10.959,2.17,8.311A14.768,14.768,0,0,1,8.311,2.17C10.959.754,13.7,0,20.24,0Z" style="fill: #8fb93b;fill-rule: evenodd"></path><g><line x1="16.708" y1="23.879" x2="16.708" y2="20.67" style="fill: none;stroke: #fff;stroke-linecap: round;stroke-linejoin: round;stroke-width: 2px"></line><line x1="19.411" y1="23.879" x2="19.411" y2="15.56" style="fill: none;stroke: #fff;stroke-linecap: round;stroke-linejoin: round;stroke-width: 2px"></line><line x1="22.114" y1="23.879" x2="22.114" y2="18.412" style="fill: none;stroke: #fff;stroke-linecap: round;stroke-linejoin: round;stroke-width: 2px"></line><rect x="25.751" y="20.734" width="10.851" height="16.096" style="fill: none;stroke: #fff;stroke-linecap: round;stroke-linejoin: round;stroke-width: 2px"></rect><rect x="28.142" y="28.551" width="1.909" height="1.909" style="fill: #fff"></rect><rect x="28.142" y="24.572" width="5.506" height="1.909" style="fill: #fff"></rect><rect x="31.578" y="28.551" width="1.909" height="1.909" style="fill: #fff"></rect><rect x="28.142" y="31.896" width="1.909" height="1.909" style="fill: #fff"></rect><rect x="31.578" y="31.896" width="1.909" height="1.909" style="fill: #fff"></rect><polyline points="22.351 34.492 12.644 34.492 12.644 12.043 29.586 12.043 29.586 17.369" style="fill: none;stroke: #fff;stroke-miterlimit: 10;stroke-width: 2px"></polyline><circle cx="19.26" cy="29.163" r="1.909" style="fill: none;stroke: #fff;stroke-miterlimit: 10;stroke-width: 2px"></circle></g></svg>