<svg xmlns="http://www.w3.org/2000/svg" id="Layer_1" data-name="Layer 1" width="48" height="48" viewBox="0 0 48 48"><path id="Base" d="M20.429,0H27.95c6.537,0,9.281.754,11.928,2.17A14.765,14.765,0,0,1,46.02,8.311c1.415,2.648,2.169,5.391,2.169,11.929v7.52c0,6.538-.754,9.281-2.169,11.929a14.765,14.765,0,0,1-6.142,6.141C37.231,47.246,34.487,48,27.95,48H20.429c-6.537,0-9.281-.754-11.928-2.17a14.765,14.765,0,0,1-6.142-6.141C.944,37.041.189,34.3.189,27.76V20.24c0-6.538.755-9.281,2.17-11.929A14.765,14.765,0,0,1,8.5,2.17C11.148.754,13.892,0,20.429,0Z" style="fill:#f6c378;fill-rule:evenodd"></path><path d="M31.193,34.893H16.807a3.711,3.711,0,0,1-3.7-3.7V16.807a3.711,3.711,0,0,1,3.7-3.7H31.193a3.711,3.711,0,0,1,3.7,3.7V31.193A3.711,3.711,0,0,1,31.193,34.893ZM18.8,13.107v-3.1m3.469,3.1v-3.1m3.47,3.1v-3.1m3.469,3.1v-3.1M18.8,37.989v-3.1m3.469,3.1v-3.1m3.47,3.1v-3.1m3.469,3.1v-3.1m5.689-16.1h3.1m-3.1,3.469h3.1m-3.1,3.47h3.1m-3.1,3.469h3.1M10.011,18.8h3.1m-3.1,3.469h3.1m-3.1,3.47h3.1m-3.1,3.469h3.1M22.265,18.8h-3.8M29.2,22.265h-9m7.27,3.708H18.464m5.881,3.6H18.464" style="fill:none;stroke:#fff;stroke-linecap:round;stroke-linejoin:round;stroke-width:1.5px"></path></svg>