<svg id="Layer_1" data-name="Layer 1" xmlns="http://www.w3.org/2000/svg" width="48" height="48" viewBox="0 0 48 48"><path id="Base" d="M20.24,0h7.52C34.3,0,37.041.754,39.689,2.17A14.768,14.768,0,0,1,45.83,8.311C47.246,10.959,48,13.7,48,20.24v7.52c0,6.538-.754,9.281-2.17,11.929a14.768,14.768,0,0,1-6.141,6.141C37.041,47.246,34.3,48,27.76,48H20.24c-6.538,0-9.281-.754-11.929-2.17A14.768,14.768,0,0,1,2.17,39.689C.754,37.041,0,34.3,0,27.76V20.24C0,13.7.754,10.959,2.17,8.311A14.768,14.768,0,0,1,8.311,2.17C10.959.754,13.7,0,20.24,0Z" style="fill:#f9b65d;fill-rule:evenodd"/><path d="M32.385,25.1c-.12.037-.25.055-.388.083a2.351,2.351,0,0,0-1.211-1.645,2.306,2.306,0,0,0-1.986-.046c-.379-.952-.74-1.469-1.331-1.7a4.162,4.162,0,0,0-1.978-.065c.019-.924.037-1.83.047-2.745a2.178,2.178,0,0,0-2.181-2.365,2.216,2.216,0,0,0-2.153,2.3c-.009,1.552-.056,3.114-.093,4.666-.018.7-.027,1.4-.046,2.1-.027,1.4-.064,2.8-.1,4.306-.25-.157-.4-.231-.527-.333-1.035-.794-2.07-1.58-3.105-2.384A2.741,2.741,0,0,0,14.68,26.7a1.794,1.794,0,0,0-.841,3.05q3.784,3.964,7.6,7.919a4.813,4.813,0,0,0,2.587,1.534c1.257.212,2.551.268,3.826.36a6.412,6.412,0,0,0,6.976-6.228c.083-2,.277-3.992.4-5.988A2.179,2.179,0,0,0,32.385,25.1Zm1.34,8.575a10.515,10.515,0,0,1-.453,1.848,5.4,5.4,0,0,1-4.667,2.994c-1.016.028-2.032-.009-3.049-.065a4.9,4.9,0,0,1-3.391-1.515c-2.486-2.578-4.944-5.166-7.42-7.744-.259-.277-.619-.591-.351-.952a1.436,1.436,0,0,1,2.06-.295c1.516,1.1,2.994,2.264,4.51,3.382a.832.832,0,0,0,.7.185c.175-.074.3-.416.314-.657q.1-3.479.176-6.958.041-2.41.111-4.832a1.857,1.857,0,0,1,.314-1.026.99.99,0,0,1,1.247-.277,1.122,1.122,0,0,1,.684,1.146c-.037,1.644-.074,3.3-.111,4.943-.009.388-.018.767-.028,1.155-.018.629-.027,1.257-.046,1.885-.009.37.111.656.527.656.388.01.508-.286.517-.619.028-1,.047-2,.065-3a1.589,1.589,0,0,1,.074-.48,1.067,1.067,0,0,1,1.09-.832.463.463,0,0,1,.111.009c.592.056.97.555.961,1.322-.009.961-.037,1.931-.064,2.892-.01.379.018.767.5.785s.563-.332.554-.739c0-.49.009-.979.046-1.469a1.108,1.108,0,0,1,1.118-1.081,1.066,1.066,0,0,1,1.091,1.1c.018.518-.01,1.044-.019,1.571-.009.342.083.629.453.684.416.055.536-.24.6-.591a1.127,1.127,0,0,1,1.256-1.045,1.158,1.158,0,0,1,.961,1.34C34.03,29.486,33.919,31.583,33.725,33.672Z" style="fill:#fff;stroke:#fff;stroke-miterlimit:10;stroke-width:0.5px"/><path d="M29.53,18.35a6.429,6.429,0,0,0,.24-1.746,6.755,6.755,0,1,0-11.606,4.7" style="fill:none;stroke:#fff;stroke-linecap:round;stroke-miterlimit:10;stroke-width:2px"/></svg>