<svg xmlns="http://www.w3.org/2000/svg" id="Layer_1" data-name="Layer 1" width="48" height="48" viewBox="0 0 48 48"><path id="Base" d="M20.24,0h7.52C34.3,0,37.041.754,39.689,2.17A14.768,14.768,0,0,1,45.83,8.311C47.246,10.959,48,13.7,48,20.24v7.52c0,6.538-.754,9.281-2.17,11.929a14.768,14.768,0,0,1-6.141,6.141C37.041,47.246,34.3,48,27.76,48H20.24c-6.538,0-9.281-.754-11.929-2.17A14.768,14.768,0,0,1,2.17,39.689C.754,37.041,0,34.3,0,27.76V20.24C0,13.7.754,10.959,2.17,8.311A14.768,14.768,0,0,1,8.311,2.17C10.959.754,13.7,0,20.24,0Z" style="fill:#7292f7;fill-rule:evenodd"></path><path d="M34.031,24.134l-1.834-1.6m-18.23,1.6L24,15.368l4.994,4.363m0,0V10.374H32.3l-.1,12.158m1.836,1.6V37.626H29.4M13.969,24.134V37.626H18.6m7.789-13.675a2.2,2.2,0,1,0-2.2,2.2M21.3,30.42h5.089m-5.089,2.4h5.089m-5.089,2.4h5.089m-5.089,2.4h5.089" style="fill:none;stroke:#fff;stroke-linecap:round;stroke-linejoin:round;stroke-width:1.5px"></path></svg>