<svg xmlns="http://www.w3.org/2000/svg" id="Layer_1" data-name="Layer 1" width="48" height="48" viewBox="0 0 48 48"><path id="Base" d="M20.24,0h7.52C34.3,0,37.041.754,39.689,2.17A14.768,14.768,0,0,1,45.83,8.311C47.246,10.959,48,13.7,48,20.24v7.52c0,6.538-.754,9.281-2.17,11.929a14.768,14.768,0,0,1-6.141,6.141C37.041,47.246,34.3,48,27.76,48H20.24c-6.538,0-9.281-.754-11.929-2.17A14.768,14.768,0,0,1,2.17,39.689C.754,37.041,0,34.3,0,27.76V20.24C0,13.7.754,10.959,2.17,8.311A14.768,14.768,0,0,1,8.311,2.17C10.959.754,13.7,0,20.24,0Z" style="fill: #7292f7;fill-rule: evenodd"></path><path d="M11.746,23.186H24.188M11.682,26.66h5.053l2.5,2.5h8.937M26.23,21.144a2,2,0,1,0,2,2A2,2,0,0,0,26.23,21.144Zm3.979,6.127a2,2,0,1,0,2,2A2,2,0,0,0,30.209,27.271Zm6.617,4.837V20.653a2.185,2.185,0,0,0-2.179-2.179H13.353a2.185,2.185,0,0,0-2.179,2.179V32.108a2.185,2.185,0,0,0,2.179,2.179H34.647A2.185,2.185,0,0,0,36.826,32.108ZM18.384,18.442V16.264a2.551,2.551,0,0,1,2.551-2.551h6.13a2.551,2.551,0,0,1,2.551,2.551v2.178Z" style="fill: none;stroke: #fff;stroke-linecap: round;stroke-linejoin: round;stroke-width: 2px"></path></svg>