<svg id="Layer_1" data-name="Layer 1" xmlns="http://www.w3.org/2000/svg" width="48" height="48" viewBox="0 0 48 48">
  <path id="Base" d="M20.24,0h7.52C34.3,0,37.041.754,39.689,2.17A14.768,14.768,0,0,1,45.83,8.311C47.246,10.959,48,13.7,48,20.24v7.52c0,6.538-.754,9.281-2.17,11.929a14.768,14.768,0,0,1-6.141,6.141C37.041,47.246,34.3,48,27.76,48H20.24c-6.538,0-9.281-.754-11.929-2.17A14.768,14.768,0,0,1,2.17,39.689C.754,37.041,0,34.3,0,27.76V20.24C0,13.7.754,10.959,2.17,8.311A14.768,14.768,0,0,1,8.311,2.17C10.959.754,13.7,0,20.24,0Z" style="fill: #f9b65d;fill-rule: evenodd"/>
  <path d="M37.2,30.658H10.8a.726.726,0,0,1-.726-.726V13.953a.726.726,0,0,1,.726-.727H37.2a.726.726,0,0,1,.726.727V29.932A.726.726,0,0,1,37.2,30.658ZM20.6,18.08H33.1M14.821,22.458h9m3.395-.016h2.368M14.821,18.08h2.368m2.843,16.694h8.905" style="fill: none;stroke: #fff;stroke-linecap: round;stroke-width: 2px"/>
</svg>
