<svg xmlns="http://www.w3.org/2000/svg" width="48" height="48" viewBox="0 0 48 48">
    <defs>
        <clipPath id="d2if25lara">
            <path data-name="Rectangle 2931" style="fill:none" d="M0 0h26.18v30.248H0z"/>
        </clipPath>
    </defs>
    <g data-name="Group 1807">
        <g data-name="Group 1799">
            <path data-name="Path 1943" d="M161.884 0h7.516c6.537 0 9.281.754 11.928 2.17a14.762 14.762 0 0 1 6.141 6.141c1.416 2.648 2.17 5.391 2.17 11.929v7.52c0 6.538-.754 9.281-2.17 11.929a14.762 14.762 0 0 1-6.141 6.141C178.686 47.246 175.942 48 169.4 48h-7.521c-6.538 0-9.281-.754-11.929-2.17a14.768 14.768 0 0 1-6.141-6.141c-1.416-2.648-2.17-5.391-2.17-11.929v-7.52c0-6.538.754-9.281 2.17-11.929a14.768 14.768 0 0 1 6.141-6.141C152.6.754 155.346 0 161.884 0" transform="translate(-141.644)" style="fill:#8fb93b;fill-rule:evenodd"/>
            <g data-name="Group 1798">
                <g data-name="Group 1797" style="clip-path:url(#d2if25lara)" transform="translate(10.911 7)">
                    <path data-name="Path 1952" d="M8.1 16.685a2.288 2.288 0 1 0 2.288 2.288A2.289 2.289 0 0 0 8.1 16.685zm9.99-.106a2.288 2.288 0 1 0 2.289 2.289 2.289 2.289 0 0 0-2.294-2.289zm-5-6.392V4.438M12.97 1a1.719 1.719 0 1 0 1.719 1.719A1.719 1.719 0 0 0 12.97 1zm.19 26.76H7.8a6.82 6.82 0 0 1-6.8-6.8v-1.23a8.921 8.921 0 0 1 .07-1.16l.03-.22a9.485 9.485 0 0 1 2.96-5.6 9.21 9.21 0 0 1 1.58-1.19 9.466 9.466 0 0 1 4.91-1.37h5.08a9.553 9.553 0 0 1 4.91 1.36 9.812 9.812 0 0 1 1.58 1.2 9.485 9.485 0 0 1 2.96 5.6l.03.22a8.922 8.922 0 0 1 .07 1.16v1.23a6.67 6.67 0 0 1-1.35 4.03" style="stroke:#fff;stroke-linecap:round;stroke-miterlimit:10;stroke-width:2px;fill:none"/>
                    <path data-name="Path 1953" d="M13.84 30.248h-1.753a2.439 2.439 0 0 1 0-4.879h1.753a2.439 2.439 0 0 1 0 4.879" style="fill:#fff"/>
                </g>
            </g>
        </g>
    </g>
</svg>
