<svg xmlns="http://www.w3.org/2000/svg" id="Layer_1" data-name="Layer 1" width="48" height="48" viewBox="0 0 48 48"><path id="Base" d="M20.24,0h7.52C34.3,0,37.041.754,39.689,2.17A14.768,14.768,0,0,1,45.83,8.311C47.246,10.959,48,13.7,48,20.24v7.52c0,6.538-.754,9.281-2.17,11.929a14.768,14.768,0,0,1-6.141,6.141C37.041,47.246,34.3,48,27.76,48H20.24c-6.538,0-9.281-.754-11.929-2.17A14.768,14.768,0,0,1,2.17,39.689C.754,37.041,0,34.3,0,27.76V20.24C0,13.7.754,10.959,2.17,8.311A14.768,14.768,0,0,1,8.311,2.17C10.959.754,13.7,0,20.24,0Z" style="fill: #ed736e;fill-rule: evenodd"></path><g><path d="M32.379,22.291l-2,14.73H18.463l-2-14.73H32.379m0-2H16.463a2,2,0,0,0-1.982,2.269l2,14.73a2,2,0,0,0,1.982,1.731H30.379a2,2,0,0,0,1.982-1.731l2-14.73a2,2,0,0,0-1.982-2.269Zm0,4h0Z" style="fill: #fff"></path><g><line x1="21.453" y1="25.526" x2="22.463" y2="34.116" style="fill: none;stroke: #fff;stroke-linecap: round;stroke-linejoin: round"></line><line x1="27.389" y1="25.526" x2="26.379" y2="34.116" style="fill: none;stroke: #fff;stroke-linecap: round;stroke-linejoin: round"></line></g><path d="M25.586,16.158a.743.743,0,0,0,1.26.4.688.688,0,0,0,.21-.5,1.327,1.327,0,0,0-.14-.58,2.381,2.381,0,0,0-.41-.62,2.127,2.127,0,0,0-.78-.59,3.915,3.915,0,0,0-1.07-.25v-.64c0-.32-.13-.48-.38-.48s-.37.17-.37.5v.62a2.838,2.838,0,0,0-1.85.75,2.231,2.231,0,0,0-.64,1.65,2.2,2.2,0,0,0,.32,1.26,2.17,2.17,0,0,0,.86.76,3.79,3.79,0,0,0,.45.2h3.71a1.022,1.022,0,0,0-.18-.18,2.274,2.274,0,0,0-.77-.48,11.733,11.733,0,0,0-1.15-.36v-2.44A1.338,1.338,0,0,1,25.586,16.158Zm-1.68,1.24a2.324,2.324,0,0,1-.78-.43.878.878,0,0,1-.26-.7.914.914,0,0,1,.27-.72,2.133,2.133,0,0,1,.77-.39Z" style="fill: #fff"></path><path d="M18.706,6.6v.5a2.883,2.883,0,0,1,.848.2,1.674,1.674,0,0,1,.616.461,2,2,0,0,1,.321.485,1.125,1.125,0,0,1,.113.457.546.546,0,0,1-.169.4.555.555,0,0,1-.408.168.575.575,0,0,1-.587-.489,1.046,1.046,0,0,0-.734-.767V9.939c.382.105.686.2.912.287a1.867,1.867,0,0,1,.607.374,1.718,1.718,0,0,1,.441.607,1.906,1.906,0,0,1,.155.773,2.046,2.046,0,0,1-.247.986,1.959,1.959,0,0,1-.727.751,2.59,2.59,0,0,1-1.141.346v1.15a1.1,1.1,0,0,1-.053.4.225.225,0,0,1-.233.124.256.256,0,0,1-.233-.1.579.579,0,0,1-.067-.314V14.072a2.934,2.934,0,0,1-.945-.254,2.239,2.239,0,0,1-.674-.482,2.016,2.016,0,0,1-.4-.6,1.587,1.587,0,0,1-.129-.612.558.558,0,0,1,.173-.4.578.578,0,0,1,.431-.178.614.614,0,0,1,.351.1.5.5,0,0,1,.2.273,5.745,5.745,0,0,0,.217.579,1.13,1.13,0,0,0,.279.367,1.239,1.239,0,0,0,.5.254V10.969a5.657,5.657,0,0,1-1.035-.381,1.742,1.742,0,0,1-.674-.6,1.766,1.766,0,0,1-.258-1,1.765,1.765,0,0,1,.505-1.3A2.266,2.266,0,0,1,18.12,7.1V6.61q0-.389.291-.388T18.706,6.6ZM18.12,9.768V8a1.593,1.593,0,0,0-.605.3.718.718,0,0,0-.217.572.716.716,0,0,0,.2.552A1.85,1.85,0,0,0,18.12,9.768Zm.586,1.372v2.022a1.267,1.267,0,0,0,.721-.374.947.947,0,0,0,.253-.655.785.785,0,0,0-.247-.621A1.983,1.983,0,0,0,18.706,11.14Z" style="fill: #fff"></path><path d="M29.347,10.223v.309a1.788,1.788,0,0,1,.526.127,1.04,1.04,0,0,1,.383.286,1.235,1.235,0,0,1,.2.3.691.691,0,0,1,.07.284.34.34,0,0,1-.1.248.346.346,0,0,1-.253.1.356.356,0,0,1-.364-.3.649.649,0,0,0-.456-.475V12.3q.355.1.566.177a1.167,1.167,0,0,1,.377.233,1.065,1.065,0,0,1,.274.376,1.183,1.183,0,0,1,.1.48,1.264,1.264,0,0,1-.154.612,1.213,1.213,0,0,1-.451.466,1.611,1.611,0,0,1-.708.215v.713a.678.678,0,0,1-.033.247.14.14,0,0,1-.144.077.161.161,0,0,1-.145-.063.357.357,0,0,1-.042-.2v-.774A1.8,1.8,0,0,1,28.4,14.7a1.377,1.377,0,0,1-.418-.3,1.246,1.246,0,0,1-.248-.372,1,1,0,0,1-.08-.38.349.349,0,0,1,.107-.248.361.361,0,0,1,.268-.11.38.38,0,0,1,.218.06.313.313,0,0,1,.123.169,3.75,3.75,0,0,0,.135.36.7.7,0,0,0,.173.228.784.784,0,0,0,.308.157V12.934a3.513,3.513,0,0,1-.641-.237,1.078,1.078,0,0,1-.419-.371,1.229,1.229,0,0,1,.154-1.427,1.408,1.408,0,0,1,.906-.367v-.3c0-.161.061-.241.181-.241S29.347,10.066,29.347,10.223Zm-.364,1.966v-1.1a1.012,1.012,0,0,0-.375.189.448.448,0,0,0-.135.356.441.441,0,0,0,.126.342A1.186,1.186,0,0,0,28.983,12.189Zm.364.851V14.3a.788.788,0,0,0,.447-.232.59.59,0,0,0,.158-.407.491.491,0,0,0-.153-.386A1.266,1.266,0,0,0,29.347,13.04Z" style="fill: #fff"></path></g></svg>