<svg xmlns="http://www.w3.org/2000/svg" id="Layer_1" data-name="Layer 1" width="48" height="48" viewBox="0 0 48 48"><path id="Base" d="M20.24,0h7.52C34.3,0,37.041.754,39.689,2.17A14.768,14.768,0,0,1,45.83,8.311C47.246,10.959,48,13.7,48,20.24v7.52c0,6.538-.754,9.281-2.17,11.929a14.768,14.768,0,0,1-6.141,6.141C37.041,47.246,34.3,48,27.76,48H20.24c-6.538,0-9.281-.754-11.929-2.17A14.768,14.768,0,0,1,2.17,39.689C.754,37.041,0,34.3,0,27.76V20.24C0,13.7.754,10.959,2.17,8.311A14.768,14.768,0,0,1,8.311,2.17C10.959.754,13.7,0,20.24,0Z" style="fill:#8fb93b;fill-rule:evenodd"></path><path d="M26.5,12.046a11.99,11.99,0,0,1,3.987,1.625M34.209,30.4a12.007,12.007,0,0,0,1.677-4.209M17.259,33.946a12.039,12.039,0,0,0,4.264,1.794M12.2,21.206a12.039,12.039,0,0,1,1.739-4.041m-1.82,9.022A12.007,12.007,0,0,0,13.791,30.4M26.477,35.74a12.039,12.039,0,0,0,4.264-1.794m3.325-16.781a12.039,12.039,0,0,1,1.739,4.041M17.51,13.671A11.99,11.99,0,0,1,21.5,12.046m0,0,.248-3.656h4.51l.248,3.656M21.523,35.74l.222,3.267h4.51l.222-3.267M13.934,17.165l-2.353-2.7,3.188-3.188,2.741,2.391M34.209,30.4l2.21,2.533-3.188,3.189-2.49-2.172M12.114,26.187l-3.422-.233v-4.51l3.5-.238m23.691,4.981,3.422-.233v-4.51l-3.5-.238M13.791,30.4l-2.21,2.533,3.188,3.189,2.49-2.172M34.066,17.165l2.353-2.7L33.231,11.28,30.49,13.671" style="fill:none;stroke:#fff;stroke-linecap:round;stroke-linejoin:round"></path><path d="M26.129,18a6.178,6.178,0,0,1,0,11.6m-4.258,0a6.178,6.178,0,0,1,0-11.6m6.767-1.08-3.359.726.587,2.72m-7.1,10.1,3.42-.341-.276-2.769" style="fill:none;stroke:#fff;stroke-linecap:round;stroke-linejoin:round;stroke-width:2px"></path></svg>