<svg xmlns="http://www.w3.org/2000/svg" id="Layer_1" data-name="Layer 1" width="48" height="48" viewBox="0 0 48 48"><path id="Base" d="M20.24,0h7.52C34.3,0,37.041.754,39.689,2.17A14.768,14.768,0,0,1,45.83,8.311C47.246,10.959,48,13.7,48,20.24v7.52c0,6.538-.754,9.281-2.17,11.929a14.768,14.768,0,0,1-6.141,6.141C37.041,47.246,34.3,48,27.76,48H20.24c-6.538,0-9.281-.754-11.929-2.17A14.768,14.768,0,0,1,2.17,39.689C.754,37.041,0,34.3,0,27.76V20.24C0,13.7.754,10.959,2.17,8.311A14.768,14.768,0,0,1,8.311,2.17C10.959.754,13.7,0,20.24,0Z" style="fill: #7292f7;fill-rule: evenodd"></path><g><path d="M34.829,25.912H23.9V14.979A10.829,10.829,0,1,0,34.829,25.912Z" style="fill: none;stroke: #fff;stroke-linecap: round;stroke-linejoin: round;stroke-width: 2px"></path><path d="M31.05,11.839v.626a3.6,3.6,0,0,1,1.064.255,2.1,2.1,0,0,1,.774.58,2.443,2.443,0,0,1,.4.608,1.4,1.4,0,0,1,.143.574.686.686,0,0,1-.212.5.7.7,0,0,1-.513.211.72.72,0,0,1-.736-.614,1.313,1.313,0,0,0-.922-.962V16.03q.718.2,1.145.36a2.361,2.361,0,0,1,.762.469,2.177,2.177,0,0,1,.554.763,2.4,2.4,0,0,1,.194.971,2.575,2.575,0,0,1-.31,1.238,2.459,2.459,0,0,1-.913.942,3.25,3.25,0,0,1-1.432.434v1.444a1.379,1.379,0,0,1-.067.5.282.282,0,0,1-.292.156.323.323,0,0,1-.293-.127.723.723,0,0,1-.084-.395V21.219a3.667,3.667,0,0,1-1.186-.319,2.81,2.81,0,0,1-.847-.606,2.53,2.53,0,0,1-.5-.753,2,2,0,0,1-.162-.769.7.7,0,0,1,.218-.5.722.722,0,0,1,.541-.223.763.763,0,0,1,.441.122.623.623,0,0,1,.249.342,7.268,7.268,0,0,0,.273.727,1.392,1.392,0,0,0,.351.461,1.571,1.571,0,0,0,.623.319v-2.7a7.093,7.093,0,0,1-1.3-.478,2.18,2.18,0,0,1-.846-.751,2.211,2.211,0,0,1-.325-1.252,2.22,2.22,0,0,1,.635-1.635,2.841,2.841,0,0,1,1.835-.742V11.85c0-.324.121-.487.365-.487S31.05,11.522,31.05,11.839Zm-.736,3.977V13.6a2.039,2.039,0,0,0-.76.383,1.078,1.078,0,0,0-.017,1.412A2.363,2.363,0,0,0,30.314,15.816Zm.736,1.722v2.539a1.587,1.587,0,0,0,.9-.47,1.188,1.188,0,0,0,.319-.823.989.989,0,0,0-.31-.78A2.525,2.525,0,0,0,31.05,17.538Z" style="fill: #fff"></path></g></svg>