<svg id="Layer_1" data-name="Layer 1" xmlns="http://www.w3.org/2000/svg" width="48" height="48" viewBox="0 0 48 48"><path id="Base" d="M20.24,0h7.52C34.3,0,37.041.754,39.689,2.17A14.768,14.768,0,0,1,45.83,8.311C47.246,10.959,48,13.7,48,20.24v7.52c0,6.538-.754,9.281-2.17,11.929a14.768,14.768,0,0,1-6.141,6.141C37.041,47.246,34.3,48,27.76,48H20.24c-6.538,0-9.281-.754-11.929-2.17A14.768,14.768,0,0,1,2.17,39.689C.754,37.041,0,34.3,0,27.76V20.24C0,13.7.754,10.959,2.17,8.311A14.768,14.768,0,0,1,8.311,2.17C10.959.754,13.7,0,20.24,0Z" style="fill:#ed736e;fill-rule:evenodd"/><line x1="19.039" y1="34.943" x2="19.039" y2="24.08" style="fill:#fff;stroke:#fff;stroke-miterlimit:10;stroke-width:2px"/><circle cx="19.292" cy="21.443" r="2" style="fill:none;stroke:#fff;stroke-miterlimit:10;stroke-width:2px"/><line x1="30.455" y1="15.175" x2="20.508" y2="19.769" style="fill:none;stroke:#fff;stroke-miterlimit:10;stroke-width:2px"/><circle cx="31.934" cy="14.238" r="2" style="fill:none;stroke:#fff;stroke-miterlimit:10"/><line x1="31.924" y1="23.89" x2="31.924" y2="16.406" style="fill:none;stroke:#fff;stroke-miterlimit:10;stroke-width:2px"/><line x1="31.829" y1="23.701" x2="31.829" y2="26.164" style="fill:#fff;stroke:#fff;stroke-miterlimit:10;stroke-width:4px"/><line x1="31.829" y1="27.68" x2="31.829" y2="25.122" style="fill:#fff;stroke:#fff;stroke-miterlimit:10"/><polyline points="30.961 30.664 30.155 29.717 29.966 28.343 31.339 27.917 31.861 27.917" style="fill:none;stroke:#fff;stroke-miterlimit:10"/><polyline points="32.745 30.664 33.55 29.717 33.739 28.343 32.366 27.917 31.845 27.917" style="fill:none;stroke:#fff;stroke-miterlimit:10"/><line x1="14.066" y1="35.762" x2="24.171" y2="35.762" style="fill:none;stroke:#fff;stroke-miterlimit:10;stroke-width:2px"/></svg>