<svg xmlns="http://www.w3.org/2000/svg" id="Layer_1" data-name="Layer 1" width="48" height="48" viewBox="0 0 48 48"><path id="Base" d="M20.24,0h7.52C34.3,0,37.041.754,39.689,2.17A14.768,14.768,0,0,1,45.83,8.311C47.246,10.959,48,13.7,48,20.24v7.52c0,6.538-.754,9.281-2.17,11.929a14.768,14.768,0,0,1-6.141,6.141C37.041,47.246,34.3,48,27.76,48H20.24c-6.538,0-9.281-.754-11.929-2.17A14.768,14.768,0,0,1,2.17,39.689C.754,37.041,0,34.3,0,27.76V20.24C0,13.7.754,10.959,2.17,8.311A14.768,14.768,0,0,1,8.311,2.17C10.959.754,13.7,0,20.24,0Z" style="fill:#8fb93b;fill-rule:evenodd"></path><line x1="19.039" y1="35.443" x2="19.039" y2="24.58" style="fill:#fff;stroke:#fff;stroke-miterlimit:10;stroke-width:2px"></line><circle cx="19.292" cy="21.943" r="2" style="fill:none;stroke:#fff;stroke-miterlimit:10;stroke-width:2px"></circle><line x1="30.455" y1="15.675" x2="20.508" y2="20.269" style="fill:none;stroke:#fff;stroke-miterlimit:10;stroke-width:2px"></line><circle cx="31.934" cy="14.738" r="2" style="fill:none;stroke:#fff;stroke-miterlimit:10"></circle><line x1="31.924" y1="24.39" x2="31.924" y2="16.906" style="fill:none;stroke:#fff;stroke-miterlimit:10;stroke-width:2px"></line><line x1="31.829" y1="24.201" x2="31.829" y2="26.664" style="fill:#fff;stroke:#fff;stroke-miterlimit:10;stroke-width:4px"></line><line x1="31.829" y1="28.18" x2="31.829" y2="25.622" style="fill:#fff;stroke:#fff;stroke-miterlimit:10"></line><polyline points="30.961 31.164 30.155 30.217 29.966 28.843 31.339 28.417 31.861 28.417" style="fill:none;stroke:#fff;stroke-miterlimit:10"></polyline><polyline points="32.745 31.164 33.55 30.217 33.739 28.843 32.366 28.417 31.845 28.417" style="fill:none;stroke:#fff;stroke-miterlimit:10"></polyline><line x1="14.066" y1="36.262" x2="24.171" y2="36.262" style="fill:none;stroke:#fff;stroke-miterlimit:10;stroke-width:2px"></line></svg>