<svg xmlns="http://www.w3.org/2000/svg" id="Layer_1" data-name="Layer 1" width="48" height="48" viewBox="0 0 48 48"><path id="Base" d="M20.24,0h7.52C34.3,0,37.041.754,39.689,2.17A14.768,14.768,0,0,1,45.83,8.311C47.246,10.959,48,13.7,48,20.24v7.52c0,6.538-.754,9.281-2.17,11.929a14.768,14.768,0,0,1-6.141,6.141C37.041,47.246,34.3,48,27.76,48H20.24c-6.538,0-9.281-.754-11.929-2.17A14.768,14.768,0,0,1,2.17,39.689C.754,37.041,0,34.3,0,27.76V20.24C0,13.7.754,10.959,2.17,8.311A14.768,14.768,0,0,1,8.311,2.17C10.959.754,13.7,0,20.24,0Z" style="fill: #ed736e;fill-rule: evenodd"></path><path d="M40.5,19.593a.592.592,0,0,1-.31-.52.571.571,0,0,1,.31-.52.6.6,0,0,0-.29-1.12H40.2a.6.6,0,0,1-.61-.59.553.553,0,0,1,.09-.3.6.6,0,0,0-.51-.91.641.641,0,0,0-.31.09.6.6,0,0,1-.9-.51V15.2a.592.592,0,0,0-1.11-.3.581.581,0,0,1-.52.31.592.592,0,0,1-.52-.31.593.593,0,0,0-1.11.29v.01a.6.6,0,0,1-.59.61.586.586,0,0,1-.31-.09.6.6,0,0,0-.9.51.641.641,0,0,0,.09.31.588.588,0,0,1-.51.89h-.01a.6.6,0,0,0-.61.61.589.589,0,0,0,.31.51.58.58,0,0,1,.3.52.6.6,0,0,1-.3.52.592.592,0,0,0,.29,1.11h.01a.587.587,0,0,1,.6.59.575.575,0,0,1-.08.31.59.59,0,0,0,.5.9.613.613,0,0,0,.31-.09.594.594,0,0,1,.9.51v.01a.591.591,0,0,0,.6.61.567.567,0,0,0,.51-.31.613.613,0,0,1,.52-.31.6.6,0,0,1,.52.31.592.592,0,0,0,1.11-.29v-.01a.6.6,0,0,1,.6-.6.542.542,0,0,1,.3.08.6.6,0,0,0,.91-.5.586.586,0,0,0-.09-.31.594.594,0,0,1,.51-.9h.01a.589.589,0,0,0,.6-.6A.557.557,0,0,0,40.5,19.593Zm-4.17.82a1.345,1.345,0,1,1,1.35-1.34A1.34,1.34,0,0,1,36.328,20.413Z" style="fill: #fff"></path><path d="M34.2,12.381a.35.35,0,0,1-.183-.307.337.337,0,0,1,.183-.307.354.354,0,0,0-.171-.661h-.006a.351.351,0,0,1-.36-.348.329.329,0,0,1,.053-.177.355.355,0,0,0-.3-.537.372.372,0,0,0-.183.053.352.352,0,0,1-.531-.3V9.79a.349.349,0,0,0-.655-.177.343.343,0,0,1-.307.183.35.35,0,0,1-.307-.183.35.35,0,0,0-.655.171V9.79a.347.347,0,0,1-.531.307.352.352,0,0,0-.531.3.383.383,0,0,0,.053.183.347.347,0,0,1-.3.525h-.006a.354.354,0,0,0-.36.36.348.348,0,0,0,.183.3.342.342,0,0,1,.177.307.356.356,0,0,1-.177.307.35.35,0,0,0,.171.655h.006a.346.346,0,0,1,.354.348.334.334,0,0,1-.047.183.348.348,0,0,0,.3.531.366.366,0,0,0,.183-.053.35.35,0,0,1,.531.3v.006a.349.349,0,0,0,.354.36.334.334,0,0,0,.3-.183.362.362,0,0,1,.307-.183.355.355,0,0,1,.307.183.35.35,0,0,0,.655-.172v0A.355.355,0,0,1,33.056,14a.315.315,0,0,1,.177.048.353.353,0,0,0,.537-.295.349.349,0,0,0-.053-.183.35.35,0,0,1,.3-.531h.006a.348.348,0,0,0,.354-.354A.327.327,0,0,0,34.2,12.381Zm-2.461.483a.794.794,0,1,1,.8-.79A.791.791,0,0,1,31.74,12.864Z" style="fill: #fff"></path><path d="M29.116,18.979a5.558,5.558,0,1,1-5.558-5.558A5.559,5.559,0,0,1,29.116,18.979ZM24,26.1c-8.964,0-13.232,6.262-13.232,9.052S15.036,35.2,24,35.2s13.232,2.738,13.232-.053S32.964,26.1,24,26.1Z" style="fill: none;stroke: #fff;stroke-miterlimit: 10;stroke-width: 2px"></path></svg>