<svg xmlns="http://www.w3.org/2000/svg" id="Layer_1" data-name="Layer 1" width="48" height="48" viewBox="0 0 48 48"><path id="Base" d="M20.24,0h7.52C34.3,0,37.041.754,39.689,2.17A14.768,14.768,0,0,1,45.83,8.311C47.246,10.959,48,13.7,48,20.24v7.52c0,6.538-.754,9.281-2.17,11.929a14.768,14.768,0,0,1-6.141,6.141C37.041,47.246,34.3,48,27.76,48H20.24c-6.538,0-9.281-.754-11.929-2.17A14.768,14.768,0,0,1,2.17,39.689C.754,37.041,0,34.3,0,27.76V20.24C0,13.7.754,10.959,2.17,8.311A14.768,14.768,0,0,1,8.311,2.17C10.959.754,13.7,0,20.24,0Z" style="fill: #80bef9;fill-rule: evenodd"></path><g><path d="M30.927,17.9a6,6,0,1,1-6-6A6,6,0,0,1,30.927,17.9Zm3.93,8.479a14.945,14.945,0,0,0-8.47-2.61,1.77,1.77,0,0,0-.23.01.014.014,0,0,0-.02,0,13.329,13.329,0,0,0-1.56.1h-.01a15.024,15.024,0,0,0-12.38,10" style="fill: none;stroke: #fff;stroke-linecap: round;stroke-miterlimit: 10;stroke-width: 2px"></path><polygon points="29.051 29.474 30.667 26.247 32.245 29.493 35.813 30.033 33.214 32.536 33.802 36.096 30.618 34.398 27.414 36.058 28.046 32.505 25.477 29.971 29.051 29.474" style="fill: #fff"></polygon></g></svg>