<svg xmlns="http://www.w3.org/2000/svg" id="Layer_1" data-name="Layer 1" width="48" height="48" viewBox="0 0 48 48"><path id="Base" d="M20.24,0h7.52C34.3,0,37.041.754,39.689,2.17A14.768,14.768,0,0,1,45.83,8.311C47.246,10.959,48,13.7,48,20.24v7.52c0,6.538-.754,9.281-2.17,11.929a14.768,14.768,0,0,1-6.141,6.141C37.041,47.246,34.3,48,27.76,48H20.24c-6.538,0-9.281-.754-11.929-2.17A14.768,14.768,0,0,1,2.17,39.689C.754,37.041,0,34.3,0,27.76V20.24C0,13.7.754,10.959,2.17,8.311A14.768,14.768,0,0,1,8.311,2.17C10.959.754,13.7,0,20.24,0Z" style="fill:#9792f8;fill-rule:evenodd"></path><path d="M16.922,32.87H17l2.51-.032,9.741-.122h.025l3.089-.033h.033a7.11,7.11,0,0,0-1.671-14.02c-.131,0-.253,0-.383.008a7.1,7.1,0,0,0-12.064.089h-.115A7.1,7.1,0,0,0,17,32.87l12.251-.154h.025" style="fill:none;stroke:#fff;stroke-miterlimit:10;stroke-width:2px"></path><polyline points="28.009 23.498 30.146 25.636 28.009 27.773" style="fill:none;stroke:#fff;stroke-linecap:round;stroke-linejoin:round;stroke-width:2px"></polyline><polyline points="20.478 27.773 18.341 25.636 20.478 23.498" style="fill:none;stroke:#fff;stroke-linecap:round;stroke-linejoin:round;stroke-width:2px"></polyline><line x1="24.65" y1="22.187" x2="23.836" y2="29.085" style="fill:none;stroke:#fff;stroke-linecap:round;stroke-miterlimit:10;stroke-width:2px"></line></svg>