<svg xmlns="http://www.w3.org/2000/svg" xmlns:xlink="http://www.w3.org/1999/xlink" id="Layer_1" data-name="Layer 1" width="48" height="48" viewBox="0 0 48 48"><defs><linearGradient id="linear-gradient" x1="26.12" y1="15.501" x2="-6.185" y2="79.069" gradientUnits="userSpaceOnUse"><stop offset="0" stop-color="#fff"></stop><stop offset="1"></stop></linearGradient></defs><path id="Base" d="M20.24,0h7.52C34.3,0,37.041.754,39.689,2.17A14.768,14.768,0,0,1,45.83,8.311C47.246,10.959,48,13.7,48,20.24v7.52c0,6.538-.754,9.281-2.17,11.929a14.768,14.768,0,0,1-6.141,6.141C37.041,47.246,34.3,48,27.76,48H20.24c-6.538,0-9.281-.754-11.929-2.17A14.768,14.768,0,0,1,2.17,39.689C.754,37.041,0,34.3,0,27.76V20.24C0,13.7.754,10.959,2.17,8.311A14.768,14.768,0,0,1,8.311,2.17C10.959.754,13.7,0,20.24,0Z" style="fill: #7292f7;fill-rule: evenodd"></path><path d="M266,149.411H-184v-306H266Zm-.879-.877V-155.713H-183.121V148.534Z"></path><g><g><polygon points="35.272 16.556 35.272 29.666 23.922 36.216 13.592 30.296 12.502 29.666 12.502 28.526 13.592 29.146 23.922 35.056 34.272 29.086 34.272 17.136 23.922 11.156 13.592 17.126 13.572 17.136 13.572 22.946 12.572 22.386 12.572 16.556 23.922 9.996 35.272 16.556" style="fill: #fff"></polygon><polygon points="15.672 22.976 15.672 24.136 14.582 23.516 13.572 22.946 12.572 22.386 12.572 21.236 13.572 21.796 14.582 22.366 15.672 22.976" style="fill: #fff"></polygon></g><path d="M29.692,20.126v5.96a.594.594,0,0,1-.31.53l-5.16,2.98a.605.605,0,0,1-.61,0l-5.16-2.98a.614.614,0,0,1-.31-.53v-5.96a.727.727,0,0,1,.07-.29.689.689,0,0,1,.24-.24l5.16-2.98a.605.605,0,0,1,.61,0l5.16,2.98a.556.556,0,0,1,.24.24A.592.592,0,0,1,29.692,20.126Z" style="fill: #fff"></path><path d="M29.622,19.836a.577.577,0,0,1-.24.25l-5.16,2.98a.605.605,0,0,1-.61,0l-5.16-2.98a.718.718,0,0,1-.24-.25.689.689,0,0,1,.24-.24l5.16-2.98a.605.605,0,0,1,.61,0l5.16,2.98A.556.556,0,0,1,29.622,19.836Z" style="fill: url(#linear-gradient)"></path></g></svg>