<svg xmlns="http://www.w3.org/2000/svg" id="Layer_1" data-name="Layer 1" width="48" height="48" viewBox="0 0 48 48"><path id="Base" d="M20.24,0h7.52C34.3,0,37.041.754,39.689,2.17A14.768,14.768,0,0,1,45.83,8.311C47.246,10.959,48,13.7,48,20.24v7.52c0,6.538-.754,9.281-2.17,11.929a14.768,14.768,0,0,1-6.141,6.141C37.041,47.246,34.3,48,27.76,48H20.24c-6.538,0-9.281-.754-11.929-2.17A14.768,14.768,0,0,1,2.17,39.689C.754,37.041,0,34.3,0,27.76V20.24C0,13.7.754,10.959,2.17,8.311A14.768,14.768,0,0,1,8.311,2.17C10.959.754,13.7,0,20.24,0Z" style="fill: #7fbef9;fill-rule: evenodd"></path><path d="M37.586,30.833a1.9,1.9,0,0,0-.874-1.823,1.522,1.522,0,0,0-.421-.21,5.639,5.639,0,0,0,.12-1.16V20.36a5.458,5.458,0,0,0-.07-.9,1.576,1.576,0,0,0,.35-.16,2,2,0,0,0-1.98-3.48,1.732,1.732,0,0,0-.31.22,4.5,4.5,0,0,0-.84-.61l-6.3-3.64a5.153,5.153,0,0,0-.89-.42,1.64,1.64,0,0,0,.038-.454,1.927,1.927,0,0,0-1.027-1.681A2.016,2.016,0,0,0,22.411,11a1.5,1.5,0,0,0,.04.37,5.153,5.153,0,0,0-.89.42l-6.3,3.64a5.824,5.824,0,0,0-.66.44,2.044,2.044,0,0,0-.33-.25,2.016,2.016,0,0,0-3.036,1.545,1.9,1.9,0,0,0,.873,1.824,1.5,1.5,0,0,0,.423.211,5.639,5.639,0,0,0-.12,1.16v7.28a5.458,5.458,0,0,0,.07.9,1.6,1.6,0,0,0-.351.16,2,2,0,1,0,1.981,3.48,1.732,1.732,0,0,0,.31-.22,4.5,4.5,0,0,0,.84.61l6.3,3.64a5.1,5.1,0,0,0,.89.41,2.036,2.036,0,0,0-.032.615,1.8,1.8,0,0,0,.843,1.435A2.027,2.027,0,0,0,26.411,37a1.581,1.581,0,0,0-.04-.38,5.1,5.1,0,0,0,.89-.41l6.3-3.64a5.824,5.824,0,0,0,.66-.44,2,2,0,0,0,3.365-1.3ZM35.411,27.64a4.569,4.569,0,0,1-.12,1.05,1.963,1.963,0,0,0-1.43.95,1.99,1.99,0,0,0-.19,1.64,4.449,4.449,0,0,1-.61.43l-6.3,3.63a4.385,4.385,0,0,1-.83.37,1.982,1.982,0,0,0-3.04,0,4.385,4.385,0,0,1-.83-.37l-6.3-3.63a3.938,3.938,0,0,1-.77-.57,2,2,0,0,0-1.5-2.66,4.777,4.777,0,0,1-.08-.84V20.36a4.569,4.569,0,0,1,.12-1.05,1.963,1.963,0,0,0,1.43-.95,1.994,1.994,0,0,0,.19-1.64,4.449,4.449,0,0,1,.61-.43l6.3-3.63a4.385,4.385,0,0,1,.83-.37,1.982,1.982,0,0,0,3.04,0,4.385,4.385,0,0,1,.83.37l6.3,3.63a3.938,3.938,0,0,1,.77.57,2,2,0,0,0,1.5,2.66,4.875,4.875,0,0,1,.08.84Zm-4-5.724h-14v-3h14Zm-1,7h-12v-6h12Z" style="fill: #fff"></path></svg>