<svg xmlns="http://www.w3.org/2000/svg" id="Layer_1" data-name="Layer 1" width="48" height="48" viewBox="0 0 48 48"><path id="Base" d="M20.24,0h7.52C34.3,0,37.041.754,39.689,2.17A14.768,14.768,0,0,1,45.83,8.311C47.246,10.959,48,13.7,48,20.24v7.52c0,6.538-.754,9.281-2.17,11.929a14.768,14.768,0,0,1-6.141,6.141C37.041,47.246,34.3,48,27.76,48H20.24c-6.538,0-9.281-.754-11.929-2.17A14.768,14.768,0,0,1,2.17,39.689C.754,37.041,0,34.3,0,27.76V20.24C0,13.7.754,10.959,2.17,8.311A14.768,14.768,0,0,1,8.311,2.17C10.959.754,13.7,0,20.24,0Z" style="fill: #7292f7;fill-rule: evenodd"></path><g><polygon points="26.389 21.71 16.174 21.71 19.712 26.39 25.374 26.39 26.389 21.71" style="fill: none;stroke: #fff;stroke-linecap: round;stroke-linejoin: round;stroke-width: 2px"></polygon><polyline points="31.826 18.313 29.658 18.884 27.261 29.613 20.869 29.613" style="fill: none;stroke: #fff;stroke-linecap: round;stroke-linejoin: round;stroke-width: 2px"></polyline><circle cx="20.109" cy="29.848" r="1.839" style="fill: #fff"></circle><circle cx="27.392" cy="29.778" r="1.839" style="fill: #fff"></circle></g><g><path d="M9.74,20.631a14.67,14.67,0,0,1,9.94-10.26" style="fill: none;stroke: #fff;stroke-linecap: round;stroke-linejoin: round"></path><path d="M28.27,38.391a14.658,14.658,0,0,0,9.47-9.18" style="fill: none;stroke: #fff;stroke-linecap: round;stroke-linejoin: round"></path><path d="M10.06,29.211a14.671,14.671,0,0,0,9.62,9.23" style="fill: none;stroke: #fff;stroke-linecap: round;stroke-linejoin: round"></path><path d="M28.27,10.421a14.657,14.657,0,0,1,9.79,10.21" style="fill: none;stroke: #fff;stroke-linecap: round;stroke-linejoin: round"></path><circle cx="23.953" cy="8.816" r="2" style="fill: #fff"></circle><circle cx="23.953" cy="39.184" r="2" style="fill: #fff"></circle><g><circle cx="38.732" cy="24.547" r="2" style="fill: #fff"></circle><circle cx="9.268" cy="24.547" r="2" style="fill: #fff"></circle></g></g></svg>