<svg xmlns="http://www.w3.org/2000/svg" id="Layer_1" data-name="Layer 1" width="48" height="48" viewBox="0 0 48 48"><path id="Base" d="M20.24,0h7.52C34.3,0,37.041.754,39.689,2.17A14.768,14.768,0,0,1,45.83,8.311C47.246,10.959,48,13.7,48,20.24v7.52c0,6.538-.754,9.281-2.17,11.929a14.768,14.768,0,0,1-6.141,6.141C37.041,47.246,34.3,48,27.76,48H20.24c-6.538,0-9.281-.754-11.929-2.17A14.768,14.768,0,0,1,2.17,39.689C.754,37.041,0,34.3,0,27.76V20.24C0,13.7.754,10.959,2.17,8.311A14.768,14.768,0,0,1,8.311,2.17C10.959.754,13.7,0,20.24,0Z" style="fill: #f9b65d;fill-rule: evenodd"></path><g><g><line x1="16.929" y1="14.571" x2="16.929" y2="16.286" style="fill: none;stroke: #fff;stroke-linecap: round;stroke-miterlimit: 10;stroke-width: 2px"></line><line x1="22.929" y1="14.571" x2="22.929" y2="16.286" style="fill: none;stroke: #fff;stroke-linecap: round;stroke-miterlimit: 10;stroke-width: 2px"></line><line x1="28.071" y1="14.571" x2="28.071" y2="16.286" style="fill: none;stroke: #fff;stroke-linecap: round;stroke-miterlimit: 10;stroke-width: 2px"></line></g><g><rect x="15.643" y="18.857" width="2.571" height="2.571" rx="1.286" style="fill: #fff"></rect><rect x="20.786" y="18.857" width="2.571" height="2.571" rx="1.286" style="fill: #fff"></rect><rect x="25.929" y="18.857" width="2.571" height="2.571" rx="1.286" style="fill: #fff"></rect></g><g><rect x="15.643" y="23.143" width="2.571" height="2.571" rx="1.286" style="fill: #fff"></rect><rect x="20.786" y="23.143" width="2.571" height="2.571" rx="1.286" style="fill: #fff"></rect></g><g><rect x="15.643" y="27.429" width="2.571" height="2.571" rx="1.286" style="fill: #fff"></rect><rect x="20.786" y="27.429" width="2.571" height="2.571" rx="1.286" style="fill: #fff"></rect></g><polyline points="37.5 22.846 31.335 29.011 28.071 25.747" style="fill: none;stroke: #fff;stroke-linecap: round;stroke-linejoin: round;stroke-width: 2px"></polyline><path d="M34.5,30.857v.725a2.093,2.093,0,0,1-2.266,1.847H12.766A2.093,2.093,0,0,1,10.5,31.582V17.276a2.093,2.093,0,0,1,2.266-1.847H32.234A2.093,2.093,0,0,1,34.5,17.276v4.153" style="fill: none;stroke: #fff;stroke-linecap: round;stroke-miterlimit: 10;stroke-width: 2px"></path></g></svg>