<svg xmlns="http://www.w3.org/2000/svg" id="Layer_1" data-name="Layer 1" width="48" height="48" viewBox="0 0 48 48"><path id="Base" d="M20.24,0h7.52C34.3,0,37.041.754,39.689,2.17A14.768,14.768,0,0,1,45.83,8.311C47.246,10.959,48,13.7,48,20.24v7.52c0,6.538-.754,9.281-2.17,11.929a14.768,14.768,0,0,1-6.141,6.141C37.041,47.246,34.3,48,27.76,48H20.24c-6.538,0-9.281-.754-11.929-2.17A14.768,14.768,0,0,1,2.17,39.689C.754,37.041,0,34.3,0,27.76V20.24C0,13.7.754,10.959,2.17,8.311A14.768,14.768,0,0,1,8.311,2.17C10.959.754,13.7,0,20.24,0Z" style="fill: #ed736e;fill-rule: evenodd"></path><path d="M32.226,23.114v3.71h.007v1.463H28.809a4.749,4.749,0,0,1,.3,1.683A4.987,4.987,0,0,1,19.443,31.7H16.231V30.233h.007l-.007-3.819a2.91,2.91,0,1,1,1.463.058l.008,3.761h1.441a1.542,1.542,0,0,1-.015-.263A4.986,4.986,0,0,1,23.6,25.009V18.175a2.912,2.912,0,1,1,1.464,0v6.9a4.925,4.925,0,0,1,2.926,1.749h2.774V23.333a2.911,2.911,0,1,1,1.463-.219Z" style="fill: #fff"></path></svg>