<svg xmlns="http://www.w3.org/2000/svg" width="48" height="48" viewBox="0 0 48 48">
  <g id="Layer_2" data-name="Layer 2">
    <g id="Layer_1-2" data-name="Layer 1">
      <g>
        <path id="Base" d="M20.2,0h7.6c6.5,0,9.2.8,11.9,2.2a14.9,14.9,0,0,1,6.1,6.1C47.2,11,48,13.7,48,20.2v7.6c0,6.5-.8,9.2-2.2,11.9a14.9,14.9,0,0,1-6.1,6.1C37,47.2,34.3,48,27.8,48H20.2c-6.5,0-9.2-.8-11.9-2.2a14.9,14.9,0,0,1-6.1-6.1C.8,37,0,34.3,0,27.8V20.2C0,13.7.8,11,2.2,8.3A14.9,14.9,0,0,1,8.3,2.2C11,.8,13.7,0,20.2,0Z" style="fill: #a68ace;fill-rule: evenodd"/>
        <g>
          <path d="M30.9,17.9a6,6,0,1,1-6-6A6,6,0,0,1,30.9,17.9Zm4,8.5a15,15,0,0,0-8.5-2.6H24.6a14.9,14.9,0,0,0-12.4,10" style="fill: none;stroke: #fff;stroke-linecap: round;stroke-miterlimit: 10;stroke-width: 2px"/>
          <polygon points="29.1 29.5 30.7 26.2 32.2 29.5 35.8 30 33.2 32.5 33.8 36.1 30.6 34.4 27.4 36.1 28 32.5 25.5 30 29.1 29.5" style="fill: #fff"/>
        </g>
      </g>
    </g>
  </g>
</svg>
