<svg id="Layer_1" data-name="Layer 1" xmlns="http://www.w3.org/2000/svg" width="48" height="48" viewBox="0 0 48 48"><path id="Base" d="M20.24,0h7.52C34.3,0,37.041.754,39.689,2.17A14.768,14.768,0,0,1,45.83,8.311C47.246,10.959,48,13.7,48,20.24v7.52c0,6.538-.754,9.281-2.17,11.929a14.768,14.768,0,0,1-6.141,6.141C37.041,47.246,34.3,48,27.76,48H20.24c-6.538,0-9.281-.754-11.929-2.17A14.768,14.768,0,0,1,2.17,39.689C.754,37.041,0,34.3,0,27.76V20.24C0,13.7.754,10.959,2.17,8.311A14.768,14.768,0,0,1,8.311,2.17C10.959.754,13.7,0,20.24,0Z" style="fill:#80bef9;fill-rule:evenodd"/><path d="M29.467,30.577H19.353V20.463H29.467ZM24.7,20.463v-8.5h-3.15M30,24.728h6.633V18.759m-22.8,5.886h4.643m5.886,6.8v4.891H32.9" style="fill:none;stroke:#fff;stroke-miterlimit:10"/><rect x="8.805" y="22.102" width="5.251" height="5.251" style="fill:#fff"/><rect x="33.944" y="15.571" width="5.251" height="5.251" style="fill:#fff"/><rect x="17.114" y="9.188" width="5.251" height="5.251" style="fill:#fff"/><rect x="30.213" y="33.562" width="5.251" height="5.251" style="fill:#fff"/></svg>