<svg xmlns="http://www.w3.org/2000/svg" id="Layer_1" data-name="Layer 1" width="48" height="48" viewBox="0 0 48 48"><path id="Base" d="M20.24,0h7.52C34.3,0,37.041.754,39.689,2.17A14.768,14.768,0,0,1,45.83,8.311C47.246,10.959,48,13.7,48,20.24v7.52c0,6.538-.754,9.281-2.17,11.929a14.768,14.768,0,0,1-6.141,6.141C37.041,47.246,34.3,48,27.76,48H20.24c-6.538,0-9.281-.754-11.929-2.17A14.768,14.768,0,0,1,2.17,39.689C.754,37.041,0,34.3,0,27.76V20.24C0,13.7.754,10.959,2.17,8.311A14.768,14.768,0,0,1,8.311,2.17C10.959.754,13.7,0,20.24,0Z" style="fill:#80bef9;fill-rule:evenodd"></path><rect x="12.391" y="12.389" width="10.93" height="10.93" style="fill:#f25022"></rect><rect x="12.391" y="24.681" width="10.93" height="10.93" style="fill:#01a4ef"></rect><rect x="24.68" y="12.389" width="10.93" height="10.93" style="fill:#7fba00"></rect><rect x="24.68" y="24.681" width="10.93" height="10.93" style="fill:#feb800"></rect></svg>