<svg xmlns="http://www.w3.org/2000/svg" id="Layer_1" data-name="Layer 1" width="48" height="48" viewBox="0 0 48 48"><path id="Base" d="M20.24,0h7.52C34.3,0,37.041.754,39.689,2.17A14.768,14.768,0,0,1,45.83,8.311C47.246,10.959,48,13.7,48,20.24v7.52c0,6.538-.754,9.281-2.17,11.929a14.768,14.768,0,0,1-6.141,6.141C37.041,47.246,34.3,48,27.76,48H20.24c-6.538,0-9.281-.754-11.929-2.17A14.768,14.768,0,0,1,2.17,39.689C.754,37.041,0,34.3,0,27.76V20.24C0,13.7.754,10.959,2.17,8.311A14.768,14.768,0,0,1,8.311,2.17C10.959.754,13.7,0,20.24,0Z" style="fill:#7292f7;fill-rule:evenodd"></path><path d="M19.2,10.235c.528.527,1.055,1.058,1.6,1.608l.823.829a1.5,1.5,0,0,0,1.064.443q.065,0,.129-.006a1.5,1.5,0,0,0,1.1-.634c.483-.691.817-1,1.083-1a.662.662,0,0,1,.107.009,1.785,1.785,0,0,1,.886.435.6.6,0,0,1,.227.509A2.314,2.314,0,0,1,25.15,13.8a1.5,1.5,0,0,0-.156,2.285l.479.468c.375.366.745.729,1.125,1.08.115.107.232.213.348.318L25.3,19.605a3.732,3.732,0,0,0-2.349-.817,4.548,4.548,0,0,0-1.132.15,3.89,3.89,0,0,0-2.939,3.2,3.846,3.846,0,0,0,.788,3.234l-.632.617-1.088,1.062-.081-.085c-.873-.917-1.766-1.854-2.673-2.777-1.527-1.552-3.249-3.3-4.978-4.972.65-.589,1.264-1.2,1.91-1.838.313-.311.632-.627.962-.947a1.5,1.5,0,0,0-.287-2.37c-1.178-.691-1.053-1.117-.942-1.492a.929.929,0,0,1,.856-.729,1.411,1.411,0,0,1,.224-.019c.189,0,.539,0,1,.9a1.506,1.506,0,0,0,1.1.792,1.629,1.629,0,0,0,.23.017,1.5,1.5,0,0,0,1.06-.438l.946-.945c.649-.649,1.282-1.282,1.916-1.911M29.958,20.928c.2.232.4.462.625.685,2.3,2.328,4.748,4.8,7.219,7.211-.668.624-1.3,1.274-1.923,1.9-.171.174-.341.348-.513.522a1.739,1.739,0,0,0-.492-.443c-.087-.053-.177-.115-.268-.177a3.277,3.277,0,0,0-1.838-.728,2.083,2.083,0,0,0-.388.037A3.3,3.3,0,0,0,30,32.173a3.017,3.017,0,0,0,.448,2.138c.061.119.124.237.17.352a1.576,1.576,0,0,0,.608.735q-.36.358-.723.715c-.552.545-1.119,1.105-1.676,1.677-.5-.529-1-1.046-1.531-1.587-.283-.289-.569-.583-.861-.884a1.5,1.5,0,0,0-2.37.28c-.568.964-.963.964-1.131.964a1.512,1.512,0,0,1-.38-.056.857.857,0,0,1-.716-.758c-.072-.371-.154-.792.861-1.3a1.5,1.5,0,0,0,.36-2.424l-1.472-1.405-.664-.634.176-.176c.952-.948,1.866-1.859,2.777-2.774a2.685,2.685,0,0,0,1.056-2.084c.051,0,.1.006.155.006a2.827,2.827,0,0,0,1.958-1.095c.894-.894,1.785-1.791,2.748-2.761l.169-.17M19.2,8.354c-.23,0-.46.222-.907.666-.988.982-1.973,1.968-3.016,3.009a2.614,2.614,0,0,0-2.336-1.7,3.022,3.022,0,0,0-.454.036,2.419,2.419,0,0,0-2.064,1.786c-.43,1.452.3,2.438,1.622,3.212-1.1,1.065-2.073,2.083-3.127,3.012-.731.644-.619,1.085.03,1.709,1.758,1.688,3.469,3.426,5.179,5.164,1.3,1.319,2.563,2.668,3.786,3.944L21.92,25.27A2.536,2.536,0,0,1,20.355,22.4,2.393,2.393,0,0,1,22.2,20.39a3.012,3.012,0,0,1,.754-.1,2.573,2.573,0,0,1,2.265,1.529l3.921-3.942c-.466-.411-1-.867-1.518-1.345-.532-.493-1.045-1.008-1.579-1.525,1.771-1.3,2.183-2.92,1.032-4.121a3.244,3.244,0,0,0-1.732-.879,2.174,2.174,0,0,0-.344-.028,3,3,0,0,0-2.312,1.638c-.9-.907-1.733-1.749-2.57-2.585-.453-.451-.684-.676-.916-.676ZM30.062,18.7c-1.505,1.514-2.79,2.812-4.082,4.1-.431.432-.686.656-.9.656-.237,0-.418-.285-.732-.877a4.388,4.388,0,0,0-.388-.661,1.39,1.39,0,0,0-1.1-.565,1.489,1.489,0,0,0-.943.357c-.985.8-.715,2,.6,2.66,1.149.576,1.177.711.287,1.606-1.3,1.311-2.618,2.614-4.038,4.031,1.1,1.053,2.138,2.041,3.249,3.1a2.543,2.543,0,0,0-1.658,2.929,2.344,2.344,0,0,0,1.806,1.923,3.024,3.024,0,0,0,.762.105,2.844,2.844,0,0,0,2.423-1.7c.981,1.014,1.907,1.939,2.793,2.9a.949.949,0,0,0,.663.383,1.01,1.01,0,0,0,.688-.394c.951-1,1.946-1.955,2.922-2.929,1.22-1.217,1.22-1.217-.255-2.115-.055-.033-.138-.056-.158-.1-.213-.529-.662-1.122-.552-1.579a1.836,1.836,0,0,1,1.215-1.113.544.544,0,0,1,.1-.009c.4,0,.9.43,1.33.688.141.086.19.326.279.5.293.562.474.829.7.829.2,0,.427-.189.793-.551,1.071-1.061,2.1-2.17,3.21-3.185.7-.641.647-1.07-.012-1.711-2.5-2.44-4.966-4.923-7.423-7.41-.559-.565-1.036-1.211-1.588-1.864Z" style="fill:#fff"></path></svg>