<svg xmlns="http://www.w3.org/2000/svg" id="Layer_1" data-name="Layer 1" width="48" height="48" viewBox="0 0 48 48"><path id="Base" d="M20.24,0h7.52C34.3,0,37.041.754,39.689,2.17A14.768,14.768,0,0,1,45.83,8.311C47.246,10.959,48,13.7,48,20.24v7.52c0,6.538-.754,9.281-2.17,11.929a14.768,14.768,0,0,1-6.141,6.141C37.041,47.246,34.3,48,27.76,48H20.24c-6.538,0-9.281-.754-11.929-2.17A14.768,14.768,0,0,1,2.17,39.689C.754,37.041,0,34.3,0,27.76V20.24C0,13.7.754,10.959,2.17,8.311A14.768,14.768,0,0,1,8.311,2.17C10.959.754,13.7,0,20.24,0Z" style="fill: #f6c378;fill-rule: evenodd"></path><path d="M33.519,30.906H28.728c-1.83,0-3.586-1.384-4.88-3.848l-3.262-6.21C19.291,18.384,17.536,17,15.706,17H12.462m8.766,11.484a5.123,5.123,0,0,1-3.979,2.425H12.466M33.517,17H30.279c-1.833,0-3.587,1.379-4.888,3.838l-.846,1.628M32.5,20.25l3.04-3.131-3.079-3.171m.039,20.1,3.04-3.131L32.459,27.75" style="fill: none;stroke: #fff;stroke-linecap: round;stroke-miterlimit: 10;stroke-width: 2px"></path></svg>