<svg xmlns="http://www.w3.org/2000/svg" id="Layer_1" data-name="Layer 1" width="48" height="48" viewBox="0 0 48 48"><path id="Base" d="M20.24,0h7.52C34.3,0,37.041.754,39.689,2.17A14.768,14.768,0,0,1,45.83,8.311C47.246,10.959,48,13.7,48,20.24v7.52c0,6.538-.754,9.281-2.17,11.929a14.768,14.768,0,0,1-6.141,6.141C37.041,47.246,34.3,48,27.76,48H20.24c-6.538,0-9.281-.754-11.929-2.17A14.768,14.768,0,0,1,2.17,39.689C.754,37.041,0,34.3,0,27.76V20.24C0,13.7.754,10.959,2.17,8.311A14.768,14.768,0,0,1,8.311,2.17C10.959.754,13.7,0,20.24,0Z" style="fill:#7292f7;fill-rule:evenodd"></path><path d="M33.924,26.35a10.457,10.457,0,1,0-19.848,0" style="fill:none;stroke:#fff;stroke-miterlimit:10;stroke-width:2px"></path><path d="M12.842,20.13h2.584a0,0,0,0,1,0,0v8.837a0,0,0,0,1,0,0H12.842a2.558,2.558,0,0,1-2.558-2.558V22.688A2.558,2.558,0,0,1,12.842,20.13Z" style="fill:#fff"></path><path d="M35.132,20.13h2.584a0,0,0,0,1,0,0v8.837a0,0,0,0,1,0,0H35.132a2.558,2.558,0,0,1-2.558-2.558V22.688A2.558,2.558,0,0,1,35.132,20.13Z" transform="translate(70.29 49.097) rotate(-180)" style="fill:#fff"></path><path d="M33.158,28.467a5.576,5.576,0,0,1-5.25,5.349" style="fill:none;stroke:#fff;stroke-miterlimit:10"></path><rect x="22.69" y="32.132" width="5.449" height="3.269" rx="1.563" style="fill:#fff"></rect></svg>