<svg id="Layer_1" data-name="Layer 1" xmlns="http://www.w3.org/2000/svg" width="48" height="48" viewBox="0 0 48 48"><path id="Base" d="M20.24,0h7.52C34.3,0,37.041.754,39.689,2.17A14.768,14.768,0,0,1,45.83,8.311C47.246,10.959,48,13.7,48,20.24v7.52c0,6.538-.754,9.281-2.17,11.929a14.768,14.768,0,0,1-6.141,6.141C37.041,47.246,34.3,48,27.76,48H20.24c-6.538,0-9.281-.754-11.929-2.17A14.768,14.768,0,0,1,2.17,39.689C.754,37.041,0,34.3,0,27.76V20.24C0,13.7.754,10.959,2.17,8.311A14.768,14.768,0,0,1,8.311,2.17C10.959.754,13.7,0,20.24,0Z" style="fill:#7292f7;fill-rule:evenodd"/><path d="M17.51,13.972A12.011,12.011,0,0,1,21.5,12.347M12.114,26.488a12.012,12.012,0,0,0,1.677,4.21m12.686,5.343a12,12,0,0,0,4.264-1.794m3.325-16.781a12.035,12.035,0,0,1,1.739,4.042m-1.6,9.19a12.012,12.012,0,0,0,1.677-4.21M17.259,34.247a12,12,0,0,0,4.264,1.794M12.2,21.508a12.035,12.035,0,0,1,1.739-4.042M26.5,12.347a12.011,12.011,0,0,1,3.987,1.625M21.5,12.347l.248-3.655h4.51l.248,3.655m-4.98,23.694.222,3.267h4.51l.222-3.267M30.49,13.972l2.741-2.391,3.188,3.189-2.353,2.7M17.259,34.247l-2.49,2.172L11.581,33.23l2.21-2.532m22.014-9.19,3.5.238v4.509l-3.422.233M12.2,21.508l-3.5.238v4.509l3.422.233m18.627,7.759,2.49,2.172,3.188-3.189L34.209,30.7M17.51,13.972l-2.741-2.391L11.581,14.77l2.353,2.7" style="fill:none;stroke:#fff;stroke-linecap:round;stroke-linejoin:round"/><path d="M21.871,29.907a6.178,6.178,0,0,1,0-11.6m4.258,0a6.178,6.178,0,0,1,0,11.6m-4-9.235.587-2.72-3.359-.726m6.729,10.438-.276,2.769,3.42.341" style="fill:none;stroke:#fff;stroke-linecap:round;stroke-linejoin:round;stroke-width:2px"/></svg>