<svg xmlns="http://www.w3.org/2000/svg" id="Layer_1" data-name="Layer 1" width="48" height="48" viewBox="0 0 48 48"><path id="Base" d="M20.24,0h7.52C34.3,0,37.041.754,39.689,2.17A14.768,14.768,0,0,1,45.83,8.311C47.246,10.959,48,13.7,48,20.24v7.52c0,6.538-.754,9.281-2.17,11.929a14.768,14.768,0,0,1-6.141,6.141C37.041,47.246,34.3,48,27.76,48H20.24c-6.538,0-9.281-.754-11.929-2.17A14.768,14.768,0,0,1,2.17,39.689C.754,37.041,0,34.3,0,27.76V20.24C0,13.7.754,10.959,2.17,8.311A14.768,14.768,0,0,1,8.311,2.17C10.959.754,13.7,0,20.24,0Z" style="fill: #f6c378;fill-rule: evenodd"></path><path d="M24,22.655a1.345,1.345,0,1,0,1.35,1.35A1.342,1.342,0,0,0,24,22.655Zm0,0a1.345,1.345,0,1,0,1.35,1.35A1.342,1.342,0,0,0,24,22.655Zm10.36-3.76a3.288,3.288,0,0,0-3.28-3.28H16.925a3.3,3.3,0,0,0-3.28,3.28v10.61a3.3,3.3,0,0,0,3.28,3.29h14.15a2.76,2.76,0,0,0,.57-.06l1.43,1.43a.749.749,0,0,0,1.28-.53v-4a.06.06,0,0,0-.01-.04.277.277,0,0,0,.01-.09Zm-6.19,5.63a.557.557,0,0,1,.3.51.589.589,0,0,1-.6.6h-.01a.594.594,0,0,0-.51.9.586.586,0,0,1,.09.31.6.6,0,0,1-.91.5.542.542,0,0,0-.3-.08.6.6,0,0,0-.6.6v.01a.592.592,0,0,1-1.11.29.6.6,0,0,0-.52-.31.613.613,0,0,0-.52.31.567.567,0,0,1-.51.31.591.591,0,0,1-.6-.61v-.01a.594.594,0,0,0-.9-.51.613.613,0,0,1-.31.09.59.59,0,0,1-.5-.9.575.575,0,0,0,.08-.31.587.587,0,0,0-.6-.59h-.01a.592.592,0,0,1-.29-1.11.6.6,0,0,0,.3-.52.58.58,0,0,0-.3-.52.589.589,0,0,1-.31-.51.6.6,0,0,1,.61-.61h.01a.588.588,0,0,0,.51-.89.641.641,0,0,1-.09-.31.6.6,0,0,1,.9-.51.586.586,0,0,0,.31.09.6.6,0,0,0,.59-.61v-.01a.593.593,0,0,1,1.11-.29.592.592,0,0,0,.52.31.581.581,0,0,0,.52-.31.592.592,0,0,1,1.11.3v.01a.6.6,0,0,0,.9.51.641.641,0,0,1,.31-.09.6.6,0,0,1,.51.91.553.553,0,0,0-.09.3.6.6,0,0,0,.61.59h.01a.6.6,0,0,1,.29,1.12.571.571,0,0,0-.31.52A.592.592,0,0,0,28.165,24.525ZM24,22.655a1.345,1.345,0,1,0,1.35,1.35A1.342,1.342,0,0,0,24,22.655Z" style="fill: #fff"></path></svg>