<svg id="Layer_1" data-name="Layer 1" xmlns="http://www.w3.org/2000/svg" width="48" height="48" viewBox="0 0 48 48"><path id="Base" d="M20.24,0h7.52C34.3,0,37.041.754,39.689,2.17A14.768,14.768,0,0,1,45.83,8.311C47.246,10.959,48,13.7,48,20.24v7.52c0,6.538-.754,9.281-2.17,11.929a14.768,14.768,0,0,1-6.141,6.141C37.041,47.246,34.3,48,27.76,48H20.24c-6.538,0-9.281-.754-11.929-2.17A14.768,14.768,0,0,1,2.17,39.689C.754,37.041,0,34.3,0,27.76V20.24C0,13.7.754,10.959,2.17,8.311A14.768,14.768,0,0,1,8.311,2.17C10.959.754,13.7,0,20.24,0Z" style="fill:#80bef9;fill-rule:evenodd"/><path d="M21.18,30.046a3.929,3.929,0,1,1-3.929-3.928A3.928,3.928,0,0,1,21.18,30.046ZM23.753,35.6a9.781,9.781,0,0,0-5.546-1.709,1.254,1.254,0,0,0-.15.006.011.011,0,0,0-.014,0,8.569,8.569,0,0,0-1.021.066h-.006A9.835,9.835,0,0,0,8.91,40.508" style="fill:none;stroke:#fff;stroke-linecap:round;stroke-miterlimit:10;stroke-width:2px"/><polyline points="27.837 34.475 35.133 34.475 35.133 11.435 16.333 11.435 16.333 21.668" style="fill:none;stroke:#fff;stroke-linecap:round;stroke-miterlimit:10;stroke-width:2px"/><line x1="22.756" y1="23.64" x2="22.756" y2="14.994" style="fill:none;stroke:#fff;stroke-linecap:round;stroke-miterlimit:10;stroke-width:2px"/><line x1="28.25" y1="23.114" x2="28.25" y2="19.021" style="fill:none;stroke:#fff;stroke-linecap:round;stroke-miterlimit:10;stroke-width:2px"/></svg>