<svg xmlns="http://www.w3.org/2000/svg" id="Layer_1" data-name="Layer 1" width="48" height="48" viewBox="0 0 48 48"><path id="Base" d="M20.24,0h7.52C34.3,0,37.041.754,39.689,2.17A14.768,14.768,0,0,1,45.83,8.311C47.246,10.959,48,13.7,48,20.24v7.52c0,6.538-.754,9.281-2.17,11.929a14.768,14.768,0,0,1-6.141,6.141C37.041,47.246,34.3,48,27.76,48H20.24c-6.538,0-9.281-.754-11.929-2.17A14.768,14.768,0,0,1,2.17,39.689C.754,37.041,0,34.3,0,27.76V20.24C0,13.7.754,10.959,2.17,8.311A14.768,14.768,0,0,1,8.311,2.17C10.959.754,13.7,0,20.24,0Z" style="fill: #f9b65d;fill-rule: evenodd"></path><g><circle cx="24.774" cy="17.35" r="6" style="fill: none;stroke: #fff;stroke-linecap: round;stroke-miterlimit: 10;stroke-width: 2px"></circle><path d="M34.7,25.829a14.945,14.945,0,0,0-8.47-2.61,1.77,1.77,0,0,0-.23.01.014.014,0,0,0-.02,0,13.329,13.329,0,0,0-1.56.1h-.01a15.024,15.024,0,0,0-12.38,10" style="fill: none;stroke: #fff;stroke-linecap: round;stroke-miterlimit: 10;stroke-width: 2px"></path><path d="M32.117,28.546a3.609,3.609,0,0,1,1.2.489m1.118,5.027a3.613,3.613,0,0,0,.5-1.266m-5.6,2.332a3.611,3.611,0,0,0,1.281.54m-2.8-4.369a3.617,3.617,0,0,1,.522-1.214M27.792,32.8a3.632,3.632,0,0,0,.5,1.266m3.813,1.606a3.616,3.616,0,0,0,1.282-.54m1-5.043a3.618,3.618,0,0,1,.523,1.214m-5.5-2.264a3.618,3.618,0,0,1,1.2-.489m0,0,.075-1.1h1.355l.075,1.1m-1.5,7.122.067.982h1.355l.067-.982m-3.77-5.583-.707-.811.958-.958.824.719m5.019,5.027.664.761-.958.958-.748-.653m-5.6-2.332-1.028-.07V31.371l1.053-.072m7.12,1.5,1.029-.07V31.371L34.913,31.3M28.3,34.062l-.664.761.958.958.749-.653m5.051-5.043.707-.811-.958-.958-.824.719" style="fill: none;stroke: #fff;stroke-linecap: round;stroke-linejoin: round"></path></g></svg>