<svg xmlns="http://www.w3.org/2000/svg" id="Layer_1" data-name="Layer 1" width="48" height="48" viewBox="0 0 48 48"><path id="Base" d="M20.24,0h7.52C34.3,0,37.041.754,39.689,2.17A14.768,14.768,0,0,1,45.83,8.311C47.246,10.959,48,13.7,48,20.24v7.52c0,6.538-.754,9.281-2.17,11.929a14.768,14.768,0,0,1-6.141,6.141C37.041,47.246,34.3,48,27.76,48H20.24c-6.538,0-9.281-.754-11.929-2.17A14.768,14.768,0,0,1,2.17,39.689C.754,37.041,0,34.3,0,27.76V20.24C0,13.7.754,10.959,2.17,8.311A14.768,14.768,0,0,1,8.311,2.17C10.959.754,13.7,0,20.24,0Z" style="fill: #f6c378;fill-rule: evenodd"></path><path d="M377.158,149.411h-450v-306h450Zm-.879-.877V-155.713H-71.963V148.534Z"></path><g><polyline points="32.113 21.247 32.112 18.659 22.73 13.086 13.209 18.427 13.081 29.341 22.463 34.914 23.918 33.989" style="fill: none;stroke: #fff;stroke-linecap: round;stroke-linejoin: round"></polyline><polygon points="24.194 25.34 29.594 22.31 34.919 25.471 34.843 31.663 29.443 34.694 24.118 31.532 24.194 25.34" style="fill: none;stroke: #fff;stroke-linecap: round;stroke-linejoin: round"></polygon><circle cx="29.564" cy="28.47" r="1.705" style="fill: #fff"></circle><circle cx="22.524" cy="17.525" r="1.705" style="fill: #fff"></circle><circle cx="16.804" cy="27.095" r="1.705" style="fill: #fff"></circle><polyline points="16.584 26.985 29.564 28.47 22.469 17.36" style="fill: none;stroke: #fff;stroke-miterlimit: 10"></polyline></g></svg>