<svg xmlns="http://www.w3.org/2000/svg" id="Layer_1" data-name="Layer 1" width="48" height="48" viewBox="0 0 48 48"><path id="Base" d="M20.24,0h7.52C34.3,0,37.041.754,39.689,2.17A14.768,14.768,0,0,1,45.83,8.311C47.246,10.959,48,13.7,48,20.24v7.52c0,6.538-.754,9.281-2.17,11.929a14.768,14.768,0,0,1-6.141,6.141C37.041,47.246,34.3,48,27.76,48H20.24c-6.538,0-9.281-.754-11.929-2.17A14.768,14.768,0,0,1,2.17,39.689C.754,37.041,0,34.3,0,27.76V20.24C0,13.7.754,10.959,2.17,8.311A14.768,14.768,0,0,1,8.311,2.17C10.959.754,13.7,0,20.24,0Z" style="fill: #7fbef9;fill-rule: evenodd"></path><path d="M320.568,149.411h-450v-306h450Zm-.879-.877V-155.713H-128.552V148.534Z"></path><g><path d="M28.17,26.675h-.02l-1.77.02,1.77-.02h.02l2.67-.03h.03a6.141,6.141,0,0,0-1.45-12.11h-.33a6.142,6.142,0,0,0-10.42.08h-.1a6.137,6.137,0,0,0-1.01,12.19l2.17-.03,2.19-.02" style="fill: none;stroke: #fff;stroke-linecap: round;stroke-linejoin: round"></path><polyline points="21.92 26.745 19.73 26.775 17.56 26.805 17.5 26.805" style="fill: none;stroke: #fff;stroke-linecap: round;stroke-miterlimit: 10"></polyline><path d="M26.633,31.085h6.35a1.688,1.688,0,0,1,1.69,1.69v1.85a1.688,1.688,0,0,1-1.69,1.69H15.523a1.682,1.682,0,0,1-1.69-1.69v-1.85a1.682,1.682,0,0,1,1.69-1.69h6.65" style="fill: none;stroke: #fff;stroke-linecap: round;stroke-miterlimit: 10"></path><circle cx="24.071" cy="33.381" r="1.5" style="fill: #fff"></circle><circle cx="23.628" cy="15.507" r="1.5" style="fill: #fff"></circle><circle cx="15.986" cy="19.486" r="1.5" style="fill: #fff"></circle><circle cx="31.397" cy="22.202" r="1.5" style="fill: #fff"></circle><circle cx="24.134" cy="21.823" r="2.782" style="fill: #fff"></circle><line x1="23.565" y1="15.318" x2="23.692" y2="22.265" style="fill: none;stroke: #fff;stroke-miterlimit: 10"></line><line x1="15.86" y1="19.486" x2="23.502" y2="22.265" style="fill: none;stroke: #fff;stroke-miterlimit: 10"></line><line x1="24.071" y1="33.634" x2="24.007" y2="22.771" style="fill: none;stroke: #fff;stroke-miterlimit: 10"></line><line x1="31.46" y1="22.013" x2="23.881" y2="22.328" style="fill: none;stroke: #fff;stroke-miterlimit: 10"></line></g></svg>