<svg xmlns="http://www.w3.org/2000/svg" id="Layer_1" data-name="Layer 1" width="48" height="48" viewBox="0 0 48 48"><path id="Base" d="M20.24,0h7.52C34.3,0,37.041.754,39.689,2.17A14.768,14.768,0,0,1,45.83,8.311C47.246,10.959,48,13.7,48,20.24v7.52c0,6.538-.754,9.281-2.17,11.929a14.768,14.768,0,0,1-6.141,6.141C37.041,47.246,34.3,48,27.76,48H20.24c-6.538,0-9.281-.754-11.929-2.17A14.768,14.768,0,0,1,2.17,39.689C.754,37.041,0,34.3,0,27.76V20.24C0,13.7.754,10.959,2.17,8.311A14.768,14.768,0,0,1,8.311,2.17C10.959.754,13.7,0,20.24,0Z" style="fill:#8fb93b;fill-rule:evenodd"></path><path d="M27.221,35.81H20.779a8.614,8.614,0,0,1-8.589-8.589V20.779a8.614,8.614,0,0,1,8.589-8.589h6.442a8.614,8.614,0,0,1,8.589,8.589v6.442A8.614,8.614,0,0,1,27.221,35.81ZM18.358,12.19V8.833m3.761,3.357V8.833m3.762,3.357V8.833m3.761,3.357V8.833M18.358,39.167V35.81m3.761,3.357V35.81m3.762,3.357V35.81m3.761,3.357V35.81M35.81,18.358h3.357M35.81,22.119h3.357M35.81,25.881h3.357M35.81,29.642h3.357M8.833,18.358H12.19M8.833,22.119H12.19M8.833,25.881H12.19M8.833,29.642H12.19m12.918-.662L21.6,19.02,19.48,24.7l-1.6,4.279M23.6,24.7H19.48m9.556-5.681v9.96" style="fill:none;stroke:#fff;stroke-linecap:round;stroke-linejoin:round;stroke-width:2px"></path></svg>