<svg xmlns="http://www.w3.org/2000/svg" id="Layer_1" data-name="Layer 1" width="48" height="48" viewBox="0 0 48 48"><path id="Base" d="M20.24,0h7.52C34.3,0,37.041.754,39.689,2.17A14.768,14.768,0,0,1,45.83,8.311C47.246,10.959,48,13.7,48,20.24v7.52c0,6.538-.754,9.281-2.17,11.929a14.768,14.768,0,0,1-6.141,6.141C37.041,47.246,34.3,48,27.76,48H20.24c-6.538,0-9.281-.754-11.929-2.17A14.768,14.768,0,0,1,2.17,39.689C.754,37.041,0,34.3,0,27.76V20.24C0,13.7.754,10.959,2.17,8.311A14.768,14.768,0,0,1,8.311,2.17C10.959.754,13.7,0,20.24,0Z" style="fill: #ed736e;fill-rule: evenodd"></path><path d="M36.453,13.967V32.623H33.726a2.885,2.885,0,0,0-1.477-.77v-.025a2.446,2.446,0,0,0,1.818-2.322c0-1.2-.871-2.348-2.815-2.348a4.7,4.7,0,0,0-2.575.757l.354.972A3.567,3.567,0,0,1,31,28.243c1.224,0,1.729.7,1.729,1.477,0,1.161-1.237,1.666-2.2,1.666h-.745v1h.745a3.3,3.3,0,0,1,1.287.239H26.178V13.967h6.475c-.467,1.048-1.565,2.184-3.37,3.913l-1.048,1.01v.821h6.286V18.6h-4.43v-.026l.795-.732a12.268,12.268,0,0,0,3.105-3.875Zm-13.427,0H12.741V32.623H23.026Zm-8.456,11.7a2.81,2.81,0,0,1,1.953-2.634l-.016-.045a2.441,2.441,0,0,1-1.559-2.211,2.757,2.757,0,0,1,3.044-2.619c1.906,0,2.861,1.2,2.861,2.422a2.5,2.5,0,0,1-1.62,2.3v.045a2.727,2.727,0,0,1,1.983,2.543c0,1.711-1.468,2.861-3.345,2.861C15.811,28.327,14.57,27.1,14.57,25.663Zm5.3-.061c0-1.2-.833-1.771-2.165-2.149a2.136,2.136,0,0,0-1.771,2.028A1.818,1.818,0,0,0,17.9,27.358,1.781,1.781,0,0,0,19.869,25.6ZM16.2,20.682c0,.984.742,1.514,1.878,1.817a1.939,1.939,0,0,0,1.5-1.787,1.528,1.528,0,0,0-1.664-1.6A1.566,1.566,0,0,0,16.2,20.682Z" style="fill: #fff"></path></svg>