<svg xmlns="http://www.w3.org/2000/svg" id="Layer_1" data-name="Layer 1" width="48" height="48" viewBox="0 0 48 48"><path id="Base" d="M20.24,0h7.52C34.3,0,37.041.754,39.689,2.17A14.768,14.768,0,0,1,45.83,8.311C47.246,10.959,48,13.7,48,20.24v7.52c0,6.538-.754,9.281-2.17,11.929a14.768,14.768,0,0,1-6.141,6.141C37.041,47.246,34.3,48,27.76,48H20.24c-6.538,0-9.281-.754-11.929-2.17A14.768,14.768,0,0,1,2.17,39.689C.754,37.041,0,34.3,0,27.76V20.24C0,13.7.754,10.959,2.17,8.311A14.768,14.768,0,0,1,8.311,2.17C10.959.754,13.7,0,20.24,0Z" style="fill: #8fb93b;fill-rule: evenodd"></path><path d="M377.158,205.5h-450v-306h450Zm-.879-.877V-99.629H-71.963V204.618Z"></path><g><path d="M27.189,20.617a2.783,2.783,0,1,1-.107,5.565,2.81,2.81,0,0,1-2.714-2.809A2.717,2.717,0,0,1,27.189,20.617Z" style="fill: #fff"></path><path d="M21.84,18.044a2.309,2.309,0,0,1-2.3-2.287,2.272,2.272,0,0,1,2.34-2.322,2.233,2.233,0,0,1,2.277,2.315A2.22,2.22,0,0,1,21.84,18.044Z" style="fill: #fff"></path><path d="M31.877,33.788a2.068,2.068,0,0,1-2.116-2.134,2.017,2.017,0,0,1,2.149-2.125,2.149,2.149,0,0,1,2.125,2.115A2.124,2.124,0,0,1,31.877,33.788Z" style="fill: #fff"></path><path d="M23.223,28.3a1.855,1.855,0,0,1,1.8,1.813,1.917,1.917,0,0,1-1.829,1.9,1.866,1.866,0,0,1-1.883-1.822A1.824,1.824,0,0,1,23.223,28.3Z" style="fill: #fff"></path><path d="M15.442,26.183a1.821,1.821,0,1,1,.071-3.64,1.821,1.821,0,1,1-.071,3.64Z" style="fill: #fff"></path><polyline points="11.956 29.499 11.956 36.044 18.627 36.044" style="fill: none;stroke: #fff;stroke-miterlimit: 10"></polyline><polyline points="29.363 11.956 36.044 11.956 36.044 18.764" style="fill: none;stroke: #fff;stroke-miterlimit: 10"></polyline><line x1="22.807" y1="16.96" x2="26.705" y2="22.662" style="fill: none;stroke: #fff;stroke-miterlimit: 10"></line><line x1="15.418" y1="24.291" x2="26.647" y2="23.418" style="fill: none;stroke: #fff;stroke-miterlimit: 10"></line><line x1="23.156" y1="30.226" x2="26.415" y2="24.756" style="fill: none;stroke: #fff;stroke-miterlimit: 10"></line><line x1="31.884" y1="31.506" x2="28.335" y2="25.047" style="fill: none;stroke: #fff;stroke-miterlimit: 10"></line></g></svg>