<svg id="Layer_1" data-name="Layer 1" xmlns="http://www.w3.org/2000/svg" width="48" height="48" viewBox="0 0 48 48"><path id="Base" d="M20.429,0H27.95c6.537,0,9.281.754,11.928,2.17A14.765,14.765,0,0,1,46.02,8.311c1.415,2.648,2.169,5.391,2.169,11.929v7.52c0,6.538-.754,9.281-2.169,11.929a14.765,14.765,0,0,1-6.142,6.141C37.231,47.246,34.487,48,27.95,48H20.429c-6.537,0-9.281-.754-11.928-2.17a14.765,14.765,0,0,1-6.142-6.141C.944,37.041.189,34.3.189,27.76V20.24c0-6.538.755-9.281,2.17-11.929A14.765,14.765,0,0,1,8.5,2.17C11.148.754,13.892,0,20.429,0Z" style="fill:#f6c378;fill-rule:evenodd"/><path d="M15.92,35.564v-7m5,7v-11m5,11v-7m5,7v-13.4" style="fill:none;stroke:#fff;stroke-linecap:round;stroke-miterlimit:10;stroke-width:2px"/><polyline points="23.635 15.547 26.376 18.24 32.08 12.436" style="fill:none;stroke:#fff;stroke-linecap:round;stroke-linejoin:round;stroke-width:2px"/></svg>