<svg xmlns="http://www.w3.org/2000/svg" width="48" height="48" viewBox="0 0 48 48">
  <g id="Layer_2" data-name="Layer 2">
    <g id="Layer_1-2" data-name="Layer 1">
      <g>
        <path id="Base" d="M27.8,48H20.2c-6.5,0-9.2-.8-11.9-2.2a14.9,14.9,0,0,1-6.1-6.1C.8,37,0,34.3,0,27.8V20.2C0,13.7.8,11,2.2,8.3A14.9,14.9,0,0,1,8.3,2.2C11,.8,13.7,0,20.2,0h7.6c6.5,0,9.2.8,11.9,2.2a14.9,14.9,0,0,1,6.1,6.1C47.2,11,48,13.7,48,20.2v7.6c0,6.5-.8,9.2-2.2,11.9a14.9,14.9,0,0,1-6.1,6.1C37,47.2,34.3,48,27.8,48Z" style="fill: #7292f7;fill-rule: evenodd"/>
        <g>
          <path d="M34.8,24.9H23.9V14A10.8,10.8,0,1,0,34.8,24.9Z" style="fill: none;stroke: #fff;stroke-linecap: round;stroke-linejoin: round;stroke-width: 2px"/>
          <path d="M31.1,10.8v.7l1,.2a1.6,1.6,0,0,1,.8.6,2.1,2.1,0,0,1,.4.6,1.3,1.3,0,0,1,.1.6.6.6,0,0,1-.2.5l-.5.2a.7.7,0,0,1-.7-.6,1.8,1.8,0,0,0-.9-1V15l1.1.4.8.5a1.8,1.8,0,0,1,.5.7,3,3,0,0,1,.2,1,2.7,2.7,0,0,1-.3,1.2,2.8,2.8,0,0,1-.9,1,3.3,3.3,0,0,1-1.4.4v1.5c0,.2-.1.3-.1.4s-.2.2-.3.2h-.3c-.1-.1-.1-.2-.1-.4V20.2a2.7,2.7,0,0,1-1.2-.3l-.8-.6a2.2,2.2,0,0,1-.5-.8,1.9,1.9,0,0,1-.2-.7.8.8,0,0,1,.2-.5.9.9,0,0,1,.6-.3.5.5,0,0,1,.4.2l.3.3.2.7a1,1,0,0,0,.4.5l.6.3V16.3L29,15.8a1.8,1.8,0,0,1-.8-.7,2.2,2.2,0,0,1-.4-1.3,2.4,2.4,0,0,1,.7-1.6,2.5,2.5,0,0,1,1.8-.7v-.6c0-.4.1-.5.4-.5A.4.4,0,0,1,31.1,10.8Zm-.8,4V12.6c-.3.1-.6.2-.7.4a.8.8,0,0,0-.3.7,1.4,1.4,0,0,0,.2.7Zm.8,1.7v2.6l.9-.5a1.1,1.1,0,0,0,.3-.8A1,1,0,0,0,32,17Z" style="fill: #fff"/>
        </g>
      </g>
    </g>
  </g>
</svg>
