<svg xmlns="http://www.w3.org/2000/svg" id="Layer_1" data-name="Layer 1" width="48" height="48" viewBox="0 0 48 48"><path id="Base" d="M20.24,0h7.52C34.3,0,37.041.754,39.689,2.17A14.768,14.768,0,0,1,45.83,8.311C47.246,10.959,48,13.7,48,20.24v7.52c0,6.538-.754,9.281-2.17,11.929a14.768,14.768,0,0,1-6.141,6.141C37.041,47.246,34.3,48,27.76,48H20.24c-6.538,0-9.281-.754-11.929-2.17A14.768,14.768,0,0,1,2.17,39.689C.754,37.041,0,34.3,0,27.76V20.24C0,13.7.754,10.959,2.17,8.311A14.768,14.768,0,0,1,8.311,2.17C10.959.754,13.7,0,20.24,0Z" style="fill: #ed736e;fill-rule: evenodd"></path><g><circle cx="24.424" cy="17.337" r="6" style="fill: none;stroke: #fff;stroke-linecap: round;stroke-miterlimit: 10;stroke-width: 2px"></circle><path d="M34.354,25.816a14.945,14.945,0,0,0-8.47-2.61,1.77,1.77,0,0,0-.23.01.014.014,0,0,0-.02,0,13.329,13.329,0,0,0-1.56.1h-.01a15.024,15.024,0,0,0-12.38,10" style="fill: none;stroke: #fff;stroke-linecap: round;stroke-miterlimit: 10;stroke-width: 2px"></path><path d="M32.1,27.289v.431a2.474,2.474,0,0,1,.732.175,1.447,1.447,0,0,1,.532.4,1.675,1.675,0,0,1,.277.418.969.969,0,0,1,.1.395.472.472,0,0,1-.146.345.479.479,0,0,1-.352.145.5.5,0,0,1-.507-.422.9.9,0,0,0-.634-.662v1.659c.33.09.592.172.788.247a1.623,1.623,0,0,1,.524.323,1.491,1.491,0,0,1,.381.524,1.646,1.646,0,0,1,.133.668,1.77,1.77,0,0,1-.213.851,1.688,1.688,0,0,1-.628.648,2.242,2.242,0,0,1-.985.3v.993a.924.924,0,0,1-.046.342.193.193,0,0,1-.2.108.22.22,0,0,1-.2-.088.494.494,0,0,1-.058-.271V33.74a2.54,2.54,0,0,1-.815-.219A1.928,1.928,0,0,1,30.2,33.1a1.722,1.722,0,0,1-.345-.518,1.367,1.367,0,0,1-.112-.529.484.484,0,0,1,.15-.345.5.5,0,0,1,.372-.153.525.525,0,0,1,.3.084.43.43,0,0,1,.172.235,5.089,5.089,0,0,0,.187.5.959.959,0,0,0,.241.317,1.085,1.085,0,0,0,.429.22V31.061a4.921,4.921,0,0,1-.893-.329,1.5,1.5,0,0,1-.582-.517,1.71,1.71,0,0,1,.213-1.985,1.954,1.954,0,0,1,1.262-.51V27.3c0-.223.084-.335.251-.335S32.1,27.071,32.1,27.289Zm-.506,2.735V28.5a1.4,1.4,0,0,0-.522.263.622.622,0,0,0-.188.495.615.615,0,0,0,.176.476A1.614,1.614,0,0,0,31.594,30.024Zm.506,1.184v1.746a1.086,1.086,0,0,0,.622-.323.819.819,0,0,0,.22-.566.68.68,0,0,0-.214-.536A1.738,1.738,0,0,0,32.1,31.208Z" style="fill: #fff"></path></g></svg>