<svg xmlns="http://www.w3.org/2000/svg" id="Layer_1" data-name="Layer 1" width="48" height="48" viewBox="0 0 48 48"><path id="Base" d="M20.24,0h7.52C34.3,0,37.041.754,39.689,2.17A14.768,14.768,0,0,1,45.83,8.311C47.246,10.959,48,13.7,48,20.24v7.52c0,6.538-.754,9.281-2.17,11.929a14.768,14.768,0,0,1-6.141,6.141C37.041,47.246,34.3,48,27.76,48H20.24c-6.538,0-9.281-.754-11.929-2.17A14.768,14.768,0,0,1,2.17,39.689C.754,37.041,0,34.3,0,27.76V20.24C0,13.7.754,10.959,2.17,8.311A14.768,14.768,0,0,1,8.311,2.17C10.959.754,13.7,0,20.24,0Z" style="fill: #80bef9;fill-rule: evenodd"></path><g><path d="M31.661,22.541a9.942,9.942,0,0,1-2.534,9.965,9.8,9.8,0,0,1-13.845.2A9.969,9.969,0,0,1,26.036,16.525m-3.988,9.409,8.775-8.775M20.771,27.211h4.056m-4.056-4.056v4.056" style="fill: none;stroke: #fff;stroke-linecap: round;stroke-width: 2px"></path><circle cx="33.269" cy="14.702" r="4.168" style="fill: #fff"></circle></g></svg>