<svg id="Layer_1" data-name="Layer 1" xmlns="http://www.w3.org/2000/svg" width="48" height="48" viewBox="0 0 48 48"><path id="Base" d="M20.24,0h7.52C34.3,0,37.041.754,39.689,2.17A14.768,14.768,0,0,1,45.83,8.311C47.246,10.959,48,13.7,48,20.24v7.52c0,6.538-.754,9.281-2.17,11.929a14.768,14.768,0,0,1-6.141,6.141C37.041,47.246,34.3,48,27.76,48H20.24c-6.538,0-9.281-.754-11.929-2.17A14.768,14.768,0,0,1,2.17,39.689C.754,37.041,0,34.3,0,27.76V20.24C0,13.7.754,10.959,2.17,8.311A14.768,14.768,0,0,1,8.311,2.17C10.959.754,13.7,0,20.24,0Z" style="fill:#8fb93b;fill-rule:evenodd"/><path d="M29.892,18.708a6,6,0,1,1-6-6A6,6,0,0,1,29.892,18.708Zm3.93,8.479a14.945,14.945,0,0,0-8.47-2.61,1.77,1.77,0,0,0-.23.01.014.014,0,0,0-.02,0,13.329,13.329,0,0,0-1.56.1h-.01a15.024,15.024,0,0,0-12.38,10m14.284-2.515h6.348m-3.174-3.12v6.24" style="fill:none;stroke:#fff;stroke-linecap:round;stroke-miterlimit:10;stroke-width:2px"/></svg>