<svg xmlns="http://www.w3.org/2000/svg" id="Layer_1" data-name="Layer 1" width="48" height="48" viewBox="0 0 48 48"><path id="Base" d="M20.24,0h7.52C34.3,0,37.041.754,39.689,2.17A14.768,14.768,0,0,1,45.83,8.311C47.246,10.959,48,13.7,48,20.24v7.52c0,6.538-.754,9.281-2.17,11.929a14.768,14.768,0,0,1-6.141,6.141C37.041,47.246,34.3,48,27.76,48H20.24c-6.538,0-9.281-.754-11.929-2.17A14.768,14.768,0,0,1,2.17,39.689C.754,37.041,0,34.3,0,27.76V20.24C0,13.7.754,10.959,2.17,8.311A14.768,14.768,0,0,1,8.311,2.17C10.959.754,13.7,0,20.24,0Z" style="fill: #80bef9;fill-rule: evenodd"></path><g><circle cx="24.837" cy="18.017" r="6" style="fill: none;stroke: #fff;stroke-linecap: round;stroke-miterlimit: 10;stroke-width: 2px"></circle><path d="M34.767,26.5a14.945,14.945,0,0,0-8.47-2.61,1.77,1.77,0,0,0-.23.01.014.014,0,0,0-.02,0,13.329,13.329,0,0,0-1.56.1h-.01A15.024,15.024,0,0,0,12.1,34" style="fill: none;stroke: #fff;stroke-linecap: round;stroke-miterlimit: 10;stroke-width: 2px"></path><path d="M32.108,28.042v.526a3.039,3.039,0,0,1,.894.214,1.771,1.771,0,0,1,.65.487,2.085,2.085,0,0,1,.339.512,1.185,1.185,0,0,1,.119.482.575.575,0,0,1-.178.422.587.587,0,0,1-.431.177.606.606,0,0,1-.618-.516,1.106,1.106,0,0,0-.775-.809v2.027q.6.165.962.3a1.986,1.986,0,0,1,.641.4,1.827,1.827,0,0,1,.465.64,2.012,2.012,0,0,1,.163.816,2.168,2.168,0,0,1-.26,1.04,2.053,2.053,0,0,1-.768.792,2.728,2.728,0,0,1-1.2.366v1.213a1.159,1.159,0,0,1-.056.419.238.238,0,0,1-.246.131.273.273,0,0,1-.246-.107.612.612,0,0,1-.071-.331V35.924a3.054,3.054,0,0,1-1-.268,2.352,2.352,0,0,1-.711-.509,2.128,2.128,0,0,1-.422-.633,1.677,1.677,0,0,1-.136-.646.591.591,0,0,1,.182-.421.612.612,0,0,1,.456-.188.637.637,0,0,1,.37.1.526.526,0,0,1,.21.287,6.107,6.107,0,0,0,.229.612,1.185,1.185,0,0,0,.294.387,1.328,1.328,0,0,0,.524.268V32.65a5.928,5.928,0,0,1-1.091-.4,1.831,1.831,0,0,1-.711-.63,2.09,2.09,0,0,1,.26-2.427,2.39,2.39,0,0,1,1.542-.623v-.517c0-.272.1-.409.307-.409S32.108,27.775,32.108,28.042Zm-.619,3.342V29.518a1.7,1.7,0,0,0-.638.321.906.906,0,0,0-.015,1.187A1.984,1.984,0,0,0,31.489,31.384Zm.619,1.447v2.134a1.34,1.34,0,0,0,.76-.4,1,1,0,0,0,.268-.692.83.83,0,0,0-.261-.655A2.121,2.121,0,0,0,32.108,32.831Z" style="fill: #fff"></path></g></svg>