<svg xmlns="http://www.w3.org/2000/svg" id="Layer_1" data-name="Layer 1" width="48" height="48" viewBox="0 0 48 48"><path id="Base" d="M20.24,0h7.52C34.3,0,37.041.754,39.689,2.17A14.768,14.768,0,0,1,45.83,8.311C47.246,10.959,48,13.7,48,20.24v7.52c0,6.538-.754,9.281-2.17,11.929a14.768,14.768,0,0,1-6.141,6.141C37.041,47.246,34.3,48,27.76,48H20.24c-6.538,0-9.281-.754-11.929-2.17A14.768,14.768,0,0,1,2.17,39.689C.754,37.041,0,34.3,0,27.76V20.24C0,13.7.754,10.959,2.17,8.311A14.768,14.768,0,0,1,8.311,2.17C10.959.754,13.7,0,20.24,0Z" style="fill: #9792f8;fill-rule: evenodd"></path><g><rect x="22.507" y="20.06" width="12.226" height="2.62" transform="translate(-4.901 9.035) rotate(-16.546)" style="fill: #fff"></rect><rect x="24.56" y="24.151" width="10.48" height="5.24" transform="translate(-6.39 9.595) rotate(-16.546)" style="fill: #fff"></rect><g><polyline points="38.247 29.356 25.547 33.129 24.579 33.547" style="fill: none;stroke: #fff;stroke-linecap: round;stroke-miterlimit: 10;stroke-width: 2px"></polyline><polyline points="21.011 31.495 20.684 30.684 16.091 15.222 13.88 11.854 11.128 11.272" style="fill: none;stroke: #fff;stroke-linecap: round;stroke-miterlimit: 10;stroke-width: 2px"></polyline><path d="M25.49,32.915A3.53,3.53,0,1,1,21.1,30.537,3.53,3.53,0,0,1,25.49,32.915Zm-3.808-.422a1.489,1.489,0,1,0,1.852,1A1.489,1.489,0,0,0,21.682,32.493Z" style="fill: #fff"></path></g></g></svg>