<svg xmlns="http://www.w3.org/2000/svg" id="Layer_1" data-name="Layer 1" width="48" height="48" viewBox="0 0 48 48"><path id="Base" d="M20.24,0h7.52C34.3,0,37.041.754,39.689,2.17A14.768,14.768,0,0,1,45.83,8.311C47.246,10.959,48,13.7,48,20.24v7.52c0,6.538-.754,9.281-2.17,11.929a14.768,14.768,0,0,1-6.141,6.141C37.041,47.246,34.3,48,27.76,48H20.24c-6.538,0-9.281-.754-11.929-2.17A14.768,14.768,0,0,1,2.17,39.689C.754,37.041,0,34.3,0,27.76V20.24C0,13.7.754,10.959,2.17,8.311A14.768,14.768,0,0,1,8.311,2.17C10.959.754,13.7,0,20.24,0Z" style="fill: #7fbef9;fill-rule: evenodd"></path><path d="M19.246,32.588A1.886,1.886,0,1,1,17.36,30.7,1.886,1.886,0,0,1,19.246,32.588Zm12.29-17.2a1.886,1.886,0,1,0,1.885,1.885A1.885,1.885,0,0,0,31.536,15.391Zm-1.5,2.5.468-.173a.5.5,0,1,0-.345-.937l-.469.173a.5.5,0,0,0,.173.969A.481.481,0,0,0,30.036,17.9ZM18.573,22.117l.955-.353a.5.5,0,1,0-.346-.937l-.955.352a.5.5,0,1,0,.346.938Zm2.865-1.056.955-.351a.5.5,0,1,0-.346-.938l-.955.352a.5.5,0,0,0,.173.969A.477.477,0,0,0,21.438,21.061ZM24.3,20.007l.956-.352a.5.5,0,1,0-.346-.939l-.956.351a.5.5,0,0,0,.173.97A.525.525,0,0,0,24.3,20.007Zm2.866-1.057.955-.352a.5.5,0,1,0-.345-.937l-.955.351a.5.5,0,0,0,.172.969A.494.494,0,0,0,27.169,18.95ZM17,22.729a.487.487,0,0,0-.02-.276.5.5,0,0,0-.662-.57l-.469.172a.5.5,0,0,0,.07.958l.49.1a.451.451,0,0,0,.1.011A.5.5,0,0,0,17,22.729ZM28.817,25.2a.5.5,0,0,0-.387-.592l-.985-.206a.5.5,0,1,0-.205.979l.985.206a.521.521,0,0,0,.1.01A.5.5,0,0,0,28.817,25.2Zm-2.955-.618a.5.5,0,0,0-.387-.592l-.984-.206a.5.5,0,1,0-.2.978l.984.207a.514.514,0,0,0,.1.01A.5.5,0,0,0,25.862,24.583Zm-2.954-.617a.5.5,0,0,0-.387-.592l-.985-.206a.5.5,0,1,0-.206.978l.986.206a.457.457,0,0,0,.1.011A.5.5,0,0,0,22.908,23.966Zm-2.955-.619a.5.5,0,0,0-.387-.591l-.985-.206a.5.5,0,0,0-.2.978l.985.206a.451.451,0,0,0,.1.011A.5.5,0,0,0,19.953,23.347Zm10.63,2.944.44-.238a.5.5,0,0,0-.135-.929l-.489-.1a.5.5,0,0,0-.542.728.5.5,0,0,0,.489.6A.5.5,0,0,0,30.583,26.291ZM19.5,32.27l.924-.5a.5.5,0,0,0-.474-.879l-.924.5a.5.5,0,0,0,.237.94A.492.492,0,0,0,19.5,32.27Zm2.772-1.494.924-.5a.5.5,0,0,0-.475-.881l-.924.5a.5.5,0,1,0,.475.881Zm2.77-1.5.924-.5a.5.5,0,0,0-.474-.881l-.924.5a.5.5,0,1,0,.474.881Zm2.772-1.495.924-.5a.5.5,0,0,0-.475-.881l-.924.5a.5.5,0,0,0,.475.881Zm-10.6,5.719.44-.238a.5.5,0,0,0-.475-.881l-.439.238a.5.5,0,0,0,.474.881Z" style="fill: #fff"></path></svg>