<svg xmlns="http://www.w3.org/2000/svg" id="Layer_1" data-name="Layer 1" width="48" height="48" viewBox="0 0 48 48"><path id="Base" d="M20.24,0h7.52C34.3,0,37.041.754,39.689,2.17A14.768,14.768,0,0,1,45.83,8.311C47.246,10.959,48,13.7,48,20.24v7.52c0,6.538-.754,9.281-2.17,11.929a14.768,14.768,0,0,1-6.141,6.141C37.041,47.246,34.3,48,27.76,48H20.24c-6.538,0-9.281-.754-11.929-2.17A14.768,14.768,0,0,1,2.17,39.689C.754,37.041,0,34.3,0,27.76V20.24C0,13.7.754,10.959,2.17,8.311A14.768,14.768,0,0,1,8.311,2.17C10.959.754,13.7,0,20.24,0Z" style="fill:#9792f8;fill-rule:evenodd"></path><path d="M21.58,22.416v.706a4.1,4.1,0,0,1,1.2.288,2.381,2.381,0,0,1,.873.654,2.742,2.742,0,0,1,.454.687,1.579,1.579,0,0,1,.161.647.774.774,0,0,1-.239.566.789.789,0,0,1-.579.239.814.814,0,0,1-.83-.694,1.481,1.481,0,0,0-1.04-1.085v2.72q.81.222,1.291.406a2.669,2.669,0,0,1,.86.529,2.447,2.447,0,0,1,.625.86,2.705,2.705,0,0,1,.219,1.1,2.906,2.906,0,0,1-.35,1.4,2.761,2.761,0,0,1-1.03,1.063,3.669,3.669,0,0,1-1.615.49v1.629a1.543,1.543,0,0,1-.075.562.321.321,0,0,1-.331.177.365.365,0,0,1-.33-.144.825.825,0,0,1-.1-.445V33a4.111,4.111,0,0,1-1.337-.359,3.151,3.151,0,0,1-.955-.684,2.847,2.847,0,0,1-.566-.85,2.25,2.25,0,0,1-.183-.866.793.793,0,0,1,.245-.566.821.821,0,0,1,.612-.252.87.87,0,0,1,.5.137.711.711,0,0,1,.281.386,8.124,8.124,0,0,0,.308.821,1.58,1.58,0,0,0,.395.52,1.773,1.773,0,0,0,.7.36V28.6a8.106,8.106,0,0,1-1.465-.54A2.346,2.346,0,0,1,17.963,25.8a2.507,2.507,0,0,1,.716-1.845,3.217,3.217,0,0,1,2.07-.837v-.693c0-.366.138-.549.412-.549S21.58,22.058,21.58,22.416ZM20.749,26.9V24.4a2.282,2.282,0,0,0-.857.431,1.022,1.022,0,0,0-.307.811,1.01,1.01,0,0,0,.288.782A2.664,2.664,0,0,0,20.749,26.9Zm.831,1.943v2.864a1.8,1.8,0,0,0,1.02-.53,1.342,1.342,0,0,0,.36-.928,1.115,1.115,0,0,0-.35-.88A2.836,2.836,0,0,0,21.58,28.845Z" style="fill:#fff"></path><path d="M38.237,23.889,22.943,39.183a2.557,2.557,0,0,1-3.575-.311l-9.294-9.294A2.557,2.557,0,0,1,9.763,26L25.057,10.709a2.2,2.2,0,0,1,2.057-.534l7.636,1.659A3.171,3.171,0,0,1,37.112,14.2l1.659,7.635A2.2,2.2,0,0,1,38.237,23.889Z" style="fill:none;stroke:#fff;stroke-miterlimit:10"></path><circle cx="32.083" cy="16.679" r="2.009" style="fill:none;stroke:#fff;stroke-miterlimit:10"></circle></svg>