<svg xmlns="http://www.w3.org/2000/svg" id="Layer_1" data-name="Layer 1" width="48" height="48" viewBox="0 0 48 48"><path id="Base" d="M20.24,0h7.52C34.3,0,37.041.754,39.689,2.17A14.768,14.768,0,0,1,45.83,8.311C47.246,10.959,48,13.7,48,20.24v7.52c0,6.538-.754,9.281-2.17,11.929a14.768,14.768,0,0,1-6.141,6.141C37.041,47.246,34.3,48,27.76,48H20.24c-6.538,0-9.281-.754-11.929-2.17A14.768,14.768,0,0,1,2.17,39.689C.754,37.041,0,34.3,0,27.76V20.24C0,13.7.754,10.959,2.17,8.311A14.768,14.768,0,0,1,8.311,2.17C10.959.754,13.7,0,20.24,0Z" style="fill:#f9b65d;fill-rule:evenodd"></path><path d="M26.267,13.447a10.856,10.856,0,0,1,3.61,1.472m3.368,15.147a10.871,10.871,0,0,0,1.519-3.813M17.9,33.28a10.882,10.882,0,0,0,3.862,1.625M13.309,21.743a10.912,10.912,0,0,1,1.575-3.66m-1.648,8.17a10.871,10.871,0,0,0,1.519,3.813m11.488,4.839a10.882,10.882,0,0,0,3.862-1.625m3.011-15.2a10.912,10.912,0,0,1,1.575,3.66M18.123,14.919a10.856,10.856,0,0,1,3.61-1.472m0,0,.225-3.311h4.084l.225,3.311m-4.51,21.458.2,2.959h4.084l.2-2.959M14.884,18.083l-2.131-2.442,2.887-2.888,2.483,2.166M33.245,30.066l2,2.293L32.36,35.247,30.105,33.28M13.236,26.253l-3.1-.211V21.959l3.172-.216m21.455,4.51,3.1-.211V21.959l-3.172-.216M14.755,30.066l-2,2.293,2.887,2.888L17.9,33.28m15.221-15.2,2.131-2.442L32.36,12.753l-2.483,2.166m-6.977,16,3.437-7.466-4.674.352,3.1-6.73" style="fill:none;stroke:#fff;stroke-linecap:round;stroke-linejoin:round;stroke-width:2px"></path></svg>