<svg xmlns="http://www.w3.org/2000/svg" width="48" height="48" viewBox="0 0 48 48">
  <g id="Layer_2" data-name="Layer 2">
    <g id="Layer_1-2" data-name="Layer 1">
      <g>
        <path id="Base" d="M20.2,0h7.6c6.5,0,9.2.8,11.9,2.2a14.9,14.9,0,0,1,6.1,6.1C47.2,11,48,13.7,48,20.2v7.6c0,6.5-.8,9.2-2.2,11.9a14.9,14.9,0,0,1-6.1,6.1C37,47.2,34.3,48,27.8,48H20.2c-6.5,0-9.2-.8-11.9-2.2a14.9,14.9,0,0,1-6.1-6.1C.8,37,0,34.3,0,27.8V20.2C0,13.7.8,11,2.2,8.3A14.9,14.9,0,0,1,8.3,2.2C11,.8,13.7,0,20.2,0Z" style="fill: #f4907d;fill-rule: evenodd"/>
        <path d="M35,26.4a11,11,0,1,1-11-11A11,11,0,0,1,35,26.4ZM19,25l2.5,2.4-.6,3.4L24,29.2l3,1.6-.5-3.4L29,25l-3.5-.5L24,21.4l-1.5,3.1ZM27,8.6H21v6.8h6Z" style="fill: none;stroke: #fff;stroke-linecap: round;stroke-linejoin: round;stroke-width: 2px"/>
      </g>
    </g>
  </g>
</svg>
