<svg xmlns="http://www.w3.org/2000/svg" id="Layer_1" data-name="Layer 1" width="48" height="48" viewBox="0 0 48 48"><path id="Base" d="M20.24,0h7.52C34.3,0,37.041.754,39.689,2.17A14.768,14.768,0,0,1,45.83,8.311C47.246,10.959,48,13.7,48,20.24v7.52c0,6.538-.754,9.281-2.17,11.929a14.768,14.768,0,0,1-6.141,6.141C37.041,47.246,34.3,48,27.76,48H20.24c-6.538,0-9.281-.754-11.929-2.17A14.768,14.768,0,0,1,2.17,39.689C.754,37.041,0,34.3,0,27.76V20.24C0,13.7.754,10.959,2.17,8.311A14.768,14.768,0,0,1,8.311,2.17C10.959.754,13.7,0,20.24,0Z" style="fill:#8fb93b;fill-rule:evenodd"></path><path d="M31.193,34.893H16.807a3.711,3.711,0,0,1-3.7-3.7V16.807a3.711,3.711,0,0,1,3.7-3.7H31.193a3.711,3.711,0,0,1,3.7,3.7V31.193A3.711,3.711,0,0,1,31.193,34.893ZM18.8,13.107v-3.1m3.469,3.1v-3.1m3.47,3.1v-3.1m3.469,3.1v-3.1M18.8,37.989v-3.1m3.469,3.1v-3.1m3.47,3.1v-3.1m3.469,3.1v-3.1m5.689-16.1h3.1m-3.1,3.469h3.1m-3.1,3.47h3.1m-3.1,3.469h3.1M10.011,18.8h3.1m-3.1,3.469h3.1m-3.1,3.47h3.1m-3.1,3.469h3.1M22.265,18.8h-3.8M29.2,22.265h-9m7.27,3.708H18.464m5.881,3.6H18.464" style="fill:none;stroke:#fff;stroke-linecap:round;stroke-linejoin:round;stroke-width:1.5px"></path></svg>