<svg xmlns="http://www.w3.org/2000/svg" id="Layer_1" data-name="Layer 1" width="48" height="48" viewBox="0 0 48 48"><path id="Base" d="M20.24,0h7.52C34.3,0,37.041.754,39.689,2.17A14.768,14.768,0,0,1,45.83,8.311C47.246,10.959,48,13.7,48,20.24v7.52c0,6.538-.754,9.281-2.17,11.929a14.768,14.768,0,0,1-6.141,6.141C37.041,47.246,34.3,48,27.76,48H20.24c-6.538,0-9.281-.754-11.929-2.17A14.768,14.768,0,0,1,2.17,39.689C.754,37.041,0,34.3,0,27.76V20.24C0,13.7.754,10.959,2.17,8.311A14.768,14.768,0,0,1,8.311,2.17C10.959.754,13.7,0,20.24,0Z" style="fill: #8fb93b;fill-rule: evenodd"></path><g><path d="M34.087,23.929H23.153V13A10.829,10.829,0,1,0,34.087,23.929Z" style="fill: none;stroke: #fff;stroke-linecap: round;stroke-linejoin: round;stroke-width: 2px"></path><path d="M30.308,9.856v.626a3.612,3.612,0,0,1,1.064.255,2.1,2.1,0,0,1,.773.58,2.476,2.476,0,0,1,.4.608,1.4,1.4,0,0,1,.142.574.684.684,0,0,1-.212.5.7.7,0,0,1-.512.211.722.722,0,0,1-.737-.614,1.313,1.313,0,0,0-.921-.963v2.412c.479.132.86.251,1.145.36a2.372,2.372,0,0,1,.762.469,2.162,2.162,0,0,1,.553.763,2.382,2.382,0,0,1,.2.971,2.569,2.569,0,0,1-.311,1.237,2.436,2.436,0,0,1-.912.942,3.242,3.242,0,0,1-1.432.435v1.444a1.369,1.369,0,0,1-.067.5.283.283,0,0,1-.293.157.322.322,0,0,1-.292-.128.718.718,0,0,1-.085-.394V19.236a3.674,3.674,0,0,1-1.186-.319,2.805,2.805,0,0,1-.846-.606,2.534,2.534,0,0,1-.5-.754,1.992,1.992,0,0,1-.162-.768.7.7,0,0,1,.217-.5.726.726,0,0,1,.542-.223.77.77,0,0,1,.441.121.64.64,0,0,1,.249.342,7.346,7.346,0,0,0,.272.728,1.405,1.405,0,0,0,.351.461,1.571,1.571,0,0,0,.623.319v-2.7a7.08,7.08,0,0,1-1.3-.478,2.19,2.19,0,0,1-.847-.751,2.219,2.219,0,0,1-.324-1.252,2.223,2.223,0,0,1,.634-1.635,2.844,2.844,0,0,1,1.835-.742V9.867q0-.488.366-.487T30.308,9.856Zm-.737,3.977V11.612a2.026,2.026,0,0,0-.759.383.9.9,0,0,0-.273.719.9.9,0,0,0,.255.693A2.374,2.374,0,0,0,29.571,13.833Zm.737,1.721v2.54a1.6,1.6,0,0,0,.9-.47,1.189,1.189,0,0,0,.319-.823.992.992,0,0,0-.31-.78A2.541,2.541,0,0,0,30.308,15.554Z" style="fill: #fff"></path></g></svg>