<svg xmlns="http://www.w3.org/2000/svg" width="48" height="48" viewBox="0 0 48 48">
  <g id="Layer_2" data-name="Layer 2">
    <g id="Layer_1-2" data-name="Layer 1">
      <g>
        <path id="Base" d="M20.2,0h7.6c6.5,0,9.2.8,11.9,2.2a14.9,14.9,0,0,1,6.1,6.1C47.2,11,48,13.7,48,20.2v7.6c0,6.5-.8,9.2-2.2,11.9a14.9,14.9,0,0,1-6.1,6.1C37,47.2,34.3,48,27.8,48H20.2c-6.5,0-9.2-.8-11.9-2.2a14.9,14.9,0,0,1-6.1-6.1C.8,37,0,34.3,0,27.8V20.2C0,13.7.8,11,2.2,8.3A14.9,14.9,0,0,1,8.3,2.2C11,.8,13.7,0,20.2,0Z" style="fill: #b7ae3d;fill-rule: evenodd"/>
        <g>
          <path d="M30.1,37.4a.9.9,0,0,1-.7-.3L26.2,34a1.2,1.2,0,0,1,0-1.4,1,1,0,0,1,1.4,0l2.5,2.5,7-7a.9.9,0,0,1,1.3,1.3l-7.7,7.7A.7.7,0,0,1,30.1,37.4Z" style="fill: #fff"/>
          <path d="M21.8,36.4H14.2a1,1,0,0,1-.9-1V11.5a.9.9,0,0,1,.9-.9h19a.9.9,0,0,1,1,.9V25.1a.9.9,0,0,1-1,1,.9.9,0,0,1-.9-1V12.5H15.2v22h6.6a.9.9,0,0,1,1,.9A1,1,0,0,1,21.8,36.4Z" style="fill: #fff"/>
          <path d="M28.7,27.2H21.8a.9.9,0,0,1-.9-.9.9.9,0,0,1,.9-1h6.9a1,1,0,0,1,1,1A1,1,0,0,1,28.7,27.2Z" style="fill: #fff"/>
          <path d="M28.7,22.1H21.8a.9.9,0,0,1-.9-.9.9.9,0,0,1,.9-1h6.9a1,1,0,0,1,1,1A1,1,0,0,1,28.7,22.1Z" style="fill: #fff"/>
          <path d="M28.7,17H21.8a.9.9,0,0,1-.9-.9,1,1,0,0,1,.9-1h6.9a1.1,1.1,0,0,1,1,1A1,1,0,0,1,28.7,17Z" style="fill: #fff"/>
          <circle cx="17.8" cy="16.1" r="0.9" style="fill: #fff"/>
          <circle cx="17.8" cy="21.2" r="0.9" style="fill: #fff"/>
          <circle cx="17.8" cy="26.3" r="0.9" style="fill: #fff"/>
        </g>
      </g>
    </g>
  </g>
</svg>
