<svg xmlns="http://www.w3.org/2000/svg" width="48" height="48" viewBox="0 0 48 48">
  <g id="Layer_2" data-name="Layer 2">
    <g id="Layer_1-2" data-name="Layer 1">
      <g>
        <g>
          <path id="Base" d="M20.2,0h7.6c6.5,0,9.2.8,11.9,2.2a14.9,14.9,0,0,1,6.1,6.1C47.2,11,48,13.7,48,20.2v7.6c0,6.5-.8,9.2-2.2,11.9a14.9,14.9,0,0,1-6.1,6.1C37,47.2,34.3,48,27.8,48H20.2c-6.5,0-9.2-.8-11.9-2.2a14.9,14.9,0,0,1-6.1-6.1C.8,37,0,34.3,0,27.8V20.2C0,13.7.8,11,2.2,8.3A14.9,14.9,0,0,1,8.3,2.2C11,.8,13.7,0,20.2,0Z" style="fill: #8c67e5;fill-rule: evenodd"/>
          <path d="M34.1,10.3,26.7,16l-4.3-3.8-8.5,7.7" style="fill: none;stroke: #fff;stroke-linecap: round;stroke-miterlimit: 10;stroke-width: 2px"/>
        </g>
        <path d="M24.7,21.7v.9l1.7.4a2.3,2.3,0,0,1,1.2,1,2.4,2.4,0,0,1,.6.9,1.6,1.6,0,0,1,.3.9,1.2,1.2,0,0,1-.4.8,1.1,1.1,0,0,1-.8.3,1,1,0,0,1-1.1-.9,1.9,1.9,0,0,0-1.5-1.5v3.7l1.8.6a3.5,3.5,0,0,1,1.2.7,2.7,2.7,0,0,1,.9,1.2,4,4,0,0,1,.3,1.5,4.6,4.6,0,0,1-.5,2A3.8,3.8,0,0,1,27,35.6a5.6,5.6,0,0,1-2.3.7v2.3c0,.3,0,.6-.1.7s-.2.3-.4.3l-.5-.2c-.1-.1-.1-.3-.1-.6V36.3a5.9,5.9,0,0,1-1.9-.5,3.8,3.8,0,0,1-1.3-.9,8.3,8.3,0,0,1-.8-1.2,5,5,0,0,1-.2-1.2,1.3,1.3,0,0,1,.3-.8,1.2,1.2,0,0,1,.9-.3c.2,0,.5,0,.6.2a.7.7,0,0,1,.4.5,3.8,3.8,0,0,0,.5,1.1,3.5,3.5,0,0,0,.5.8l1,.5V30.2a7.7,7.7,0,0,1-2-.7,4.1,4.1,0,0,1-1.4-1.2,3.6,3.6,0,0,1-.5-1.9,3.8,3.8,0,0,1,1-2.6,4.8,4.8,0,0,1,2.9-1.2v-.9c0-.5.2-.8.6-.8S24.7,21.2,24.7,21.7Zm-1.1,6.2V24.4l-1.2.6a1.4,1.4,0,0,0-.4,1.1,1.2,1.2,0,0,0,.4,1.1A2.2,2.2,0,0,0,23.6,27.9Zm1.1,2.7v3.9a2.1,2.1,0,0,0,1.4-.7,1.7,1.7,0,0,0,.5-1.3,1.6,1.6,0,0,0-.4-1.2A4.2,4.2,0,0,0,24.7,30.6Z" style="fill: #fff"/>
        <g>
          <line x1="30.8" y1="8.4" x2="35.7" y2="9.1" style="fill: none;stroke: #fff;stroke-linecap: round;stroke-miterlimit: 10;stroke-width: 2px"/>
          <line x1="35.7" y1="9.1" x2="35.1" y2="14" style="fill: none;stroke: #fff;stroke-linecap: round;stroke-miterlimit: 10;stroke-width: 2px"/>
        </g>
      </g>
    </g>
  </g>
</svg>
