<svg xmlns="http://www.w3.org/2000/svg" width="93" height="93" viewBox="0 0 93 93">
    <defs>
        <filter id="3depr27i8a" x="0" y="0" width="93" height="93" filterUnits="userSpaceOnUse">
            <feOffset dy="5"/>
            <feGaussianBlur stdDeviation="7.5" result="blur"/>
            <feFlood flood-color="#2d7ccb" flood-opacity=".161"/>
            <feComposite operator="in" in2="blur"/>
            <feComposite in="SourceGraphic"/>
        </filter>
    </defs>
    <g data-name="Group 1508">
        <g style="filter:url(#3depr27i8a)">
            <rect data-name="Rectangle 2417" width="48" height="48" rx="10" transform="translate(22.5 17.5)" style="fill:#fff"/>
        </g>
        <path data-name="Icon metro-dollar2" d="M22.974 18.735a5.307 5.307 0 0 1-1.388 3.676 5.991 5.991 0 0 1-3.606 1.9v2.441a.43.43 0 0 1-.446.446H15.65a.453.453 0 0 1-.446-.446v-2.436a8.794 8.794 0 0 1-1.779-.432 8.567 8.567 0 0 1-2.448-1.29 7.951 7.951 0 0 1-.649-.523q-.174-.167-.244-.251a.424.424 0 0 1-.028-.572l1.437-1.883a.434.434 0 0 1 .321-.167.346.346 0 0 1 .335.126l.028.028a7.285 7.285 0 0 0 3.39 1.744 4.873 4.873 0 0 0 1.033.104 3.383 3.383 0 0 0 1.988-.6 1.954 1.954 0 0 0 .858-1.7 1.414 1.414 0 0 0-.209-.739 2.614 2.614 0 0 0-.467-.586 3.829 3.829 0 0 0-.816-.523q-.558-.286-.921-.446t-1.116-.453q-.544-.223-.858-.349t-.858-.37q-.544-.244-.872-.432t-.788-.5a4.913 4.913 0 0 1-.746-.593 8.7 8.7 0 0 1-.607-.684 3.413 3.413 0 0 1-.5-.809 5.6 5.6 0 0 1-.293-.928 4.842 4.842 0 0 1-.119-1.088 4.77 4.77 0 0 1 1.37-3.37A6.384 6.384 0 0 1 15.2 5.161V2.65a.453.453 0 0 1 .45-.45h1.883a.43.43 0 0 1 .446.446v2.459a7.76 7.76 0 0 1 1.542.321 8.938 8.938 0 0 1 1.214.467 6.722 6.722 0 0 1 .886.523q.419.293.544.4t.209.2a.4.4 0 0 1 .07.53l-1.13 2.037a.38.38 0 0 1-.321.223.445.445 0 0 1-.377-.1q-.042-.042-.2-.167t-.544-.37a7.2 7.2 0 0 0-.816-.446 6.231 6.231 0 0 0-1.039-.363 4.654 4.654 0 0 0-1.193-.16 3.626 3.626 0 0 0-2.162.6 1.875 1.875 0 0 0-.719 2.218 1.57 1.57 0 0 0 .412.579 6.147 6.147 0 0 0 .551.46 4.914 4.914 0 0 0 .781.432q.523.244.844.377t.977.384q.739.279 1.13.439t1.06.488a8.428 8.428 0 0 1 1.053.593 8.907 8.907 0 0 1 .865.7 3.612 3.612 0 0 1 .739.886 5.056 5.056 0 0 1 .439 1.067 4.6 4.6 0 0 1 .181 1.311z" transform="translate(29.543 27.297)" style="fill:#ed736e"/>
    </g>
</svg>
