<svg id="Layer_1" data-name="Layer 1" xmlns="http://www.w3.org/2000/svg" width="48" height="48" viewBox="0 0 48 48">
  <path id="Base" d="M20.24,0h7.52C34.3,0,37.041.754,39.689,2.17A14.768,14.768,0,0,1,45.83,8.311C47.246,10.959,48,13.7,48,20.24v7.52c0,6.538-.754,9.281-2.17,11.929a14.768,14.768,0,0,1-6.141,6.141C37.041,47.246,34.3,48,27.76,48H20.24c-6.538,0-9.281-.754-11.929-2.17A14.768,14.768,0,0,1,2.17,39.689C.754,37.041,0,34.3,0,27.76V20.24C0,13.7.754,10.959,2.17,8.311A14.768,14.768,0,0,1,8.311,2.17C10.959.754,13.7,0,20.24,0Z" style="fill: #8fb93b;fill-rule: evenodd"/>
  <g>
    <line x1="22.873" y1="18.04" x2="29.03" y2="18.04" style="fill: none;stroke: #fff;stroke-linecap: round;stroke-linejoin: round;stroke-width: 2px"/>
    <line x1="20.137" y1="18.04" x2="20.137" y2="18.04" style="fill: none;stroke: #fff;stroke-linecap: round;stroke-linejoin: round;stroke-width: 2px"/>
    <line x1="22.873" y1="22.588" x2="29.03" y2="22.588" style="fill: none;stroke: #fff;stroke-linecap: round;stroke-linejoin: round;stroke-width: 2px"/>
    <line x1="20.137" y1="22.588" x2="20.137" y2="22.588" style="fill: none;stroke: #fff;stroke-linecap: round;stroke-linejoin: round;stroke-width: 2px"/>
    <line x1="22.873" y1="27.135" x2="29.03" y2="27.135" style="fill: none;stroke: #fff;stroke-linecap: round;stroke-linejoin: round;stroke-width: 2px"/>
    <line x1="20.137" y1="27.135" x2="20.137" y2="27.135" style="fill: none;stroke: #fff;stroke-linecap: round;stroke-linejoin: round;stroke-width: 2px"/>
    <polyline points="22.886 35.309 16.095 35.309 16.095 13.998 33.073 13.998 33.073 26.125" style="fill: none;stroke: #fff;stroke-linecap: round;stroke-linejoin: round;stroke-width: 2px"/>
    <text transform="translate(25.633 38.989)" style="font-size: 10.51009750366211px;fill: #fff;font-family: FontAwesome5Free-Solid, "Font Awesome 5 Free"">cog</text>
  </g>
</svg>
