<svg xmlns="http://www.w3.org/2000/svg" id="Layer_1" data-name="Layer 1" width="48" height="48" viewBox="0 0 48 48"><path id="Base" d="M20.24,0h7.52C34.3,0,37.041.754,39.689,2.17A14.768,14.768,0,0,1,45.83,8.311C47.246,10.959,48,13.7,48,20.24v7.52c0,6.538-.754,9.281-2.17,11.929a14.768,14.768,0,0,1-6.141,6.141C37.041,47.246,34.3,48,27.76,48H20.24c-6.538,0-9.281-.754-11.929-2.17A14.768,14.768,0,0,1,2.17,39.689C.754,37.041,0,34.3,0,27.76V20.24C0,13.7.754,10.959,2.17,8.311A14.768,14.768,0,0,1,8.311,2.17C10.959.754,13.7,0,20.24,0Z" style="fill:#ed736e;fill-rule:evenodd"></path><path d="M37.328,37.328H10.672V10.672H37.328Zm-22.5-21.344a1.608,1.608,0,1,0,1.607,1.608A1.608,1.608,0,0,0,14.827,15.984Zm14.287-2.237a1.608,1.608,0,1,0,1.608,1.608A1.607,1.607,0,0,0,29.114,13.747Zm4.3,12.618a1.608,1.608,0,1,0,1.608,1.607A1.607,1.607,0,0,0,33.41,26.365ZM14.9,28.915A1.608,1.608,0,1,0,16.5,30.522,1.607,1.607,0,0,0,14.9,28.915Zm-.07-9.716v9.716m12.48-13.56H21.016V19.2L17.731,22M22.8,25.21H20.069v7.828H22.8Zm5.941,0H26.01v7.828h2.726ZM26.07,19.723v2.726H33.9V19.723Zm7.34,17.605V29.58" style="fill:none;stroke:#fff;stroke-linecap:round;stroke-linejoin:round;stroke-width:1.5px"></path></svg>