<svg xmlns="http://www.w3.org/2000/svg" id="Layer_1" data-name="Layer 1" width="48" height="48" viewBox="0 0 48 48"><path id="Base" d="M20.24,0h7.52C34.3,0,37.041.754,39.689,2.17A14.768,14.768,0,0,1,45.83,8.311C47.246,10.959,48,13.7,48,20.24v7.52c0,6.538-.754,9.281-2.17,11.929a14.768,14.768,0,0,1-6.141,6.141C37.041,47.246,34.3,48,27.76,48H20.24c-6.538,0-9.281-.754-11.929-2.17A14.768,14.768,0,0,1,2.17,39.689C.754,37.041,0,34.3,0,27.76V20.24C0,13.7.754,10.959,2.17,8.311A14.768,14.768,0,0,1,8.311,2.17C10.959.754,13.7,0,20.24,0Z" style="fill: #7fbef9;fill-rule: evenodd"></path><g><path d="M26.222,13.655A10.665,10.665,0,0,1,29.761,15.1m3.3,14.848a10.682,10.682,0,0,0,1.489-3.737M18.016,33.1A10.653,10.653,0,0,0,21.8,34.689m-8.281-12.9A10.682,10.682,0,0,1,15.064,18.2m-1.616,8.009a10.682,10.682,0,0,0,1.489,3.737M26.2,34.689A10.653,10.653,0,0,0,29.984,33.1m2.952-14.9a10.682,10.682,0,0,1,1.544,3.588M18.239,15.1a10.665,10.665,0,0,1,3.539-1.443m0,0L22,10.41h4l.22,3.245M21.8,34.689l.2,2.9h4l.2-2.9M15.064,18.2l-2.088-2.394,2.83-2.831L18.239,15.1M33.063,29.946l1.961,2.248-2.83,2.831L29.984,33.1M13.448,26.209,10.411,26V22l3.109-.211m21.032,4.421L37.589,26V22l-3.109-.211M14.937,29.946l-1.961,2.248,2.83,2.831,2.21-1.928m14.92-14.9,2.088-2.394-2.83-2.831L29.761,15.1" style="fill: none;stroke: #fff;stroke-linecap: round;stroke-linejoin: round;stroke-width: 2px"></path><path d="M25.89,18.945a5.485,5.485,0,0,1,0,10.3m-3.78,0a5.485,5.485,0,0,1,0-10.3m6.008-.959-2.983.645.522,2.414m-6.3,8.969,3.036-.3-.245-2.458" style="fill: none;stroke: #fff;stroke-linecap: round;stroke-linejoin: round"></path></g></svg>