<svg xmlns="http://www.w3.org/2000/svg" id="Layer_1" data-name="Layer 1" width="48" height="48" viewBox="0 0 48 48"><g id="Layer_1-2" data-name="Layer 1"><path id="Base" d="M20.24,0h7.52c6.54,0,9.28.75,11.93,2.17a14.718,14.718,0,0,1,6.14,6.14C47.25,10.96,48,13.7,48,20.24v7.52c0,6.54-.75,9.28-2.17,11.93a14.718,14.718,0,0,1-6.14,6.14C37.04,47.25,34.3,48,27.76,48H20.24c-6.54,0-9.28-.75-11.93-2.17a14.718,14.718,0,0,1-6.14-6.14C.76,37.04,0,34.3,0,27.76V20.24C0,13.7.75,10.96,2.17,8.31A14.718,14.718,0,0,1,8.31,2.17C10.96.76,13.7,0,20.24,0Z" style="fill: #e56e4b;fill-rule: evenodd"></path><path id="Base-2" data-name="Base" d="M20.24,0h7.52c6.54,0,9.28.75,11.93,2.17a14.718,14.718,0,0,1,6.14,6.14C47.25,10.96,48,13.7,48,20.24v7.52c0,6.54-.75,9.28-2.17,11.93a14.718,14.718,0,0,1-6.14,6.14C37.04,47.25,34.3,48,27.76,48H20.24c-6.54,0-9.28-.75-11.93-2.17a14.718,14.718,0,0,1-6.14-6.14C.76,37.04,0,34.3,0,27.76V20.24C0,13.7.75,10.96,2.17,8.31A14.718,14.718,0,0,1,8.31,2.17C10.96.76,13.7,0,20.24,0Z" style="fill: #43a6ea;fill-rule: evenodd"></path><g><line x1="14.39" y1="33" x2="17.97" y2="15.48" style="fill: none;stroke: #fff;stroke-linecap: round;stroke-miterlimit: 10;stroke-width: 4px"></line><line x1="17.76" y1="14.99" x2="28.33" y2="18.72" style="fill: none;stroke: #fff;stroke-linecap: round;stroke-miterlimit: 10;stroke-width: 3px"></line><circle cx="17.97" cy="15.06" r="3" style="fill: #43a6ea"></circle><circle cx="30.62" cy="21.17" r="1" style="fill: #fff"></circle><g><line x1="31.02" y1="24.45" x2="31.02" y2="26.6" style="fill: none;stroke: #fff;stroke-linecap: round;stroke-miterlimit: 10;stroke-width: 3px"></line><polyline points="27.76 33.67 26.51 31.72 26.51 27.8 35.54 27.8 35.54 31.72 33.59 33.67" style="fill: none;stroke: #fff;stroke-linecap: round;stroke-linejoin: round;stroke-width: 2px"></polyline></g><circle cx="17.97" cy="15.06" r="1.5" style="fill: #fff"></circle></g></g></svg>