<svg xmlns="http://www.w3.org/2000/svg" width="48" height="48" viewBox="0 0 48 48">
  <g id="Layer_2" data-name="Layer 2">
    <g id="Layer_1-2" data-name="Layer 1">
      <g>
        <path id="Base" d="M20.2,0h7.6c6.5,0,9.2.8,11.9,2.2a14.9,14.9,0,0,1,6.1,6.1C47.2,11,48,13.7,48,20.2v7.6c0,6.5-.8,9.2-2.2,11.9a14.9,14.9,0,0,1-6.1,6.1C37,47.2,34.3,48,27.8,48H20.2c-6.5,0-9.2-.8-11.9-2.2a14.9,14.9,0,0,1-6.1-6.1C.8,37,0,34.3,0,27.8V20.2C0,13.7.8,11,2.2,8.3A14.9,14.9,0,0,1,8.3,2.2C11,.8,13.7,0,20.2,0Z" style="fill: #d88493;fill-rule: evenodd"/>
        <g>
          <circle cx="24" cy="24" r="13" style="fill: none;stroke: #fff;stroke-linecap: round;stroke-width: 2px"/>
          <path d="M24.7,15.5v1a4.7,4.7,0,0,1,1.7.4,4.7,4.7,0,0,1,1.2.9l.6.9a3.7,3.7,0,0,1,.2.9,1,1,0,0,1-1.1,1.1,1.2,1.2,0,0,1-1.2-.9,1.8,1.8,0,0,0-1.4-1.5V22l1.8.6,1.2.7a8.3,8.3,0,0,1,.8,1.2,4,4,0,0,1,.3,1.5,4.5,4.5,0,0,1-.4,2,4.3,4.3,0,0,1-1.5,1.5,4.8,4.8,0,0,1-2.2.6v2.3a1.9,1.9,0,0,1-.1.8.6.6,0,0,1-.5.2.5.5,0,0,1-.4-.2.8.8,0,0,1-.2-.6V30.1a4.8,4.8,0,0,1-1.8-.4,4.5,4.5,0,0,1-1.3-1,4.2,4.2,0,0,1-.8-1.2,2.7,2.7,0,0,1-.3-1.2,1,1,0,0,1,.4-.8,1.1,1.1,0,0,1,.8-.3l.7.2a1,1,0,0,1,.4.5c.2.5.3.9.4,1.2a1.9,1.9,0,0,0,.6.7,1.9,1.9,0,0,0,.9.5V24.1l-2-.8a3.7,3.7,0,0,1-1.3-1.2,3.6,3.6,0,0,1-.5-1.9,3.4,3.4,0,0,1,1-2.6,4.5,4.5,0,0,1,2.8-1.1v-1c0-.5.2-.8.6-.8S24.7,15,24.7,15.5Zm-1.2,6.2V18.2l-1.1.6a1.7,1.7,0,0,0-.5,1.2,1.5,1.5,0,0,0,.4,1A3.5,3.5,0,0,0,23.5,21.7Zm1.2,2.7v4a2.7,2.7,0,0,0,1.4-.8,1.9,1.9,0,0,0,.5-1.3,1.7,1.7,0,0,0-.5-1.2A3.7,3.7,0,0,0,24.7,24.4Z" style="fill: #fff"/>
        </g>
      </g>
    </g>
  </g>
</svg>
