<svg xmlns="http://www.w3.org/2000/svg" id="Layer_1" data-name="Layer 1" width="48" height="48" viewBox="0 0 48 48"><path id="Base" d="M20.24,0h7.52C34.3,0,37.041.754,39.689,2.17A14.768,14.768,0,0,1,45.83,8.311C47.246,10.959,48,13.7,48,20.24v7.52c0,6.538-.754,9.281-2.17,11.929a14.768,14.768,0,0,1-6.141,6.141C37.041,47.246,34.3,48,27.76,48H20.24c-6.538,0-9.281-.754-11.929-2.17A14.768,14.768,0,0,1,2.17,39.689C.754,37.041,0,34.3,0,27.76V20.24C0,13.7.754,10.959,2.17,8.311A14.768,14.768,0,0,1,8.311,2.17C10.959.754,13.7,0,20.24,0Z" style="fill: #9792f8;fill-rule: evenodd"></path><path d="M16.209,15.885a1.556,1.556,0,0,0-1.552-1.552H7.963a1.558,1.558,0,0,0-1.551,1.552V20.9A1.559,1.559,0,0,0,7.963,22.46h6.694a1.3,1.3,0,0,0,.27-.028l.676.676a.354.354,0,0,0,.606-.25V20.965a.029.029,0,0,0,0-.019.121.121,0,0,0,0-.042Zm-3.071,1.972H8.477a.6.6,0,0,1-.6-.6h0a.6.6,0,0,1,.6-.6h4.661a.6.6,0,0,1,.6.6h0A.6.6,0,0,1,13.138,17.857Zm-2.293,2.33H8.477a.6.6,0,0,1-.6-.6h0a.6.6,0,0,1,.6-.6h2.368a.6.6,0,0,1,.6.6h0A.6.6,0,0,1,10.845,20.187Z" style="fill: #fff"></path><circle cx="24.768" cy="18.768" r="7.137" style="fill: #fff"></circle><path d="M38.537,33.453c0,3.854-6.164-.021-13.769-.021S11,37.307,11,33.453s6.164-6.979,13.768-6.979S38.537,29.6,38.537,33.453Z" style="fill: #fff"></path></svg>