<svg xmlns="http://www.w3.org/2000/svg" id="Layer_1" data-name="Layer 1" width="48" height="48" viewBox="0 0 48 48"><path id="Base" d="M20.24,0h7.52C34.3,0,37.041.754,39.689,2.17A14.768,14.768,0,0,1,45.83,8.311C47.246,10.959,48,13.7,48,20.24v7.52c0,6.538-.754,9.281-2.17,11.929a14.768,14.768,0,0,1-6.141,6.141C37.041,47.246,34.3,48,27.76,48H20.24c-6.538,0-9.281-.754-11.929-2.17A14.768,14.768,0,0,1,2.17,39.689C.754,37.041,0,34.3,0,27.76V20.24C0,13.7.754,10.959,2.17,8.311A14.768,14.768,0,0,1,8.311,2.17C10.959.754,13.7,0,20.24,0Z" style="fill: #ed736e;fill-rule: evenodd"></path><g><path d="M24,11.116A12.885,12.885,0,1,1,11.112,24" style="fill: none;stroke: #fff;stroke-linecap: round;stroke-miterlimit: 10;stroke-width: 2px"></path><path d="M29.164,17.493l-5.078,6.371M27.62,26.8l-3.457-2.756" style="fill: none;stroke: #fff;stroke-linecap: round;stroke-miterlimit: 10;stroke-width: 2px"></path><path d="M20.671,14.462A6.111,6.111,0,1,1,14.56,8.351,6.11,6.11,0,0,1,20.671,14.462ZM15.56,10.838h-2V15.1h2Zm0,6.016h-2v1.231h2Z" style="fill: #fff"></path></g></svg>