<svg xmlns="http://www.w3.org/2000/svg" width="48" height="48" viewBox="0 0 48 48">
    <defs>
        <clipPath id="yy3995euva">
            <path data-name="Rectangle 2932" style="fill:none;stroke:#fff" d="M0 0h18.597v19.689H0z"/>
        </clipPath>
    </defs>
    <g data-name="Group 1808">
        <path data-name="Path 1946" d="M79.464 2.58h7.521c6.537 0 9.281.754 11.928 2.17a14.762 14.762 0 0 1 6.141 6.141c1.416 2.648 2.17 5.391 2.17 11.929v7.52c0 6.538-.754 9.281-2.17 11.929a14.762 14.762 0 0 1-6.141 6.141c-2.647 1.416-5.391 2.17-11.928 2.17h-7.521c-6.538 0-9.281-.754-11.929-2.17a14.768 14.768 0 0 1-6.141-6.141c-1.416-2.648-2.17-5.391-2.17-11.929v-7.52c0-6.538.754-9.281 2.17-11.929a14.768 14.768 0 0 1 6.141-6.141c2.648-1.416 5.391-2.17 11.929-2.17" transform="translate(-59.224 -2.58)" style="fill:#ed736e;fill-rule:evenodd"/>
        <g data-name="Group 1801">
            <g data-name="Group 1800" style="clip-path:url(#yy3995euva)" transform="translate(18.001 14)">
                <path data-name="Path 1954" d="M1 1.661v16.367l15.46-8.183z" style="stroke-miterlimit:10;stroke-width:2px;fill:none;stroke:#fff"/>
            </g>
        </g>
    </g>
</svg>
