<svg xmlns="http://www.w3.org/2000/svg" width="48" height="48" viewBox="0 0 48 48">
  <g id="Layer_2" data-name="Layer 2">
    <g id="Layer_1-2" data-name="Layer 1">
      <g>
        <path id="Base" d="M20.2,0h7.6c6.5,0,9.2.8,11.9,2.2a14.9,14.9,0,0,1,6.1,6.1C47.2,11,48,13.7,48,20.2v7.6c0,6.5-.8,9.2-2.2,11.9a14.9,14.9,0,0,1-6.1,6.1C37,47.2,34.3,48,27.8,48H20.2c-6.5,0-9.2-.8-11.9-2.2a14.9,14.9,0,0,1-6.1-6.1C.8,37,0,34.3,0,27.8V20.2C0,13.7.8,11,2.2,8.3A14.9,14.9,0,0,1,8.3,2.2C11,.8,13.7,0,20.2,0Z" style="fill: #3bbfed;fill-rule: evenodd"/>
        <g>
          <path d="M26.3,40.1H21.7a.8.8,0,0,1-.7-.7l-.2-2.8a15.1,15.1,0,0,1-3.5-1.4l-2,1.8a.9.9,0,0,1-1.1-.1l-3.1-3.1a.9.9,0,0,1-.1-1.1l1.9-2.1a11.1,11.1,0,0,1-1.4-3.4L8.6,27a.8.8,0,0,1-.7-.7V21.7a.8.8,0,0,1,.7-.7l3-.2A13.6,13.6,0,0,1,13,17.5l-2-2.2a.9.9,0,0,1,.1-1.1l3.1-3.1a.9.9,0,0,1,1.1-.1l2.3,2a17.9,17.9,0,0,1,3.2-1.3L21,8.6a.8.8,0,0,1,.7-.7h4.6a.8.8,0,0,1,.7.7l.2,3.1A17.9,17.9,0,0,1,30.4,13l2.3-2a.9.9,0,0,1,1.1.1l3.1,3.1a.9.9,0,0,1,.1,1.1l-2,2.2a13.6,13.6,0,0,1,1.4,3.3l3,.2a.8.8,0,0,1,.7.7v4.6a.8.8,0,0,1-.7.7l-2.9.2a11.1,11.1,0,0,1-1.4,3.4L37,32.7a.9.9,0,0,1-.1,1.1l-3.1,3.1a.9.9,0,0,1-1.1.1l-2-1.8a15.1,15.1,0,0,1-3.5,1.4L27,39.4A.8.8,0,0,1,26.3,40.1Zm-3.9-1.5h3.2V36c0-.1,0-.1.1-.2s0-.2.1-.2l.3-.2a.1.1,0,0,1,.1-.1,11,11,0,0,0,4-1.7h.8a.1.1,0,0,1,.1.1l2,1.7,2.2-2.2-1.7-2h-.1a.4.4,0,0,1-.1-.3v-.4h.1a9.3,9.3,0,0,0,1.5-3.9.3.3,0,0,0,.1-.2l.2-.3h3.2V22.4H35.3l-.2-.3h0a11.8,11.8,0,0,0-1.6-3.8c-.1-.1-.1-.1-.1-.2a.4.4,0,0,1-.1-.3v-.3h.1l1.9-2.2-2.2-2.2L31,14.5h-.9a13.1,13.1,0,0,0-3.7-1.5h-.2l-.3-.2v-.4l-.2-3H22.4l-.2,3v.4l-.3.2h-.2a13.1,13.1,0,0,0-3.7,1.5H17l-2.2-1.9-2.2,2.2L14.5,17h.1v.3a.4.4,0,0,1-.1.3c0,.1,0,.1-.1.2a11.8,11.8,0,0,0-1.6,3.8h0l-.2.3H9.4v3.2h3.2l.2.3a.3.3,0,0,0,.1.2,9.3,9.3,0,0,0,1.5,3.9h.1v.4a.4.4,0,0,1-.1.3h-.1l-1.7,2,2.2,2.2,2-1.7a.1.1,0,0,1,.1-.1h.8a11,11,0,0,0,4,1.7.1.1,0,0,1,.1.1h.3a.4.4,0,0,1,.1.3c.1.1.1.1.1.2Z" style="fill: #fff"/>
          <path d="M20.1,24.1l-.5-.2a.8.8,0,0,1,0-1.1L23.5,19a.5.5,0,0,1,.5-.3h0a.5.5,0,0,1,.5.3l3.9,3.8a.8.8,0,1,1-1.1,1.1L24,20.5l-3.3,3.4Z" style="fill: #fff"/>
          <path d="M24,30.7a.8.8,0,0,1-.7-.8V19.5a.8.8,0,0,1,.7-.8.9.9,0,0,1,.8.8V29.9A.9.9,0,0,1,24,30.7Z" style="fill: #fff"/>
        </g>
      </g>
    </g>
  </g>
</svg>
