<svg xmlns="http://www.w3.org/2000/svg" id="Layer_1" data-name="Layer 1" width="48" height="48" viewBox="0 0 48 48"><path id="Base" d="M20.24,0h7.52C34.3,0,37.041.754,39.689,2.17A14.768,14.768,0,0,1,45.83,8.311C47.246,10.959,48,13.7,48,20.24v7.52c0,6.538-.754,9.281-2.17,11.929a14.768,14.768,0,0,1-6.141,6.141C37.041,47.246,34.3,48,27.76,48H20.24c-6.538,0-9.281-.754-11.929-2.17A14.768,14.768,0,0,1,2.17,39.689C.754,37.041,0,34.3,0,27.76V20.24C0,13.7.754,10.959,2.17,8.311A14.768,14.768,0,0,1,8.311,2.17C10.959.754,13.7,0,20.24,0Z" style="fill:#8fb93b;fill-rule:evenodd"></path><path d="M16.418,29.609a3.419,3.419,0,0,1-4.038-1.448,3.218,3.218,0,0,1,.007-3.729A3.412,3.412,0,0,1,16.418,23v-.242q0-1.88,0-3.759a1.541,1.541,0,0,1,1.593-1.6c1.239-.006,2.477,0,3.716,0H22a3.432,3.432,0,0,1,1.7-4.149,3.205,3.205,0,0,1,3.681.277,3.425,3.425,0,0,1,1.247,3.872h.253c1.246,0,2.492,0,3.738,0a1.535,1.535,0,0,1,1.572,1.274,1.633,1.633,0,0,1,.024.3q0,1.793,0,3.585c0,.341-.1.413-.425.354a3.314,3.314,0,0,0-3.509,1.38,3.255,3.255,0,0,0-.148,3.8,3.332,3.332,0,0,0,3.413,1.65c.094-.01.187-.031.28-.049.288-.055.388.026.388.325,0,.765,0,1.529,0,2.294,0,.452,0,.9,0,1.356a1.537,1.537,0,0,1-1.541,1.544q-1.8,0-3.607,0c-.336,0-.413-.1-.351-.429a3.463,3.463,0,1,0-6.813-.109c.01.057.022.114.031.172.038.263-.046.365-.315.366q-1.3,0-2.6,0c-.335,0-.67,0-1.005,0a1.539,1.539,0,0,1-1.589-1.586q0-1.89,0-3.781Z" style="fill:none;stroke:#fff;stroke-linecap:round;stroke-miterlimit:10;stroke-width:2px"></path></svg>