<svg xmlns="http://www.w3.org/2000/svg" width="48" height="48" viewBox="0 0 48 48">
    <defs>
        <clipPath id="69e8xj590a">
            <path data-name="Rectangle 2930" style="fill:none;stroke:#fff" d="M0 0h16.926v26.707H0z"/>
        </clipPath>
    </defs>
    <g data-name="Group 1806">
        <g data-name="Group 1796">
            <path data-name="Path 1944" d="M20.24 0h7.521c6.539 0 9.281.754 11.928 2.17a14.762 14.762 0 0 1 6.141 6.141C47.246 10.959 48 13.7 48 20.24v7.52c0 6.538-.754 9.281-2.17 11.929a14.762 14.762 0 0 1-6.141 6.141C37.042 47.246 34.3 48 27.761 48H20.24c-6.538 0-9.281-.754-11.929-2.17a14.768 14.768 0 0 1-6.141-6.141C.754 37.041 0 34.3 0 27.76v-7.52c0-6.54.754-9.281 2.17-11.929A14.768 14.768 0 0 1 8.311 2.17C10.959.754 13.7 0 20.24 0" style="fill:#80bef9;fill-rule:evenodd"/>
            <g data-name="Group 1795">
                <g data-name="Group 1794" transform="translate(17.074 14)" style="clip-path:url(#69e8xj590a)">
                    <path data-name="Path 1951" d="m5.855 1-3.37 8.483h5.927l-4.3 10.111L14.919 5.263H8.993L11.317 1z" style="stroke-miterlimit:10;stroke-width:2px;fill:none;stroke:#fff"/>
                </g>
            </g>
        </g>
    </g>
</svg>
