<svg xmlns="http://www.w3.org/2000/svg" xmlns:xlink="http://www.w3.org/1999/xlink" width="104px" height="112px" viewBox="0 0 104 112"><title>Implementation</title><g id="Homepage" stroke="none" stroke-width="1" fill="none" fill-rule="evenodd"><g id="Business-Central" transform="translate(-214.000000, -2529.000000)"><g id="Implementation" transform="translate(214.000000, 2529.000000)"><path d="M62.4,2.74613392 L93.6,20.4974226 C100.035542,24.1589345 104,30.9256875 104,38.2487113 L104,73.7512887 C104,81.0743125 100.035542,87.8410655 93.6,91.5025774 L62.4,109.253866 C55.9644576,112.915378 48.0355424,112.915378 41.6,109.253866 L10.4,91.5025774 C3.9644576,87.8410655 0,81.0743125 0,73.7512887 L0,38.2487113 C0,30.9256875 3.9644576,24.1589345 10.4,20.4974226 L41.6,2.74613392 C48.0355424,-0.915377973 55.9644576,-0.915377973 62.4,2.74613392 Z" id="Polygon" fill="#E56E4B" fill-rule="nonzero"></path><path d="M37.0161025,48.9354641 C39.7788087,43.4628902 45.4509952,39.7096691 51.9996323,39.7096691 C61.2640079,39.7096691 68.773805,47.2194662 68.773805,56.4838418 L66.2576791,56.4838418 L72.1286395,64.8709282 L77.9996,56.4838418 L75.4834741,56.4838418 C75.4834741,43.5140515 64.9694226,33 51.9996323,33 C44.0201583,33 36.9691348,36.9796725 32.7261078,43.0636649" id="Stroke-1" stroke="#FFFFFF" stroke-width="2" stroke-linejoin="round"></path><path d="M66.9834975,64.0322196 C64.2207913,69.5047934 58.5486048,73.2580146 51.9999677,73.2580146 C42.7355921,73.2580146 35.225795,65.7482174 35.225795,56.4838418 L37.7419209,56.4838418 L31.8709605,48.0967555 L26,56.4838418 L28.5161259,56.4838418 C28.5161259,69.4536322 39.0301774,79.9676837 51.9999677,79.9676837 C59.9794417,79.9676837 67.0313039,75.9871725 71.2743309,69.90318" id="Stroke-3" stroke="#FFFFFF" stroke-width="2" stroke-linejoin="round"></path><path d="M60.3868864,56.4838418 C60.3868864,61.1151909 56.6311491,64.8709282 51.9998,64.8709282 C47.3684509,64.8709282 43.6127136,61.1151909 43.6127136,56.4838418 C43.6127136,51.8524927 47.3684509,48.0967555 51.9998,48.0967555 C56.6311491,48.0967555 60.3868864,51.8524927 60.3868864,56.4838418 Z" id="Stroke-5" stroke="#FFFFFF" stroke-width="2" stroke-linejoin="round"></path><line x1="51.1610914" y1="56.4838418" x2="52.8385086" y2="56.4838418" id="Stroke-7" stroke="#FFFFFF" stroke-width="2" stroke-linejoin="round"></line><line x1="47.8062568" y1="56.4838418" x2="49.4836741" y2="56.4838418" id="Stroke-9" stroke="#FFFFFF" stroke-width="2" stroke-linejoin="round"></line><line x1="54.5159259" y1="56.4838418" x2="56.1933432" y2="56.4838418" id="Stroke-11" stroke="#FFFFFF" stroke-width="2" stroke-linejoin="round"></line></g></g></g></svg>