<?xml version="1.0" encoding="UTF-8"?><svg id="Layer_2" xmlns="http://www.w3.org/2000/svg" width="48" height="48" viewBox="0 0 48 48"><g id="Layer_1-2"><g><path id="Base" d="M20.24,0h7.521c6.538,0,9.281,.754,11.929,2.17,2.648,1.416,4.725,3.494,6.141,6.141,1.416,2.648,2.17,5.391,2.17,11.929v7.521c0,6.538-.754,9.281-2.17,11.929-1.416,2.648-3.494,4.725-6.141,6.141-2.648,1.416-5.391,2.17-11.929,2.17h-7.521c-6.538,0-9.281-.754-11.929-2.17-2.648-1.416-4.725-3.494-6.141-6.141-1.416-2.648-2.17-5.391-2.17-11.929v-7.521c0-6.538,.754-9.281,2.17-11.929,1.416-2.648,3.494-4.725,6.141-6.141C10.959,.754,13.702,0,20.24,0Z" style="fill:#ed736e; fill-rule:evenodd;"/><g><path d="M26.267,13.447c1.304,.273,2.522,.779,3.61,1.472m3.368,15.147c.731-1.144,1.254-2.432,1.519-3.813m-16.869,7.027c1.151,.773,2.457,1.334,3.862,1.625m-8.447-13.162c.3-1.327,.841-2.564,1.575-3.66m-1.649,8.171c.265,1.38,.788,2.669,1.519,3.813m11.489,4.839c1.405-.291,2.71-.852,3.862-1.625m3.011-15.197c.734,1.097,1.275,2.333,1.575,3.66m-16.568-6.824c1.088-.693,2.307-1.199,3.61-1.472m0,0l.225-3.311h4.084l.225,3.311m-4.51,21.458l.201,2.959h4.084l.201-2.959M14.884,18.083l-2.131-2.442,2.887-2.888,2.482,2.166m15.122,15.147l2.001,2.293-2.887,2.888-2.255-1.967m-16.869-7.027l-3.099-.211v-4.084l3.173-.216m21.455,4.51l3.099-.211v-4.084l-3.173-.216M14.755,30.066l-2.001,2.293,2.887,2.888,2.255-1.967m15.221-15.197l2.131-2.442-2.887-2.888-2.482,2.166" style="fill:none; stroke:#fff; stroke-linecap:round; stroke-linejoin:round; stroke-width:1.5px;"/><polyline points="20.28 25.193 22.017 26.9 27.72 21.096" style="fill:none; stroke:#fff; stroke-linecap:round; stroke-linejoin:round; stroke-width:1.5px;"/></g></g></g></svg>