<svg xmlns="http://www.w3.org/2000/svg" width="64" height="64" viewBox="0 0 64 64">
    <defs>
        <clipPath id="a08g3sm02a">
            <path data-name="Rectangle 885" style="fill:none" d="M0 0h40v42.154H0z"/>
        </clipPath>
    </defs>
    <g data-name="Group 648">
        <path data-name="Rectangle 877" style="fill:none" d="M0 0h64v64H0z"/>
        <g data-name="Group 647">
            <g data-name="Group 646" style="clip-path:url(#a08g3sm02a)" transform="translate(12 11)">
                <path data-name="Path 632" d="M1.168 36.546a1.139 1.139 0 0 1-.383-.065A1.168 1.168 0 0 1 .064 35 24.717 24.717 0 0 1 15.8 19.636a10.508 10.508 0 1 1 11.612-.814 24.323 24.323 0 0 1 9.7 3.918 1.168 1.168 0 0 1-1.312 1.928 22.072 22.072 0 0 0-12.417-3.859l-.014.016h-.38a10.974 10.974 0 0 1-2.595.175A22.324 22.324 0 0 0 2.27 35.76a1.168 1.168 0 0 1-1.1.786M21 2.335a8.172 8.172 0 0 0-.677 16.316 24.607 24.607 0 0 1 2.07-.154l.353-.058.489-.07A8.173 8.173 0 0 0 21 2.335" style="fill:#e63946"/>
                <path data-name="Path 633" d="M27.988 33.4a1.168 1.168 0 0 1-.549-.137l-4.413-2.355-4.442 2.3a1.168 1.168 0 0 1-1.684-1.24l.876-4.926-3.566-3.514a1.168 1.168 0 0 1 .66-1.988l4.954-.688 2.241-4.475a1.17 1.17 0 0 1 1.043-.644h.008a1.168 1.168 0 0 1 1.043.657l2.187 4.5 4.947.749a1.167 1.167 0 0 1 .635 2l-3.6 3.471.816 4.936a1.169 1.169 0 0 1-1.156 1.354m-4.954-4.98a1.164 1.164 0 0 1 .549.137l2.869 1.53-.531-3.206a1.168 1.168 0 0 1 .342-1.032l2.337-2.255-3.214-.487a1.161 1.161 0 0 1-.875-.643l-1.423-2.925-1.457 2.908a1.163 1.163 0 0 1-.881.634l-3.22.447 2.315 2.283a1.163 1.163 0 0 1 .328 1.035l-.568 3.2 2.887-1.5a1.169 1.169 0 0 1 .537-.131m-2.441-6.5z" transform="translate(7.715 8.756)" style="fill:#1d3557"/>
            </g>
        </g>
    </g>
</svg>
