<svg xmlns="http://www.w3.org/2000/svg" xmlns:xlink="http://www.w3.org/1999/xlink" width="36px" height="36px" viewBox="0 0 36 36"><title>Increase Asset Uptime</title><g id="Mixed-Reality-and-Power-BI" stroke="none" stroke-width="1" fill="none" fill-rule="evenodd"><g id="Supply-Chain-Management" transform="translate(-112.000000, -1464.000000)"><g id="Increase-Asset-Uptime" transform="translate(112.000000, 1464.000000)"><rect id="Rectangle" fill="#FF6A6A" x="0" y="0" width="36" height="36" rx="7.5"></rect><path d="M27,18 C27,22.9705714 22.9705714,27 18,27 C13.0294286,27 9,22.9705714 9,18 C9,13.0294286 13.0294286,9 18,9 C22.9705714,9 27,13.0294286 27,18 Z" id="Stroke-204" stroke="#FFFFFF" stroke-width="1.909"></path><path d="M18.8182286,18 C18.8182286,18.4517143 18.4522286,18.8185714 17.9996571,18.8185714 C17.5479429,18.8185714 17.1819429,18.4517143 17.1819429,18 C17.1819429,17.5482857 17.5479429,17.1814286 17.9996571,17.1814286 C18.4522286,17.1814286 18.8182286,17.5482857 18.8182286,18 Z" id="Stroke-205" stroke="#FFFFFF" stroke-width="1.909"></path><polyline id="Stroke-206" stroke="#FFFFFF" stroke-width="1.909" points="18 11.4546 18 17.9997429 22.0911429 22.0908857"></polyline></g></g></g></svg>