<svg xmlns="http://www.w3.org/2000/svg" xmlns:xlink="http://www.w3.org/1999/xlink" width="36px" height="36px" viewBox="0 0 36 36"><title>International Accounting</title><g id="Mixed-Reality-and-Power-BI" stroke="none" stroke-width="1" fill="none" fill-rule="evenodd"><g id="Sales" transform="translate(-112.000000, -1357.000000)"><g id="International-Accounting" transform="translate(112.000000, 1357.000000)"><rect id="Rectangle" fill="#6A93FF" x="0" y="0" width="36" height="36" rx="7.5"></rect><path d="M16.28,13.25 C16.28,16.1495 13.86682,18.5 10.89,18.5 C7.91318,18.5 5.5,16.1495 5.5,13.25 C5.5,10.3505 7.91318,8 10.89,8 C13.86682,8 16.28,10.3505 16.28,13.25" id="Stroke-349" stroke="#FFFFFF" stroke-width="1.10562917" stroke-linecap="square"></path><path d="M9.41996733,15.1592 L11.379874,15.1592 C11.9214407,15.1592 12.3603407,14.7322 12.3603407,14.2047 C12.3603407,13.6772 11.9214407,13.2502 11.379874,13.2502 L10.890154,13.2502 L10.3999207,13.2502 C9.85886733,13.2502 9.41996733,12.8227 9.41996733,12.2952 C9.41996733,11.7682 9.85886733,11.3407 10.3999207,11.3407 L12.3603407,11.3407" id="Stroke-351" stroke="#FFFFFF" stroke-width="1.10562917" stroke-linecap="square"></path><line x1="10.89" y1="10.38625" x2="10.89" y2="11.34075" id="Stroke-353" stroke="#FFFFFF" stroke-width="1.10562917" stroke-linecap="square"></line><line x1="10.89" y1="15.1592" x2="10.89" y2="16.1137" id="Stroke-355" stroke="#FFFFFF" stroke-width="1.10562917" stroke-linecap="square"></line><path d="M22.9533333,24.75 C22.9533333,27.6495 20.5401533,30 17.5633333,30 C14.5865133,30 12.1733333,27.6495 12.1733333,24.75 C12.1733333,21.8505 14.5865133,19.5 17.5633333,19.5 C20.5401533,19.5 22.9533333,21.8505 22.9533333,24.75 Z" id="Stroke-367" stroke="#FFFFFF" stroke-width="1.10562917" stroke-linecap="square"></path><polyline id="Stroke-369" stroke="#FFFFFF" stroke-width="1.10562917" stroke-linecap="square" points="19.5234453 22.3638 17.5635387 24.7498 15.6031187 22.3638"></polyline><line x1="17.5633333" y1="28.09085" x2="17.5633333" y2="24.74985" id="Stroke-371" stroke="#FFFFFF" stroke-width="1.10562917" stroke-linecap="square"></line><line x1="16.0933007" y1="25.22705" x2="19.033674" y2="25.22705" id="Stroke-373" stroke="#FFFFFF" stroke-width="1.10562917" stroke-linecap="square"></line><line x1="16.0933007" y1="26.6592" x2="19.033674" y2="26.6592" id="Stroke-375" stroke="#FFFFFF" stroke-width="1.10562917" stroke-linecap="square"></line><path d="M30.14,13.25 C30.14,16.1495 27.72682,18.5 24.75,18.5 C21.77318,18.5 19.36,16.1495 19.36,13.25 C19.36,10.3505 21.77318,8 24.75,8 C27.72682,8 30.14,10.3505 30.14,13.25 Z" id="Stroke-378" stroke="#FFFFFF" stroke-width="1.10562917" stroke-linecap="square"></path><path d="M26.220084,11.10205 C26.220084,10.44355 25.671844,9.90905 24.9947573,9.90905 C24.318184,9.90905 23.769944,10.44355 23.769944,11.10205 L23.769944,12.52005 C23.769944,13.63105 23.4285773,14.71655 22.7899907,15.63605 L26.220084,15.63605" id="Stroke-380" stroke="#FFFFFF" stroke-width="1.10562917" stroke-linecap="square"></path><line x1="22.7899393" y1="12.77295" x2="24.749846" y2="12.77295" id="Stroke-382" stroke="#FFFFFF" stroke-width="1.10562917" stroke-linecap="square"></line></g></g></g></svg>