<?xml version="1.0" encoding="UTF-8"?><svg id="Layer_2" xmlns="http://www.w3.org/2000/svg" width="48" height="48" viewBox="0 0 48 48"><g id="Layer_1-2"><g><g><path id="Base" d="M20.24,0h7.521c6.538,0,9.281,.754,11.929,2.17,2.648,1.416,4.725,3.494,6.141,6.141,1.416,2.648,2.17,5.391,2.17,11.929v7.521c0,6.538-.754,9.281-2.17,11.929-1.416,2.648-3.494,4.725-6.141,6.141-2.648,1.416-5.391,2.17-11.929,2.17h-7.521c-6.538,0-9.281-.754-11.929-2.17-2.648-1.416-4.725-3.494-6.141-6.141-1.416-2.648-2.17-5.391-2.17-11.929v-7.521c0-6.538,.754-9.281,2.17-11.929,1.416-2.648,3.494-4.725,6.141-6.141C10.959,.754,13.702,0,20.24,0Z" style="fill:#8c67e5; fill-rule:evenodd;"/><path d="M34.12,19.86l-8.522-7.662-4.261,3.831-7.457-5.746" style="fill:none; stroke:#fff; stroke-linecap:round; stroke-miterlimit:10; stroke-width:2px;"/></g><path d="M25.214,20.352v.978c.646,.066,1.2,.199,1.663,.399,.461,.199,.865,.501,1.209,.906,.272,.308,.481,.625,.629,.951s.222,.625,.222,.897c0,.302-.111,.564-.331,.784s-.487,.33-.801,.33c-.592,0-.975-.32-1.151-.96-.199-.755-.68-1.256-1.441-1.504v3.769c.749,.205,1.345,.393,1.79,.562,.443,.169,.841,.414,1.191,.734,.374,.332,.662,.73,.865,1.191,.202,.463,.304,.968,.304,1.518,0,.689-.162,1.334-.485,1.935s-.798,1.091-1.426,1.472-1.374,.607-2.238,.68v2.256c0,.356-.035,.616-.105,.779s-.221,.245-.457,.245c-.217,0-.37-.066-.457-.199-.089-.133-.132-.338-.132-.616v-2.446c-.707-.079-1.325-.245-1.853-.498s-.968-.569-1.323-.946c-.352-.378-.614-.771-.783-1.178-.169-.409-.254-.808-.254-1.201,0-.29,.113-.551,.34-.784,.225-.232,.508-.348,.847-.348,.272,0,.501,.063,.689,.19s.317,.305,.39,.535c.163,.495,.305,.874,.426,1.138,.121,.262,.303,.502,.549,.72,.244,.217,.569,.384,.973,.498v-4.213c-.809-.223-1.486-.472-2.029-.748-.544-.274-.985-.665-1.323-1.173s-.507-1.16-.507-1.957c0-1.039,.331-1.891,.992-2.555,.662-.664,1.618-1.051,2.868-1.16v-.96c0-.507,.19-.761,.571-.761,.387,0,.58,.248,.58,.743Zm-1.151,6.215v-3.47c-.507,.151-.903,.35-1.187,.598s-.426,.622-.426,1.123c0,.477,.133,.838,.399,1.083,.266,.244,.67,.466,1.214,.665Zm1.151,2.691v3.968c.61-.121,1.081-.365,1.413-.734s.498-.797,.498-1.287c0-.525-.162-.931-.484-1.219-.324-.286-.799-.53-1.427-.729Z" style="fill:#fff;"/></g></g></svg>