<svg xmlns="http://www.w3.org/2000/svg" xmlns:xlink="http://www.w3.org/1999/xlink" width="36px" height="36px" viewBox="0 0 36 36"><title>Mixed Reality Guide</title><g id="Mixed-Reality-and-Power-BI" stroke="none" stroke-width="1" fill="none" fill-rule="evenodd"><g id="Mixed-Reality" transform="translate(-112.000000, -1257.000000)"><g id="Mixed-Reality-Guide" transform="translate(112.000000, 1257.000000)"><rect id="Rectangle" fill="#FFC16A" x="0" y="0" width="36" height="36" rx="7.5"></rect><g id="Guide" transform="translate(9.000000, 10.000000)" stroke="#FFFFFF" stroke-width="1.5"><path d="M0,0 L0,11.4548571 L6.546,11.4548571 C7.90114286,11.4548571 9,12.5537143 9,13.9088571 L9,11.4548571 L9,2.45485714 C9,1.09885714 7.90114286,0 6.546,0 L0,0 Z" id="Stroke-77"></path><path d="M18,0 L18,11.4548571 L11.454,11.4548571 C10.0988571,11.4548571 9,12.5537143 9,13.9088571 L9,11.4548571 L9,2.45485714 C9,1.09885714 10.0988571,0 11.454,0 L18,0 Z" id="Stroke-79"></path><polyline id="Stroke-81" points="18 11.4546857 18 14.7272571 11.454 14.7272571 6.546 14.7272571 0 14.7272571 0 11.4546857"></polyline></g></g></g></g></svg>