<svg xmlns="http://www.w3.org/2000/svg" xmlns:xlink="http://www.w3.org/1999/xlink" width="36px" height="36px" viewBox="0 0 36 36"><title>Mixed Reality Product Visualize</title><g id="Mixed-Reality-and-Power-BI" stroke="none" stroke-width="1" fill="none" fill-rule="evenodd"><g id="Mixed-Reality" transform="translate(-112.000000, -1307.000000)"><g id="Mixed-Reality-Product-Visualize" transform="translate(112.000000, 1307.000000)"><rect id="Rectangle" fill="#6AC0FF" x="0" y="0" width="36" height="36" rx="7.5"></rect><g id="Product-Visualize" transform="translate(9.000000, 8.000000)" stroke="#FFFFFF" stroke-width="1.5"><path d="M13.0907568,8.1815137 L16.3630274,8.1815137 C17.263153,8.1815137 17.9991627,8.9183607 17.9991627,9.8184863 L17.9991627,16.3630274 C17.9991627,17.2639903 17.263153,18 16.3630274,18 L11.4546216,18 L10.2681304,16.2240313 C9.99013816,15.7995069 9.50700098,15.5449598 8.99958134,15.5449598 C8.49299902,15.5449598 8.00986184,15.7995069 7.73186956,16.2240313 L6.54537842,18 L1.63613527,18 C0.736009676,18 0,17.2639903 0,16.3630274 L0,9.8184863 C0,8.9183607 0.736009676,8.1815137 1.63613527,8.1815137 L5.72731079,8.1815137 L13.0907568,8.1815137 Z" id="Stroke-790"></path><line x1="2.45487277" y1="11.454789" x2="4.09100805" y2="11.454789" id="Stroke-792"></line><line x1="2.45487277" y1="14.7272271" x2="4.09100805" y2="14.7272271" id="Stroke-794"></line><path d="M17.1808438,8.1815137 L0.818653766,8.1815137 C0.818653766,3.66330186 4.4811183,0 8.99933014,0 C13.5183793,0 17.1808438,3.66330186 17.1808438,8.1815137 Z" id="Stroke-796"></path><path d="M1.44011723,5.06439968 C2.8392892,3.94405731 4.61442062,3.27252175 6.54529469,3.27252175 L11.4545378,3.27252175 C13.3854119,3.27252175 15.1605433,3.94405731 16.5597153,5.06439968" id="Stroke-798"></path></g></g></g></g></svg>