<svg xmlns="http://www.w3.org/2000/svg" xmlns:xlink="http://www.w3.org/1999/xlink" width="36px" height="36px" viewBox="0 0 36 36"><title>Mixed Reality Layout</title><g id="Mixed-Reality-and-Power-BI" stroke="none" stroke-width="1" fill="none" fill-rule="evenodd"><g id="Mixed-Reality" transform="translate(-112.000000, -1080.000000)"><g id="Mixed-Reality-Layout" transform="translate(112.000000, 1080.000000)"><rect id="Rectangle" fill="#FF6A6A" x="0" y="0" width="36" height="36" rx="7.5"></rect><g id="Layout" transform="translate(9.000000, 9.000000)" stroke="#FFFFFF" stroke-width="1.5"><path d="M0,16.0049107 C0,17.1067681 0.902883564,18 1.99261159,18 L7.36328736,18 L7.36328736,0 L1.99261159,0 C0.892122599,0 0,0.892622799 0,1.99508929 L0,16.0049107 Z" id="Stroke-532"></path><path d="M7.36328736,8.99957344 L18,8.99957344 L18,1.99729703 C18,0.894220341 17.111415,0 15.9993157,0 L7.36328736,0 L7.36328736,8.99957344 Z" id="Stroke-533"></path><path d="M7.36328736,18 L15.9993157,18 C17.1042631,18 18,17.1040997 18,16.0025136 L18,8.99957344 L7.36328736,8.99957344 L7.36328736,18 Z" id="Stroke-534"></path></g></g></g></g></svg>