<svg xmlns="http://www.w3.org/2000/svg" width="94" height="94" viewBox="0 0 94 94">
    <defs>
        <clipPath id="0mtspjdf4b">
            <path data-name="Rectangle 899" style="fill:#f49420" d="M0 0h40v40.001H0z"/>
        </clipPath>
        <filter id="7mloij5jea" x="0" y="0" width="94" height="94" filterUnits="userSpaceOnUse">
            <feOffset dx="5" dy="5"/>
            <feGaussianBlur stdDeviation="5" result="blur"/>
            <feFlood flood-color="#165cc4" flood-opacity=".161"/>
            <feComposite operator="in" in2="blur"/>
            <feComposite in="SourceGraphic"/>
        </filter>
    </defs>
    <g data-name="Group 1410">
        <g data-name="Group 1406">
            <g style="filter:url(#7mloij5jea)">
                <rect data-name="Rectangle 2309" width="64" height="64" rx="5" transform="translate(10 10)" style="fill:#fff"/>
            </g>
            <g data-name="Group 989">
                <path data-name="Rectangle 877" transform="translate(18 18)" style="fill:none" d="M0 0h48v48H0z"/>
                <g data-name="Group 670">
                    <g data-name="Group 669" transform="translate(22 22)" style="clip-path:url(#0mtspjdf4b)">
                        <path data-name="Path 656" d="M23.71 7.548a.934.934 0 0 1-.5-.146 13.95 13.95 0 0 0-4.656-1.9.934.934 0 1 1 .385-1.828 15.8 15.8 0 0 1 5.275 2.15.934.934 0 0 1-.5 1.723" transform="translate(4.372 .897)" style="fill:#f49420"/>
                        <path data-name="Path 657" d="M26.45 24.909a.934.934 0 0 1-.786-1.437 13.93 13.93 0 0 0 1.959-4.916.934.934 0 0 1 1.835.351 15.854 15.854 0 0 1-2.219 5.571.932.932 0 0 1-.788.431" transform="translate(6.264 4.368)" style="fill:#f49420"/>
                        <path data-name="Path 658" d="M14.813 29.659a.9.9 0 0 1-.191-.02 15.84 15.84 0 0 1-5.642-2.373.934.934 0 0 1 1.041-1.552A13.989 13.989 0 0 0 15 27.81a.934.934 0 0 1-.188 1.848" transform="translate(2.103 6.273)" style="fill:#f49420"/>
                        <path data-name="Path 659" d="M4.438 15.676a.908.908 0 0 1-.207-.024.932.932 0 0 1-.7-1.116 15.854 15.854 0 0 1 2.3-5.348.934.934 0 1 1 1.552 1.039 14.042 14.042 0 0 0-2.031 4.72.933.933 0 0 1-.909.729" transform="translate(.86 2.154)" style="fill:#f49420"/>
                        <path data-name="Path 660" d="M6.447 24.909a.932.932 0 0 1-.788-.431 15.854 15.854 0 0 1-2.219-5.571.934.934 0 0 1 1.835-.351 13.93 13.93 0 0 0 1.959 4.916.934.934 0 0 1-.786 1.437" transform="translate(.84 4.368)" style="fill:#f49420"/>
                        <path data-name="Path 661" d="M18.718 29.659a.934.934 0 0 1-.188-1.848 14 14 0 0 0 4.979-2.1.934.934 0 1 1 1.041 1.552 15.855 15.855 0 0 1-5.642 2.373.9.9 0 0 1-.191.02" transform="translate(4.366 6.273)" style="fill:#f49420"/>
                        <path data-name="Path 662" d="M28.473 15.676a.933.933 0 0 1-.909-.729 14.042 14.042 0 0 0-2.031-4.72.934.934 0 1 1 1.552-1.039 15.854 15.854 0 0 1 2.3 5.348.932.932 0 0 1-.7 1.116.908.908 0 0 1-.207.024" transform="translate(6.229 2.154)" style="fill:#f49420"/>
                        <path data-name="Path 663" d="M9.753 7.548a.934.934 0 0 1-.5-1.723 15.8 15.8 0 0 1 5.275-2.15.934.934 0 1 1 .382 1.825 13.95 13.95 0 0 0-4.656 1.9.934.934 0 0 1-.5.146" transform="translate(2.165 .897)" style="fill:#f49420"/>
                        <path data-name="Path 664" d="M19.973 6.422a.933.933 0 0 1-.93-.871l-.25-3.683H14.92l-.25 3.683a.934.934 0 0 1-1.863-.127l.31-4.553A.933.933 0 0 1 14.048 0h5.616a.933.933 0 0 1 .936.871l.31 4.553a.934.934 0 0 1-.868 1h-.065" transform="translate(3.143)" style="fill:#f49420"/>
                        <path data-name="Path 665" d="M19.659 33.287h-5.616a.934.934 0 0 1-.932-.871l-.278-4.07a.934.934 0 1 1 1.863-.126l.217 3.2h3.872l.218-3.2a.949.949 0 0 1 .997-.869.935.935 0 0 1 .869 1l-.278 4.07a.933.933 0 0 1-.93.871" transform="translate(3.15 6.714)" style="fill:#f49420"/>
                        <path data-name="Path 666" d="M6.754 12.087a.93.93 0 0 1-.7-.32L3.119 8.41a.935.935 0 0 1 .044-1.275l3.971-3.972a.936.936 0 0 1 1.274-.044L11.822 6.1a.934.934 0 1 1-1.228 1.409L7.837 5.1 5.1 7.838l2.356 2.7a.934.934 0 0 1-.7 1.548" transform="translate(.709 .709)" style="fill:#f49420"/>
                        <path data-name="Path 667" d="M26.084 31a.933.933 0 0 1-.614-.23l-3.1-2.7a.934.934 0 1 1 1.23-1.412l2.444 2.132 2.736-2.739-2.18-2.5a.934.934 0 0 1 1.409-1.228l2.753 3.154a.935.935 0 0 1-.044 1.275l-3.971 3.971a.93.93 0 0 1-.66.274" transform="translate(5.413 5.402)" style="fill:#f49420"/>
                        <path data-name="Path 668" d="M5.2 20.888h-.065L.871 20.6A.935.935 0 0 1 0 19.665v-5.617a.933.933 0 0 1 .871-.932l4.363-.3a.934.934 0 0 1 .127 1.864l-3.492.238v3.87l3.391.232a.934.934 0 0 1-.06 1.868" transform="translate(0 3.146)" style="fill:#f49420"/>
                        <path data-name="Path 669" d="M28.147 20.888a.934.934 0 0 1-.062-1.866l3.391-.232v-3.87l-3.492-.238a.934.934 0 0 1 .127-1.864l4.363.3a.933.933 0 0 1 .871.932v5.617a.935.935 0 0 1-.871.932l-4.262.289h-.065" transform="translate(6.656 3.146)" style="fill:#f49420"/>
                        <path data-name="Path 670" d="M7.794 31a.93.93 0 0 1-.66-.274l-3.971-3.97a.935.935 0 0 1-.044-1.275l2.753-3.154a.934.934 0 0 1 1.409 1.228l-2.18 2.5 2.736 2.735 2.444-2.132a.934.934 0 1 1 1.228 1.409l-3.1 2.7a.933.933 0 0 1-.614.23" transform="translate(.709 5.402)" style="fill:#f49420"/>
                        <path data-name="Path 671" d="M27.186 12.087a.934.934 0 0 1-.7-1.548l2.356-2.7L26.1 5.1l-2.756 2.4a.934.934 0 1 1-1.226-1.4l3.414-2.978a.936.936 0 0 1 1.274.044l3.971 3.972a.935.935 0 0 1 .043 1.272l-2.93 3.357a.93.93 0 0 1-.7.32" transform="translate(5.351 .709)" style="fill:#f49420"/>
                        <path data-name="Path 672" d="M18.372 25.932a.934.934 0 0 1-.325-1.811 6.759 6.759 0 0 0 0-12.694.935.935 0 0 1 .64-1.757 8.629 8.629 0 0 1 0 16.205.953.953 0 0 1-.323.057" transform="translate(4.28 2.36)" style="fill:#f49420"/>
                        <path data-name="Path 673" d="M15.108 25.932a.929.929 0 0 1-.32-.057 8.629 8.629 0 0 1 0-16.205.935.935 0 0 1 .64 1.757 6.76 6.76 0 0 0 0 12.694.934.934 0 0 1-.32 1.811" transform="translate(2.241 2.36)" style="fill:#f49420"/>
                        <path data-name="Path 674" d="M18.252 14.695a.933.933 0 0 1-.912-.737l-.732-3.388a.935.935 0 0 1 .716-1.11l4.184-.905a.935.935 0 0 1 .395 1.827l-3.271.706.534 2.476a.934.934 0 0 1-.716 1.11.973.973 0 0 1-.2.021" transform="translate(4.072 2.095)" style="fill:#f49420"/>
                        <path data-name="Path 675" d="M11.006 24.715a.934.934 0 0 1-.091-1.863l3.329-.333L13.992 20a.934.934 0 0 1 1.86-.186l.344 3.449a.934.934 0 0 1-.837 1.021l-4.26.425a.782.782 0 0 1-.093 0" transform="translate(2.473 4.657)" style="fill:#f49420"/>
                    </g>
                </g>
            </g>
        </g>
    </g>
</svg>
