<svg xmlns="http://www.w3.org/2000/svg" width="48" height="48" viewBox="0 0 48 48">
    <path data-name="Rectangle 976" style="fill:none" d="M0 0h48v48H0z"/>
    <path data-name="Icon awesome-hand-holding-heart" d="M19.117 17.395a1.21 1.21 0 0 0 1.771 0l7.562-7.93a5.756 5.756 0 0 0-.389-8.25 5.278 5.278 0 0 0-7.284.535L20 2.562l-.771-.806a5.272 5.272 0 0 0-7.284-.542 5.762 5.762 0 0 0-.389 8.25zm20.138 5.389a2.3 2.3 0 0 0-2.958 0l-6.417 5.131a4.421 4.421 0 0 1-2.778.972h-8.214a1.111 1.111 0 0 1 0-2.222h5.437a2.312 2.312 0 0 0 2.312-1.847 2.225 2.225 0 0 0-2.194-2.6h-11.11a8.173 8.173 0 0 0-5.146 1.826l-3.229 2.621H1.111A1.114 1.114 0 0 0 0 27.776v6.666a1.114 1.114 0 0 0 1.111 1.111h24.776a4.45 4.45 0 0 0 2.778-.972l10.5-8.4a2.221 2.221 0 0 0 .09-3.398z" transform="translate(4 6.001)" style="fill:#ee3442"/>
</svg>
