<svg data-name="Group 1492" xmlns="http://www.w3.org/2000/svg" width="48" height="48" viewBox="0 0 48 48">
    <defs>
        <clipPath id="8mz7691a7a">
            <path data-name="Rectangle 2393" style="fill:none" d="M0 0h48v48H0z"/>
        </clipPath>
    </defs>
    <g data-name="Group 1491" style="clip-path:url(#8mz7691a7a)">
        <path data-name="Path 1657" d="M20.24 0h7.521c6.539 0 9.281.754 11.928 2.17a14.762 14.762 0 0 1 6.141 6.141C47.246 10.959 48 13.7 48 20.24v7.52c0 6.538-.754 9.281-2.17 11.929a14.762 14.762 0 0 1-6.141 6.141C37.042 47.246 34.3 48 27.761 48H20.24c-6.538 0-9.281-.754-11.929-2.17a14.768 14.768 0 0 1-6.141-6.141C.754 37.041 0 34.3 0 27.76v-7.52c0-6.54.754-9.281 2.17-11.929A14.768 14.768 0 0 1 8.311 2.17C10.959.754 13.7 0 20.24 0" style="fill:#8fb93b;fill-rule:evenodd"/>
        <path data-name="Path 1658" d="M33.2 25.493a3.292 3.292 0 0 1-3.288 3.28H11.443a3.28 3.28 0 0 1-2.323-5.6 3.4 3.4 0 0 1 .759-.569 4.239 4.239 0 0 1-.3-1.588 4.366 4.366 0 0 1 4.362-4.362A4.319 4.319 0 0 1 17 17.906a5.525 5.525 0 0 1 9.618 1.715 2.234 2.234 0 0 1 3.311 1.96 2.061 2.061 0 0 1-.095.624h.079a3.3 3.3 0 0 1 3.287 3.288z" transform="translate(3.323 1.724)" style="stroke:#fff;stroke-miterlimit:10;stroke-width:1.5px;fill:none"/>
    </g>
</svg>
