<svg data-name="Group 1494" xmlns="http://www.w3.org/2000/svg" width="48" height="48" viewBox="0 0 48 48">
    <defs>
        <clipPath id="xkx6csbuga">
            <path data-name="Rectangle 2394" style="fill:none" d="M0 0h48v48H0z"/>
        </clipPath>
    </defs>
    <g data-name="Group 1493" style="clip-path:url(#xkx6csbuga)">
        <path data-name="Path 1659" d="M20.24 0h7.521c6.539 0 9.281.754 11.928 2.17a14.762 14.762 0 0 1 6.141 6.141C47.246 10.959 48 13.7 48 20.24v7.52c0 6.538-.754 9.281-2.17 11.929a14.762 14.762 0 0 1-6.141 6.141C37.042 47.246 34.3 48 27.761 48H20.24c-6.538 0-9.281-.754-11.929-2.17a14.768 14.768 0 0 1-6.141-6.141C.754 37.041 0 34.3 0 27.76v-7.52c0-6.54.754-9.281 2.17-11.929A14.768 14.768 0 0 1 8.311 2.17C10.959.754 13.7 0 20.24 0" style="fill:#ed736e;fill-rule:evenodd"/>
        <path data-name="Path 1660" d="M31.019 21.372H16.982a4.462 4.462 0 0 1-4.457-4.458v-.956a4.462 4.462 0 0 1 4.457-4.458h14.037a4.461 4.461 0 0 1 4.456 4.457v.956a4.462 4.462 0 0 1-4.456 4.458M16.982 13a2.96 2.96 0 0 0-2.957 2.957v.956a2.961 2.961 0 0 0 2.957 2.958h14.037a2.96 2.96 0 0 0 2.956-2.958v-.956A2.959 2.959 0 0 0 31.019 13z" style="fill:#fff"/>
        <path data-name="Path 1661" d="M30.115 29.308h-12.23a5.366 5.366 0 0 1-5.36-5.36v-7.087a5.366 5.366 0 0 1 5.36-5.36h12.23a5.366 5.366 0 0 1 5.36 5.36v7.087a5.366 5.366 0 0 1-5.36 5.36M17.885 13a3.865 3.865 0 0 0-3.86 3.86v7.087a3.866 3.866 0 0 0 3.86 3.861h12.23a3.866 3.866 0 0 0 3.86-3.861v-7.086A3.865 3.865 0 0 0 30.115 13z" style="fill:#fff"/>
        <path data-name="Path 1662" d="M29.735 36.5h-11.47a5.746 5.746 0 0 1-5.74-5.74v-13.9a5.359 5.359 0 0 1 5.353-5.36h12.244a5.36 5.36 0 0 1 5.353 5.354v13.9a5.746 5.746 0 0 1-5.74 5.74M17.878 13a3.858 3.858 0 0 0-3.853 3.854v13.9A4.245 4.245 0 0 0 18.265 35h11.47a4.245 4.245 0 0 0 4.24-4.24v-13.9A3.858 3.858 0 0 0 30.122 13z" style="fill:#fff"/>
        <path data-name="Path 1663" d="M18.667 24a1.318 1.318 0 1 1-1.319-1.319A1.319 1.319 0 0 1 18.667 24" style="fill:#fff"/>
        <path data-name="Path 1664" d="M18.667 31.723a1.318 1.318 0 1 1-1.319-1.323 1.319 1.319 0 0 1 1.319 1.319" style="fill:#fff"/>
    </g>
</svg>
