<svg xmlns="http://www.w3.org/2000/svg" id="Layer_1" data-name="Layer 1" width="48" height="48" viewBox="0 0 48 48"><defs><style>
      .cls-1 {
        fill: #8fb93b;
        fill-rule: evenodd;
      }

      .cls-2 {
        fill: #fff;
      }
    </style></defs><path id="Base" class="cls-1" d="M20.24,0h7.52C34.3,0,37.041.754,39.689,2.17A14.768,14.768,0,0,1,45.83,8.311C47.246,10.959,48,13.7,48,20.24v7.52c0,6.538-.754,9.281-2.17,11.929a14.768,14.768,0,0,1-6.141,6.141C37.041,47.246,34.3,48,27.76,48H20.24c-6.538,0-9.281-.754-11.929-2.17A14.768,14.768,0,0,1,2.17,39.689C.754,37.041,0,34.3,0,27.76V20.24C0,13.7.754,10.959,2.17,8.311A14.768,14.768,0,0,1,8.311,2.17C10.959.754,13.7,0,20.24,0Z"></path><path class="cls-2" d="M16,24H12V20h4Zm7-4H19v4h4Zm7,0H26v4h4Zm7,0H33v4h4ZM16,26H12v4h4Zm7,0H19v4h4Zm-7,6H12v4h4Zm7,0H19v4h4ZM36,13H34V11H32v2H25V11H23v2H16V11H14v2H12a2.015,2.015,0,0,0-2,2,2.006,2.006,0,0,0,2,2h2v1h2V17h7v1h2V17h7v1h2V17h2a2.015,2.015,0,0,0,2-2A2.006,2.006,0,0,0,36,13Zm.74,12.55-6.36,6.36-2.12-2.12-2.83,2.83,4.95,4.95,9.19-9.19Z"></path></svg>