<svg xmlns="http://www.w3.org/2000/svg" xmlns:xlink="http://www.w3.org/1999/xlink" width="36px" height="36px" viewBox="0 0 36 36"><title>Power Bi Service</title><g id="Mixed-Reality-and-Power-BI" stroke="none" stroke-width="1" fill="none" fill-rule="evenodd"><g id="Power-BI" transform="translate(-112.000000, -1257.000000)"><g id="Power-Bi-Service" transform="translate(112.000000, 1257.000000)"><rect id="Rectangle" fill="#FFC16A" x="0" y="0" width="36" height="36" rx="7.5"></rect><polygon id="Stroke-409" stroke="#FFFFFF" stroke-width="1.5" stroke-linecap="round" stroke-linejoin="round" points="23.6657 16.1565 19.0577 16.1565 19.0577 9.7045 12.6057 19.8435 17.2137 19.8435 17.2137 26.2945"></polygon><path d="M22.7443,8.9676 C23.6653,9.4376 24.5323,10.0546 25.3063,10.8296 C29.2603,14.7926 29.2603,21.2076 25.3063,25.1706 C23.7483,26.7186 21.8223,27.6676 19.8043,27.9996" id="Stroke-411" stroke="#FFFFFF" stroke-width="1.5" stroke-linecap="round" stroke-linejoin="round"></path><path d="M13.5275,27.032 C12.6065,26.562 11.7395,25.945 10.9655,25.17 C7.0115,21.207 7.0115,14.792 10.9655,10.829 C12.5235,9.281 14.4495,8.332 16.4675,8" id="Stroke-413" stroke="#FFFFFF" stroke-width="1.5" stroke-linecap="round" stroke-linejoin="round"></path><polyline id="Stroke-415" stroke="#FFFFFF" stroke-width="1.5" stroke-linecap="round" stroke-linejoin="round" points="22.7443 13.3914 22.7443 8.7834 27.3523 8.7834"></polyline><polyline id="Stroke-417" stroke="#FFFFFF" stroke-width="1.5" stroke-linecap="round" stroke-linejoin="round" points="13.5275 22.6082 13.5275 27.2162 8.9195 27.2162"></polyline></g></g></g></svg>