<svg xmlns="http://www.w3.org/2000/svg" xmlns:xlink="http://www.w3.org/1999/xlink" width="36px" height="36px" viewBox="0 0 36 36"><title>Desktop</title><g id="Mixed-Reality-and-Power-BI" stroke="none" stroke-width="1" fill="none" fill-rule="evenodd"><g id="Power-BI" transform="translate(-112.000000, -1080.000000)"><g id="Desktop" transform="translate(112.000000, 1080.000000)"><rect id="Rectangle" fill="#FF6A6A" x="0" y="0" width="36" height="36" rx="7.5"></rect><path d="M23.319296,11.5 C23.319296,11.5 23.7706226,11.5 24.3250646,11.5 L25.9942315,11.5 C26.5497021,11.5 27,11.9443383 27,12.4974711 L27,22.2017746 C27,22.7526627 26.5550537,23.1992458 26.0066023,23.1992458 L9.99339768,23.1992458 C9.44475929,23.1992458 9,22.7549075 9,22.2017746 L9,12.4974711 C9,11.946583 9.45144216,11.5 10.0060262,11.5 L11.6756206,11.5" id="Stroke-300" stroke="#FFFFFF" stroke-width="1.5"></path><line x1="18.0003771" y1="26.79934" x2="18.0003771" y2="23.1997172" id="Stroke-301" stroke="#FFFFFF" stroke-width="1.5"></line><line x1="22.4999057" y1="26.79934" x2="13.5008485" y2="26.79934" id="Stroke-302" stroke="#FFFFFF" stroke-width="1.5" stroke-linecap="round"></line><path d="M23.4003771,12.4003771 C23.4003771,15.3824639 20.9830295,17.7998114 18,17.7998114 C15.0179133,17.7998114 12.6005657,15.3824639 12.6005657,12.4003771 C12.6005657,9.41829038 15.0179133,7 18,7 C20.9830295,7 23.4003771,9.41829038 23.4003771,12.4003771 Z" id="Stroke-303" stroke="#FFFFFF" stroke-width="1.5"></path><line x1="12.6004714" y1="12.4003771" x2="23.4002828" y2="12.4003771" id="Stroke-304" stroke="#FFFFFF" stroke-width="1.5"></line><path d="M19.8003771,12.4003771 C19.8003771,15.3824639 18.9952231,17.7998114 18.0005657,17.7998114 C17.0059082,17.7998114 16.2007542,15.3824639 16.2007542,12.4003771 C16.2007542,9.41829038 17.0059082,7 18.0005657,7 C18.9952231,7 19.8003771,9.41829038 19.8003771,12.4003771 Z" id="Stroke-305" stroke="#FFFFFF" stroke-width="1.5"></path></g></g></g></svg>