<svg xmlns="http://www.w3.org/2000/svg" xmlns:xlink="http://www.w3.org/1999/xlink" width="36px" height="36px" viewBox="0 0 36 36"><title>Power Bi Mobile</title><g id="Mixed-Reality-and-Power-BI" stroke="none" stroke-width="1" fill="none" fill-rule="evenodd"><g id="Power-BI" transform="translate(-112.000000, -1307.000000)"><g id="Power-Bi-Mobile" transform="translate(112.000000, 1307.000000)"><rect id="Rectangle" fill="#6AC0FF" x="0" y="0" width="36" height="36" rx="7.5"></rect><g id="Mobile" transform="translate(12.000000, 9.000000)"><path d="M10.3239039,18.8225708 L1.94254547,18.8225708 C1.01713673,18.8225708 0.266449379,18.0670605 0.266449379,17.133731 L0.266449379,1.93328871 C0.266449379,0.999959259 1.01713673,0.244448971 1.94254547,0.244448971 L10.3239039,0.244448971 C11.2493126,0.244448971 12,0.999959259 12,1.93328871 L12,17.133731 C12,18.0670605 11.2493126,18.8225708 10.3239039,18.8225708 Z" id="Stroke-175" stroke="#FFFFFF" stroke-width="1.5"></path><path d="M8.08847505,1.95559177 L4.17797433,1.95559177 C3.63820642,1.95559177 3.19983703,1.51817025 3.19983703,0.977283682 L3.19983703,0 L9.06661234,0 L9.06661234,0.977283682 C9.06661234,1.51817025 8.62824296,1.95559177 8.08847505,1.95559177" id="Fill-176" fill="#FFFFFF"></path><line x1="0.755347321" y1="15.4002852" x2="11.5111021" y2="15.4002852" id="Stroke-177" stroke="#FFFFFF" stroke-width="1.5"></line><line x1="2.71093909" y1="10.5113058" x2="8.5777144" y2="4.64453045" id="Stroke-177" stroke="#FFFFFF" stroke-width="1.5"></line><line x1="5.64432675" y1="11.4891017" x2="8.5777144" y2="8.55571399" id="Stroke-177" stroke="#FFFFFF" stroke-width="1.5"></line></g></g></g></g></svg>