<?xml version="1.0" encoding="UTF-8"?><svg id="Layer_2" xmlns="http://www.w3.org/2000/svg" width="48" height="48" viewBox="0 0 48 48"><g id="Layer_1-2"><g><path id="Base" d="M20.24,0h7.521c6.538,0,9.281,.754,11.929,2.17,2.648,1.416,4.725,3.494,6.141,6.141,1.416,2.648,2.17,5.391,2.17,11.929v7.521c0,6.538-.754,9.281-2.17,11.929-1.416,2.648-3.494,4.725-6.141,6.141-2.648,1.416-5.391,2.17-11.929,2.17h-7.521c-6.538,0-9.281-.754-11.929-2.17-2.648-1.416-4.725-3.494-6.141-6.141-1.416-2.648-2.17-5.391-2.17-11.929v-7.521c0-6.538,.754-9.281,2.17-11.929,1.416-2.648,3.494-4.725,6.141-6.141C10.959,.754,13.702,0,20.24,0Z" style="fill:#a68ace; fill-rule:evenodd;"/><g><path d="M15.92,35.564v-7m5,7v-11m5,11v-7m5,7v-13.4" style="fill:none; stroke:#fff; stroke-linecap:round; stroke-miterlimit:10; stroke-width:2px;"/><polyline points="23.635 15.547 26.376 18.24 32.08 12.436" style="fill:none; stroke:#fff; stroke-linecap:round; stroke-linejoin:round; stroke-width:2px;"/></g></g></g></svg>