<svg xmlns="http://www.w3.org/2000/svg" xmlns:xlink="http://www.w3.org/1999/xlink" width="48px" height="48px" viewBox="0 0 48 48"><title>Production Mnagement</title><g id="Industry-Pages" stroke="none" stroke-width="1" fill="none" fill-rule="evenodd"><g id="Industry-Page---Manufacturing-and-Operations" transform="translate(-733.000000, -2209.000000)"><g id="Production-Mnagement" transform="translate(733.000000, 2209.000000)"><path d="M20.2397463,-2.3148967e-15 L27.7602537,-8.47674643e-16 C34.2978605,5.39989121e-16 37.0413176,0.75402958 39.6888389,2.1699395 C42.3363603,3.58584942 44.4141506,5.66363969 45.8300605,8.31116105 C47.2459704,10.9586824 48,13.7021395 48,20.2397463 L48,27.7602537 C48,34.2978605 47.2459704,37.0413176 45.8300605,39.6888389 C44.4141506,42.3363603 42.3363603,44.4141506 39.6888389,45.8300605 C37.0413176,47.2459704 34.2978605,48 27.7602537,48 L20.2397463,48 C13.7021395,48 10.9586824,47.2459704 8.31116105,45.8300605 C5.66363969,44.4141506 3.58584942,42.3363603 2.1699395,39.6888389 C0.75402958,37.0413176 1.31886888e-15,34.2978605 -2.07035969e-15,27.7602537 L-1.09221165e-15,20.2397463 C6.95765074e-16,13.7021395 0.75402958,10.9586824 2.1699395,8.31116105 C3.58584942,5.66363969 5.66363969,3.58584942 8.31116105,2.1699395 C10.9586824,0.75402958 13.7021395,1.47464483e-15 20.2397463,-2.3148967e-15 Z" id="Base" fill="#43A6EA"></path><g id="Factory" transform="translate(11.999950, 10.000000)" fill="#FFFFFF"><path d="M22.2810932,19.6148754 C22.2810932,19.6991018 22.2127666,19.7674284 22.1285402,19.7674284 L20.7147393,19.7674284 C20.6305129,19.7674284 20.5621864,19.6991018 20.5621864,19.6148754 L20.5621864,18.907975 C20.5621864,18.433127 20.9472215,18.0485216 21.4216398,18.0485216 C21.8960581,18.0485216 22.2810932,18.433127 22.2810932,18.907975 L22.2810932,19.6148754 Z M16.2649193,19.6148754 C16.2649193,19.6991018 16.1965928,19.7674284 16.1123663,19.7674284 L14.6985655,19.7674284 C14.6143391,19.7674284 14.5460125,19.6991018 14.5460125,19.6148754 L14.5460125,18.907975 C14.5460125,18.433127 14.9310476,18.0485216 15.4054659,18.0485216 C15.8798842,18.0485216 16.2649193,18.433127 16.2649193,18.907975 L16.2649193,19.6148754 Z M9.38929206,19.6148754 C9.38929206,19.6991018 9.32096551,19.7674284 9.23673908,19.7674284 L7.82293822,19.7674284 C7.73871179,19.7674284 7.67038524,19.6991018 7.67038524,19.6148754 L7.67038524,18.907975 C7.67038524,18.433127 8.05542037,18.0485216 8.52983865,18.0485216 C9.00425693,18.0485216 9.38929206,18.433127 9.38929206,18.907975 L9.38929206,19.6148754 Z M22.4529839,12.7817911 L19.2489416,14.3335342 C19.0009893,14.4538577 18.8432796,14.7052478 18.8432796,14.9811324 L18.8432796,16.7593415 C18.8432796,16.9965506 18.6511917,17.1890682 18.4135528,17.1890682 C18.175914,17.1890682 17.9838261,16.9965506 17.9838261,16.7593415 L17.9838261,14.9463245 L17.9838261,13.7512545 C17.9838261,12.9562601 17.152305,12.4350016 16.43681,12.7817911 L13.2327677,14.3335342 C12.9848154,14.4538577 12.8271057,14.7052478 12.8271057,14.9811324 L12.8271057,16.7593415 C12.8271057,16.9965506 12.6350179,17.1890682 12.397379,17.1890682 C12.1597401,17.1890682 11.9676523,16.9965506 11.9676523,16.7593415 L11.9676523,14.9463245 L11.9676523,13.7512545 C11.9676523,12.9562601 11.1361311,12.4350016 10.4206361,12.7817911 L6.66998148,14.5986756 C6.35413235,14.7516583 5.98284848,14.5406625 5.95233788,14.190865 L5.13327878,4.77211505 C5.11007354,4.50353586 4.88532647,4.29726704 4.61502838,4.29726704 L2.1307783,4.29726704 C1.86090993,4.29726704 1.63616286,4.50353586 1.61295762,4.77211505 L0.00277166202,23.288609 C-0.0337551078,23.7058736 0.295415548,24.0646954 0.714399084,24.0646954 L5.09202502,24.0646954 L6.81093184,24.0646954 L11.1081989,24.0646954 L11.9676523,24.0646954 L17.1243727,24.0646954 L17.9838261,24.0646954 L23.1465628,24.0646954 C23.6175432,24.0646954 24,23.6826684 24,23.2112582 L24,13.7512545 C24,12.9562601 23.1680491,12.4350016 22.4529839,12.7817911 L22.4529839,12.7817911 Z" id="Fill-7"></path><path d="M4.41176765,1.07431676 L9.68580349,1.07431676 C9.92344235,1.07431676 10.1155302,1.26683432 10.1155302,1.50404346 C10.1155302,1.74125261 9.92344235,1.93377017 9.68580349,1.93377017 L4.41176765,1.93377017 C4.17412878,1.93377017 3.98204094,1.74125261 3.98204094,1.50404346 C3.98204094,1.26683432 4.17412878,1.07431676 4.41176765,1.07431676 M11.1167934,1.34074732 C11.13785,1.28488285 11.1683606,1.24191017 11.2113333,1.1989375 C11.2500087,1.1602621 11.2968489,1.13018123 11.3488458,1.1086949 C11.4261966,1.07431676 11.5117123,1.06572223 11.5980873,1.08291129 C11.6238709,1.08720856 11.6539518,1.0958031 11.6797354,1.1086949 C11.705519,1.11728943 11.7265756,1.13018123 11.7527889,1.1473703 L11.8168182,1.1989375 C11.8559233,1.24191017 11.8898718,1.28918011 11.9117878,1.34074732 C11.9332741,1.39231452 11.941439,1.44817899 11.941439,1.50404346 C11.941439,1.55990794 11.9332741,1.61577241 11.9117878,1.66733961 C11.8898718,1.72320408 11.8559233,1.76617675 11.8168182,1.80914942 C11.7957616,1.82633849 11.7742753,1.84352756 11.7527889,1.86071663 C11.7265756,1.8779057 11.705519,1.8907975 11.6797354,1.89939203 C11.6539518,1.91228383 11.6238709,1.92087837 11.5980873,1.92517563 C11.5675767,1.9294729 11.5422228,1.93377017 11.5117123,1.93377017 C11.4562775,1.93377017 11.400413,1.92087837 11.3488458,1.89939203 C11.2968489,1.8779057 11.2500087,1.84782483 11.2113333,1.80914942 C11.1683606,1.76617675 11.13785,1.72320408 11.1167934,1.66733961 C11.0953071,1.61577241 11.0819855,1.55990794 11.0819855,1.50404346 C11.0819855,1.44817899 11.0953071,1.39231452 11.1167934,1.34074732 M13.578268,0 C14.9899202,0 16.2210872,1.08806801 16.2636301,2.49886078 C16.307892,3.95907213 15.1368867,5.15672045 13.6865591,5.15672045 C13.5361548,5.15672045 13.3904774,5.14125029 13.2473784,5.11675587 C12.6582231,6.16571875 11.5370661,6.87562727 10.2487455,6.87562727 C8.81603664,6.87562727 7.58830744,5.99941452 7.07134622,4.7536368 C6.74045666,3.95477486 5.95706487,3.43781363 5.09202502,3.43781363 L5.09202502,3.43781363 L2.150116,3.43781363 C1.87638009,3.43781363 1.65421139,3.21564493 1.65421139,2.94190902 L1.65421139,2.94190902 L1.65421139,2.57836022 C1.65421139,1.15467565 2.80888704,0 4.23257161,0 L4.23257161,0 Z M21.4216398,0 C22.3709061,0 23.1405466,0.769640527 23.1405466,1.71890682 C23.1405466,2.66817311 22.3709061,3.43781363 21.4216398,3.43781363 C20.4723735,3.43781363 19.702733,2.66817311 19.702733,1.71890682 C19.702733,0.769640527 20.4723735,0 21.4216398,0 Z M17.9838261,0 C18.4582444,0 18.8432796,0.385035127 18.8432796,0.859453408 C18.8432796,1.33387169 18.4582444,1.71890682 17.9838261,1.71890682 C17.5094079,1.71890682 17.1243727,1.33387169 17.1243727,0.859453408 C17.1243727,0.385035127 17.5094079,0 17.9838261,0 Z" id="Fill-1"></path></g></g></g></g></svg>