<svg xmlns="http://www.w3.org/2000/svg" width="48" height="48" viewBox="0 0 48 48">
    <g data-name="proffesional service">
        <path data-name="Rectangle 977" style="fill:none" d="M0 0h48v48H0z"/>
        <path data-name="Path 903" d="M97.033 82A4.627 4.627 0 0 1 100 77.686a18.4 18.4 0 0 0-2.219-5.357 4.626 4.626 0 0 1-6.106-6.109A18.4 18.4 0 0 0 86.319 64a4.625 4.625 0 0 1-8.639 0 18.4 18.4 0 0 0-5.356 2.221 4.627 4.627 0 0 1-6.106 6.109A18.4 18.4 0 0 0 64 77.686a4.626 4.626 0 0 1 0 8.636 18.4 18.4 0 0 0 2.221 5.356 4.626 4.626 0 0 1 6.1 6.1A18.4 18.4 0 0 0 77.684 100a4.625 4.625 0 0 1 8.632 0 18.4 18.4 0 0 0 5.356-2.22 4.626 4.626 0 0 1 6.1-6.1A18.4 18.4 0 0 0 100 86.322 4.626 4.626 0 0 1 97.033 82zm-14.949 7.491a7.5 7.5 0 1 1 7.5-7.5 7.5 7.5 0 0 1-7.5 7.5z" transform="translate(-58 -58)" style="fill:#ee3442"/>
    </g>
</svg>
