<svg xmlns="http://www.w3.org/2000/svg" width="94" height="94" viewBox="0 0 94 94">
    <defs>
        <clipPath id="aigw7841fb">
            <path data-name="Rectangle 1905" style="fill:none" d="M0 0h32v31.422H0z"/>
        </clipPath>
        <filter id="wankpsyi5a" x="0" y="0" width="94" height="94" filterUnits="userSpaceOnUse">
            <feOffset dx="5" dy="5"/>
            <feGaussianBlur stdDeviation="5" result="blur"/>
            <feFlood flood-color="#165cc4" flood-opacity=".161"/>
            <feComposite operator="in" in2="blur"/>
            <feComposite in="SourceGraphic"/>
        </filter>
    </defs>
    <g style="filter:url(#wankpsyi5a)">
        <rect data-name="Rectangle 1895" width="64" height="64" rx="5" transform="translate(10 10)" style="fill:#fff"/>
    </g>
    <g data-name="Group 1319">
        <g data-name="Group 1318" transform="translate(26 26)" style="clip-path:url(#aigw7841fb)">
            <path data-name="Path 1429" d="M22.789 1.5a1.5 1.5 0 0 1 1.5-1.5H35.9a1.5 1.5 0 0 1 1.276.708l8.86 14.208a1.5 1.5 0 0 1 0 1.59l-8.828 14.206a1.5 1.5 0 0 1-1.278.71H24.293a1.5 1.5 0 0 1-1.5-1.5z" transform="translate(-14.261)" style="fill:#b7320b"/>
            <path data-name="Path 1430" d="M1.326 1.5A1.5 1.5 0 0 1 2.83 0h12.439l9.3 14.916a1.5 1.5 0 0 1 0 1.59L15.3 31.422H2.83a1.5 1.5 0 0 1-1.5-1.5z" transform="translate(-.83)" style="fill:#e35e25"/>
            <path data-name="Path 1431" d="M0 1.5A1.5 1.5 0 0 1 1.5 0h4.529l9.3 14.916a1.5 1.5 0 0 1 0 1.59L6.064 31.422H1.5a1.5 1.5 0 0 1-1.5-1.5z" style="fill:#fba974"/>
        </g>
    </g>
</svg>
