<svg xmlns="http://www.w3.org/2000/svg" xmlns:xlink="http://www.w3.org/1999/xlink" width="48px" height="48px" viewBox="0 0 48 48"><title>Sales Management</title><g id="Industry-Pages" stroke="none" stroke-width="1" fill="none" fill-rule="evenodd"><g id="Industry-Page---Manufacturing-and-Operations" transform="translate(-428.000000, -2450.000000)"><g id="Sales-Management" transform="translate(428.000000, 2450.000000)"><path d="M20.2397463,-2.3148967e-15 L27.7602537,-8.47674643e-16 C34.2978605,5.39989121e-16 37.0413176,0.75402958 39.6888389,2.1699395 C42.3363603,3.58584942 44.4141506,5.66363969 45.8300605,8.31116105 C47.2459704,10.9586824 48,13.7021395 48,20.2397463 L48,27.7602537 C48,34.2978605 47.2459704,37.0413176 45.8300605,39.6888389 C44.4141506,42.3363603 42.3363603,44.4141506 39.6888389,45.8300605 C37.0413176,47.2459704 34.2978605,48 27.7602537,48 L20.2397463,48 C13.7021395,48 10.9586824,47.2459704 8.31116105,45.8300605 C5.66363969,44.4141506 3.58584942,42.3363603 2.1699395,39.6888389 C0.75402958,37.0413176 1.31886888e-15,34.2978605 -2.07035969e-15,27.7602537 L-1.09221165e-15,20.2397463 C6.95765074e-16,13.7021395 0.75402958,10.9586824 2.1699395,8.31116105 C3.58584942,5.66363969 5.66363969,3.58584942 8.31116105,2.1699395 C10.9586824,0.75402958 13.7021395,1.47464483e-15 20.2397463,-2.3148967e-15 Z" id="Base" fill="#EAA743"></path><path d="M33.0776896,21.2078359 C33.7875942,20.4983242 35.0003643,21.0011896 35.0003643,22.0041705 L35.0003643,22.0041705 L35.0003643,33.8525453 C35.0003643,34.4862343 34.4864986,35.0001 33.8528096,35.0001 L33.8528096,35.0001 L15.7704744,35.0001 C14.7478504,35.0001 14.235949,33.764151 14.9588181,33.0412819 L14.9588181,33.0412819 L20.2416556,27.7584444 C20.5814827,27.4186173 21.1330632,27.4186173 21.4728903,27.7584444 L21.4728903,27.7584444 L21.9451124,28.2302736 C22.4699782,28.7555323 22.4699782,29.6068678 21.9451124,30.1321265 L21.9451124,30.1321265 L21.5518559,30.5249902 C21.2151717,30.8616743 21.2493509,31.4344695 21.6547862,31.7232243 C21.9737914,31.9502995 22.4200845,31.879584 22.6970534,31.6022223 L22.6970534,31.6022223 L25.009056,29.2902197 C25.0208419,29.2784338 25.0255563,29.2631121 25.0353779,29.2505405 L25.0353779,29.2505405 Z M13.7857273,28.7142423 C14.2194488,28.7142423 14.5714546,29.0662482 14.5714546,29.4999696 C14.5714546,29.9336911 14.2194488,30.2856969 13.7857273,30.2856969 C13.3520058,30.2856969 13,29.9336911 13,29.4999696 C13,29.0662482 13.3520058,28.7142423 13.7857273,28.7142423 Z M34.5106205,14.5713082 C34.7809106,14.5713082 35.0005214,14.7905261 35.0005214,15.0612091 L35.0005214,15.0612091 L35.0005214,16.530912 C35.0005214,16.9677764 34.4725127,17.1862086 34.1637219,16.8774178 C34.0647202,16.7784161 33.904039,16.7784161 33.8050373,16.8774178 L33.8050373,16.8774178 L24.5495627,26.1328925 C24.243129,26.4401118 23.7449779,26.4401118 23.4385443,26.1328925 L23.4385443,26.1328925 L20.8511443,23.5458853 L16.2483538,28.1486758 C16.095137,28.3018927 15.8935979,28.3788939 15.6928446,28.3788939 C15.4724481,28.3788939 15.2524444,28.286571 15.0949061,28.1027108 C14.8226516,27.7840984 14.8760811,27.2985189 15.1723003,27.0022997 L15.1723003,27.0022997 L20.2956351,21.8789649 C20.6020687,21.5721384 21.1002198,21.5721384 21.4066535,21.8789649 L21.4066535,21.8789649 L23.9940535,24.4663649 L32.694019,15.7663994 C32.7930206,15.6673977 32.7930206,15.5067165 32.694019,15.4077149 C32.3852281,15.098924 32.6040532,14.5713082 33.0405247,14.5713082 L33.0405247,14.5713082 Z M23.6559157,13.1421095 C23.8460617,12.9519635 24.1540668,12.9519635 24.3442128,13.1421095 L24.3442128,13.1421095 L26.4593907,15.2572874 C26.7116092,15.5095058 26.5328562,15.9408701 26.1757432,15.9408701 L26.1757432,15.9408701 L25.7907368,15.9408701 C25.6697348,15.9408701 25.5715189,16.039086 25.5715189,16.160088 L25.5715189,16.160088 L25.5715189,19.3623196 C25.5715189,20.1928334 24.8985434,20.8658088 24.0684226,20.8658088 L24.0684226,20.8658088 L23.9320989,20.8658088 C23.101978,20.8658088 22.4286097,20.1928334 22.4286097,19.3623196 L22.4286097,19.3623196 L22.4286097,16.160088 C22.4286097,16.039086 22.3303938,15.9408701 22.2093918,15.9408701 L22.2093918,15.9408701 L21.8243854,15.9408701 C21.4676652,15.9408701 21.2889122,15.5095058 21.5411307,15.2572874 L21.5411307,15.2572874 Z" fill="#FFFFFF"></path></g></g></g></svg>