<svg xmlns="http://www.w3.org/2000/svg" xmlns:xlink="http://www.w3.org/1999/xlink" id="Layer_1" x="0px" y="0px" width="36px" height="36px" viewBox="0 0 36 36" style="enable-background:new 0 0 36 36;" xml:space="preserve">
<style type="text/css">
	.st0{fill:#ED736E;}
	.st1{fill:#F7C378;}
	.st2{fill:#ED736E;stroke:#FFFFFF;stroke-width:1.5;stroke-miterlimit:10;}
	.st3{fill:none;stroke:#FFFFFF;stroke-width:0.5;stroke-linecap:round;stroke-miterlimit:10;}
	.st4{fill:#FFFFFF;}
	.st5{fill:none;stroke:#FFFFFF;stroke-width:1.5;stroke-miterlimit:10;}
	.st6{fill:none;stroke:#FFFFFF;stroke-width:1.5;stroke-linecap:round;stroke-miterlimit:10;}
</style>
<g>
	<path class="st0" d="M-10.395,35.5h-22.032c-3.581,0-6.484-2.903-6.484-6.484V6.984c0-3.581,2.903-6.484,6.484-6.484h22.032   c3.581,0,6.484,2.903,6.484,6.484v22.032C-3.911,32.597-6.814,35.5-10.395,35.5z"></path>
</g>
<g>
	<path class="st1" d="M29.016,35.5H6.984c-3.581,0-6.484-2.903-6.484-6.484V6.984C0.5,3.403,3.403,0.5,6.984,0.5h22.032   c3.581,0,6.484,2.903,6.484,6.484v22.032C35.5,32.597,32.597,35.5,29.016,35.5z"></path>
</g>
<path class="st2" d="M-21.566,29.59h-7.689c-1.007,0-1.832-0.824-1.832-1.832V9.757c0-1.007,0.824-1.832,1.832-1.832h7.689  c1.007,0,1.832,0.824,1.832,1.832v18.001C-19.734,28.766-20.558,29.59-21.566,29.59z"></path>
<line class="st3" x1="-27.261" y1="9.547" x2="-23.566" y2="9.547"></line>
<circle class="st4" cx="-25.413" cy="27.321" r="0.954"></circle>
<path class="st2" d="M-19.779,21.105L-19.779,21.105c-1.459,0-2.653-1.194-2.653-2.653v0c0-1.459,1.194-2.653,2.653-2.653h0  c1.459,0,2.653,1.194,2.653,2.653v0C-17.126,19.912-18.32,21.105-19.779,21.105z"></path>
<path class="st2" d="M-13.07,14.853L-13.07,14.853c-1.459,0-2.653-1.194-2.653-2.653v0c0-1.459,1.194-2.653,2.653-2.653h0  c1.459,0,2.653,1.194,2.653,2.653v0C-10.417,13.659-11.611,14.853-13.07,14.853z"></path>
<path class="st2" d="M-13.07,27.757L-13.07,27.757c-1.459,0-2.653-1.194-2.653-2.653v0c0-1.459,1.194-2.653,2.653-2.653h0  c1.459,0,2.653,1.194,2.653,2.653v0C-10.417,26.563-11.611,27.757-13.07,27.757z"></path>
<line class="st5" x1="-18.101" y1="16.406" x2="-15.011" y2="13.996"></line>
<line class="st5" x1="-14.919" y1="23.209" x2="-17.856" y2="20.27"></line>
<g>
	<line class="st5" x1="14.438" y1="23.937" x2="14.438" y2="16.434"></line>
	<line class="st5" x1="17.74" y1="23.937" x2="17.74" y2="17.241"></line>
	<line class="st5" x1="21.042" y1="23.937" x2="21.042" y2="14.064"></line>
	<polyline class="st5" points="11.893,17.129 14.28,13.922 16.226,15.038 19.302,11.37  "></polyline>
	<polyline class="st5" points="17.922,11 19.761,11 19.761,12.941  "></polyline>
	<path class="st5" d="M24.1,26.65h4.29c1.04,0,1.89-0.85,1.89-1.89V9.66c0-1.04-0.85-1.89-1.89-1.89H7.61   c-1.04,0-1.89,0.85-1.89,1.89v15.1c0,1.04,0.85,1.89,1.89,1.89h4.3H24.1z"></path>
	<line class="st6" x1="14.011" y1="29.275" x2="21.989" y2="29.275"></line>
</g>
</svg>