<svg xmlns="http://www.w3.org/2000/svg" xmlns:xlink="http://www.w3.org/1999/xlink" id="Layer_1" x="0px" y="0px" width="36px" height="36px" viewBox="0 0 36 36" style="enable-background:new 0 0 36 36;" xml:space="preserve">
<style type="text/css">
	.st0{fill:#ED736E;}
	.st1{fill:#F7C378;}
	.st2{fill:#ED736E;stroke:#FFFFFF;stroke-width:1.5;stroke-miterlimit:10;}
	.st3{fill:none;stroke:#FFFFFF;stroke-width:0.5;stroke-linecap:round;stroke-miterlimit:10;}
	.st4{fill:#FFFFFF;}
	.st5{fill:none;stroke:#FFFFFF;stroke-width:1.5;stroke-miterlimit:10;}
	.st6{fill:none;stroke:#FFFFFF;stroke-width:1.5;stroke-linecap:round;stroke-miterlimit:10;}
</style>
<g>
	<path class="st0" d="M29.016,35.5H6.984c-3.581,0-6.484-2.903-6.484-6.484V6.984C0.5,3.403,3.403,0.5,6.984,0.5h22.032   c3.581,0,6.484,2.903,6.484,6.484v22.032C35.5,32.597,32.597,35.5,29.016,35.5z"></path>
</g>
<g>
	<path class="st1" d="M68.426,35.5H46.395c-3.581,0-6.484-2.903-6.484-6.484V6.984c0-3.581,2.903-6.484,6.484-6.484h22.032   c3.581,0,6.484,2.903,6.484,6.484v22.032C74.911,32.597,72.007,35.5,68.426,35.5z"></path>
</g>
<path class="st2" d="M17.845,29.59h-7.689c-1.007,0-1.832-0.824-1.832-1.832V9.757c0-1.007,0.824-1.832,1.832-1.832h7.689  c1.007,0,1.832,0.824,1.832,1.832v18.001C19.676,28.766,18.852,29.59,17.845,29.59z"></path>
<line class="st3" x1="12.15" y1="9.547" x2="15.845" y2="9.547"></line>
<circle class="st4" cx="13.997" cy="27.321" r="0.954"></circle>
<path class="st2" d="M19.632,21.105L19.632,21.105c-1.459,0-2.653-1.194-2.653-2.653v0c0-1.459,1.194-2.653,2.653-2.653h0  c1.459,0,2.653,1.194,2.653,2.653v0C22.284,19.912,21.091,21.105,19.632,21.105z"></path>
<path class="st2" d="M26.341,14.853L26.341,14.853c-1.459,0-2.653-1.194-2.653-2.653v0c0-1.459,1.194-2.653,2.653-2.653h0  c1.459,0,2.653,1.194,2.653,2.653v0C28.994,13.659,27.8,14.853,26.341,14.853z"></path>
<path class="st2" d="M26.341,27.757L26.341,27.757c-1.459,0-2.653-1.194-2.653-2.653v0c0-1.459,1.194-2.653,2.653-2.653h0  c1.459,0,2.653,1.194,2.653,2.653v0C28.994,26.563,27.8,27.757,26.341,27.757z"></path>
<line class="st5" x1="21.31" y1="16.406" x2="24.4" y2="13.996"></line>
<line class="st5" x1="24.492" y1="23.209" x2="21.555" y2="20.27"></line>
<g>
	<line class="st5" x1="53.848" y1="23.937" x2="53.848" y2="16.434"></line>
	<line class="st5" x1="57.15" y1="23.937" x2="57.15" y2="17.241"></line>
	<line class="st5" x1="60.453" y1="23.937" x2="60.453" y2="14.064"></line>
	<polyline class="st5" points="51.303,17.129 53.691,13.922 55.636,15.038 58.712,11.37  "></polyline>
	<polyline class="st5" points="57.332,11 59.172,11 59.171,12.941  "></polyline>
	<path class="st5" d="M63.511,26.65h4.29c1.04,0,1.89-0.85,1.89-1.89V9.66c0-1.04-0.85-1.89-1.89-1.89h-20.78   c-1.04,0-1.89,0.85-1.89,1.89v15.1c0,1.04,0.85,1.89,1.89,1.89h4.3H63.511z"></path>
	<line class="st6" x1="53.421" y1="29.275" x2="61.4" y2="29.275"></line>
</g>
</svg>