<?xml version="1.0" encoding="UTF-8"?><svg id="Layer_2" xmlns="http://www.w3.org/2000/svg" width="48" height="48" viewBox="0 0 48 48"><g id="Layer_1-2"><g><path id="Base" d="M27.76,48h-7.521c-6.538,0-9.281-.754-11.929-2.17-2.648-1.416-4.725-3.494-6.141-6.141-1.416-2.648-2.17-5.391-2.17-11.929v-7.521c0-6.538,.754-9.281,2.17-11.929,1.416-2.648,3.494-4.725,6.141-6.141C10.959,.754,13.702,0,20.24,0h7.521c6.538,0,9.281,.754,11.929,2.17,2.648,1.416,4.725,3.494,6.141,6.141,1.416,2.648,2.17,5.391,2.17,11.929v7.521c0,6.538-.754,9.281-2.17,11.929-1.416,2.648-3.494,4.725-6.141,6.141-2.648,1.416-5.391,2.17-11.929,2.17Z" style="fill:#7292f7; fill-rule:evenodd;"/><g><path d="M16.339,25.459c-1.072-3.534-.095-7.372,2.535-9.964,3.772-3.87,9.965-3.957,13.845-.195,3.779,4.004,3.596,10.314-.408,14.092-2.768,2.612-6.782,3.42-10.346,2.083m3.988-9.409l-8.775,8.775m10.052-10.052h-4.056m4.056,4.056v-4.056" style="fill:none; stroke:#fff; stroke-linecap:round; stroke-width:2px;"/><circle cx="14.731" cy="33.298" r="4.168" style="fill:#fff;"/></g></g></g></svg>