<?xml version="1.0" encoding="UTF-8"?><svg id="Layer_2" xmlns="http://www.w3.org/2000/svg" width="48" height="48" viewBox="0 0 48 48"><g id="Layer_1-2"><g><path id="Base" d="M20.24,0h7.521c6.538,0,9.281,.754,11.929,2.17,2.648,1.416,4.725,3.494,6.141,6.141,1.416,2.648,2.17,5.391,2.17,11.929v7.521c0,6.538-.754,9.281-2.17,11.929-1.416,2.648-3.494,4.725-6.141,6.141-2.648,1.416-5.391,2.17-11.929,2.17h-7.521c-6.538,0-9.281-.754-11.929-2.17-2.648-1.416-4.725-3.494-6.141-6.141-1.416-2.648-2.17-5.391-2.17-11.929v-7.521c0-6.538,.754-9.281,2.17-11.929,1.416-2.648,3.494-4.725,6.141-6.141C10.959,.754,13.702,0,20.24,0Z" style="fill:#80bef9; fill-rule:evenodd;"/><g><path d="M28.878,19.64c.349,.334,.349,.874,.016,1.223l-5.782,5.877c-.159,.175-.381,.254-.604,.27h-.016c-.222,0-.429-.095-.603-.254l-2.78-2.732c-.334-.334-.334-.874,0-1.207s.874-.349,1.207-.016l2.176,2.144,5.178-5.289c.334-.334,.874-.334,1.207-.016Z" style="fill:#fff;"/><path d="M36.613,16.289c-.048-.572-.095-1.144-.127-1.715-.048-.937-.572-1.557-1.557-1.827-2.859-.778-5.734-1.588-8.593-2.383l-1.271-.349c-.095-.032-.175-.063-.254-.111l-.206-.079c-.095-.032-.206-.063-.302-.063h-.604c-.079,0-.159,.016-.238,.048l-1.287,.365c-1.017,.302-2.049,.603-3.066,.905l-.445,.127c-1.811,.508-3.606,1.017-5.416,1.477-1.096,.286-1.684,.953-1.779,2.033-.349,3.796-.54,8.275,.715,12.802,.826,3.034,2.684,5.543,5.813,7.894,1.509,1.128,3.24,2.017,5.21,2.668,.016,.016,.127,.064,.127,.064,.111,.063,.238,.095,.365,.095h.604c.127,0,.254-.032,.365-.095,.461-.206,.921-.413,1.382-.619,1.064-.476,2.144-.953,3.161-1.604,3.336-2.128,5.448-4.749,6.48-7.974,.794-2.525,1.144-5.289,1.096-8.656-.016-1.017-.095-2.033-.175-3.002Zm-2.557,11.134c-.889,2.843-2.78,5.146-5.766,7.068-.905,.572-1.89,1.001-2.923,1.461-.429,.191-.842,.381-1.271,.572h-.191c-.079-.048-.159-.079-.254-.111-1.715-.556-3.272-1.35-4.622-2.383-2.811-2.113-4.463-4.32-5.21-6.973-1.175-4.257-.985-8.545-.651-12.183,.032-.333,.079-.429,.508-.524,1.827-.476,3.637-.985,5.448-1.509l.445-.127c1.032-.286,2.065-.588,3.097-.889l1.159-.349h.302c.159,.079,.318,.143,.476,.175l1.271,.365c2.859,.794,5.734,1.604,8.609,2.383,.286,.079,.286,.095,.302,.27,.032,.588,.079,1.175,.111,1.747,.079,.953,.159,1.938,.175,2.891,.048,3.193-.27,5.766-1.017,8.116Z" style="fill:#fff;"/><path d="M28.893,20.863l-5.782,5.877c-.159,.175-.381,.254-.604,.27h-.016c-.222,0-.429-.095-.603-.254l-2.78-2.732c-.334-.334-.334-.874,0-1.207s.874-.349,1.207-.016l2.176,2.144,5.178-5.289c.334-.334,.874-.334,1.207-.016,.349,.334,.349,.874,.016,1.223Z" style="fill:#fff;"/><path d="M28.893,20.863l-5.782,5.877c-.159,.175-.381,.254-.604,.27h-.016c-.222,0-.429-.095-.603-.254l-2.78-2.732c-.334-.334-.334-.874,0-1.207s.874-.349,1.207-.016l2.176,2.144,5.178-5.289c.334-.334,.874-.334,1.207-.016,.349,.334,.349,.874,.016,1.223Z" style="fill:#fff;"/></g></g></g></svg>