<svg xmlns="http://www.w3.org/2000/svg" xmlns:xlink="http://www.w3.org/1999/xlink" width="36px" height="36px" viewBox="0 0 36 36"><title>Sell smarter and improve customer service</title><g id="Mixed-Reality-and-Power-BI" stroke="none" stroke-width="1" fill="none" fill-rule="evenodd"><g id="Supply-Chain-Management" transform="translate(-112.000000, -1307.000000)"><g id="Sell-smarter-and-improve-customer-service" transform="translate(112.000000, 1307.000000)"><rect id="Rectangle" fill="#6AC0FF" x="0" y="0" width="36" height="36" rx="7.5"></rect><g id="Sell-Smarter" transform="translate(9.000000, 8.000000)" stroke="#FFFFFF" stroke-width="1.5"><path d="M11.4546091,12.272924 C11.4546091,13.628068 10.3557511,14.726926 8.99975,14.726926 C7.64460607,14.726926 6.54489091,13.628068 6.54489091,12.272924 C6.54489091,10.9169229 7.64460607,9.81806493 8.99975,9.81806493 C10.3557511,9.81806493 11.4546091,10.9169229 11.4546091,12.272924 Z" id="Stroke-138" stroke-linecap="square"></path><polyline id="Stroke-140" stroke-linecap="square" points="13.9088682 0.817800649 10.6362942 4.09037467 9.00000714 2.45408766 4.0911461 6.54609091 0 6.54609091 0 18.0001 18.0000143 18.0001 18.0000143 6.54609091 9.00000714 6.54609091"></polyline><line x1="15.5453266" y1="12.272924" x2="13.9090396" y2="12.272924" id="Stroke-142"></line><line x1="4.09106039" y1="12.272924" x2="2.45477338" y2="12.272924" id="Stroke-144"></line><polyline id="Stroke-146" stroke-linecap="square" points="11.4546091 0 14.7271831 0 14.7271831 3.27257403"></polyline></g></g></g></g></svg>