<svg xmlns="http://www.w3.org/2000/svg" xmlns:xlink="http://www.w3.org/1999/xlink" width="48px" height="48px" viewBox="0 0 48 48"><title>Service Management</title><g id="Industry-Pages" stroke="none" stroke-width="1" fill="none" fill-rule="evenodd"><g id="Industry-Page---Manufacturing-and-Operations" transform="translate(-1038.000000, -2450.000000)"><g id="Service-Management" transform="translate(1038.000000, 2450.000000)"><path d="M20.2397463,-2.3148967e-15 L27.7602537,-8.47674643e-16 C34.2978605,5.39989121e-16 37.0413176,0.75402958 39.6888389,2.1699395 C42.3363603,3.58584942 44.4141506,5.66363969 45.8300605,8.31116105 C47.2459704,10.9586824 48,13.7021395 48,20.2397463 L48,27.7602537 C48,34.2978605 47.2459704,37.0413176 45.8300605,39.6888389 C44.4141506,42.3363603 42.3363603,44.4141506 39.6888389,45.8300605 C37.0413176,47.2459704 34.2978605,48 27.7602537,48 L20.2397463,48 C13.7021395,48 10.9586824,47.2459704 8.31116105,45.8300605 C5.66363969,44.4141506 3.58584942,42.3363603 2.1699395,39.6888389 C0.75402958,37.0413176 1.31886888e-15,34.2978605 -2.07035969e-15,27.7602537 L-1.09221165e-15,20.2397463 C6.95765074e-16,13.7021395 0.75402958,10.9586824 2.1699395,8.31116105 C3.58584942,5.66363969 5.66363969,3.58584942 8.31116105,2.1699395 C10.9586824,0.75402958 13.7021395,1.47464483e-15 20.2397463,-2.3148967e-15 Z" id="Base" fill="#8FB93B"></path><path d="M24.6006154,14 C25.1696923,14 25.6307692,14.4610769 25.6307692,15.0293231 C25.6307692,15.4746154 25.9132308,15.8783692 26.3402462,16.0054769 C26.8927077,16.1699692 27.4202462,16.3909538 27.9178769,16.6609538 C28.3108308,16.8744615 28.7976615,16.7913846 29.1125231,16.4748615 C29.5179385,16.0711077 30.1700923,16.0711077 30.5721846,16.4732 L31.4644308,17.3662769 C31.8673538,17.7683692 31.8673538,18.4205231 31.4644308,18.8226154 C31.1470769,19.1408 31.064,19.6276308 31.2766769,20.0197538 C31.5466769,20.5173846 31.7684923,21.0465846 31.9329846,21.5990462 C32.0592615,22.0244 32.4638462,22.3076923 32.9083077,22.3076923 C33.4773846,22.3076923 33.9384615,22.7687692 33.9384615,23.3370154 L33.9384615,24.6006154 C33.9384615,25.1696923 33.4773846,25.6307692 32.9083077,25.6307692 C32.4638462,25.6307692 32.0592615,25.9132308 31.9329846,26.3394154 C31.7684923,26.8918769 31.5466769,27.4202462 31.2766769,27.9178769 C31.064,28.31 31.1470769,28.7968308 31.4636,29.1133538 C31.8673538,29.5171077 31.8673538,30.1692615 31.4644308,30.5713538 L30.5721846,31.4652615 C30.1700923,31.8673538 29.5179385,31.8673538 29.1150154,31.4652615 C28.7976615,31.1470769 28.3108308,31.064 27.9178769,31.2766769 C27.4202462,31.5466769 26.8927077,31.7676615 26.3402462,31.9329846 C25.9132308,32.0600923 25.6307692,32.4638462 25.6307692,32.9083077 C25.6307692,33.4773846 25.1696923,33.9384615 24.6006154,33.9384615 L23.3378462,33.9384615 C22.7687692,33.9384615 22.3076923,33.4773846 22.3076923,32.9083077 C22.3076923,32.4638462 22.0252308,32.0600923 21.5982154,31.9329846 C21.0457538,31.7676615 20.5182154,31.5466769 20.0205846,31.2766769 C19.6276308,31.064 19.1408,31.1470769 18.8259385,31.4627692 C18.4205231,31.8673538 17.7683692,31.8673538 17.3662769,31.4652615 L16.4740308,30.5713538 C16.0711077,30.1692615 16.0711077,29.5171077 16.4740308,29.1150154 C16.7913846,28.7968308 16.8744615,28.31 16.6617846,27.9178769 C16.3917846,27.4202462 16.1699692,26.8918769 16.0054769,26.3394154 C15.8792,25.9132308 15.4746154,25.6307692 15.0301538,25.6307692 C14.4610769,25.6307692 14,25.1696923 14,24.6006154 L14,23.3370154 C14,22.7687692 14.4610769,22.3076923 15.0301538,22.3076923 C15.4746154,22.3076923 15.8792,22.0244 16.0054769,21.5990462 C16.1699692,21.0465846 16.3917846,20.5173846 16.6617846,20.0197538 C16.8744615,19.6276308 16.7913846,19.1408 16.4748615,18.8251077 C16.0711077,18.4205231 16.0711077,17.7683692 16.4740308,17.3662769 L17.3662769,16.4732 C17.7683692,16.0711077 18.4205231,16.0711077 18.8234462,16.4732 C19.1408,16.7913846 19.6276308,16.8744615 20.0205846,16.6609538 C20.5182154,16.3909538 21.0457538,16.1699692 21.5982154,16.0054769 C22.0252308,15.8783692 22.3076923,15.4746154 22.3076923,15.0293231 C22.3076923,14.4610769 22.7687692,14 23.3378462,14 L24.6006154,14 Z M23.9692308,22.3074431 C23.0520615,22.3074431 22.3076923,23.0518123 22.3076923,23.9689815 C22.3076923,24.8861508 23.0520615,25.63052 23.9692308,25.63052 C24.8864,25.63052 25.6307692,24.8861508 25.6307692,23.9689815 C25.6307692,23.0518123 24.8864,22.3074431 23.9692308,22.3074431 Z" id="Fill-1" fill="#FFFFFF"></path></g></g></g></svg>