<svg xmlns="http://www.w3.org/2000/svg" width="38" height="38.002" viewBox="0 0 38 38.002">
    <path data-name="Icon material-update" d="M42.5 19.532H28.188l5.785-5.954a14.861 14.861 0 0 0-20.859-.211 14.515 14.515 0 0 0 0 20.669 14.82 14.82 0 0 0 20.859 0 13.751 13.751 0 0 0 4.307-10.324h4.22a19.721 19.721 0 0 1-5.574 13.28 19.115 19.115 0 0 1-26.855 0 18.663 18.663 0 0 1-.042-26.56 18.974 18.974 0 0 1 26.707 0L42.5 4.5zm-17.944-4.476v8.973l7.389 4.391-1.52 2.555-9.036-5.363V15.056z" transform="translate(-4.502 -4.5)" style="fill:#ea5e68"/>
</svg>
