<svg xmlns="http://www.w3.org/2000/svg" width="48" height="48" viewBox="0 0 48 48">
    <g data-name="Group 1187">
        <path data-name="Rectangle 977" style="fill:none" d="M0 0h48v48H0z"/>
        <path data-name="Icon metro-flow-tree" d="M38.666 31.219v-4.7a7.074 7.074 0 0 0-7.074-7.074h-4.043a3.033 3.033 0 0 1-3.032-3.032v-4.7a4.851 4.851 0 1 0-4.043 0v4.7a3.033 3.033 0 0 1-3.032 3.032H13.4a7.074 7.074 0 0 0-7.074 7.074v4.7a4.851 4.851 0 1 0 4.043 0v-4.7a3.033 3.033 0 0 1 3.031-3.03h4.043a7 7 0 0 0 3.032-.707v8.437a4.851 4.851 0 1 0 4.043 0v-8.437a7 7 0 0 0 3.032.707h4.043a3.033 3.033 0 0 1 3.032 3.032v4.7a4.851 4.851 0 1 0 4.043 0zM22.5 4.519a2.8 2.8 0 1 1-2.8 2.8 2.8 2.8 0 0 1 2.8-2.8zM8.347 38.416a2.8 2.8 0 1 1 2.8-2.8 2.8 2.8 0 0 1-2.8 2.8zm14.149 0a2.8 2.8 0 1 1 2.8-2.8 2.8 2.8 0 0 1-2.8 2.8zm14.149 0a2.8 2.8 0 1 1 2.8-2.8 2.8 2.8 0 0 1-2.8 2.8z" transform="translate(1.504 2.532)" style="fill:#ee3442"/>
    </g>
</svg>
