<?xml version="1.0" encoding="UTF-8"?><svg id="Layer_2" xmlns="http://www.w3.org/2000/svg" width="48" height="48" viewBox="0 0 48 48"><g id="Layer_1-2"><g><path id="Base" d="M27.76,48h-7.521c-6.538,0-9.281-.754-11.929-2.17-2.648-1.416-4.725-3.494-6.141-6.141-1.416-2.648-2.17-5.391-2.17-11.929v-7.521c0-6.538,.754-9.281,2.17-11.929,1.416-2.648,3.494-4.725,6.141-6.141C10.959,.754,13.702,0,20.24,0h7.521c6.538,0,9.281,.754,11.929,2.17,2.648,1.416,4.725,3.494,6.141,6.141,1.416,2.648,2.17,5.391,2.17,11.929v7.521c0,6.538-.754,9.281-2.17,11.929-1.416,2.648-3.494,4.725-6.141,6.141-2.648,1.416-5.391,2.17-11.929,2.17Z" style="fill:#7292f7; fill-rule:evenodd;"/><g><path d="M19.648,26.832v.802c0,1.678,1.13,3.259,2.917,3.784,2.988,.878,5.799-1.114,5.799-3.679v-.93c0-1.206,.544-2.352,1.487-3.215,1.589-1.455,2.501-3.5,2.288-5.733-.326-3.409-3.406-6.231-7.217-6.6-4.93-.477-9.092,2.95-9.092,7.242,0,1.955,.854,3.725,2.251,5.034,.961,.9,1.567,2.053,1.567,3.296Z" style="fill:none; stroke:#fff; stroke-linecap:round; stroke-linejoin:round; stroke-width:1.5px;"/><line x1="21.115" y1="34.84" x2="26.344" y2="34.84" style="fill:none; stroke:#fff; stroke-linecap:round; stroke-linejoin:round;"/><line x1="21.115" y1="36.784" x2="26.344" y2="36.784" style="fill:none; stroke:#fff; stroke-linecap:round; stroke-linejoin:round;"/><path d="M24.652,16.728l-1.718,3.988-.433-.731,2.156,.651,.066,.02c.178,.053,.271,.254,.197,.424l-1.378,3.201,.719-3.41,.263,.444-2.242-.212c-.359-.03-.549-.406-.433-.731,.151-.718,.971-4.604,1.104-5.232l2.096,.665-.398,.923h0Z" style="fill:#fff;"/></g></g></g></svg>