<svg xmlns="http://www.w3.org/2000/svg" width="64" height="64" viewBox="0 0 64 64">
    <defs>
        <clipPath id="onln177cma">
            <path data-name="Rectangle 884" style="fill:none" d="M0 0h40v34.741H0z"/>
        </clipPath>
    </defs>
    <g data-name="Group 645">
        <path data-name="Rectangle 877" style="fill:none" d="M0 0h64v64H0z"/>
        <g data-name="Group 644">
            <g data-name="Group 643" transform="translate(12 15)" style="clip-path:url(#onln177cma)">
                <path data-name="Path 628" d="M33.429 32.886a1.206 1.206 0 0 1-.865-2.046l3.05-3.14a1.208 1.208 0 0 1-.544.129h-7.704c-3.434 0-6.6-2.425-8.914-6.833l-5.252-9.99c-1.851-3.524-4.323-5.544-6.78-5.544H1.206a1.206 1.206 0 0 1 0-2.412h5.217c3.435 0 6.6 2.427 8.916 6.833l5.248 9.989c1.849 3.524 4.321 5.542 6.779 5.542h7.705a1.224 1.224 0 0 1 .462.092l-3.033-3.12a1.207 1.207 0 1 1 1.732-1.681L40 26.644l-5.706 5.875a1.2 1.2 0 0 1-.865.367" transform="translate(0 1.855)" style="fill:#1d3557"/>
                <path data-name="Path 629" d="M22.521 17.44a1.19 1.19 0 0 1 .079.429 1.215 1.215 0 0 1-.114.511l.474-.489z" transform="translate(13.677 10.607)" style="fill:#1d3557"/>
                <path data-name="Path 630" d="M8.9 20.848H1.21a1.206 1.206 0 0 1 0-2.412H8.9c1.906 0 3.784-1.179 5.429-3.411a1.206 1.206 0 1 1 1.941 1.433c-2.12 2.872-4.669 4.39-7.371 4.39" transform="translate(.002 8.841)" style="fill:#e63946"/>
                <path data-name="Path 631" d="M13.289 16.116a1.175 1.175 0 0 1-.555-.137 1.206 1.206 0 0 1-.516-1.626l1.362-2.62c2.329-4.4 5.5-6.821 8.929-6.821h5.211a1.187 1.187 0 0 1 .24.024l-2.81-2.89A1.207 1.207 0 0 1 26.882.365L32.651 6.3l-5.708 5.876a1.206 1.206 0 0 1-1.73-1.681l4.075-4.2-.38-.391a1.226 1.226 0 0 1 .018.206 1.208 1.208 0 0 1-1.206 1.216h-5.211c-2.457 0-4.934 2.015-6.793 5.529l-1.357 2.612a1.2 1.2 0 0 1-1.069.65" transform="translate(7.349 -.001)" style="fill:#e63946"/>
            </g>
        </g>
    </g>
</svg>
