<svg data-name="Group 201" xmlns="http://www.w3.org/2000/svg" width="33.018" height="28.904" viewBox="0 0 33.018 28.904">
    <defs>
        <clipPath id="uzadrj8yea">
            <path data-name="Path 210" d="M22.717 6.048v17.705a4.983 4.983 0 0 0 .049.706 5.15 5.15 0 0 0 10.252-.706V11.2a5.165 5.165 0 0 0-5.15-5.15z" style="fill:none"/>
        </clipPath>
        <clipPath id="jfvfd4r9ub">
            <path data-name="Path 212" d="M0 5.192v12.555A5.166 5.166 0 0 0 5.151 22.9H10.3V5.192a5.15 5.15 0 1 0-10.3 0" style="fill:none"/>
        </clipPath>
        <clipPath id="5hemfx2klc">
            <path data-name="Path 262" d="M5.151 0v.041A5.146 5.146 0 0 1 10.3 5.192V22.9h-.04a6.34 6.34 0 0 0 6.332 6h11.276a5.169 5.169 0 0 1-5.1-4.445 5 5 0 0 1-.049-.707v-17.7h.044A6.279 6.279 0 0 0 16.488 0z" style="fill:none"/>
        </clipPath>
    </defs>
    <g data-name="Group 196">
        <g data-name="Group 195" style="clip-path:url(#uzadrj8yea)">
            <path data-name="Path 208" d="M22.717 6.048z" style="fill:#95dce9"/>
            <path data-name="Rectangle 365" transform="translate(22.717 6.048)" style="fill:#95dce9" d="M0 0h.468v22.856H0z"/>
            <path data-name="Rectangle 366" transform="translate(23.185 6.048)" style="fill:#94ddea" d="M0 0h.468v22.856H0z"/>
            <path data-name="Rectangle 367" transform="translate(23.653 6.048)" style="fill:#93ddeb" d="M0 0h.468v22.856H0z"/>
            <path data-name="Rectangle 368" transform="translate(24.122 6.048)" style="fill:#92deec" d="M0 0h.468v22.856H0z"/>
            <path data-name="Rectangle 369" transform="translate(24.59 6.048)" style="fill:#91deed" d="M0 0h.468v22.856H0z"/>
            <path data-name="Rectangle 370" transform="translate(25.058 6.048)" style="fill:#90dfee" d="M0 0h.468v22.856H0z"/>
            <path data-name="Rectangle 371" transform="translate(25.526 6.048)" style="fill:#8fdfef" d="M0 0h.468v22.856H0z"/>
            <path data-name="Rectangle 372" transform="translate(25.995 6.048)" style="fill:#8ee0f0" d="M0 0h.468v22.856H0z"/>
            <path data-name="Rectangle 373" transform="translate(26.463 6.048)" style="fill:#8de0f1" d="M0 0h.468v22.856H0z"/>
            <path data-name="Rectangle 374" transform="translate(26.931 6.048)" style="fill:#8ce1f2" d="M0 0h.468v22.856H0z"/>
            <path data-name="Rectangle 375" transform="translate(27.399 6.048)" style="fill:#8be1f3" d="M0 0h.468v22.856H0z"/>
            <path data-name="Rectangle 376" transform="translate(27.868 6.048)" style="fill:#8be2f5" d="M0 0h.468v22.856H0z"/>
            <path data-name="Rectangle 377" transform="translate(28.336 6.048)" style="fill:#8ae2f6" d="M0 0h.468v22.856H0z"/>
            <path data-name="Rectangle 378" transform="translate(28.804 6.048)" style="fill:#89e3f7" d="M0 0h.468v22.856H0z"/>
            <path data-name="Rectangle 379" transform="translate(29.273 6.048)" style="fill:#88e3f8" d="M0 0h.468v22.856H0z"/>
            <path data-name="Rectangle 380" transform="translate(29.741 6.048)" style="fill:#87e4f9" d="M0 0h.468v22.856H0z"/>
            <path data-name="Rectangle 381" transform="translate(30.209 6.048)" style="fill:#86e4fa" d="M0 0h.468v22.856H0z"/>
            <path data-name="Rectangle 382" transform="translate(30.677 6.048)" style="fill:#85e5fb" d="M0 0h.468v22.856H0z"/>
            <path data-name="Rectangle 383" transform="translate(31.146 6.048)" style="fill:#84e5fc" d="M0 0h.468v22.856H0z"/>
            <path data-name="Rectangle 384" transform="translate(31.614 6.048)" style="fill:#83e6fd" d="M0 0h.468v22.856H0z"/>
            <path data-name="Rectangle 385" transform="translate(32.082 6.048)" style="fill:#82e6fe" d="M0 0h.468v22.856H0z"/>
            <path data-name="Rectangle 386" transform="translate(32.55 6.048)" style="fill:#81e7ff" d="M0 0h.468v22.856H0z"/>
            <path data-name="Path 209" d="M33.018 28.9z" style="fill:#81e7ff"/>
        </g>
    </g>
    <g data-name="Group 198">
        <g data-name="Group 197" style="clip-path:url(#jfvfd4r9ub)">
            <path data-name="Rectangle 387" transform="translate(0 .041)" style="fill:#2161a8" d="M0 0h.251v22.856H0z"/>
            <path data-name="Rectangle 388" transform="translate(.252 .041)" style="fill:#2160a7" d="M0 0h.251v22.856H0z"/>
            <path data-name="Rectangle 389" transform="translate(.503 .041)" style="fill:#2160a6" d="M0 0h.251v22.856H0z"/>
            <path data-name="Rectangle 390" transform="translate(.754 .041)" style="fill:#215fa5" d="M0 0h.251v22.856H0z"/>
            <path data-name="Rectangle 391" transform="translate(1.005 .041)" style="fill:#215fa4" d="M0 0h.251v22.856H0z"/>
            <path data-name="Rectangle 392" transform="translate(1.257 .041)" style="fill:#215ea3" d="M0 0h.251v22.856H0z"/>
            <path data-name="Rectangle 393" transform="translate(1.508 .041)" style="fill:#215ea2" d="M0 0h.251v22.856H0z"/>
            <path data-name="Rectangle 394" transform="translate(1.759 .041)" style="fill:#215da1" d="M0 0h.251v22.856H0z"/>
            <path data-name="Rectangle 395" transform="translate(2.01 .041)" style="fill:#215ca0" d="M0 0h.251v22.856H0z"/>
            <path data-name="Rectangle 396" transform="translate(2.262 .041)" style="fill:#215c9f" d="M0 0h.251v22.856H0z"/>
            <path data-name="Rectangle 397" transform="translate(2.513 .041)" style="fill:#215b9e" d="M0 0h.251v22.856H0z"/>
            <path data-name="Rectangle 398" transform="translate(2.764 .041)" style="fill:#215b9d" d="M0 0h.251v22.856H0z"/>
            <path data-name="Rectangle 399" transform="translate(3.015 .041)" style="fill:#215a9c" d="M0 0h.251v22.856H0z"/>
            <path data-name="Rectangle 400" transform="translate(3.267 .041)" style="fill:#215a9b" d="M0 0h.251v22.856H0z"/>
            <path data-name="Rectangle 401" transform="translate(3.518 .041)" style="fill:#21599a" d="M0 0h.251v22.856H0z"/>
            <path data-name="Rectangle 402" transform="translate(3.769 .041)" style="fill:#215899" d="M0 0h.251v22.856H0z"/>
            <path data-name="Rectangle 403" transform="translate(4.02 .041)" style="fill:#215898" d="M0 0h.251v22.856H0z"/>
            <path data-name="Rectangle 404" transform="translate(4.272 .041)" style="fill:#215797" d="M0 0h.251v22.856H0z"/>
            <path data-name="Rectangle 405" transform="translate(4.523 .041)" style="fill:#215796" d="M0 0h.251v22.856H0z"/>
            <path data-name="Rectangle 406" transform="translate(4.774 .041)" style="fill:#215695" d="M0 0h.251v22.856H0z"/>
            <path data-name="Rectangle 407" transform="translate(5.025 .041)" style="fill:#215694" d="M0 0h.251v22.856H0z"/>
            <path data-name="Rectangle 408" transform="translate(5.277 .041)" style="fill:#205592" d="M0 0h.251v22.856H0z"/>
            <path data-name="Rectangle 409" transform="translate(5.528 .041)" style="fill:#205491" d="M0 0h.251v22.856H0z"/>
            <path data-name="Rectangle 410" transform="translate(5.779 .041)" style="fill:#205490" d="M0 0h.251v22.856H0z"/>
            <path data-name="Rectangle 411" transform="translate(6.031 .041)" style="fill:#20538f" d="M0 0h.251v22.856H0z"/>
            <path data-name="Rectangle 412" transform="translate(6.282 .041)" style="fill:#20538e" d="M0 0h.251v22.856H0z"/>
            <path data-name="Rectangle 413" transform="translate(6.533 .041)" style="fill:#20528d" d="M0 0h.251v22.856H0z"/>
            <path data-name="Rectangle 414" transform="translate(6.784 .041)" style="fill:#20518c" d="M0 0h.251v22.856H0z"/>
            <path data-name="Rectangle 415" transform="translate(7.036 .041)" style="fill:#20518b" d="M0 0h.251v22.856H0z"/>
            <path data-name="Rectangle 416" transform="translate(7.287 .041)" style="fill:#20508a" d="M0 0h.251v22.856H0z"/>
            <path data-name="Rectangle 417" transform="translate(7.538 .041)" style="fill:#205089" d="M0 0h.251v22.856H0z"/>
            <path data-name="Rectangle 418" transform="translate(7.789 .041)" style="fill:#204f88" d="M0 0h.251v22.856H0z"/>
            <path data-name="Rectangle 419" transform="translate(8.041 .041)" style="fill:#204f87" d="M0 0h.251v22.856H0z"/>
            <path data-name="Rectangle 420" transform="translate(8.292 .041)" style="fill:#204e86" d="M0 0h.251v22.856H0z"/>
            <path data-name="Rectangle 421" transform="translate(8.543 .041)" style="fill:#204d85" d="M0 0h.251v22.856H0z"/>
            <path data-name="Rectangle 422" transform="translate(8.794 .041)" style="fill:#204d84" d="M0 0h.251v22.856H0z"/>
            <path data-name="Rectangle 423" transform="translate(9.046 .041)" style="fill:#204c83" d="M0 0h.251v22.856H0z"/>
            <path data-name="Rectangle 424" transform="translate(9.297 .041)" style="fill:#204c82" d="M0 0h.251v22.856H0z"/>
            <path data-name="Rectangle 425" transform="translate(9.548 .041)" style="fill:#204b81" d="M0 0h.251v22.856H0z"/>
            <path data-name="Rectangle 426" transform="translate(9.799 .041)" style="fill:#204b80" d="M0 0h.251v22.856H0z"/>
            <path data-name="Rectangle 427" transform="translate(10.051 .041)" style="fill:#204a7f" d="M0 0h.251v22.856H0z"/>
            <path data-name="Path 211" d="M10.3 22.9z" style="fill:#204a7f"/>
        </g>
    </g>
    <g data-name="Group 200">
        <g data-name="Group 199" style="clip-path:url(#5hemfx2klc)">
            <path data-name="Path 213" d="M8.418 0 5.151 1.917V0z" style="fill:#3ac0f4"/>
            <path data-name="Path 214" d="M9.57 0 5.151 2.592v-.675L8.418 0z" style="fill:#3ac0f4"/>
            <path data-name="Path 215" d="M10.721 0 5.15 3.268v-.676L9.569 0z" style="fill:#39bff4"/>
            <path data-name="Path 216" d="M11.873 0 5.15 3.944v-.676L10.721 0z" style="fill:#38bef3"/>
            <path data-name="Path 217" d="M13.025 0 5.151 4.62v-.676L11.873 0z" style="fill:#37bef3"/>
            <path data-name="Path 218" d="M14.177 0 5.151 5.3v-.68L13.025 0z" style="fill:#36bdf3"/>
            <path data-name="Path 219" d="M15.329 0 5.151 5.971v-.676L14.177 0z" style="fill:#35bcf3"/>
            <path data-name="Path 220" d="M16.481 0 5.151 6.647v-.676L15.329 0z" style="fill:#34bbf2"/>
            <path data-name="Path 221" d="M17.632 0 5.15 7.323v-.676L16.48 0z" style="fill:#33bbf2"/>
            <path data-name="Path 222" d="M18.784 0 5.15 8v-.677L17.632 0z" style="fill:#32baf2"/>
            <path data-name="Path 223" d="M19.936 0 5.151 8.674V8l13.633-8z" style="fill:#31b9f2"/>
            <path data-name="Path 224" d="M21.088 0 5.151 9.35v-.676L19.936 0z" style="fill:#30b8f1"/>
            <path data-name="Path 225" d="m21.255 0 .252.43-16.356 9.6v-.68L21.088 0z" style="fill:#2fb8f1"/>
            <path data-name="Path 226" d="m21.507.43.295.5L5.151 10.7v-.675z" style="fill:#2eb7f1"/>
            <path data-name="Path 227" d="m21.8.933.295.5-16.944 9.944V10.7z" style="fill:#2db6f1"/>
            <path data-name="Path 228" d="m22.1 1.435.295.5L5.151 12.053v-.676z" style="fill:#2cb5f0"/>
            <path data-name="Path 229" d="m22.392 1.938.295.5L5.151 12.729v-.676z" style="fill:#2bb5f0"/>
            <path data-name="Path 230" d="m22.687 2.441.295.5L5.151 13.4v-.676z" style="fill:#2ab4f0"/>
            <path data-name="Path 231" d="m22.982 2.943.295.5L5.151 14.08v-.68z" style="fill:#29b3f0"/>
            <path data-name="Path 232" d="m23.277 3.446.295.5-18.421 10.81v-.676z" style="fill:#28b2ef"/>
            <path data-name="Path 233" d="m23.572 3.949.295.5L5.151 15.432v-.676z" style="fill:#27b1ef"/>
            <path data-name="Path 234" d="m23.867 4.452.295.5L5.151 16.108v-.676z" style="fill:#26b1ef"/>
            <path data-name="Path 235" d="m24.161 4.954.295.5L5.15 16.783v-.676z" style="fill:#25b0ef"/>
            <path data-name="Path 236" d="m24.456 5.457.295.5-19.6 11.5v-.676z" style="fill:#24afee"/>
            <path data-name="Path 237" d="m24.751 5.96.295.5L5.4 17.988l-.25-.425v-.1z" style="fill:#23aeee"/>
            <path data-name="Rectangle 428" transform="rotate(-30.391 35.812 -.947)" style="fill:#22aeee" d="M0 0h22.777v.583H0z"/>
            <path data-name="Rectangle 429" transform="rotate(-30.391 36.885 -1.237)" style="fill:#21adee" d="M0 0h22.777v.583H0z"/>
            <path data-name="Rectangle 430" transform="rotate(-30.391 37.956 -1.529)" style="fill:#20aced" d="M0 0h22.777v.583H0z"/>
            <path data-name="Rectangle 431" transform="rotate(-30.391 39.03 -1.82)" style="fill:#1fabed" d="M0 0h22.777v.583H0z"/>
            <path data-name="Rectangle 432" transform="rotate(-30.391 40.103 -2.112)" style="fill:#1dabed" d="M0 0h22.777v.583H0z"/>
            <path data-name="Rectangle 433" transform="rotate(-30.391 41.177 -2.404)" style="fill:#1caaed" d="M0 0h22.777v.583H0z"/>
            <path data-name="Rectangle 434" transform="rotate(-30.391 42.248 -2.696)" style="fill:#1ba9ec" d="M0 0h22.777v.583H0z"/>
            <path data-name="Rectangle 435" transform="rotate(-30.391 43.322 -2.987)" style="fill:#1aa8ec" d="M0 0h22.777v.583H0z"/>
            <path data-name="Rectangle 436" transform="rotate(-30.391 44.395 -3.279)" style="fill:#19a8ec" d="M0 0h22.777v.583H0z"/>
            <path data-name="Path 238" d="m27.7 10.987.167.284v.294L8.35 23.015l-.3-.5z" style="fill:#18a7ec"/>
            <path data-name="Path 239" d="M27.867 12.241 8.644 23.518l-.3-.5 19.523-11.453z" style="fill:#17a6eb"/>
            <path data-name="Path 240" d="M27.867 12.916 8.939 24.02l-.3-.5 19.228-11.28z" style="fill:#16a5eb"/>
            <path data-name="Path 241" d="M27.867 13.592 9.234 24.523l-.3-.5 18.933-11.107z" style="fill:#15a5eb"/>
            <path data-name="Path 242" d="M27.867 14.268 9.529 25.026l-.3-.5 18.638-10.934z" style="fill:#14a4eb"/>
            <path data-name="Path 243" d="M27.867 14.944 9.824 25.529l-.3-.5 18.343-10.761z" style="fill:#13a3ea"/>
            <path data-name="Path 244" d="M27.867 15.619 10.119 26.031l-.3-.5 18.048-10.588z" style="fill:#12a2ea"/>
            <path data-name="Path 245" d="M27.867 16.3 10.414 26.534l-.3-.5 17.753-10.415z" style="fill:#11a1ea"/>
            <path data-name="Path 246" d="M27.867 16.971 10.709 27.037l-.295-.5 17.453-10.242z" style="fill:#10a1ea"/>
            <path data-name="Path 247" d="M27.867 17.647 11 27.54l-.3-.5 17.167-10.069z" style="fill:#0fa0e9"/>
            <path data-name="Path 248" d="M27.867 18.322 11.3 28.042l-.3-.5 16.863-9.893z" style="fill:#0e9fe9"/>
            <path data-name="Path 249" d="m27.867 19-16.274 9.545-.294-.5 16.568-9.72z" style="fill:#0d9ee9"/>
            <path data-name="Path 250" d="M27.867 19.674 12.135 28.9H11.8l-.211-.358L27.867 19z" style="fill:#0c9ee9"/>
            <path data-name="Path 251" d="m27.867 20.35-14.58 8.55h-1.152l15.732-9.23z" style="fill:#0b9de8"/>
            <path data-name="Path 252" d="M27.867 21.025 14.439 28.9h-1.152l14.58-8.554z" style="fill:#0a9ce8"/>
            <path data-name="Path 253" d="m27.867 21.7-12.276 7.2h-1.152l13.428-7.878z" style="fill:#099be8"/>
            <path data-name="Path 254" d="M27.867 22.377 16.742 28.9h-1.151l12.276-7.2z" style="fill:#089be8"/>
            <path data-name="Path 255" d="M27.867 23.053 17.894 28.9h-1.152l11.125-6.527z" style="fill:#079ae7"/>
            <path data-name="Path 256" d="M27.867 23.728 19.046 28.9h-1.152l9.973-5.851z" style="fill:#0699e7"/>
            <path data-name="Path 257" d="M27.867 24.4 20.2 28.9h-1.154l8.821-5.175z" style="fill:#0598e7"/>
            <path data-name="Path 258" d="M27.867 25.08 21.35 28.9H20.2l7.669-4.5z" style="fill:#0498e7"/>
            <path data-name="Path 259" d="M27.867 25.756 22.5 28.9h-1.15l6.517-3.824z" style="fill:#0397e6"/>
            <path data-name="Path 260" d="M27.867 26.431 23.653 28.9H22.5l5.365-3.148z" style="fill:#0296e6"/>
            <path data-name="Path 261" d="m23.654 28.9 4.214-2.472V28.9z" style="fill:#0296e6"/>
        </g>
    </g>
</svg>
