<svg xmlns="http://www.w3.org/2000/svg" width="24" height="24" viewBox="0 0 24 24">
  <g id="Layer_2" data-name="Layer 2">
    <g id="Layer_1-2" data-name="Layer 1">
      <g>
        <g>
          <path d="M13,17.88l3.41,3.42L15,22.7l-3-3-3,3L7.59,21.3,11,17.88v-3.3a2.5,2.5,0,1,1,2,0Z" style="fill: #e63946"/>
          <path d="M19,12.3H17a5,5,0,1,0-10,0H5a7,7,0,0,1,14,0Z" style="fill: #e63946"/>
          <path d="M23,12.3H21a9,9,0,0,0-18,0H1a11,11,0,0,1,22,0Z" style="fill: #e63946"/>
          <path d="M12,1.3a11,11,0,0,0-11,11H3a9,9,0,0,1,18,0h2A11,11,0,0,0,12,1.3Zm1,16.58v-3.3a2.5,2.5,0,1,0-2,0v3.3L7.59,21.3,9,22.7l3-3,3,3,1.41-1.4ZM12,5.3a7,7,0,0,0-7,7H7a5,5,0,1,1,10,0h2A7,7,0,0,0,12,5.3Z" style="fill: #e63946"/>
        </g>
        <path d="M0,0H24V24H0Z" style="fill: none"/>
      </g>
    </g>
  </g>
</svg>
