<svg xmlns="http://www.w3.org/2000/svg" id="Layer_2" width="683.314" height="154.492" viewBox="0 0 683.314 154.492"><g id="Layer_1-2"><g><rect width="28.051" height="28.051" style="fill:#e34b23;"></rect><rect x="30.03" width="28.051" height="28.051" style="fill:#6dbb29;"></rect><rect y="29.971" width="28.051" height="28.051" style="fill:#589dd4;"></rect><rect x="30.03" y="29.971" width="28.051" height="28.051" style="fill:#f4bf01;"></rect><g><path d="M113.936,46.131h-5.264V25.432c0-1.695,.104-3.769,.312-6.223h-.089c-.327,1.398-.616,2.402-.869,3.011l-9.546,23.91h-3.658l-9.569-23.732c-.268-.699-.55-1.762-.848-3.19h-.089c.119,1.279,.179,3.368,.179,6.268v20.654h-4.907V14.146h7.471l8.409,21.301c.639,1.636,1.056,2.855,1.249,3.658h.112c.55-1.68,.996-2.929,1.338-3.747l8.565-21.212h7.205v31.985Z" style="fill:#b3b3b3;"></path><path d="M123.839,18.495c-.848,0-1.573-.275-2.175-.825-.602-.55-.904-1.249-.904-2.097s.302-1.554,.904-2.119c.602-.565,1.327-.847,2.175-.847,.877,0,1.62,.282,2.231,.847,.609,.565,.915,1.271,.915,2.119,0,.803-.306,1.491-.915,2.063-.61,.573-1.353,.859-2.231,.859Zm2.565,27.635h-5.175V23.291h5.175v22.84Z" style="fill:#b3b3b3;"></path><path d="M149.511,45.083c-1.828,1.056-3.993,1.584-6.491,1.584-3.39,0-6.126-1.059-8.208-3.178-2.082-2.119-3.123-4.866-3.123-8.241,0-3.762,1.119-6.784,3.357-9.067,2.238-2.282,5.231-3.424,8.978-3.424,2.081,0,3.918,.364,5.509,1.093v4.818c-1.591-1.19-3.286-1.785-5.085-1.785-2.186,0-3.978,.74-5.376,2.219-1.398,1.48-2.096,3.417-2.096,5.81,0,2.364,.658,4.231,1.974,5.599,1.317,1.368,3.082,2.052,5.298,2.052,1.859,0,3.613-.662,5.264-1.985v4.506Z" style="fill:#b3b3b3;"></path><path d="M167.889,28.22c-.624-.491-1.524-.736-2.699-.736-1.532,0-2.81,.691-3.837,2.074-1.025,1.383-1.539,3.264-1.539,5.643v10.929h-5.175V23.291h5.175v4.706h.089c.506-1.606,1.282-2.858,2.331-3.758,1.049-.9,2.219-1.35,3.513-1.35,.937,0,1.651,.142,2.141,.424v4.907Z" style="fill:#b3b3b3;"></path><path d="M181.273,46.666c-3.525,0-6.339-1.067-8.443-3.201-2.105-2.134-3.156-4.963-3.156-8.487,0-3.836,1.096-6.832,3.29-8.989,2.193-2.156,5.148-3.234,8.866-3.234,3.569,0,6.349,1.048,8.341,3.145,1.993,2.096,2.989,5.004,2.989,8.721,0,3.643-1.074,6.561-3.222,8.755-2.149,2.193-5.038,3.29-8.665,3.29Zm.245-19.784c-2.022,0-3.62,.707-4.795,2.119-1.175,1.413-1.762,3.36-1.762,5.844,0,2.394,.595,4.279,1.785,5.654,1.189,1.375,2.78,2.063,4.773,2.063,2.038,0,3.602-.677,4.696-2.03,1.092-1.353,1.64-3.279,1.64-5.777,0-2.513-.547-4.453-1.64-5.821-1.093-1.368-2.658-2.052-4.696-2.052Z" style="fill:#b3b3b3;"></path><path d="M196.998,45.417v-4.796c1.933,1.472,4.067,2.208,6.402,2.208,3.122,0,4.683-.922,4.683-2.766,0-.52-.134-.962-.401-1.327-.268-.364-.628-.688-1.082-.97-.454-.282-.989-.535-1.606-.758s-1.305-.476-2.063-.758c-.936-.372-1.781-.766-2.531-1.182-.751-.416-1.376-.888-1.874-1.417-.498-.528-.873-1.126-1.126-1.795s-.38-1.45-.38-2.342c0-1.1,.26-2.071,.781-2.911,.521-.84,1.219-1.546,2.096-2.119,.877-.572,1.874-1.004,2.989-1.293,1.116-.29,2.268-.435,3.458-.435,2.111,0,3.999,.32,5.665,.959v4.528c-1.606-1.1-3.45-1.651-5.532-1.651-.654,0-1.245,.067-1.773,.201s-.978,.32-1.349,.558c-.373,.238-.662,.524-.87,.859s-.313,.703-.313,1.104c0,.491,.105,.907,.313,1.249,.208,.342,.517,.643,.926,.903,.408,.26,.9,.498,1.472,.714,.572,.216,1.229,.45,1.974,.703,.982,.401,1.862,.81,2.643,1.227,.781,.417,1.446,.889,1.997,1.416,.549,.528,.974,1.138,1.271,1.829s.446,1.513,.446,2.465c0,1.16-.267,2.171-.803,3.033-.535,.862-1.249,1.576-2.141,2.141-.892,.565-1.922,.985-3.089,1.26-1.168,.275-2.397,.413-3.691,.413-2.498,0-4.661-.417-6.491-1.249Z" style="fill:#b3b3b3;"></path><path d="M228.247,46.666c-3.525,0-6.339-1.067-8.443-3.201-2.105-2.134-3.156-4.963-3.156-8.487,0-3.836,1.096-6.832,3.29-8.989,2.193-2.156,5.148-3.234,8.866-3.234,3.569,0,6.349,1.048,8.341,3.145,1.993,2.096,2.989,5.004,2.989,8.721,0,3.643-1.074,6.561-3.222,8.755-2.149,2.193-5.038,3.29-8.665,3.29Zm.245-19.784c-2.022,0-3.62,.707-4.795,2.119-1.175,1.413-1.762,3.36-1.762,5.844,0,2.394,.595,4.279,1.785,5.654,1.189,1.375,2.78,2.063,4.773,2.063,2.038,0,3.602-.677,4.696-2.03,1.092-1.353,1.64-3.279,1.64-5.777,0-2.513-.547-4.453-1.64-5.821-1.093-1.368-2.658-2.052-4.696-2.052Z" style="fill:#b3b3b3;"></path><path d="M257.554,16.533c-.7-.402-1.494-.602-2.387-.602-2.513,0-3.77,1.42-3.77,4.26v3.1h5.309v4.059h-5.286v18.78h-5.175V27.35h-3.903v-4.059h3.903v-3.703c0-2.409,.788-4.308,2.365-5.699,1.576-1.39,3.546-2.085,5.911-2.085,1.278,0,2.289,.141,3.034,.424v4.305Z" style="fill:#b3b3b3;"></path><path d="M273.28,45.885c-1.011,.505-2.342,.758-3.993,.758-4.431,0-6.647-2.126-6.647-6.379v-12.914h-3.813v-4.059h3.813v-5.286l5.175-1.472v6.758h5.465v4.059h-5.465v11.42c0,1.353,.246,2.32,.736,2.9,.491,.58,1.309,.87,2.454,.87,.877,0,1.636-.253,2.275-.758v4.104Z" style="fill:#b3b3b3;"></path></g><g><path d="M36.994,91.895h-14.783v45.778h-5.999v-45.778H1.464v-5.428H36.994v5.428Z" style="fill:#fff;"></path><path d="M65.539,120.854h-25.817c.094,4.071,1.19,7.213,3.285,9.427,2.094,2.214,4.975,3.321,8.641,3.321,4.119,0,7.904-1.357,11.356-4.071v5.499c-3.214,2.333-7.463,3.5-12.747,3.5-5.167,0-9.226-1.66-12.177-4.982-2.952-3.321-4.428-7.993-4.428-14.016,0-5.689,1.612-10.325,4.838-13.908,3.225-3.583,7.232-5.374,12.017-5.374s8.486,1.548,11.105,4.642c2.618,3.095,3.928,7.392,3.928,12.891v3.071Zm-5.999-4.964c-.023-3.38-.839-6.011-2.446-7.892-1.607-1.88-3.839-2.821-6.696-2.821-2.761,0-5.106,.988-7.035,2.964-1.928,1.976-3.119,4.559-3.571,7.749h19.747Z" style="fill:#fff;"></path><path d="M98.369,135.995c-2.809,1.69-6.142,2.535-9.998,2.535-5.214,0-9.422-1.696-12.624-5.089-3.202-3.392-4.802-7.79-4.802-13.194,0-6.022,1.725-10.861,5.177-14.516,3.452-3.654,8.058-5.481,13.82-5.481,3.214,0,6.047,.595,8.499,1.785v5.999c-2.714-1.904-5.618-2.857-8.713-2.857-3.737,0-6.802,1.339-9.195,4.017-2.392,2.678-3.589,6.195-3.589,10.552,0,4.285,1.125,7.666,3.375,10.141,2.25,2.476,5.267,3.714,9.052,3.714,3.19,0,6.19-1.059,8.999-3.178v5.571Z" style="fill:#fff;"></path><path d="M136.626,137.673h-5.856v-21.068c0-7.618-2.834-11.427-8.499-11.427-2.857,0-5.262,1.101-7.213,3.303-1.952,2.202-2.928,5.029-2.928,8.481v20.711h-5.856v-54.134h5.856v23.639h.142c2.809-4.618,6.808-6.927,11.998-6.927,8.237,0,12.356,4.963,12.356,14.89v22.532Z" style="fill:#fff;"></path><path d="M183.859,88.681c-1.143-.643-2.441-.964-3.892-.964-4.095,0-6.142,2.583-6.142,7.749v5.642h8.571v4.999h-8.571v31.566h-5.82v-31.566h-6.249v-4.999h6.249v-5.928c0-3.833,1.108-6.862,3.321-9.088,2.214-2.226,4.976-3.339,8.284-3.339,1.786,0,3.202,.214,4.25,.643v5.285Z" style="fill:#fff;"></path><path d="M203.012,138.53c-5.404,0-9.719-1.708-12.944-5.124-3.225-3.416-4.838-7.945-4.838-13.587,0-6.142,1.678-10.939,5.035-14.391,3.356-3.451,7.892-5.178,13.604-5.178,5.452,0,9.707,1.678,12.766,5.035,3.059,3.356,4.589,8.011,4.589,13.962,0,5.833-1.649,10.504-4.945,14.016-3.298,3.512-7.72,5.267-13.266,5.267Zm.428-33.352c-3.762,0-6.737,1.28-8.927,3.839-2.19,2.559-3.285,6.088-3.285,10.588,0,4.333,1.108,7.749,3.321,10.248,2.214,2.5,5.178,3.75,8.892,3.75,3.786,0,6.696-1.226,8.731-3.678,2.036-2.452,3.053-5.939,3.053-10.463,0-4.571-1.017-8.094-3.053-10.57-2.036-2.476-4.945-3.714-8.731-3.714Z" style="fill:#fff;"></path><path d="M248.696,107.035c-1.023-.786-2.5-1.178-4.428-1.178-2.5,0-4.588,1.178-6.267,3.535-1.678,2.357-2.517,5.57-2.517,9.641v18.64h-5.856v-36.566h5.856v7.534h.142c.834-2.571,2.108-4.576,3.821-6.017,1.714-1.44,3.63-2.16,5.749-2.16,1.523,0,2.689,.167,3.499,.5v6.07Z" style="fill:#fff;"></path><path d="M271.577,135.602v-7.07c.809,.714,1.779,1.357,2.91,1.928s2.322,1.053,3.572,1.446c1.25,.393,2.505,.696,3.767,.91,1.262,.214,2.428,.322,3.5,.322,3.689,0,6.446-.684,8.266-2.053,1.821-1.369,2.732-3.339,2.732-5.91,0-1.38-.304-2.583-.911-3.606-.607-1.023-1.446-1.958-2.517-2.803-1.072-.845-2.339-1.654-3.803-2.428-1.464-.773-3.042-1.589-4.732-2.446-1.785-.905-3.452-1.821-4.999-2.75-1.547-.928-2.892-1.952-4.035-3.071-1.143-1.119-2.042-2.386-2.697-3.803-.655-1.416-.982-3.076-.982-4.981,0-2.333,.512-4.362,1.536-6.088,1.022-1.726,2.368-3.148,4.035-4.267,1.666-1.119,3.565-1.952,5.696-2.5,2.13-.547,4.303-.821,6.517-.821,5.047,0,8.724,.607,11.034,1.821v6.749c-3.023-2.095-6.904-3.142-11.641-3.142-1.31,0-2.619,.137-3.928,.411-1.31,.274-2.476,.72-3.5,1.339-1.023,.619-1.857,1.417-2.5,2.392-.643,.976-.964,2.167-.964,3.571,0,1.309,.245,2.44,.732,3.392,.488,.952,1.208,1.821,2.16,2.607s2.113,1.548,3.482,2.285c1.369,.738,2.945,1.548,4.731,2.428,1.833,.905,3.571,1.857,5.213,2.857,1.643,1,3.082,2.107,4.321,3.321,1.238,1.214,2.219,2.559,2.946,4.035,.726,1.476,1.088,3.166,1.088,5.071,0,2.524-.494,4.66-1.481,6.41-.989,1.75-2.321,3.173-4,4.267-1.678,1.095-3.612,1.887-5.802,2.374-2.191,.488-4.5,.732-6.927,.732-.81,0-1.81-.066-3-.196-1.191-.131-2.404-.321-3.642-.571-1.239-.25-2.411-.559-3.518-.928-1.107-.369-1.994-.779-2.66-1.232Z" style="fill:#fff;"></path><path d="M326.367,138.53c-5.404,0-9.719-1.708-12.944-5.124-3.225-3.416-4.838-7.945-4.838-13.587,0-6.142,1.678-10.939,5.035-14.391,3.356-3.451,7.892-5.178,13.604-5.178,5.452,0,9.707,1.678,12.766,5.035,3.059,3.356,4.589,8.011,4.589,13.962,0,5.833-1.649,10.504-4.945,14.016-3.298,3.512-7.72,5.267-13.266,5.267Zm.428-33.352c-3.762,0-6.737,1.28-8.927,3.839-2.19,2.559-3.285,6.088-3.285,10.588,0,4.333,1.108,7.749,3.321,10.248,2.214,2.5,5.178,3.75,8.892,3.75,3.786,0,6.696-1.226,8.731-3.678,2.036-2.452,3.053-5.939,3.053-10.463,0-4.571-1.017-8.094-3.053-10.57-2.036-2.476-4.945-3.714-8.731-3.714Z" style="fill:#fff;"></path><path d="M377.908,135.995c-2.809,1.69-6.142,2.535-9.998,2.535-5.214,0-9.422-1.696-12.624-5.089-3.202-3.392-4.802-7.79-4.802-13.194,0-6.022,1.725-10.861,5.177-14.516,3.452-3.654,8.058-5.481,13.82-5.481,3.214,0,6.047,.595,8.499,1.785v5.999c-2.714-1.904-5.618-2.857-8.713-2.857-3.737,0-6.802,1.339-9.195,4.017-2.392,2.678-3.589,6.195-3.589,10.552,0,4.285,1.125,7.666,3.375,10.141,2.25,2.476,5.267,3.714,9.052,3.714,3.19,0,6.19-1.059,8.999-3.178v5.571Z" style="fill:#fff;"></path><path d="M388.813,91.823c-1.048,0-1.94-.357-2.678-1.071-.738-.714-1.107-1.619-1.107-2.714s.369-2.005,1.107-2.732c.738-.726,1.63-1.089,2.678-1.089,1.071,0,1.982,.363,2.732,1.089,.749,.727,1.125,1.637,1.125,2.732,0,1.048-.376,1.941-1.125,2.678-.75,.738-1.661,1.107-2.732,1.107Zm2.857,45.85h-5.856v-36.566h5.856v36.566Z" style="fill:#fff;"></path><path d="M428.748,137.673h-5.856v-5.713h-.142c-2.548,4.38-6.299,6.57-11.249,6.57-3.643,0-6.494-.964-8.552-2.892s-3.088-4.487-3.088-7.677c0-6.832,4.022-10.807,12.069-11.927l10.963-1.536c0-6.213-2.512-9.32-7.535-9.32-4.404,0-8.38,1.5-11.925,4.499v-5.999c3.594-2.285,7.736-3.428,12.427-3.428,8.593,0,12.89,4.547,12.89,13.641v23.782Zm-5.856-18.497l-8.821,1.214c-2.713,.381-4.762,1.053-6.142,2.018-1.381,.964-2.071,2.672-2.071,5.124,0,1.786,.638,3.244,1.911,4.374,1.273,1.131,2.971,1.696,5.088,1.696,2.906,0,5.304-1.018,7.196-3.053,1.892-2.036,2.839-4.612,2.839-7.731v-3.642Z" style="fill:#fff;"></path><path d="M444.687,137.673h-5.856v-54.134h5.856v54.134Z" style="fill:#fff;"></path><path d="M481.458,137.673h-5.998v-51.206h5.998v51.206Z" style="fill:#fff;"></path><path d="M545.104,137.673h-5.856v-20.997c0-4.047-.625-6.975-1.874-8.784-1.251-1.809-3.352-2.714-6.303-2.714-2.5,0-4.625,1.143-6.374,3.428-1.75,2.285-2.625,5.023-2.625,8.213v20.854h-5.856v-21.711c0-7.189-2.774-10.784-8.321-10.784-2.571,0-4.688,1.077-6.355,3.232-1.667,2.155-2.5,4.958-2.5,8.409v20.854h-5.856v-36.566h5.856v5.785h.142c2.595-4.428,6.38-6.642,11.357-6.642,2.5,0,4.678,.696,6.534,2.089,1.858,1.393,3.131,3.22,3.821,5.481,2.713-5.047,6.76-7.57,12.14-7.57,8.047,0,12.069,4.963,12.069,14.89v22.532Z" style="fill:#fff;"></path><path d="M561.222,132.388h-.142v22.104h-5.856v-53.384h5.856v6.428h.142c2.879-4.856,7.095-7.284,12.64-7.284,4.715,0,8.392,1.637,11.036,4.91,2.642,3.273,3.964,7.66,3.964,13.159,0,6.118-1.488,11.016-4.465,14.694-2.975,3.678-7.046,5.517-12.211,5.517-4.737,0-8.392-2.047-10.963-6.142Zm-.142-14.748v5.106c0,3.024,.981,5.588,2.944,7.695,1.966,2.107,4.459,3.16,7.482,3.16,3.547,0,6.325-1.357,8.337-4.071s3.017-6.487,3.017-11.32c0-4.071-.94-7.261-2.82-9.57-1.88-2.309-4.429-3.464-7.643-3.464-3.403,0-6.14,1.184-8.211,3.553-2.071,2.369-3.107,5.338-3.107,8.909Z" style="fill:#fff;"></path><path d="M623.441,137.673h-5.858v-5.713h-.142c-2.548,4.38-6.297,6.57-11.247,6.57-3.643,0-6.494-.964-8.552-2.892-2.061-1.928-3.09-4.487-3.09-7.677,0-6.832,4.024-10.807,12.071-11.927l10.961-1.536c0-6.213-2.512-9.32-7.533-9.32-4.404,0-8.38,1.5-11.927,4.499v-5.999c3.594-2.285,7.736-3.428,12.427-3.428,8.593,0,12.892,4.547,12.892,13.641v23.782Zm-5.858-18.497l-8.818,1.214c-2.715,.381-4.762,1.053-6.142,2.018-1.381,.964-2.071,2.672-2.071,5.124,0,1.786,.636,3.244,1.911,4.374,1.273,1.131,2.969,1.696,5.088,1.696,2.904,0,5.302-1.018,7.194-3.053,1.892-2.036,2.839-4.612,2.839-7.731v-3.642Z" style="fill:#fff;"></path><path d="M658.449,135.995c-2.81,1.69-6.142,2.535-9.998,2.535-5.214,0-9.422-1.696-12.624-5.089-3.202-3.392-4.802-7.79-4.802-13.194,0-6.022,1.724-10.861,5.176-14.516,3.452-3.654,8.059-5.481,13.82-5.481,3.214,0,6.047,.595,8.5,1.785v5.999c-2.715-1.904-5.618-2.857-8.713-2.857-3.738,0-6.802,1.339-9.196,4.017-2.392,2.678-3.588,6.195-3.588,10.552,0,4.285,1.125,7.666,3.375,10.141,2.25,2.476,5.267,3.714,9.052,3.714,3.19,0,6.189-1.059,8.999-3.178v5.571Z" style="fill:#fff;"></path><path d="M683.314,137.316c-1.381,.762-3.202,1.143-5.464,1.143-6.404,0-9.604-3.571-9.604-10.712v-21.64h-6.286v-4.999h6.286v-8.927l5.856-1.893v10.82h9.212v4.999h-9.212v20.604c0,2.452,.416,4.202,1.249,5.249,.833,1.048,2.215,1.571,4.142,1.571,1.476,0,2.749-.405,3.821-1.214v4.999Z" style="fill:#fff;"></path></g></g></g></svg>