<svg xmlns="http://www.w3.org/2000/svg" id="Layer_1" data-name="Layer 1" width="48" height="48" viewBox="0 0 48 48"><path id="Base" d="M20.24,0h7.52C34.3,0,37.041.754,39.689,2.17A14.768,14.768,0,0,1,45.83,8.311C47.246,10.959,48,13.7,48,20.24v7.52c0,6.538-.754,9.281-2.17,11.929a14.768,14.768,0,0,1-6.141,6.141C37.041,47.246,34.3,48,27.76,48H20.24c-6.538,0-9.281-.754-11.929-2.17A14.768,14.768,0,0,1,2.17,39.689C.754,37.041,0,34.3,0,27.76V20.24C0,13.7.754,10.959,2.17,8.311A14.768,14.768,0,0,1,8.311,2.17C10.959.754,13.7,0,20.24,0Z" style="fill: #eaa743;fill-rule: evenodd"></path><path d="M24.24,13.72a9.5,9.5,0,0,0,0,19,8.47,8.47,0,0,0,1.68-.16,5.1,5.1,0,0,1-.71-2.61,5.239,5.239,0,0,1,5.24-5.24,5.308,5.308,0,0,1,2.98.92,9.154,9.154,0,0,0,.31-2.41A9.5,9.5,0,0,0,24.24,13.72Zm4.21,9.62h-4.5a.479.479,0,0,1-.39-.19.413.413,0,0,1-.07-.11.43.43,0,0,1-.07-.25v-6a.5.5,0,0,1,1,0v5.55h4.03a.5.5,0,0,1,0,1Zm3.89,8.37a1.919,1.919,0,0,1-.62,1.549,2.42,2.42,0,0,1-1.623.526h-.01l-.147,1.161a2.61,2.61,0,0,1-.728-.069l.137-1.141a11.26,11.26,0,0,1-1.219-.206l-.2-.04.128-1.023q.777.108,1.436.148l.217-1.712a3.36,3.36,0,0,1-1.436-.738,1.61,1.61,0,0,1-.424-1.18,1.755,1.755,0,0,1,.591-1.451,2.512,2.512,0,0,1,1.623-.477H30.2l.176-1.357H31.1l-.178,1.416q.61.059,1.122.158l.167.039L32.1,28.355c-.479-.052-.92-.091-1.327-.117l-.2,1.583a3.416,3.416,0,0,1,1.393.713A1.658,1.658,0,0,1,32.34,31.71ZM29.163,28.9a.522.522,0,0,0,.147.384,1.7,1.7,0,0,0,.571.3l.166-1.367Q29.164,28.257,29.163,28.9Zm1.869,2.9a.573.573,0,0,0-.133-.388,1.255,1.255,0,0,0-.477-.291l-.187,1.505A.77.77,0,0,0,31.032,31.8Z" style="fill: #fff"></path></svg>