<?xml version="1.0" encoding="UTF-8"?><svg id="Layer_2" xmlns="http://www.w3.org/2000/svg" width="48" height="48" viewBox="0 0 48 48"><g id="Layer_1-2"><g><path id="Base" d="M20.24,0h7.521c6.538,0,9.281,.754,11.929,2.17,2.648,1.416,4.725,3.494,6.141,6.141,1.416,2.648,2.17,5.391,2.17,11.929v7.521c0,6.538-.754,9.281-2.17,11.929-1.416,2.648-3.494,4.725-6.141,6.141-2.648,1.416-5.391,2.17-11.929,2.17h-7.521c-6.538,0-9.281-.754-11.929-2.17-2.648-1.416-4.725-3.494-6.141-6.141-1.416-2.648-2.17-5.391-2.17-11.929v-7.521c0-6.538,.754-9.281,2.17-11.929,1.416-2.648,3.494-4.725,6.141-6.141C10.959,.754,13.702,0,20.24,0Z" style="fill:#a68ace; fill-rule:evenodd;"/><g><path d="M30.927,17.904c0,3.314-2.686,6-6,6s-6-2.686-6-6,2.686-6,6-6,6,2.686,6,6Zm3.93,8.479c-2.41-1.65-5.33-2.61-8.47-2.61-.08,0-.15,0-.23,.01-.01-.01-.02,0-.02,0-.53,0-1.05,.04-1.56,.1h-.01c-5.77,.69-10.53,4.66-12.38,10" style="fill:none; stroke:#fff; stroke-linecap:round; stroke-miterlimit:10; stroke-width:2px;"/><polygon points="29.051 29.474 30.667 26.247 32.245 29.493 35.813 30.033 33.214 32.536 33.802 36.096 30.618 34.398 27.414 36.058 28.046 32.505 25.477 29.971 29.051 29.474" style="fill:#fff;"/></g></g></g></svg>