<svg xmlns="http://www.w3.org/2000/svg" width="188" height="188" viewBox="0 0 188 188">
    <defs>
        <clipPath id="mizhxab0nb">
            <path data-name="Rectangle 1410" style="fill:none" d="M0 0h56.944v28.253H0z"/>
        </clipPath>
        <filter id="x6bmb4g4sa" x="0" y="0" width="188" height="188" filterUnits="userSpaceOnUse">
            <feOffset dy="15"/>
            <feGaussianBlur stdDeviation="15" result="blur"/>
            <feFlood flood-color="#165cc4" flood-opacity=".161"/>
            <feComposite operator="in" in2="blur"/>
            <feComposite in="SourceGraphic"/>
        </filter>
    </defs>
    <g data-name="Group 1202">
        <g style="filter:url(#x6bmb4g4sa)">
            <rect data-name="Rectangle 1409" width="98" height="98" rx="10" transform="translate(45 30)" style="fill:#fff"/>
        </g>
        <g data-name="Group 1201">
            <g data-name="Group 1200" style="clip-path:url(#mizhxab0nb)" transform="translate(66 65)">
                <path data-name="Path 1045" d="M13.017 28.253a13.017 13.017 0 1 1 13.017-13.016 13.032 13.032 0 0 1-13.017 13.016m0-23.033a10.017 10.017 0 1 0 10.017 10.017A10.028 10.028 0 0 0 13.017 5.22" style="fill:#e63946"/>
                <path data-name="Path 1046" d="M13.017 22.412a7.176 7.176 0 1 1 7.176-7.176 7.183 7.183 0 0 1-7.176 7.176m0-11.352a4.176 4.176 0 1 0 4.176 4.176 4.18 4.18 0 0 0-4.176-4.176" style="fill:#1d3557"/>
                <path data-name="Path 1047" d="M43.685 22.412a7.176 7.176 0 1 1 7.176-7.176 7.183 7.183 0 0 1-7.176 7.176m0-11.352a4.176 4.176 0 1 0 4.176 4.176 4.18 4.18 0 0 0-4.176-4.176" style="fill:#1d3557"/>
                <path data-name="Path 1048" d="M43.927 28.253a13.017 13.017 0 1 1 13.017-13.016 13.032 13.032 0 0 1-13.017 13.016m0-23.033a10.017 10.017 0 1 0 10.017 10.017A10.028 10.028 0 0 0 43.927 5.22" style="fill:#e63946"/>
                <path data-name="Path 1049" d="M36.919 6.591a12.266 12.266 0 0 0-17.324 0L17.474 4.47a15.241 15.241 0 0 1 21.566 0z" style="fill:#e63946"/>
                <path data-name="Path 1050" d="M32.6 21.491a6.016 6.016 0 0 0-8.5 0l-2.119-2.121a9.018 9.018 0 0 1 12.739 0z" style="fill:#e63946"/>
                <path data-name="Path 1051" d="M28.257 9.928a2.774 2.774 0 1 1 2.774-2.774 2.776 2.776 0 0 1-2.774 2.774m0-4.547a1.774 1.774 0 1 0 1.774 1.773 1.775 1.775 0 0 0-1.774-1.773" style="fill:#e63946"/>
            </g>
        </g>
    </g>
</svg>
